<svg width="24" height="25" viewBox="0 0 24 25" fill="none" xmlns="http://www.w3.org/2000/svg">
<g filter="url(#filter0_b_1100_65499)">
<circle cx="12" cy="12.9219" r="12" fill="black" fill-opacity="0.52"/>
</g>
<path d="M13.1596 9.80637C13.1595 9.73318 13.1387 9.6615 13.0997 9.59958C13.0607 9.53766 13.005 9.488 12.939 9.45631C12.8731 9.42463 12.7995 9.4122 12.7268 9.42045C12.654 9.42871 12.5851 9.45731 12.5279 9.50298L10.6898 10.9732H8.88114C8.77798 10.9732 8.67905 11.0142 8.60611 11.0871C8.53317 11.1601 8.49219 11.259 8.49219 11.3622V14.4738C8.49219 14.5769 8.53317 14.6759 8.60611 14.7488C8.67905 14.8217 8.77798 14.8627 8.88114 14.8627H10.6898L12.5279 16.333C12.5851 16.3786 12.654 16.4072 12.7268 16.4155C12.7995 16.4237 12.8731 16.4113 12.939 16.3796C13.005 16.3479 13.0607 16.2983 13.0997 16.2364C13.1387 16.1744 13.1595 16.1028 13.1596 16.0296V9.80637ZM15.5127 12.918C15.5133 13.3778 15.4231 13.8331 15.2471 14.2579C15.0712 14.6827 14.813 15.0685 14.4875 15.3932L13.9375 14.8433C14.1907 14.5907 14.3915 14.2906 14.5283 13.9602C14.6651 13.6298 14.7353 13.2756 14.7348 12.918C14.7353 12.5604 14.6651 12.2062 14.5283 11.8758C14.3914 11.5454 14.1907 11.2453 13.9375 10.9927L14.4875 10.4427C14.813 10.7674 15.0712 11.1532 15.2471 11.578C15.4231 12.0028 15.5133 12.4582 15.5127 12.918Z" fill="white"/>
<defs>
<filter id="filter0_b_1100_65499" x="-20" y="-19.0781" width="64" height="64" filterUnits="userSpaceOnUse" color-interpolation-filters="sRGB">
<feFlood flood-opacity="0" result="BackgroundImageFix"/>
<feGaussianBlur in="BackgroundImageFix" stdDeviation="10"/>
<feComposite in2="SourceAlpha" operator="in" result="effect1_backgroundBlur_1100_65499"/>
<feBlend mode="normal" in="SourceGraphic" in2="effect1_backgroundBlur_1100_65499" result="shape"/>
</filter>
</defs>
</svg>
