<svg width="1080" height="668" viewBox="0 0 1080 668" fill="none" xmlns="http://www.w3.org/2000/svg">
<path d="M1070 634L1080 617.592C1080 597.767 1062.04 581.998 1040.66 583.05L540 607.577V633.408C540 653.233 557.961 669.002 579.343 667.95L1070 634Z" fill="#304880"/>
<path d="M546 78.93V49.139C546 23.2693 521.039 -1.30754 499.657 0.0648804L248.328 15.0675L6 36.07V65.861C6 91.7306 23.9606 112.307 45.3431 110.935L546 78.93Z" fill="#304880"/>
<rect x="1.5" y="31.5" width="1077" height="605" rx="18.5" fill="white" stroke="#F4F6F9" stroke-width="3"/>
<rect x="32" y="62" width="1018" height="548" rx="20" fill="#F4F6F9"/>
<path d="M84 504L88.2426 519.757L104 524L88.2426 528.243L84 544L79.7574 528.243L64 524L79.7574 519.757L84 504Z" fill="#304880"/>
<path opacity="0.8" d="M1050 104L766 104C736.177 104 712 128.177 712 158V158" stroke="#333399" stroke-width="2.5"/>
<path d="M32 576H286C320.794 576 349 547.794 349 513V513" stroke="#304880" stroke-width="2.5"/>
<path d="M998 128L1002.24 143.757L1018 148L1002.24 152.243L998 168L993.757 152.243L978 148L993.757 143.757L998 128Z" fill="#304880"/>
</svg>
