<svg width="266" height="166" viewBox="0 0 266 166" fill="none" xmlns="http://www.w3.org/2000/svg">
<path d="M92.0681 9.64995C92.0681 13.8274 98.7639 17.214 94.1045 17.214C89.4451 17.214 85.668 13.8274 85.668 9.64995C85.668 5.47246 89.4451 2.08594 94.1045 2.08594C98.7639 2.08594 92.0681 5.47246 92.0681 9.64995Z" fill="#EEB931"/>
<path d="M158.23 6L159.362 9.4844H163.026L160.062 11.6379L161.194 15.1223L158.23 12.9688L155.266 15.1223L156.398 11.6379L153.434 9.4844H157.098L158.23 6Z" fill="#EEB931"/>
<path d="M34.378 79.6565C34.378 79.6565 45.126 74.3032 47.5643 77.1091C48.9038 78.6505 49.9154 80.5176 48.7157 82.0345C47.7909 83.2038 46.4558 83.3529 44.8914 83.0781C41.5786 82.4963 41.6288 77.8959 42.9586 75.0467C44.7947 71.1129 54.5412 73.4348 54.5412 73.4348" stroke="#14B8A6" stroke-width="2.01707"/>
<circle cx="229.219" cy="74.2894" r="5.88312" fill="#14B8A6"/>
<path d="M56.0469 135.992L56.884 128.772L62.7194 132.472L63.3846 126.415L68.7074 130.082L70.3651 123.534" stroke="#333399" stroke-width="1.68089"/>
<path d="M193.302 21.9291C193.302 21.9291 192.484 17.0683 194.832 16.0995C196.805 15.2856 198.515 18.885 200.136 17.58C201.778 16.2582 197.679 14.1642 199.014 12.5833C200.419 10.9194 204.93 12.5833 204.93 12.5833" stroke="#333399" stroke-width="2.01707"/>
<path d="M32.9577 14.6311L54.564 25.3874L49.1638 32.7516L32.9577 14.6311Z" fill="#333399"/>
<circle cx="224.346" cy="94.3104" r="2.52134" fill="#14B8A6"/>
<path d="M200.116 127.502C202.887 127.781 205.581 123.565 205.27 126.656C204.959 129.747 202.46 132.026 199.689 131.747C196.918 131.468 194.924 128.737 195.235 125.646C195.546 122.555 197.345 127.223 200.116 127.502Z" fill="#333399"/>
<path d="M209.108 38.9922L210.994 44.7995H217.101L212.161 48.3887L214.048 54.196L209.108 50.6069L204.168 54.196L206.054 48.3887L201.114 44.7995H207.221L209.108 38.9922Z" fill="#14B8A6"/>
<rect x="82.8008" y="25.8203" width="100" height="100" rx="50" fill="#14B8A6"/>
<g filter="url(#filter0_d_1108_107132)">
<rect x="102.801" y="45.8203" width="60" height="60" rx="30" fill="white" shape-rendering="crispEdges"/>
<path d="M128.068 81.6465L123.083 76.6612C122.561 76.1391 121.714 76.1391 121.192 76.6612C120.67 77.1833 120.67 78.0297 121.192 78.5518L127.091 84.4508C127.36 84.7198 127.716 84.8502 128.068 84.8419C128.421 84.8502 128.776 84.7199 129.045 84.4508L144.409 69.0869C144.931 68.5648 144.931 67.7183 144.409 67.1962C143.887 66.6742 143.041 66.6742 142.519 67.1962L128.068 81.6465Z" fill="#14B8A6"/>
</g>
<defs>
<filter id="filter0_d_1108_107132" x="62.8008" y="25.8203" width="140" height="140" filterUnits="userSpaceOnUse" color-interpolation-filters="sRGB">
<feFlood flood-opacity="0" result="BackgroundImageFix"/>
<feColorMatrix in="SourceAlpha" type="matrix" values="0 0 0 0 0 0 0 0 0 0 0 0 0 0 0 0 0 0 127 0" result="hardAlpha"/>
<feOffset dy="20"/>
<feGaussianBlur stdDeviation="20"/>
<feComposite in2="hardAlpha" operator="out"/>
<feColorMatrix type="matrix" values="0 0 0 0 0 0 0 0 0 0 0 0 0 0 0 0 0 0 0.3 0"/>
<feBlend mode="normal" in2="BackgroundImageFix" result="effect1_dropShadow_1108_107132"/>
<feBlend mode="normal" in="SourceGraphic" in2="effect1_dropShadow_1108_107132" result="shape"/>
</filter>
</defs>
</svg>
