<svg width="20" height="20" viewBox="0 0 20 20" fill="none" xmlns="http://www.w3.org/2000/svg">
<path fill-rule="evenodd" clip-rule="evenodd" d="M2.78933 14.8047L8.21385 13.8041V16.6211L10.0055 15.4837L11.7791 16.6211V13.8041L17.2595 14.7818L19 11.3379V7.17856H14.5211V6.1786C14.5211 5.21582 13.8145 4 12.3137 4C11.1131 4 10.2765 4.9295 10.0082 5.39425C9.65137 4.8255 8.9302 4 7.74466 4C6.064 4 5.54236 5.49365 5.49162 6.24047V7.17856H1V11.2808L2.78933 14.8047ZM7.80771 5.33984C7.0978 5.33984 6.85104 5.89227 6.81641 6.16848V7.21552H9.76479C9.40823 6.59029 8.51762 5.33984 7.80771 5.33984ZM13.2012 6.16848C13.1665 5.89227 12.9198 5.33984 12.2099 5.33984C11.5 5.33984 10.6094 6.59029 10.2528 7.21552H13.2012V6.16848ZM2.25781 10.9192V8.48438H8.19381V12.4748L3.47774 13.2893L2.25781 10.9192ZM17.7598 8.48438V10.9192L16.5398 13.2893L11.8238 12.4748V8.48438H17.7598Z" fill="#2C3E50"/>
<path d="M8.20312 7.21289H11.7852V16.6022L9.99414 15.4889L8.20312 16.6022V7.21289Z" fill="#A6ADB7"/>
</svg>
