<svg width="18" height="18" viewBox="0 0 18 18" fill="none" xmlns="http://www.w3.org/2000/svg">
<path fill-rule="evenodd" clip-rule="evenodd" d="M9.00131 1.28906C4.74411 1.28906 1.29297 4.7402 1.29297 8.9974C1.29297 10.2316 1.58257 11.3964 2.09697 12.4291C2.30342 12.8436 2.38292 13.3393 2.25266 13.8261L1.75632 15.6811C1.66517 16.0218 1.97685 16.3335 2.31755 16.2424L4.17258 15.746C4.65941 15.6158 5.15506 15.6953 5.56956 15.9017C6.60231 16.4161 7.76709 16.7057 9.00131 16.7057C13.2585 16.7057 16.7096 13.2546 16.7096 8.9974C16.7096 4.7402 13.2585 1.28906 9.00131 1.28906ZM0.0429688 8.9974C0.0429688 4.04984 4.05375 0.0390625 9.00131 0.0390625C13.9489 0.0390625 17.9596 4.04984 17.9596 8.9974C17.9596 13.9449 13.9489 17.9557 9.00131 17.9557C7.56938 17.9557 6.21424 17.6193 5.01226 17.0206C4.8329 16.9313 4.64975 16.9123 4.49567 16.9536L2.64064 17.4499C1.37078 17.7897 0.20903 16.6279 0.548799 15.3581L1.04514 13.503C1.08637 13.3489 1.06741 13.1658 0.978074 12.9864C0.379391 11.7845 0.0429688 10.4293 0.0429688 8.9974ZM5.04297 7.7474C5.04297 7.40222 5.32279 7.1224 5.66797 7.1224H12.3346C12.6798 7.1224 12.9596 7.40222 12.9596 7.7474C12.9596 8.09257 12.6798 8.3724 12.3346 8.3724H5.66797C5.32279 8.3724 5.04297 8.09257 5.04297 7.7474ZM5.04297 10.6641C5.04297 10.3189 5.32279 10.0391 5.66797 10.0391H10.2513C10.5965 10.0391 10.8763 10.3189 10.8763 10.6641C10.8763 11.0092 10.5965 11.2891 10.2513 11.2891H5.66797C5.32279 11.2891 5.04297 11.0092 5.04297 10.6641Z" fill="#333399"/>
</svg>
