<svg width="20" height="20" viewBox="0 0 20 20" fill="none" xmlns="http://www.w3.org/2000/svg">
<path fill-rule="evenodd" clip-rule="evenodd" d="M1.69141 9.37508C2.01101 5.06462 5.60953 1.66675 10.0017 1.66675C9.30927 1.66675 8.6928 1.97025 8.18566 2.43435C7.68106 2.89613 7.25464 3.54073 6.90974 4.30271C6.56281 5.06918 6.29332 5.96565 6.11093 6.93851C5.96471 7.71837 5.87574 8.54051 5.84608 9.37508H1.69141ZM1.69141 10.6251H5.84608C5.87574 11.4597 5.96471 12.2818 6.11093 13.0617C6.29332 14.0345 6.56281 14.931 6.90974 15.6975C7.25463 16.4594 7.68106 17.104 8.18566 17.5658C8.6928 18.0299 9.30927 18.3334 10.0017 18.3334C5.60953 18.3334 2.01101 14.9355 1.69141 10.6251Z" fill="#304880"/>
<path d="M10.0017 2.82954C9.77248 2.82954 9.47642 2.92705 9.13216 3.24209C8.78535 3.55947 8.43816 4.05687 8.13142 4.73456C7.82671 5.40775 7.57929 6.22042 7.40902 7.12858C7.27493 7.84376 7.19175 8.6019 7.16256 9.37508H12.8408C12.8116 8.6019 12.7284 7.84377 12.5943 7.12858C12.424 6.22042 12.1766 5.40775 11.8719 4.73456C11.5652 4.05687 11.218 3.55947 10.8712 3.2421C10.5269 2.92705 10.2308 2.82954 10.0017 2.82954Z" fill="#304880"/>
<path d="M7.40902 12.8716C7.57929 13.7797 7.82671 14.5924 8.13142 15.2656C8.43816 15.9433 8.78535 16.4407 9.13216 16.7581C9.47642 17.0731 9.77248 17.1706 10.0017 17.1706C10.2308 17.1706 10.5269 17.0731 10.8712 16.7581C11.218 16.4407 11.5651 15.9433 11.8719 15.2656C12.1766 14.5924 12.424 13.7797 12.5943 12.8716C12.7284 12.1564 12.8116 11.3983 12.8408 10.6251H7.16256C7.19175 11.3983 7.27493 12.1564 7.40902 12.8716Z" fill="#304880"/>
<path d="M10.0017 1.66675C10.694 1.66675 11.3105 1.97026 11.8177 2.43435C12.3223 2.89613 12.7487 3.54073 13.0936 4.30271C13.4405 5.06918 13.71 5.96565 13.8924 6.93851C14.0386 7.71837 14.1276 8.54051 14.1572 9.37508H18.3119C17.9923 5.06462 14.3938 1.66675 10.0017 1.66675Z" fill="#304880"/>
<path d="M13.8924 13.0617C13.71 14.0345 13.4405 14.931 13.0936 15.6975C12.7487 16.4594 12.3223 17.104 11.8177 17.5658C11.3105 18.0299 10.694 18.3334 10.0017 18.3334C14.3938 18.3334 17.9923 14.9355 18.3119 10.6251H14.1572C14.1276 11.4597 14.0386 12.2818 13.8924 13.0617Z" fill="#304880"/>
</svg>
