<svg width="24" height="25" viewBox="0 0 24 25" fill="none" xmlns="http://www.w3.org/2000/svg">
<g clip-path="url(#clip0_1100_55042)">
<path d="M22.875 18.5H20.25V6.875C20.25 6.17881 19.9734 5.51113 19.4812 5.01884C18.9889 4.52656 18.3212 4.25 17.625 4.25H6V1.625C6 1.32663 5.88147 1.04048 5.6705 0.829505C5.45952 0.618526 5.17337 0.5 4.875 0.5C4.57663 0.5 4.29048 0.618526 4.0795 0.829505C3.86853 1.04048 3.75 1.32663 3.75 1.625V4.25H1.125C0.826631 4.25 0.540483 4.36853 0.329505 4.5795C0.118526 4.79048 0 5.07663 0 5.375C0 5.67337 0.118526 5.95952 0.329505 6.1705C0.540483 6.38147 0.826631 6.5 1.125 6.5H3.75V18.125C3.75 18.8212 4.02656 19.4889 4.51884 19.9812C5.01113 20.4734 5.67881 20.75 6.375 20.75H18V23.375C18 23.6734 18.1185 23.9595 18.3295 24.1705C18.5405 24.3815 18.8266 24.5 19.125 24.5C19.4234 24.5 19.7095 24.3815 19.9205 24.1705C20.1315 23.9595 20.25 23.6734 20.25 23.375V20.75H22.875C23.1734 20.75 23.4595 20.6315 23.6705 20.4205C23.8815 20.2095 24 19.9234 24 19.625C24 19.3266 23.8815 19.0405 23.6705 18.8295C23.4595 18.6185 23.1734 18.5 22.875 18.5ZM6.375 18.5C6.27554 18.5 6.18016 18.4605 6.10983 18.3902C6.03951 18.3198 6 18.2245 6 18.125V6.5H17.625C17.7245 6.5 17.8198 6.53951 17.8902 6.60983C17.9605 6.68016 18 6.77554 18 6.875V18.5H6.375Z" fill="#333399"/>
</g>
<defs>
<clipPath id="clip0_1100_55042">
<rect width="24" height="24" fill="white" transform="translate(0 0.5)"/>
</clipPath>
</defs>
</svg>
