<svg width="97" height="166" viewBox="0 0 97 166" fill="none" xmlns="http://www.w3.org/2000/svg">
<g filter="url(#filter0_d_1100_58835)">
<path d="M86.1666 70.9375H7.75781V77.1516H10.0619L26.1905 152H68.2925L83.8626 77.1516H86.1666V70.9375Z" fill="url(#paint0_linear_1100_58835)"/>
<path d="M10.4032 77.078L10.3438 76.8025H10.0619H8.10692V71.2866H85.8175V76.8025H83.8626H83.5786L83.5208 77.0805L68.0085 151.65H26.4724L10.4032 77.078Z" stroke="url(#paint1_linear_1100_58835)" stroke-opacity="0.5" stroke-width="0.698209"/>
</g>
<path d="M86.1666 70.9375H7.75781V77.1516H10.0619L26.1905 152H68.2925L83.8626 77.1516H86.1666V70.9375Z" fill="url(#paint2_linear_1100_58835)"/>
<path d="M10.4032 77.078L10.3438 76.8025H10.0619H8.10692V71.2866H85.8175V76.8025H83.8626H83.5786L83.5208 77.0805L68.0085 151.65H26.4724L10.4032 77.078Z" stroke="url(#paint3_linear_1100_58835)" stroke-opacity="0.5" stroke-width="0.698209"/>
<path d="M49.1602 118.695L53.0003 112.272L53.0701 114.715L57.7481 114.925C59.2842 114.995 61.3788 114.576 62.6356 113.668C63.0545 113.389 63.4036 112.97 63.6131 112.551C63.6131 112.551 64.2415 111.643 64.1716 110.387C64.2415 111.155 64.1716 111.853 63.8924 112.551L62.4261 116.67C61.4486 119.324 59.4936 121.488 56.8405 122.396C56.2121 122.605 55.7233 122.745 55.3044 122.745H53.0003L52.9305 124.77L49.1602 118.695Z" fill="#304880"/>
<path d="M53.6328 105.639L61.0338 102.566L63.2681 108.78C63.7568 110.037 63.4776 111.434 62.5699 112.481C61.9415 113.179 61.5226 113.319 60.1262 113.808L59.2185 113.947C58.0315 114.087 57.3333 114.017 56.2162 111.643L53.6328 105.639Z" fill="#304880"/>
<path d="M38.8991 104.94L42.7392 111.364L40.5748 110.317L38.2009 114.296C37.4328 115.623 36.8044 117.718 36.9441 119.184C37.0139 119.673 37.1535 120.161 37.4328 120.58C37.4328 120.58 37.9216 121.558 39.0387 122.116C38.3405 121.837 37.7121 121.418 37.2234 120.86L34.3607 117.648C32.4756 115.553 31.5679 112.76 31.9868 109.968C32.0566 109.339 32.1963 108.781 32.4057 108.431L33.5229 106.407L31.7773 105.359L38.8991 104.94Z" fill="#304880"/>
<path d="M48.3263 115.414L47.4884 123.373L40.9253 122.396C39.5987 122.186 38.4815 121.279 37.9928 120.022C37.7135 119.184 37.7833 118.695 37.9928 117.229L38.2721 116.391C38.7608 115.344 39.1099 114.716 41.7631 114.855L48.3263 115.414Z" fill="#304880"/>
<path d="M55.2379 103.684L47.767 102.916L49.9315 101.799L48.1162 97.5395C47.4878 96.0733 46.231 94.3976 44.9044 93.6295C44.4855 93.3502 43.9967 93.2106 43.508 93.2106C43.508 93.2106 42.3908 93.0011 41.3435 93.6295C41.9719 93.2106 42.6701 93.0011 43.4382 92.9313L47.767 92.5124C50.5599 92.2331 53.3527 93.1408 55.3775 95.0958C55.7964 95.5147 56.1456 96.0034 56.355 96.3526L57.3325 98.4472L59.2177 97.6791L55.2379 103.684Z" fill="#304880"/>
<path d="M41.134 105.01L35.1992 99.634L39.8074 94.956C40.7849 93.9785 42.1813 93.6294 43.4381 94.0483C44.3458 94.3276 44.625 94.6069 45.6723 95.6542L46.1611 96.4222C46.7895 97.3997 47.0688 98.098 45.3931 100.123L41.134 105.01Z" fill="#304880"/>
<path d="M68.2924 152L83.8624 77.1518H86.1665L86.0967 77.0122L56.0039 76.9424L73.8082 79.805C73.8082 79.805 65.1504 135.103 62.7067 152H68.2924Z" fill="#D0D0EB"/>
<g filter="url(#filter1_d_1100_58835)">
<path d="M50.4197 8.65757L49.7913 5.65527L46.021 6.49313L46.6494 9.28596C46.8589 10.2635 46.6494 11.2409 46.0908 12.0788L45.1832 13.4054C44.3453 14.5923 43.9962 16.1284 44.3453 17.5946L49.5121 40.9846C49.6517 41.613 50.2801 42.0319 50.9783 41.8923L60.4041 39.7977C61.0325 39.658 61.4514 39.0296 61.3118 38.3314L56.145 15.0811C55.7959 13.545 54.8185 12.2883 53.422 11.59L52.3049 11.0315C51.3274 10.5427 50.699 9.63506 50.4197 8.65757Z" fill="url(#paint4_linear_1100_58835)"/>
<path d="M50.078 8.72909L50.0806 8.74139L50.0841 8.75348C50.3845 9.8051 51.0668 10.8027 52.1488 11.3437L52.3049 11.0315L52.1488 11.3437L53.2659 11.9023C54.5671 12.5529 55.478 13.7222 55.8044 15.1576C55.8045 15.1579 55.8046 15.1582 55.8046 15.1585L60.9701 38.4033C61.0721 38.922 60.7624 39.3605 60.3284 39.4569L50.9065 41.5507C50.3878 41.6527 49.9494 41.3429 49.8529 40.909C49.8529 40.909 49.8529 40.9089 49.8529 40.9089L44.6862 17.5193L44.6863 17.5193L44.6849 17.5138C44.3607 16.1519 44.6842 14.7177 45.4684 13.6067L45.4684 13.6067L45.4713 13.6025L46.379 12.2759L46.379 12.2759L46.3813 12.2724C46.9886 11.3615 47.2213 10.2885 46.9908 9.21281L46.9908 9.21281L46.99 9.20933L46.4384 6.75799L49.5221 6.07274L50.078 8.72909Z" stroke="url(#paint5_linear_1100_58835)" stroke-opacity="0.5" stroke-width="0.698209"/>
</g>
<g filter="url(#filter2_d_1100_58835)">
<path d="M40.0146 31.2802L13.0637 18.9219L8.24609 51.5282L35.6857 64.2356L40.0146 31.2802Z" fill="url(#paint6_linear_1100_58835)"/>
<path d="M35.4014 63.7192L8.62959 51.3211L13.3411 19.4331L39.6349 31.4901L35.4014 63.7192Z" stroke="url(#paint7_linear_1100_58835)" stroke-opacity="0.5" stroke-width="0.698209"/>
</g>
<path opacity="0.71" d="M8.24609 51.528L17.8814 44.6855L35.2668 64.3052" fill="#D0D0EB"/>
<path d="M35.5464 35.8882L16.0664 26.9512" stroke="#D0D0EB" stroke-width="0.698209" stroke-linecap="round"/>
<path d="M35.2652 40.6363L15.7852 31.6992" stroke="#D0D0EB" stroke-width="0.698209" stroke-linecap="round"/>
<path d="M34.2188 45.4537L14.8086 36.5166" stroke="#D0D0EB" stroke-width="0.698209" stroke-linecap="round"/>
<g filter="url(#filter3_d_1100_58835)">
<path d="M85.3994 43.7774L88.7508 38.3314C89.0999 37.703 89.1697 37.0048 88.8905 36.3066L86.3769 30.9304C86.1675 30.5115 86.2373 30.0227 86.4467 29.6038L87.9828 27.0902L84.7012 25.0654L83.1652 27.579C82.9557 27.9979 82.467 28.2074 82.048 28.2074L76.1133 28.4168C75.415 28.4168 74.7867 28.8358 74.3677 29.3943L71.0163 34.8403C70.6672 35.3989 70.8767 36.1669 71.4352 36.516C71.7844 36.7255 71.8542 37.1444 71.6447 37.4935L64.6626 48.8743C64.4532 49.2234 64.0342 49.2933 63.6851 49.0838C63.1266 48.7347 62.6378 49.0838 62.2887 49.6424L58.3089 56.0659C57.7504 56.9736 57.7504 57.9511 58.658 58.4398L69.8992 65.3521C70.8069 65.9106 71.5749 65.4219 72.1335 64.5142L76.1133 58.0907C76.4624 57.5321 76.602 56.9736 76.0434 56.6245C75.6943 56.415 75.6245 55.9961 75.834 55.647L82.816 44.2662C83.0255 43.9171 83.4444 43.8472 83.7935 44.0567C84.2823 44.5454 85.0503 44.336 85.3994 43.7774Z" fill="url(#paint8_linear_1100_58835)"/>
<path d="M86.1488 29.4217L86.1411 29.4344L86.1345 29.4477C85.8957 29.9252 85.7902 30.5331 86.0625 31.0821L88.5699 36.4452C88.8025 37.0341 88.7461 37.6171 88.4493 38.1553L85.1034 43.5924C85.1032 43.5927 85.103 43.593 85.1028 43.5933C84.9774 43.7934 84.7787 43.9266 84.5785 43.9679C84.3852 44.0077 84.1938 43.9632 84.0404 43.8098L84.01 43.7795L83.9732 43.7573C83.4867 43.4654 82.8423 43.5458 82.5176 44.0851C82.5173 44.0856 82.517 44.0861 82.5167 44.0865L75.5364 55.4644L75.5364 55.4644L75.5346 55.4674C75.243 55.9534 75.3229 56.5969 75.8607 56.9219C76.0368 57.0327 76.0741 57.1442 76.0698 57.267C76.0643 57.427 75.9817 57.6424 75.8172 57.9057L75.8165 57.9068L71.8367 64.3303L71.8361 64.3312C71.5747 64.756 71.2898 65.0383 71.0061 65.1637C70.7458 65.2787 70.4478 65.2797 70.0822 65.0547L70.0821 65.0547L58.8409 58.1424L58.8324 58.1372L58.8236 58.1324C58.4678 57.9409 58.3121 57.6738 58.2809 57.3738C58.2477 57.0552 58.3526 56.6612 58.6059 56.2495C58.606 56.2493 58.6061 56.2491 58.6063 56.2488L62.5848 49.8274C62.5849 49.8271 62.5851 49.8269 62.5852 49.8266C62.7433 49.5739 62.9091 49.4098 63.0598 49.3372C63.1857 49.2766 63.3207 49.2677 63.5001 49.3798L63.5001 49.3799L63.5055 49.3832C63.992 49.675 64.6364 49.5948 64.9611 49.0555C64.9614 49.055 64.9617 49.0545 64.962 49.054L71.9423 37.6761L71.9423 37.6761L71.9441 37.6732C72.2357 37.1872 72.1558 36.5436 71.618 36.2186C71.2106 35.9622 71.0745 35.406 71.3124 35.0254L71.3136 35.0233L74.6564 29.5914C75.0316 29.0973 75.5625 28.7659 76.1133 28.7659V28.7662L76.1256 28.7657L82.0546 28.5565C82.5583 28.5543 83.1827 28.3075 83.4702 27.7493L84.8163 25.5466L87.5037 27.2048L86.1488 29.4217Z" stroke="url(#paint9_linear_1100_58835)" stroke-opacity="0.5" stroke-width="0.698209"/>
</g>
<path d="M86.8636 29.2546L83.1631 27.0203C83.0235 26.9505 82.9537 26.741 83.0235 26.6014L84.3501 24.437C84.4199 24.2973 84.6294 24.2275 84.769 24.3671L87.0033 25.6937L88.4695 26.6014C88.6092 26.6712 88.679 26.8807 88.6092 27.0203L87.2826 29.1848C87.2127 29.3244 87.0033 29.3244 86.8636 29.2546Z" fill="#D0D0EB"/>
<path d="M68.1914 47.1279L75.9415 51.8758" stroke="white" stroke-width="0.197942" stroke-miterlimit="10"/>
<path d="M70.0397 3.42122H67.5261C67.3167 3.42122 67.1072 3.21176 67.1072 3.0023V0.418924C67.1072 0.139641 66.8978 0 66.6883 0C66.4788 0 66.2694 0.209461 66.2694 0.418924V3.0023C66.2694 3.28158 66.0599 3.42122 65.8504 3.42122H63.3369C63.1274 3.42122 62.918 3.63068 62.918 3.84015C62.918 4.11943 63.1274 4.25907 63.3369 4.25907H65.8504C66.0599 4.25907 66.2694 4.46854 66.2694 4.678V7.26137C66.2694 7.54065 66.4788 7.68029 66.6883 7.68029C66.8978 7.68029 67.1072 7.47083 67.1072 7.26137V4.678C67.1072 4.39872 67.3167 4.25907 67.5261 4.25907H70.0397C70.2492 4.25907 70.4586 4.04961 70.4586 3.84015C70.4586 3.63068 70.2492 3.42122 70.0397 3.42122Z" fill="#D0D0EB"/>
<path d="M7.55144 58.8587H5.31717C5.10771 58.8587 4.89825 58.6493 4.89825 58.4398V56.1357C4.89825 55.9263 4.75861 55.7168 4.47932 55.7168C4.26986 55.7168 4.0604 55.9263 4.0604 56.1357V58.5096C4.0604 58.7191 3.92076 58.9286 3.64148 58.9286H1.40721C1.19774 58.9286 0.988281 59.138 0.988281 59.3475C0.988281 59.557 1.12792 59.7664 1.40721 59.7664H3.78112C3.99058 59.7664 4.20004 59.9759 4.20004 60.1853V62.5592C4.20004 62.7687 4.33968 62.9782 4.61896 62.9782C4.82843 62.9782 5.03789 62.7687 5.03789 62.5592V60.1853C5.03789 59.9759 5.17753 59.7664 5.45682 59.7664H7.69108C7.90055 59.7664 8.11001 59.557 8.11001 59.3475C7.97037 59.0682 7.76091 58.8587 7.55144 58.8587Z" fill="#D0D0EB"/>
<g filter="url(#filter4_d_1100_58835)">
<path d="M27.5192 17.176C23.1903 17.176 19.6992 13.685 19.6992 9.35607C19.6992 5.02717 23.1903 1.53613 27.5192 1.53613C31.848 1.53613 35.3391 5.02717 35.3391 9.35607C35.3391 13.685 31.848 17.176 27.5192 17.176Z" fill="#D7D7FF"/>
<path d="M27.5192 16.8269C23.3831 16.8269 20.0483 13.4922 20.0483 9.35607C20.0483 5.21998 23.3831 1.88524 27.5192 1.88524C31.6552 1.88524 34.99 5.21998 34.99 9.35607C34.99 13.4922 31.6552 16.8269 27.5192 16.8269Z" stroke="url(#paint10_linear_1100_58835)" stroke-opacity="0.5" stroke-width="0.698209"/>
</g>
<g opacity="0.67">
<g filter="url(#filter5_d_1100_58835)">
<path d="M89.6604 55.577C89.6604 57.0038 88.5038 58.1604 87.077 58.1604C85.6502 58.1604 84.4936 57.0038 84.4936 55.577C84.4936 54.1502 85.6502 52.9936 87.077 52.9936C88.5038 52.9936 89.6604 54.1502 89.6604 55.577Z" stroke="url(#paint11_linear_1100_58835)" stroke-opacity="0.5" stroke-width="0.698209" shape-rendering="crispEdges"/>
</g>
</g>
<g opacity="0.67">
<g filter="url(#filter6_d_1100_58835)">
<path d="M73.3934 20.5968C71.3519 20.5968 69.6929 18.9378 69.6929 16.8963C69.6929 14.8548 71.3519 13.1958 73.3934 13.1958C75.4348 13.1958 77.0939 14.8548 77.0939 16.8963C77.0939 18.9378 75.4348 20.5968 73.3934 20.5968Z" stroke="url(#paint12_linear_1100_58835)" stroke-opacity="0.5" stroke-width="0.698209" shape-rendering="crispEdges"/>
</g>
</g>
<g opacity="0.67">
<path d="M46.7884 56.9734C45.1826 56.9734 43.9258 55.7864 43.9258 54.3202C43.9258 52.8539 45.1826 51.667 46.7884 51.667C48.3943 51.667 49.6511 52.8539 49.6511 54.3202C49.5813 55.7864 48.3245 56.9734 46.7884 56.9734Z" fill="#D0D0EB"/>
</g>
<defs>
<filter id="filter0_d_1100_58835" x="0.775727" y="70.9375" width="92.3743" height="95.0257" filterUnits="userSpaceOnUse" color-interpolation-filters="sRGB">
<feFlood flood-opacity="0" result="BackgroundImageFix"/>
<feColorMatrix in="SourceAlpha" type="matrix" values="0 0 0 0 0 0 0 0 0 0 0 0 0 0 0 0 0 0 127 0" result="hardAlpha"/>
<feOffset dy="6.98209"/>
<feGaussianBlur stdDeviation="3.49104"/>
<feComposite in2="hardAlpha" operator="out"/>
<feColorMatrix type="matrix" values="0 0 0 0 0 0 0 0 0 0 0 0 0 0 0 0 0 0 0.1 0"/>
<feBlend mode="normal" in2="BackgroundImageFix" result="effect1_dropShadow_1100_58835"/>
<feBlend mode="normal" in="SourceGraphic" in2="effect1_dropShadow_1100_58835" result="shape"/>
</filter>
<filter id="filter1_d_1100_58835" x="37.2289" y="5.65527" width="31.0931" height="50.2278" filterUnits="userSpaceOnUse" color-interpolation-filters="sRGB">
<feFlood flood-opacity="0" result="BackgroundImageFix"/>
<feColorMatrix in="SourceAlpha" type="matrix" values="0 0 0 0 0 0 0 0 0 0 0 0 0 0 0 0 0 0 127 0" result="hardAlpha"/>
<feOffset dy="6.98209"/>
<feGaussianBlur stdDeviation="3.49104"/>
<feComposite in2="hardAlpha" operator="out"/>
<feColorMatrix type="matrix" values="0 0 0 0 0 0 0 0 0 0 0 0 0 0 0 0 0 0 0.1 0"/>
<feBlend mode="normal" in2="BackgroundImageFix" result="effect1_dropShadow_1100_58835"/>
<feBlend mode="normal" in="SourceGraphic" in2="effect1_dropShadow_1100_58835" result="shape"/>
</filter>
<filter id="filter2_d_1100_58835" x="1.26401" y="18.9219" width="45.7337" height="59.2776" filterUnits="userSpaceOnUse" color-interpolation-filters="sRGB">
<feFlood flood-opacity="0" result="BackgroundImageFix"/>
<feColorMatrix in="SourceAlpha" type="matrix" values="0 0 0 0 0 0 0 0 0 0 0 0 0 0 0 0 0 0 127 0" result="hardAlpha"/>
<feOffset dy="6.98209"/>
<feGaussianBlur stdDeviation="3.49104"/>
<feComposite in2="hardAlpha" operator="out"/>
<feColorMatrix type="matrix" values="0 0 0 0 0 0 0 0 0 0 0 0 0 0 0 0 0 0 0.1 0"/>
<feBlend mode="normal" in2="BackgroundImageFix" result="effect1_dropShadow_1100_58835"/>
<feBlend mode="normal" in="SourceGraphic" in2="effect1_dropShadow_1100_58835" result="shape"/>
</filter>
<filter id="filter3_d_1100_58835" x="50.9437" y="25.0654" width="45.1009" height="54.4876" filterUnits="userSpaceOnUse" color-interpolation-filters="sRGB">
<feFlood flood-opacity="0" result="BackgroundImageFix"/>
<feColorMatrix in="SourceAlpha" type="matrix" values="0 0 0 0 0 0 0 0 0 0 0 0 0 0 0 0 0 0 127 0" result="hardAlpha"/>
<feOffset dy="6.98209"/>
<feGaussianBlur stdDeviation="3.49104"/>
<feComposite in2="hardAlpha" operator="out"/>
<feColorMatrix type="matrix" values="0 0 0 0 0 0 0 0 0 0 0 0 0 0 0 0 0 0 0.1 0"/>
<feBlend mode="normal" in2="BackgroundImageFix" result="effect1_dropShadow_1100_58835"/>
<feBlend mode="normal" in="SourceGraphic" in2="effect1_dropShadow_1100_58835" result="shape"/>
</filter>
<filter id="filter4_d_1100_58835" x="12.7171" y="1.53613" width="29.6048" height="29.6038" filterUnits="userSpaceOnUse" color-interpolation-filters="sRGB">
<feFlood flood-opacity="0" result="BackgroundImageFix"/>
<feColorMatrix in="SourceAlpha" type="matrix" values="0 0 0 0 0 0 0 0 0 0 0 0 0 0 0 0 0 0 127 0" result="hardAlpha"/>
<feOffset dy="6.98209"/>
<feGaussianBlur stdDeviation="3.49104"/>
<feComposite in2="hardAlpha" operator="out"/>
<feColorMatrix type="matrix" values="0 0 0 0 0 0 0 0 0 0 0 0 0 0 0 0 0 0 0.1 0"/>
<feBlend mode="normal" in2="BackgroundImageFix" result="effect1_dropShadow_1100_58835"/>
<feBlend mode="normal" in="SourceGraphic" in2="effect1_dropShadow_1100_58835" result="shape"/>
</filter>
<filter id="filter5_d_1100_58835" x="77.1624" y="52.6445" width="19.8275" height="19.8294" filterUnits="userSpaceOnUse" color-interpolation-filters="sRGB">
<feFlood flood-opacity="0" result="BackgroundImageFix"/>
<feColorMatrix in="SourceAlpha" type="matrix" values="0 0 0 0 0 0 0 0 0 0 0 0 0 0 0 0 0 0 127 0" result="hardAlpha"/>
<feOffset dy="6.98209"/>
<feGaussianBlur stdDeviation="3.49104"/>
<feComposite in2="hardAlpha" operator="out"/>
<feColorMatrix type="matrix" values="0 0 0 0 0 0 0 0 0 0 0 0 0 0 0 0 0 0 0.1 0"/>
<feBlend mode="normal" in2="BackgroundImageFix" result="effect1_dropShadow_1100_58835"/>
<feBlend mode="normal" in="SourceGraphic" in2="effect1_dropShadow_1100_58835" result="shape"/>
</filter>
<filter id="filter6_d_1100_58835" x="62.3617" y="12.8467" width="22.0618" height="22.0638" filterUnits="userSpaceOnUse" color-interpolation-filters="sRGB">
<feFlood flood-opacity="0" result="BackgroundImageFix"/>
<feColorMatrix in="SourceAlpha" type="matrix" values="0 0 0 0 0 0 0 0 0 0 0 0 0 0 0 0 0 0 127 0" result="hardAlpha"/>
<feOffset dy="6.98209"/>
<feGaussianBlur stdDeviation="3.49104"/>
<feComposite in2="hardAlpha" operator="out"/>
<feColorMatrix type="matrix" values="0 0 0 0 0 0 0 0 0 0 0 0 0 0 0 0 0 0 0.1 0"/>
<feBlend mode="normal" in2="BackgroundImageFix" result="effect1_dropShadow_1100_58835"/>
<feBlend mode="normal" in="SourceGraphic" in2="effect1_dropShadow_1100_58835" result="shape"/>
</filter>
<linearGradient id="paint0_linear_1100_58835" x1="7.23006" y1="72.2083" x2="88.7296" y2="149.233" gradientUnits="userSpaceOnUse">
<stop stop-color="white"/>
<stop offset="1" stop-color="#ECECFF"/>
</linearGradient>
<linearGradient id="paint1_linear_1100_58835" x1="46.9622" y1="70.9375" x2="46.9622" y2="152" gradientUnits="userSpaceOnUse">
<stop stop-color="#FFD082"/>
<stop offset="1" stop-color="#8888FF"/>
</linearGradient>
<linearGradient id="paint2_linear_1100_58835" x1="7.23006" y1="72.2083" x2="88.7296" y2="149.233" gradientUnits="userSpaceOnUse">
<stop stop-color="white"/>
<stop offset="1" stop-color="#ECECFF"/>
</linearGradient>
<linearGradient id="paint3_linear_1100_58835" x1="46.9622" y1="70.9375" x2="46.9622" y2="152" gradientUnits="userSpaceOnUse">
<stop stop-color="#FFD082"/>
<stop offset="1" stop-color="#8888FF"/>
</linearGradient>
<linearGradient id="paint4_linear_1100_58835" x1="44.0957" y1="6.22379" x2="71.8826" y2="19.047" gradientUnits="userSpaceOnUse">
<stop stop-color="white"/>
<stop offset="1" stop-color="#ECECFF"/>
</linearGradient>
<linearGradient id="paint5_linear_1100_58835" x1="52.7748" y1="5.65527" x2="52.7748" y2="41.9192" gradientUnits="userSpaceOnUse">
<stop stop-color="#FFD082"/>
<stop offset="1" stop-color="#8888FF"/>
</linearGradient>
<linearGradient id="paint6_linear_1100_58835" x1="8.03227" y1="19.6323" x2="50.5817" y2="48.779" gradientUnits="userSpaceOnUse">
<stop stop-color="white"/>
<stop offset="1" stop-color="#ECECFF"/>
</linearGradient>
<linearGradient id="paint7_linear_1100_58835" x1="24.1303" y1="18.9219" x2="24.1303" y2="64.2356" gradientUnits="userSpaceOnUse">
<stop stop-color="#FFD082"/>
<stop offset="1" stop-color="#8888FF"/>
</linearGradient>
<linearGradient id="paint8_linear_1100_58835" x1="57.7162" y1="25.7007" x2="96.9023" y2="55.1198" gradientUnits="userSpaceOnUse">
<stop stop-color="white"/>
<stop offset="1" stop-color="#ECECFF"/>
</linearGradient>
<linearGradient id="paint9_linear_1100_58835" x1="73.4943" y1="25.0654" x2="73.4943" y2="65.5891" gradientUnits="userSpaceOnUse">
<stop stop-color="#FFD082"/>
<stop offset="1" stop-color="#8888FF"/>
</linearGradient>
<linearGradient id="paint10_linear_1100_58835" x1="27.5192" y1="1.53613" x2="27.5192" y2="17.176" gradientUnits="userSpaceOnUse">
<stop stop-color="#FFD082"/>
<stop offset="1" stop-color="#8888FF"/>
</linearGradient>
<linearGradient id="paint11_linear_1100_58835" x1="87.077" y1="52.6445" x2="87.077" y2="58.5095" gradientUnits="userSpaceOnUse">
<stop stop-color="#FFD082"/>
<stop offset="1" stop-color="#8888FF"/>
</linearGradient>
<linearGradient id="paint12_linear_1100_58835" x1="73.3934" y1="12.8467" x2="73.3934" y2="20.9459" gradientUnits="userSpaceOnUse">
<stop stop-color="#FFD082"/>
<stop offset="1" stop-color="#8888FF"/>
</linearGradient>
</defs>
</svg>
