<svg width="260" height="144" viewBox="0 0 260 144" fill="none" xmlns="http://www.w3.org/2000/svg">
<path d="M270.372 140.299C254.448 134.525 243.074 119.769 242.875 104.602C242.749 93.4432 247.81 81.5571 241.609 71.7212C235.405 61.9566 220.532 59.312 208.329 61.5984C196.197 63.8886 185.378 69.7512 173.491 72.8407C161.603 75.9302 146.965 75.5858 138.468 67.2729C129.153 58.2018 131.118 44.0074 125.71 32.712C118.749 18.332 100.784 10.5912 83.6522 7.39836C66.52 4.20551 48.6518 4.11938 32.1355 -1.25715C15.6191 -6.6337 0.0798557 -19.6797 0.683319 -35.1614C1.1848 -47.3598 11.6594 -57.5301 24.0053 -62.5257C36.3512 -67.5212 50.3923 -68.0662 64.0656 -68.4162C123.277 -70.0778 182.701 -67.6532 241.764 -61.1012C263.725 -58.6541 286.433 -55.4526 305.241 -44.7362C335.848 -27.3196 349.969 7.17026 348.927 39.0717C347.708 72.9657 329.086 161.56 270.372 140.299Z" fill="#6A6AD2"/>
<path d="M270.372 140.299C254.448 134.525 243.074 119.769 242.875 104.602C242.749 93.4432 247.81 81.5571 241.609 71.7212C235.405 61.9566 220.532 59.312 208.329 61.5984C196.197 63.8886 185.378 69.7512 173.491 72.8407C161.603 75.9302 146.965 75.5858 138.468 67.2729C129.153 58.2018 131.118 44.0074 125.71 32.712C118.749 18.332 100.784 10.5912 83.6522 7.39836C66.52 4.20551 48.6518 4.11938 32.1355 -1.25715C15.6191 -6.6337 0.0798557 -19.6797 0.683319 -35.1614C1.1848 -47.3598 11.6594 -57.5301 24.0053 -62.5257C36.3512 -67.5212 50.3923 -68.0662 64.0656 -68.4162C123.277 -70.0778 182.701 -67.6532 241.764 -61.1012C263.725 -58.6541 286.433 -55.4526 305.241 -44.7362C335.848 -27.3196 349.969 7.17026 348.927 39.0717C347.708 72.9657 329.086 161.56 270.372 140.299Z" fill="url(#paint0_linear_1065_62118)"/>
<defs>
<linearGradient id="paint0_linear_1065_62118" x1="348.65" y1="44.625" x2="-2.55321" y2="26.0701" gradientUnits="userSpaceOnUse">
<stop stop-color="#333399" stop-opacity="0"/>
<stop offset="1" stop-color="#333399"/>
</linearGradient>
</defs>
</svg>
