<svg width="154" height="210" viewBox="0 0 154 210" fill="none" xmlns="http://www.w3.org/2000/svg">
<path d="M-116.309 206.604C-100.386 200.83 -89.0119 186.074 -88.8123 170.907C-88.6869 159.748 -93.7473 147.862 -87.5468 138.026C-81.3426 128.261 -66.4691 125.617 -54.2664 127.903C-42.1348 130.193 -31.3159 136.056 -19.4281 139.145C-7.54035 142.235 7.0971 141.891 15.5943 133.578C24.9093 124.506 22.9441 110.312 28.3526 99.0167C35.3139 84.6367 53.2782 76.8959 70.4103 73.703C87.5425 70.5102 105.411 70.4241 121.927 65.0475C138.443 59.671 153.983 46.625 153.379 31.1433C152.878 18.9448 142.403 8.77457 130.057 3.77903C117.711 -1.2165 103.67 -1.76152 89.9969 -2.1115C30.786 -3.77315 -28.6381 -1.34855 -87.701 5.20346C-109.662 7.65058 -132.371 10.852 -151.178 21.5685C-181.786 38.9851 -195.906 73.4749 -194.864 105.376C-193.645 139.27 -175.024 227.865 -116.309 206.604Z" fill="#6A6AD2"/>
<path d="M-116.309 206.604C-100.386 200.83 -89.0119 186.074 -88.8123 170.907C-88.6869 159.748 -93.7473 147.862 -87.5468 138.026C-81.3426 128.261 -66.4691 125.617 -54.2664 127.903C-42.1348 130.193 -31.3159 136.056 -19.4281 139.145C-7.54035 142.235 7.0971 141.891 15.5943 133.578C24.9093 124.506 22.9441 110.312 28.3526 99.0167C35.3139 84.6367 53.2782 76.8959 70.4103 73.703C87.5425 70.5102 105.411 70.4241 121.927 65.0475C138.443 59.671 153.983 46.625 153.379 31.1433C152.878 18.9448 142.403 8.77457 130.057 3.77903C117.711 -1.2165 103.67 -1.76152 89.9969 -2.1115C30.786 -3.77315 -28.6381 -1.34855 -87.701 5.20346C-109.662 7.65058 -132.371 10.852 -151.178 21.5685C-181.786 38.9851 -195.906 73.4749 -194.864 105.376C-193.645 139.27 -175.024 227.865 -116.309 206.604Z" fill="url(#paint0_linear_1065_68204)"/>
<defs>
<linearGradient id="paint0_linear_1065_68204" x1="-194.587" y1="110.93" x2="156.616" y2="92.3748" gradientUnits="userSpaceOnUse">
<stop stop-color="#333399" stop-opacity="0"/>
<stop offset="1" stop-color="#333399"/>
</linearGradient>
</defs>
</svg>
