<svg width="198" height="193" viewBox="0 0 198 193" fill="none" xmlns="http://www.w3.org/2000/svg">
<path d="M99.4369 158.99C95.6226 158.99 91.4287 158.037 91.4287 158.037C79.7984 153.27 67.9773 139.352 67.9773 139.352C60.5413 129.247 55.0123 116.281 55.0123 107.13C55.0123 97.9776 53.8683 90.5417 53.8683 78.5299C53.8683 66.5181 52.7244 57.5568 62.639 46.4982C72.5532 35.4397 98.1023 34.1055 98.1023 34.1055H99.7812" stroke="#333399" stroke-width="0.765017" stroke-miterlimit="10"/>
<path d="M67.0234 85.583L79.0353 80.8164L92.3813 86.5367L79.7024 89.7778L67.0234 85.583Z" stroke="#333399" stroke-width="0.765017" stroke-miterlimit="10"/>
<path d="M98.7301 92.8203L94.2895 99.1761L92.382 116.279L86.2812 119.902V125.241H99.0764" stroke="#333399" stroke-width="0.765017" stroke-miterlimit="10"/>
<path d="M99.08 135.541L95.4369 134.016L83.2344 138.782L91.1574 143.167H99.2707" stroke="#333399" stroke-width="0.765017" stroke-miterlimit="10"/>
<path d="M94.7575 99.3392L92.3844 86.5384L98.4489 66.3262L81.743 36.7227L71.457 66.2053" stroke="#333399" stroke-width="0.765017" stroke-miterlimit="10"/>
<path d="M53.9453 83.9013L61.7561 47.5156L79.0364 80.8213L91.2497 53.5751" stroke="#333399" stroke-width="0.765017" stroke-miterlimit="10"/>
<path d="M98.9418 34.1641L91.2493 53.572L71.4547 66.2054L53.8281 84.4409L67.0242 85.5848" stroke="#333399" stroke-width="0.765017" stroke-miterlimit="10"/>
<path d="M86.281 119.902L79.7028 89.7773L56.1836 115.367L86.281 119.902Z" stroke="#333399" stroke-width="0.765017" stroke-miterlimit="10"/>
<path d="M83.2302 138.779L68.6133 140.077L86.2806 125.242L83.5118 138.779" stroke="#333399" stroke-width="0.765017" stroke-miterlimit="10"/>
<path d="M91.1532 143.166L91.4286 158.038L83.5117 138.781H99.2665" stroke="#333399" stroke-width="0.765017" stroke-miterlimit="10"/>
<path d="M99.7844 34.1055C99.7844 34.1055 125.333 35.4402 135.248 46.4982C145.162 57.5568 144.018 66.5176 144.018 78.5299C144.018 90.5417 142.874 97.9771 142.874 107.13C142.874 116.281 137.345 129.246 129.908 139.352C129.908 139.352 118.087 153.27 106.457 158.037C106.457 158.037 102.263 158.99 98.4492 158.99" stroke="#333399" stroke-width="0.765017" stroke-miterlimit="10"/>
<path d="M130.862 85.583L118.85 80.8164L105.504 86.5367L118.183 89.7778L130.862 85.583Z" stroke="#333399" stroke-width="0.765017" stroke-miterlimit="10"/>
<path d="M99.1549 92.8203L103.596 99.1761L105.503 116.279L111.603 119.902V125.241H98.8086" stroke="#333399" stroke-width="0.765017" stroke-miterlimit="10"/>
<path d="M98.809 135.541L102.452 134.016L114.655 138.782L106.732 143.167H98.6172" stroke="#333399" stroke-width="0.765017" stroke-miterlimit="10"/>
<path d="M103.598 99.1785L105.505 86.5384L99.4414 66.3262L116.147 36.7227L124.661 66.2063" stroke="#333399" stroke-width="0.765017" stroke-miterlimit="10"/>
<path d="M118.852 80.8174L136.131 47.5117L143.142 84.7226" stroke="#333399" stroke-width="0.765017" stroke-miterlimit="10"/>
<path d="M130.859 85.5848L144.055 84.4409L126.428 66.2054L106.634 53.572L98.9414 34.1641" stroke="#333399" stroke-width="0.765017" stroke-miterlimit="10"/>
<path d="M111.605 119.902L118.184 89.7773L141.703 115.367L111.605 119.902Z" stroke="#333399" stroke-width="0.765017" stroke-miterlimit="10"/>
<path d="M114.655 138.779L129.271 140.077L111.604 125.242L114.372 138.779H98.6172" stroke="#333399" stroke-width="0.765017" stroke-miterlimit="10"/>
<path d="M106.732 143.166L106.457 158.038L114.373 138.781" stroke="#333399" stroke-width="0.765017" stroke-miterlimit="10"/>
<path d="M83.424 36.7173C83.424 35.7861 82.6687 35.0312 81.7364 35.0312C80.8056 35.0312 80.0508 35.7861 80.0508 36.7173C80.0508 37.6486 80.8056 38.4045 81.7364 38.4045C82.6687 38.4039 83.424 37.6486 83.424 36.7173Z" fill="#333399"/>
<path d="M61.7525 45.8203C60.8217 45.8203 60.0664 46.5756 60.0664 47.5069C60.0664 48.4382 60.8217 49.1935 61.7525 49.1935C62.6848 49.1935 63.4396 48.4382 63.4396 47.5069C63.4396 46.5756 62.6848 45.8203 61.7525 45.8203Z" fill="#333399"/>
<path d="M91.2408 55.2521C92.1726 55.2521 92.9279 54.4973 92.9279 53.565C92.9279 52.6342 92.1726 51.8789 91.2408 51.8789C90.31 51.8789 89.5547 52.6337 89.5547 53.565C89.5547 54.4973 90.31 55.2521 91.2408 55.2521Z" fill="#333399"/>
<path d="M71.2872 64.5156C70.3564 64.5156 69.6016 65.2704 69.6016 66.2022C69.6016 67.1335 70.3564 67.8888 71.2872 67.8888C72.2195 67.8888 72.9743 67.134 72.9743 66.2022C72.9743 65.2704 72.2195 64.5156 71.2872 64.5156Z" fill="#333399"/>
<path d="M55.5099 84.315C55.5099 83.3837 54.7551 82.6289 53.8228 82.6289C52.892 82.6289 52.1367 83.3837 52.1367 84.315C52.1367 85.2463 52.892 86.0016 53.8228 86.0016C54.7546 86.0011 55.5099 85.2458 55.5099 84.315Z" fill="#333399"/>
<path d="M80.7209 80.4679C80.7209 79.5366 79.9661 78.7812 79.0338 78.7812C78.103 78.7812 77.3477 79.5361 77.3477 80.4679C77.3477 81.3986 78.1025 82.154 79.0338 82.154C79.9661 82.154 80.7209 81.3986 80.7209 80.4679Z" fill="#333399"/>
<path d="M69.2209 85.5811C69.2209 84.6499 68.4661 83.8945 67.5332 83.8945C66.6025 83.8945 65.8477 84.6493 65.8477 85.5811C65.8477 86.5124 66.6025 87.2677 67.5332 87.2677C68.4655 87.2672 69.2209 86.5124 69.2209 85.5811Z" fill="#333399"/>
<path d="M79.6973 88.0859C78.7665 88.0859 78.0117 88.8408 78.0117 89.7725C78.0117 90.7038 78.7665 91.4586 79.6973 91.4586C80.6296 91.4586 81.3844 90.7038 81.3844 89.7725C81.3849 88.8413 80.6296 88.0859 79.6973 88.0859Z" fill="#333399"/>
<path d="M90.5352 86.4054C90.5352 87.3366 91.2905 88.092 92.2213 88.092C93.1536 88.092 93.9084 87.3366 93.9084 86.4054C93.9084 85.4741 93.1536 84.7188 92.2213 84.7188C91.29 84.7188 90.5352 85.4741 90.5352 86.4054Z" fill="#333399"/>
<path d="M92.6758 99.1749C92.6758 100.107 93.4306 100.862 94.3614 100.862C95.2937 100.862 96.0485 100.107 96.0485 99.1749C96.0485 98.2441 95.2937 97.4883 94.3614 97.4883C93.4311 97.4883 92.6758 98.2441 92.6758 99.1749Z" fill="#333399"/>
<path d="M86.2754 118.215C85.3447 118.215 84.5898 118.97 84.5898 119.901C84.5898 120.833 85.3447 121.588 86.2754 121.588C87.2077 121.588 87.9631 120.833 87.9631 119.901C87.9631 118.97 87.2083 118.215 86.2754 118.215Z" fill="#333399"/>
<path d="M92.4205 114.215C91.4897 114.215 90.7344 114.97 90.7344 115.901C90.7344 116.833 91.4897 117.588 92.4205 117.588C93.3528 117.588 94.1081 116.833 94.1081 115.901C94.1081 114.97 93.3528 114.215 92.4205 114.215Z" fill="#333399"/>
<path d="M56.1783 113.676C55.2475 113.676 54.4922 114.431 54.4922 115.362C54.4922 116.294 55.2475 117.048 56.1783 117.048C57.1101 117.048 57.8649 116.294 57.8649 115.362C57.8649 114.431 57.1101 113.676 56.1783 113.676Z" fill="#333399"/>
<path d="M68.2213 138.387C67.2905 138.387 66.5352 139.142 66.5352 140.073C66.5352 141.005 67.2905 141.76 68.2213 141.76C69.1531 141.76 69.9084 141.005 69.9084 140.073C69.9084 139.142 69.1531 138.387 68.2213 138.387Z" fill="#333399"/>
<path d="M83.9161 137.09C82.9853 137.09 82.2305 137.845 82.2305 138.776C82.2305 139.708 82.9853 140.463 83.9161 140.463C84.8484 140.463 85.6032 139.709 85.6032 138.776C85.6032 137.845 84.8484 137.09 83.9161 137.09Z" fill="#333399"/>
<path d="M95.3424 132.32C94.4111 132.32 93.6562 133.076 93.6562 134.007C93.6562 134.938 94.4111 135.694 95.3424 135.694C96.2747 135.694 97.03 134.939 97.03 134.007C97.03 133.076 96.2747 132.32 95.3424 132.32Z" fill="#333399"/>
<path d="M90.733 144.846C91.6653 144.846 92.4201 144.092 92.4201 143.159C92.4201 142.228 91.6653 141.473 90.733 141.473C89.8022 141.473 89.0469 142.227 89.0469 143.159C89.0469 144.091 89.8017 144.846 90.733 144.846Z" fill="#333399"/>
<path d="M91.1465 156.344C90.2158 156.344 89.4609 157.1 89.4609 158.03C89.4609 158.962 90.2158 159.717 91.1465 159.717C92.0788 159.717 92.8337 158.962 92.8337 158.03C92.8337 157.1 92.0788 156.344 91.1465 156.344Z" fill="#333399"/>
<path d="M98.6871 35.8459C98.7289 35.8459 98.7692 35.8367 98.8105 35.8331C98.8519 35.8367 98.8916 35.8459 98.934 35.8459C99.8658 35.8459 100.621 35.091 100.621 34.1598C100.621 33.228 99.8658 32.4727 98.934 32.4727C98.8916 32.4727 98.8524 32.4823 98.8105 32.4849C98.7692 32.4823 98.7295 32.4727 98.6871 32.4727C97.7553 32.4727 97 33.228 97 34.1598C97.0005 35.0905 97.7553 35.8459 98.6871 35.8459Z" fill="#333399"/>
<path d="M117.581 36.7173C117.581 35.7861 116.826 35.0312 115.895 35.0312C114.963 35.0312 114.207 35.7861 114.207 36.7173C114.207 37.6486 114.962 38.4045 115.895 38.4045C116.826 38.4039 117.581 37.6486 117.581 36.7173Z" fill="#333399"/>
<path d="M98.691 67.8888C98.7334 67.8888 98.7726 67.8791 98.8139 67.8761C98.8553 67.8791 98.895 67.8888 98.9374 67.8888C99.8692 67.8888 100.624 67.134 100.624 66.2022C100.624 65.2709 99.8692 64.5156 98.9374 64.5156C98.895 64.5156 98.8558 64.5253 98.8139 64.5279C98.7726 64.5253 98.7328 64.5156 98.691 64.5156C97.7587 64.5156 97.0039 65.2704 97.0039 66.2022C97.0039 67.1335 97.7587 67.8888 98.691 67.8888Z" fill="#333399"/>
<path d="M135.875 45.8203C134.943 45.8203 134.188 46.5756 134.188 47.5069C134.188 48.4382 134.942 49.1935 135.875 49.1935C136.805 49.1935 137.561 48.4382 137.561 47.5069C137.561 46.5756 136.805 45.8203 135.875 45.8203Z" fill="#333399"/>
<path d="M106.382 55.2521C107.313 55.2521 108.069 54.4973 108.069 53.565C108.069 52.6342 107.314 51.8789 106.382 51.8789C105.45 51.8789 104.695 52.6337 104.695 53.565C104.695 54.4973 105.451 55.2521 106.382 55.2521Z" fill="#333399"/>
<path d="M126.339 64.5156C125.408 64.5156 124.652 65.2704 124.652 66.2022C124.652 67.1335 125.408 67.8888 126.339 67.8888C127.271 67.8888 128.026 67.134 128.026 66.2022C128.025 65.2704 127.271 64.5156 126.339 64.5156Z" fill="#333399"/>
<path d="M143.801 82.625C142.868 82.625 142.113 83.3798 142.113 84.3111C142.113 85.2424 142.868 85.9977 143.801 85.9977C144.731 85.9977 145.486 85.2424 145.486 84.3111C145.486 83.3798 144.731 82.625 143.801 82.625Z" fill="#333399"/>
<path d="M118.597 78.7812C117.665 78.7812 116.91 79.5361 116.91 80.4679C116.91 81.3986 117.665 82.154 118.597 82.154C119.528 82.154 120.283 81.3986 120.283 80.4679C120.283 79.5366 119.528 78.7812 118.597 78.7812Z" fill="#333399"/>
<path d="M130.09 83.8945C129.158 83.8945 128.402 84.6493 128.402 85.5811C128.402 86.5124 129.157 87.2677 130.09 87.2677C131.021 87.2677 131.777 86.5129 131.777 85.5811C131.777 84.6499 131.021 83.8945 130.09 83.8945Z" fill="#333399"/>
<path d="M117.926 88.0859C116.994 88.0859 116.238 88.8408 116.238 89.7725C116.238 90.7038 116.993 91.4586 117.926 91.4586C118.857 91.4586 119.612 90.7038 119.612 89.7725C119.612 88.8413 118.857 88.0859 117.926 88.0859Z" fill="#333399"/>
<path d="M105.407 88.092C106.337 88.092 107.092 87.3366 107.092 86.4054C107.092 85.4741 106.338 84.7188 105.407 84.7188C104.475 84.7188 103.719 85.4741 103.719 86.4054C103.719 87.3366 104.475 88.092 105.407 88.092Z" fill="#333399"/>
<path d="M98.8262 91.1328C98.8222 91.1328 98.8186 91.1343 98.815 91.1343C98.8114 91.1343 98.8074 91.1328 98.8033 91.1328C97.8725 91.1328 97.1172 91.8876 97.1172 92.8194C97.1172 93.7512 97.872 94.506 98.8033 94.506C98.8074 94.506 98.8114 94.5045 98.815 94.5045C98.8191 94.5045 98.8227 94.506 98.8262 94.506C99.7575 94.506 100.513 93.7507 100.513 92.8194C100.513 91.8881 99.758 91.1328 98.8262 91.1328Z" fill="#333399"/>
<path d="M103.269 100.862C104.2 100.862 104.955 100.107 104.955 99.1749C104.955 98.2441 104.2 97.4883 103.269 97.4883C102.337 97.4883 101.582 98.2436 101.582 99.1749C101.582 100.107 102.337 100.862 103.269 100.862Z" fill="#333399"/>
<path d="M113.034 119.901C113.034 118.97 112.279 118.215 111.347 118.215C110.415 118.215 109.66 118.97 109.66 119.901C109.66 120.833 110.415 121.588 111.347 121.588C112.279 121.587 113.034 120.833 113.034 119.901Z" fill="#333399"/>
<path d="M106.889 115.901C106.889 114.97 106.134 114.215 105.203 114.215C104.271 114.215 103.516 114.97 103.516 115.901C103.516 116.833 104.271 117.588 105.203 117.588C106.134 117.588 106.889 116.833 106.889 115.901Z" fill="#333399"/>
<path d="M141.449 113.676C140.517 113.676 139.762 114.431 139.762 115.362C139.762 116.294 140.517 117.048 141.449 117.048C142.38 117.048 143.135 116.294 143.135 115.362C143.135 114.431 142.38 113.676 141.449 113.676Z" fill="#333399"/>
<path d="M129.406 138.387C128.474 138.387 127.719 139.142 127.719 140.073C127.719 141.005 128.474 141.76 129.406 141.76C130.338 141.76 131.092 141.005 131.092 140.073C131.092 139.142 130.338 138.387 129.406 138.387Z" fill="#333399"/>
<path d="M113.714 137.09C112.783 137.09 112.027 137.845 112.027 138.776C112.027 139.708 112.782 140.463 113.714 140.463C114.646 140.463 115.401 139.709 115.401 138.776C115.401 137.845 114.646 137.09 113.714 137.09Z" fill="#333399"/>
<path d="M102.284 132.32C101.352 132.32 100.598 133.076 100.598 134.007C100.598 134.938 101.352 135.694 102.284 135.694C103.215 135.694 103.97 134.939 103.97 134.007C103.97 133.076 103.215 132.32 102.284 132.32Z" fill="#333399"/>
<path d="M106.894 141.473C105.962 141.473 105.207 142.227 105.207 143.159C105.207 144.091 105.962 144.846 106.894 144.846C107.824 144.846 108.58 144.092 108.58 143.159C108.579 142.227 107.824 141.473 106.894 141.473Z" fill="#333399"/>
<path d="M106.48 156.344C105.548 156.344 104.793 157.1 104.793 158.03C104.793 158.962 105.548 159.717 106.48 159.717C107.411 159.717 108.166 158.962 108.166 158.03C108.166 157.1 107.411 156.344 106.48 156.344Z" fill="#333399"/>
<path d="M8.65234 96.0903H11.4125C11.4125 144.283 50.6198 183.491 98.8134 183.491C147.006 183.491 186.214 144.283 186.214 96.0903C186.214 47.8974 147.006 8.68986 98.8134 8.68986V5.92969C148.528 5.92969 188.974 46.3755 188.974 96.0903C188.974 145.805 148.528 186.25 98.8134 186.25C49.0984 186.25 8.65234 145.805 8.65234 96.0903Z" fill="url(#paint0_linear_1100_71470)"/>
<path d="M98.8186 177.508C143.786 177.508 180.239 141.055 180.239 96.0878C180.239 51.1208 143.786 14.668 98.8186 14.668C53.8515 14.668 17.3984 51.1208 17.3984 96.0878C17.3984 141.055 53.8515 177.508 98.8186 177.508Z" stroke="#333399" stroke-width="0.510011" stroke-miterlimit="10" stroke-dasharray="6.17 6.17"/>
<path d="M86.2773 120.803L53.8242 84.4297" stroke="#333399" stroke-width="0.765017" stroke-miterlimit="10"/>
<path d="M67.543 140.46L79.1835 90.207" stroke="#333399" stroke-width="0.765017" stroke-miterlimit="10"/>
<path d="M106.633 53.5625L118.846 80.8088" stroke="#333399" stroke-width="0.765017" stroke-miterlimit="10"/>
<path d="M118.184 89.7656L129.273 140.064" stroke="#333399" stroke-width="0.765017" stroke-miterlimit="10"/>
<path d="M144.059 84.4297L111.605 119.893" stroke="#333399" stroke-width="0.765017" stroke-miterlimit="10"/>
<path d="M86.2812 125.23L95.4334 134.001" stroke="#333399" stroke-width="0.765017" stroke-miterlimit="10"/>
<path d="M111.601 125.23L102.449 134.001" stroke="#333399" stroke-width="0.765017" stroke-miterlimit="10"/>
<path d="M20.5214 0.09375H3.76593H0V3.85966V20.615H3.76593V3.85966H20.5214V0.09375Z" fill="#333399"/>
<path d="M177.109 0.09375H193.865H197.632V3.85966V20.615H193.865V3.85966H177.109V0.09375Z" fill="#333399"/>
<path d="M177.109 192.097H193.864H197.631V188.33V171.574H193.864V188.33H177.109V192.097Z" fill="#333399"/>
<path d="M20.5219 192.097H3.76593H0V188.33V171.574H3.76593V188.33H20.5219V192.097Z" fill="#333399"/>
<defs>
<linearGradient id="paint0_linear_1100_71470" x1="98.8133" y1="5.92979" x2="98.8133" y2="186.25" gradientUnits="userSpaceOnUse">
<stop stop-color="#333399"/>
<stop offset="1" stop-color="#A0E7EF" stop-opacity="0.3"/>
<stop offset="1" stop-color="#333399" stop-opacity="0.3"/>
</linearGradient>
</defs>
</svg>
