<svg width="10" height="10" viewBox="0 0 10 10" fill="none" xmlns="http://www.w3.org/2000/svg">
<path d="M3.71211 9.5H8.83594M5.22814 1.65586C5.22814 1.65586 5.22814 2.47317 6.04546 3.29048C6.86277 4.10779 7.68008 4.10779 7.68008 4.10779M1.99575 7.99404L3.71211 7.74884C3.95969 7.71347 4.18912 7.59876 4.36596 7.42192L8.49739 3.29048C8.94878 2.83909 8.94878 2.10724 8.49739 1.65585L7.68008 0.838542C7.22869 0.387153 6.49685 0.387153 6.04546 0.838542L1.91402 4.96998C1.73718 5.14682 1.62246 5.37625 1.58709 5.62383L1.3419 7.34019C1.28741 7.7216 1.61434 8.04852 1.99575 7.99404Z" stroke="#7E8994" stroke-linecap="round"/>
</svg>
