<svg width="24" height="24" viewBox="0 0 24 24" fill="none" xmlns="http://www.w3.org/2000/svg">
<g clip-path="url(#clip0_2204_17315)">
<path d="M4.74528 11.6186C3.20993 11.6186 1.96094 10.381 1.96094 8.8602C1.96094 7.33921 3.20993 6.10156 4.74528 6.10156C6.28043 6.10156 7.52924 7.33903 7.52924 8.8602C7.52924 10.3812 6.28043 11.6186 4.74528 11.6186ZM4.74528 6.87576C3.63672 6.87576 2.73513 7.766 2.73513 8.8602C2.73513 9.9542 3.63672 10.8444 4.74528 10.8444C5.85345 10.8444 6.75504 9.9542 6.75504 8.8602C6.75504 7.766 5.85345 6.87576 4.74528 6.87576Z" fill="#23272E"/>
<path d="M5.86751 19.2539H1.01178C0.453818 19.2539 0 18.8029 0 18.2486V16.9824C0 14.3902 2.1296 12.2812 4.74742 12.2812C5.77697 12.2812 6.757 12.6026 7.58071 13.2102C7.75271 13.3373 7.78938 13.5796 7.66237 13.7518C7.53535 13.9236 7.29322 13.9602 7.12103 13.8334C6.43133 13.3246 5.61064 13.0554 4.74742 13.0554C2.55658 13.0554 0.774194 14.8172 0.774194 16.9824V18.2486C0.774194 18.3759 0.880797 18.4797 1.01178 18.4797H5.86769C6.08128 18.4797 6.25479 18.653 6.25479 18.8668C6.25479 19.0804 6.08128 19.2539 5.86751 19.2539Z" fill="#23272E"/>
<path d="M22.9869 18.9647H18.1312C17.9176 18.9647 17.7441 18.7913 17.7441 18.5776C17.7441 18.364 17.9176 18.1905 18.1312 18.1905H22.9871C23.1181 18.1905 23.2247 18.0869 23.2247 17.9595V16.6933C23.2247 14.5278 21.4423 12.7664 19.2514 12.7664C18.3364 12.7664 17.4432 13.0815 16.7361 13.6538C16.5701 13.7882 16.3265 13.7627 16.1917 13.5965C16.0573 13.4304 16.0826 13.1866 16.2492 13.052C17.0935 12.3687 18.1597 11.9922 19.2514 11.9922C21.8691 11.9922 23.9987 14.101 23.9987 16.6933V17.9595C23.9987 18.5137 23.5448 18.9647 22.9869 18.9647Z" fill="#23272E"/>
<path d="M19.2527 11.4233C17.7176 11.4233 16.4688 10.1859 16.4688 8.66488C16.4688 7.1439 17.7176 5.90625 19.2527 5.90625C20.7881 5.90625 22.037 7.14371 22.037 8.66488C22.037 10.1861 20.7879 11.4233 19.2527 11.4233ZM19.2527 6.68044C18.1445 6.68044 17.2429 7.57069 17.2429 8.66488C17.2429 9.75907 18.1445 10.6491 19.2527 10.6491C20.3613 10.6491 21.2629 9.75907 21.2629 8.66488C21.2629 7.57069 20.3611 6.68044 19.2527 6.68044Z" fill="#23272E"/>
<path d="M17.2538 20.5154H6.74628C6.04826 20.5154 5.48047 19.9518 5.48047 19.2589V17.478C5.48047 13.9189 8.40487 11.0234 12.0001 11.0234C15.5953 11.0234 18.5197 13.9189 18.5197 17.478V19.2589C18.5197 19.9518 17.9519 20.5154 17.2538 20.5154ZM12.0001 11.7978C8.83203 11.7978 6.25466 14.3461 6.25466 17.4782V19.2591C6.25466 19.525 6.47524 19.7414 6.74628 19.7414H17.2537C17.5247 19.7414 17.7453 19.525 17.7453 19.2591V17.4782C17.7455 14.3461 15.1681 11.7978 12.0001 11.7978Z" fill="#23272E"/>
<path d="M11.8628 10.5723C9.89025 10.5723 8.28516 8.98255 8.28516 7.02816C8.28516 5.07397 9.89006 3.48438 11.8628 3.48438C13.8357 3.48438 15.4406 5.07416 15.4406 7.02835C15.4406 8.98274 13.8355 10.5723 11.8628 10.5723ZM11.8628 4.25857C10.317 4.25857 9.05935 5.50113 9.05935 7.02835C9.05935 8.55576 10.317 9.79833 11.8628 9.79833C13.4087 9.79833 14.6664 8.55576 14.6664 7.02835C14.6664 5.50113 13.4087 4.25857 11.8628 4.25857Z" fill="#23272E"/>
</g>
<defs>
<clipPath id="clip0_2204_17315">
<rect width="24" height="24" fill="white"/>
</clipPath>
</defs>
</svg>
