<svg width="18" height="16" viewBox="0 0 18 16" fill="none" xmlns="http://www.w3.org/2000/svg">
<path d="M5.75653 13.2026C3.41646 11.3997 0.667969 9.2821 0.667969 5.6112C0.667969 1.55875 5.25144 -1.31517 9.00131 2.58081L10.668 4.24635C10.9121 4.49038 11.3078 4.49031 11.5519 4.24619C11.7959 4.00206 11.7958 3.60634 11.5517 3.3623L9.9417 1.75288C13.475 -0.833814 17.3346 1.89249 17.3346 5.6112C17.3346 9.2821 14.5862 11.3997 12.2461 13.2026C12.0029 13.39 11.7641 13.574 11.5332 13.756C10.668 14.4381 9.83464 15.0803 9.00131 15.0803C8.16797 15.0803 7.33464 14.4381 6.46942 13.756C6.23856 13.574 5.99975 13.39 5.75653 13.2026Z" stroke="#6969D0"/>
</svg>
