<svg width="119" height="140" viewBox="0 0 119 140" fill="none" xmlns="http://www.w3.org/2000/svg">
<g clip-path="url(#clip0_1100_54579)">
<path d="M34.4387 87.5135C28.1804 71.7272 15.0344 57.4405 31.5766 28.6627C38.3895 16.8105 48.7963 8.99389 59.5469 11.6404C70.2975 8.99418 80.7043 16.8108 87.5172 28.6627C104.059 57.4405 90.9137 71.7272 84.6545 87.5135L59.5478 87.5756L34.4395 87.5135H34.4387Z" fill="#666666"/>
<path d="M17.2613 112.186C16.4763 113.454 14.5177 124.229 12.3516 132.399C25.2381 142.817 41.6399 149.06 59.5016 149.06C77.3642 149.06 93.7657 142.817 106.652 132.399C104.485 124.23 102.527 113.453 101.742 112.186C89.6856 92.7222 71.1018 101.219 69.8348 78.9458C69.8348 78.9458 63.8562 83.4066 59.2911 83.4474C54.7258 83.4881 49.1626 79.2272 49.1626 79.2272C47.8985 101.481 29.3092 92.7369 17.2613 112.186Z" fill="#FED198"/>
<path d="M70.1522 82.0912C70.0024 81.1148 69.8922 80.0708 69.8286 78.9458C69.8286 78.9458 63.8499 83.4066 59.2849 83.4474C54.7196 83.4881 49.1564 79.2272 49.1564 79.2272C49.0919 80.3727 48.9787 81.4322 48.8242 82.4215C48.9412 82.5138 49.0573 82.6076 49.1763 82.6991L49.1748 82.7152C49.5263 83.0212 54.8703 87.6157 59.284 87.5694C63.6978 87.6154 69.0412 83.0203 69.3932 82.7152L69.3923 82.6991C69.6515 82.5006 69.903 82.2963 70.1513 82.0917L70.1522 82.0912Z" fill="#F0B97D"/>
<path d="M49.1821 79.2437C49.5336 79.509 54.8776 83.4891 59.2913 83.4493C63.7051 83.4891 69.0484 79.5084 69.4005 79.2437C76.0719 75.355 81.546 63.8898 80.3103 51.464C79.2983 41.2855 68.2856 56.21 60.6155 35.2087C49.7596 57.9458 39.4487 44.4962 38.2732 53.113C36.9774 62.6071 42.3085 74.5531 49.1821 79.2443V79.2437Z" fill="#FED198"/>
<path d="M56.4961 72.5801C57.5613 73.7888 60.6762 75.481 64.6136 72.5801" stroke="#FFB75B" stroke-width="1.5" stroke-linecap="round"/>
<path d="M49.3965 53.9016C49.3228 53.9016 46.7654 53.9208 46.766 53.9208C46.0658 53.9208 45.4961 54.4904 45.4961 55.1904C45.4961 55.8905 46.0658 56.4601 46.766 56.4601H47.3315C47.2761 56.7781 47.2483 57.1069 47.2483 57.4383C47.2483 59.3883 48.2122 60.9749 49.3968 60.9749C50.5813 60.9749 51.5452 59.3883 51.5452 57.4383C51.545 55.4882 50.5811 53.9016 49.3965 53.9016Z" fill="#A9AEB6"/>
<path d="M72.2328 53.9208C72.1969 53.9205 69.5147 53.9016 69.4414 53.9016C68.2569 53.9016 67.293 55.4882 67.293 57.4383C67.293 59.3883 68.2569 60.9749 69.4414 60.9749C70.626 60.9749 71.5899 59.3883 71.5899 57.4383C71.5899 57.1066 71.5618 56.7781 71.5067 56.4601H72.2328C72.933 56.4601 73.5027 55.8905 73.5027 55.1904C73.5024 54.4904 72.9327 53.921 72.2328 53.9208Z" fill="#A9AEB6"/>
<path d="M40.4182 95.1697C33.8483 98.6786 21.8297 98.7847 17.2568 106.136C16.4603 107.416 14.461 123.097 12.2617 132.338C25.16 142.797 41.5952 149.068 59.4962 149.068C77.3987 149.068 93.8324 142.798 106.732 132.338C104.532 123.097 102.293 107.537 101.736 106.136C98.7 98.4781 84.6437 98.1583 78.0671 94.6272C67.8418 131.719 52.6012 134.248 40.4188 95.173L40.4164 95.17H40.4182V95.1697Z" fill="#FBB429"/>
<path d="M44.7988 91.4856C44.372 103.026 46.3344 119.374 59.2848 123.552C47.0925 124.062 39.1808 106.497 30.168 101.897L44.7985 91.4865L44.7988 91.4856Z" fill="white"/>
<path d="M74.5009 91.4856C74.9486 103.026 72.8886 119.374 59.2891 123.552C72.0921 124.062 80.4004 106.497 89.8629 101.897L74.5003 91.4865L74.5009 91.4856Z" fill="white"/>
</g>
<defs>
<clipPath id="clip0_1100_54579">
<rect width="150.096" height="150.072" fill="white" transform="translate(-15.5469 -1.00708)"/>
</clipPath>
</defs>
</svg>
