<svg width="18" height="19" viewBox="0 0 18 19" fill="none" xmlns="http://www.w3.org/2000/svg">
<path fill-rule="evenodd" clip-rule="evenodd" d="M9 7.39474C8.53516 7.39474 8.15789 7.01663 8.15789 6.55263C8.15789 6.08863 8.53516 5.71053 9 5.71053C9.46484 5.71053 9.8421 6.08863 9.8421 6.55263C9.8421 7.01663 9.46484 7.39474 9 7.39474ZM9.8421 13.2895H8.15789C7.92547 13.2895 7.73684 13.1008 7.73684 12.8684C7.73684 12.636 7.92547 12.4474 8.15789 12.4474H8.57895V9.07895H8.15789C7.92547 9.07895 7.73684 8.89032 7.73684 8.65789C7.73684 8.42547 7.92547 8.23684 8.15789 8.23684H9C9.23242 8.23684 9.42105 8.42547 9.42105 8.65789V12.4474H9.8421C10.0745 12.4474 10.2632 12.636 10.2632 12.8684C10.2632 13.1008 10.0745 13.2895 9.8421 13.2895ZM9 2.34211C5.05305 2.34211 1.84211 5.55305 1.84211 9.5C1.84211 13.4469 5.05305 16.6579 9 16.6579C12.9469 16.6579 16.1579 13.4469 16.1579 9.5C16.1579 5.55305 12.9469 2.34211 9 2.34211ZM9 17.5C4.58905 17.5 1 13.9109 1 9.5C1 5.08905 4.58905 1.5 9 1.5C13.4109 1.5 17 5.08905 17 9.5C17 13.9109 13.4109 17.5 9 17.5Z" fill="#333399"/>
</svg>
