<svg width="38" height="39" viewBox="0 0 38 39" fill="none" xmlns="http://www.w3.org/2000/svg">
<path d="M59.7324 8.00039C59.7324 3.58211 56.135 -0.0546669 51.7563 0.53532C46.6541 1.22278 41.651 2.56851 36.874 4.54722C29.6269 7.54903 23.0421 11.9489 17.4955 17.4955C11.9489 23.0421 7.54903 29.6269 4.54721 36.874C2.5685 41.651 1.22278 46.6541 0.535315 51.7563C-0.0546706 56.135 3.58211 59.7324 8.00039 59.7324L51.7324 59.7324C56.1507 59.7324 59.7324 56.1507 59.7324 51.7324L59.7324 8.00039Z" fill="#6A6AD2"/>
<path d="M59.7324 8.00039C59.7324 3.58211 56.135 -0.0546669 51.7563 0.53532C46.6541 1.22278 41.651 2.56851 36.874 4.54722C29.6269 7.54903 23.0421 11.9489 17.4955 17.4955C11.9489 23.0421 7.54903 29.6269 4.54721 36.874C2.5685 41.651 1.22278 46.6541 0.535315 51.7563C-0.0546706 56.135 3.58211 59.7324 8.00039 59.7324L51.7324 59.7324C56.1507 59.7324 59.7324 56.1507 59.7324 51.7324L59.7324 8.00039Z" fill="url(#paint0_linear_1065_68203)"/>
<defs>
<linearGradient id="paint0_linear_1065_68203" x1="29.8664" y1="59.7324" x2="29.8664" y2="0.000389789" gradientUnits="userSpaceOnUse">
<stop stop-color="#333399" stop-opacity="0"/>
<stop offset="1" stop-color="#080895"/>
</linearGradient>
</defs>
</svg>
