<svg width="73" height="73" viewBox="0 0 73 73" fill="none" xmlns="http://www.w3.org/2000/svg">
<rect x="2.87922" y="2.96321" width="66.9299" height="66.9299" rx="33.465" fill="#333399"/>
<g clip-path="url(#clip0_1748_18979)">
<path d="M40.2445 35.5117H32.453C32.0772 35.5117 31.7656 35.8234 31.7656 36.1992C31.7656 36.5751 32.0772 36.8867 32.453 36.8867H40.2445C40.6204 36.8867 40.932 36.5751 40.932 36.1992C40.932 35.8234 40.6204 35.5117 40.2445 35.5117ZM40.2445 39.6367H32.453C32.0772 39.6367 31.7656 39.9484 31.7656 40.3242C31.7656 40.7001 32.0772 41.0117 32.453 41.0117H40.2445C40.6204 41.0117 40.932 40.7001 40.932 40.3242C40.932 39.9484 40.6204 39.6367 40.2445 39.6367ZM31.7656 32.0742C31.7656 32.4501 32.0772 32.7617 32.453 32.7617H39.2821L39.1996 32.5051C39.1537 32.3767 39.0896 32.2576 39.0071 32.1476C38.9704 32.1017 38.9429 32.0651 38.9062 32.0284C38.7687 31.8909 38.6037 31.7901 38.4296 31.7351L37.3571 31.3867H32.453C32.0772 31.3867 31.7656 31.6984 31.7656 32.0742ZM43.4986 37.6109L43.2603 36.8867L42.527 36.6209C42.4445 36.5934 42.3803 36.5476 42.307 36.5109V43.5326C42.307 43.9084 41.9953 44.2201 41.6195 44.2201H31.0781C30.7023 44.2201 30.3906 43.9084 30.3906 43.5326V29.3242C30.3906 28.9484 30.7023 28.6368 31.0781 28.6368H36.1471C36.1746 28.5818 36.193 28.5176 36.2296 28.4626C36.4496 28.1509 36.7613 27.9126 37.1371 27.7843L38.4296 27.3626C38.4937 27.3351 38.5671 27.2984 38.6312 27.2618H31.0781C29.9414 27.2618 29.0156 28.1876 29.0156 29.3242V43.5326C29.0156 44.6692 29.9414 45.5951 31.0781 45.5951H41.6195C42.7561 45.5951 43.682 44.6692 43.682 43.5326V37.9592C43.6065 37.8512 43.5449 37.7342 43.4986 37.6109ZM39.8779 31.0659C39.9512 31.1392 40.0245 31.2217 40.0887 31.3134C40.272 31.5426 40.4095 31.8084 40.5012 32.0926L40.9137 33.3576C40.9504 33.4584 41.0145 33.5409 41.097 33.5959C41.1795 33.6601 41.2803 33.6876 41.3812 33.6876C41.4835 33.6896 41.5835 33.6573 41.6653 33.5959C41.7387 33.5409 41.8028 33.4676 41.8395 33.3851V33.3576L42.2612 32.0926C42.3895 31.7076 42.6003 31.3592 42.8936 31.0751C43.1778 30.7909 43.5261 30.5709 43.9111 30.4426L45.1761 30.0301C45.2769 29.9934 45.3594 29.9292 45.4144 29.8467C45.4758 29.7649 45.5081 29.6649 45.5061 29.5626C45.5081 29.4603 45.4758 29.3603 45.4144 29.2784C45.3526 29.1973 45.2703 29.1341 45.1761 29.0951H45.1486L43.8836 28.6826C43.4986 28.5543 43.1503 28.3434 42.8661 28.0501C42.5793 27.7645 42.3628 27.4162 42.2337 27.0326L41.8212 25.7676C41.7871 25.6706 41.7229 25.587 41.6378 25.5293C41.5553 25.4743 41.4545 25.4376 41.3537 25.4376C41.2514 25.4356 41.1514 25.4678 41.0695 25.5293C40.987 25.5843 40.9229 25.6759 40.8862 25.7676L40.4737 27.0326V27.0601C40.3362 27.4268 40.1254 27.7659 39.8595 28.0409C39.5754 28.3251 39.2362 28.5451 38.8512 28.6734L37.5863 29.0859C37.4854 29.1226 37.4029 29.1867 37.3479 29.2692C37.2865 29.3511 37.2543 29.4511 37.2563 29.5534C37.2563 29.6542 37.2838 29.7551 37.3479 29.8376C37.4029 29.9201 37.4946 29.9842 37.5863 30.0209L38.8512 30.4334C39.2362 30.5617 39.5846 30.7817 39.8687 31.0659H39.8779ZM47.1469 34.7967C47.2055 34.7967 47.266 34.8517 47.3027 34.8976C47.3394 34.9434 47.3485 34.9984 47.3485 35.0534C47.3485 35.1084 47.3394 35.1634 47.3027 35.2092C47.266 35.2551 47.2202 35.2917 47.1652 35.3101L46.4594 35.5392C46.2486 35.6126 46.0561 35.7317 45.8911 35.8876C45.7352 36.0434 45.6161 36.2359 45.5427 36.4559L45.3136 37.1526C45.2953 37.2076 45.2586 37.2534 45.2128 37.2901C45.1685 37.3255 45.1136 37.3448 45.0569 37.3448C45.0003 37.3448 44.9453 37.3255 44.9011 37.2901C44.8549 37.255 44.8199 37.2072 44.8003 37.1526L44.5711 36.4559C44.4978 36.2451 44.3786 36.0434 44.2228 35.8876C44.0669 35.7317 43.8653 35.6034 43.6545 35.5392L42.9486 35.3101C42.894 35.2905 42.8462 35.2555 42.8111 35.2092C42.7757 35.165 42.7564 35.1101 42.7564 35.0534C42.7564 34.9968 42.7757 34.9418 42.8111 34.8976C42.8478 34.8517 42.8936 34.8151 42.9486 34.7967L43.6545 34.5676C43.8653 34.4942 44.0578 34.3751 44.2136 34.2192C44.3694 34.0634 44.4886 33.8709 44.5528 33.6601L44.7819 32.9634C44.8003 32.9084 44.8369 32.8626 44.8828 32.8259C44.927 32.7905 44.9819 32.7712 45.0386 32.7712C45.0952 32.7712 45.1502 32.7905 45.1944 32.8259C45.2403 32.8626 45.2769 32.9084 45.2953 32.9634L45.5244 33.6601C45.5977 33.8709 45.7169 34.0634 45.8727 34.2284C46.0286 34.3842 46.2211 34.5034 46.4411 34.5767L47.1469 34.7967Z" fill="white"/>
</g>
<rect x="2.87922" y="2.96321" width="66.9299" height="66.9299" rx="33.465" stroke="white" stroke-width="5.57749"/>
<defs>
<clipPath id="clip0_1748_18979">
<rect width="21.9995" height="22" fill="white" transform="translate(25.3438 25.4277)"/>
</clipPath>
</defs>
</svg>
