<svg width="73" height="73" viewBox="0 0 73 73" fill="none" xmlns="http://www.w3.org/2000/svg">
<rect x="2.86555" y="2.96321" width="66.9299" height="66.9299" rx="33.465" fill="#333399"/>
<g clip-path="url(#clip0_1748_18943)">
<path d="M33.6872 26.014C33.931 25.8731 34.2076 25.7988 34.4893 25.7988C34.7709 25.7988 35.0475 25.8731 35.2913 26.014L42.8537 30.3792C42.9481 30.4342 43.0361 30.4965 43.1158 30.568C43.2092 30.5885 43.2973 30.6282 43.3745 30.6847C43.4516 30.7412 43.5162 30.8131 43.564 30.8959C43.6118 30.9787 43.6418 31.0706 43.652 31.1657C43.6623 31.2607 43.6526 31.3569 43.6236 31.448C43.6447 31.5516 43.6557 31.6589 43.6557 31.7689V34.8232C43.6557 35.0055 43.5833 35.1804 43.4544 35.3093C43.3254 35.4382 43.1506 35.5107 42.9682 35.5107C42.7859 35.5107 42.611 35.4382 42.4821 35.3093C42.3532 35.1804 42.2808 35.0055 42.2808 34.8232V32.4307L35.1768 36.5318V45.924C35.1768 46.0447 35.1451 46.1633 35.0848 46.2679C35.0245 46.3725 34.9377 46.4593 34.8332 46.5197C34.7287 46.5801 34.6101 46.6119 34.4894 46.6119C34.3687 46.6119 34.2501 46.5802 34.1455 46.5198L26.1249 41.8888C25.8811 41.7481 25.6786 41.5457 25.5378 41.3019C25.3971 41.0581 25.3229 40.7816 25.3228 40.5001V31.7679C25.3228 31.6589 25.3338 31.5516 25.3549 31.4471C25.3258 31.356 25.316 31.2598 25.3262 31.1647C25.3364 31.0696 25.3664 30.9776 25.4142 30.8948C25.462 30.8119 25.5266 30.74 25.6038 30.6836C25.6811 30.6271 25.7693 30.5875 25.8627 30.5671C25.9434 30.4956 26.0314 30.4333 26.1249 30.3792L33.6872 26.014ZM34.4893 35.3393V35.3402L41.5933 31.239L34.6039 27.2039C34.5691 27.1836 34.5295 27.1729 34.4893 27.1729C34.449 27.1729 34.4095 27.1836 34.3747 27.2039L27.3853 31.239L34.4893 35.3393ZM26.6978 32.4288V40.4982C26.6978 40.5807 26.7418 40.6559 26.8124 40.6962L33.8018 44.7314V36.53L26.6978 32.4288Z" fill="white"/>
<path d="M40.5579 41.4668L43.2115 38.99C43.3427 38.865 43.4193 38.6933 43.4246 38.5122C43.4299 38.3311 43.3634 38.1552 43.2397 38.0228C43.116 37.8904 42.9451 37.8122 42.764 37.8052C42.583 37.7982 42.4065 37.8629 42.2729 37.9853L38.3451 41.652C38.2762 41.7163 38.2214 41.7941 38.1838 41.8805C38.1463 41.9669 38.127 42.0601 38.127 42.1543C38.127 42.2485 38.1463 42.3417 38.1838 42.4282C38.2214 42.5146 38.2762 42.5923 38.3451 42.6567L42.2729 46.3233C42.3387 46.386 42.4162 46.435 42.501 46.4675C42.5859 46.5 42.6763 46.5154 42.7671 46.5127C42.8579 46.5101 42.9473 46.4894 43.03 46.4521C43.1128 46.4147 43.1874 46.3612 43.2494 46.2949C43.3114 46.2285 43.3597 46.1505 43.3913 46.0653C43.423 45.9802 43.4375 45.8896 43.434 45.7989C43.4305 45.7081 43.409 45.6189 43.3708 45.5365C43.3327 45.4541 43.2785 45.38 43.2115 45.3187L40.5579 42.8418H46.638C46.8203 42.8418 46.9952 42.7694 47.1241 42.6405C47.253 42.5115 47.3254 42.3367 47.3254 42.1543C47.3254 41.972 47.253 41.7971 47.1241 41.6682C46.9952 41.5393 46.8203 41.4668 46.638 41.4668H40.5579Z" fill="white"/>
</g>
<rect x="2.86555" y="2.96321" width="66.9299" height="66.9299" rx="33.465" stroke="white" stroke-width="5.57749"/>
<defs>
<clipPath id="clip0_1748_18943">
<rect width="21.9995" height="22" fill="white" transform="translate(25.3301 25.4277)"/>
</clipPath>
</defs>
</svg>
