<svg width="1120" height="252" viewBox="0 0 1120 252" fill="none" xmlns="http://www.w3.org/2000/svg">
<path d="M343.221 193.233C380.281 193.233 410.324 163.189 410.324 126.129C410.324 89.0687 380.281 59.0254 343.221 59.0254C306.16 59.0254 276.117 89.0687 276.117 126.129C276.117 163.189 306.16 193.233 343.221 193.233Z" fill="#333399"/>
<g clip-path="url(#clip0_1027_48421)">
<path d="M338.207 106.407C338.679 106.134 339.215 105.99 339.761 105.99C340.307 105.99 340.843 106.134 341.315 106.407L355.967 114.865C356.15 114.971 356.321 115.092 356.475 115.231C356.656 115.27 356.827 115.347 356.976 115.457C357.126 115.566 357.251 115.705 357.343 115.866C357.436 116.026 357.494 116.204 357.514 116.389C357.534 116.573 357.515 116.759 357.459 116.936C357.5 117.136 357.521 117.344 357.521 117.557V123.475C357.521 123.828 357.381 124.167 357.131 124.417C356.881 124.667 356.542 124.807 356.189 124.807C355.836 124.807 355.497 124.667 355.247 124.417C354.997 124.167 354.857 123.828 354.857 123.475V118.839L341.093 126.785V144.983C341.093 145.217 341.032 145.446 340.915 145.649C340.798 145.852 340.63 146.02 340.427 146.137C340.225 146.254 339.995 146.316 339.761 146.316C339.527 146.316 339.298 146.254 339.095 146.137L323.555 137.165C323.083 136.892 322.69 136.5 322.418 136.027C322.145 135.555 322.001 135.019 322.001 134.474V117.555C322.001 117.344 322.022 117.136 322.063 116.934C322.007 116.757 321.988 116.571 322.008 116.387C322.027 116.202 322.085 116.024 322.178 115.864C322.271 115.703 322.396 115.564 322.546 115.454C322.695 115.345 322.866 115.268 323.047 115.229C323.203 115.09 323.374 114.969 323.555 114.865L338.207 106.407ZM339.761 124.475V124.477L353.525 116.531L339.983 108.712C339.916 108.673 339.839 108.652 339.761 108.652C339.683 108.652 339.606 108.673 339.539 108.712L325.997 116.531L339.761 124.475ZM324.665 118.836V134.47C324.665 134.63 324.75 134.776 324.887 134.854L338.429 142.672V126.782L324.665 118.836Z" fill="white"/>
<path d="M351.52 136.347L356.662 131.549C356.916 131.306 357.064 130.974 357.075 130.623C357.085 130.272 356.956 129.931 356.717 129.675C356.477 129.418 356.146 129.267 355.795 129.253C355.444 129.239 355.102 129.365 354.843 129.602L347.233 136.706C347.1 136.831 346.993 136.981 346.921 137.149C346.848 137.316 346.811 137.497 346.811 137.679C346.811 137.862 346.848 138.042 346.921 138.21C346.993 138.377 347.1 138.528 347.233 138.653L354.843 145.757C354.971 145.878 355.121 145.973 355.285 146.036C355.45 146.099 355.625 146.129 355.801 146.124C355.977 146.119 356.15 146.079 356.31 146.006C356.471 145.934 356.615 145.83 356.735 145.702C356.855 145.573 356.949 145.422 357.01 145.257C357.072 145.092 357.1 144.917 357.093 144.741C357.086 144.565 357.045 144.392 356.971 144.232C356.897 144.073 356.792 143.929 356.662 143.81L351.52 139.011H363.301C363.654 139.011 363.993 138.871 364.242 138.621C364.492 138.371 364.633 138.033 364.633 137.679C364.633 137.326 364.492 136.987 364.242 136.738C363.993 136.488 363.654 136.347 363.301 136.347H351.52Z" fill="white"/>
</g>
<path d="M995.221 193.233C1032.28 193.233 1062.32 163.189 1062.32 126.129C1062.32 89.0687 1032.28 59.0254 995.221 59.0254C958.16 59.0254 928.117 89.0687 928.117 126.129C928.117 163.189 958.16 193.233 995.221 193.233Z" fill="#333399"/>
<g clip-path="url(#clip1_1027_48421)">
<path d="M1002.9 124.809H987.806C987.078 124.809 986.474 125.413 986.474 126.141C986.474 126.869 987.078 127.473 987.806 127.473H1002.9C1003.63 127.473 1004.23 126.869 1004.23 126.141C1004.23 125.413 1003.63 124.809 1002.9 124.809ZM1002.9 132.801H987.806C987.078 132.801 986.474 133.405 986.474 134.133C986.474 134.861 987.078 135.465 987.806 135.465H1002.9C1003.63 135.465 1004.23 134.861 1004.23 134.133C1004.23 133.405 1003.63 132.801 1002.9 132.801ZM986.474 118.149C986.474 118.877 987.078 119.481 987.806 119.481H1001.04L1000.88 118.983C1000.79 118.735 1000.66 118.504 1000.5 118.291C1000.43 118.202 1000.38 118.131 1000.31 118.06C1000.04 117.794 999.723 117.598 999.386 117.492L997.308 116.817H987.806C987.078 116.817 986.474 117.421 986.474 118.149ZM1009.21 128.876L1008.75 127.473L1007.32 126.958C1007.16 126.905 1007.04 126.816 1006.9 126.745V140.349C1006.9 141.077 1006.29 141.681 1005.57 141.681H985.142C984.414 141.681 983.81 141.077 983.81 140.349V112.821C983.81 112.092 984.414 111.489 985.142 111.489H994.964C995.017 111.382 995.053 111.258 995.124 111.151C995.55 110.547 996.154 110.086 996.882 109.837L999.386 109.02C999.51 108.967 999.652 108.896 999.777 108.825H985.142C982.94 108.825 981.146 110.618 981.146 112.821V140.349C981.146 142.551 982.94 144.345 985.142 144.345H1005.57C1007.77 144.345 1009.56 142.551 1009.56 140.349V129.551C1009.42 129.342 1009.3 129.115 1009.21 128.876ZM1002.19 116.195C1002.33 116.337 1002.48 116.497 1002.6 116.675C1002.96 117.119 1003.22 117.634 1003.4 118.184L1004.2 120.635C1004.27 120.831 1004.39 120.99 1004.55 121.097C1004.71 121.221 1004.91 121.275 1005.1 121.275C1005.3 121.278 1005.5 121.216 1005.66 121.097C1005.8 120.99 1005.92 120.848 1005.99 120.688V120.635L1006.81 118.184C1007.06 117.438 1007.47 116.763 1008.04 116.213C1008.59 115.662 1009.26 115.236 1010.01 114.987L1012.46 114.188C1012.65 114.117 1012.81 113.993 1012.92 113.833C1013.04 113.674 1013.1 113.481 1013.1 113.282C1013.1 113.084 1013.04 112.89 1012.92 112.732C1012.8 112.575 1012.64 112.452 1012.46 112.377H1012.4L1009.95 111.577C1009.21 111.329 1008.53 110.92 1007.98 110.352C1007.43 109.799 1007.01 109.124 1006.76 108.381L1005.96 105.93C1005.89 105.742 1005.77 105.58 1005.6 105.468C1005.44 105.361 1005.25 105.29 1005.05 105.29C1004.85 105.286 1004.66 105.349 1004.5 105.468C1004.34 105.574 1004.22 105.752 1004.15 105.93L1003.35 108.381V108.434C1003.08 109.144 1002.67 109.801 1002.16 110.334C1001.61 110.885 1000.95 111.311 1000.2 111.56L997.752 112.359C997.557 112.43 997.397 112.554 997.29 112.714C997.171 112.873 997.109 113.066 997.113 113.265C997.113 113.46 997.166 113.655 997.29 113.815C997.397 113.975 997.574 114.099 997.752 114.17L1000.2 114.97C1000.95 115.218 1001.62 115.645 1002.17 116.195H1002.19ZM1016.28 123.424C1016.39 123.424 1016.51 123.53 1016.58 123.619C1016.65 123.708 1016.67 123.814 1016.67 123.921C1016.67 124.027 1016.65 124.134 1016.58 124.223C1016.51 124.312 1016.42 124.383 1016.31 124.418L1014.94 124.862C1014.54 125.004 1014.16 125.235 1013.84 125.537C1013.54 125.839 1013.31 126.212 1013.17 126.638L1012.72 127.988C1012.69 128.095 1012.62 128.183 1012.53 128.254C1012.44 128.323 1012.34 128.36 1012.23 128.36C1012.12 128.36 1012.01 128.323 1011.92 128.254C1011.84 128.186 1011.77 128.094 1011.73 127.988L1011.29 126.638C1011.14 126.23 1010.91 125.839 1010.61 125.537C1010.31 125.235 1009.92 124.986 1009.51 124.862L1008.14 124.418C1008.04 124.38 1007.94 124.312 1007.88 124.223C1007.81 124.137 1007.77 124.031 1007.77 123.921C1007.77 123.811 1007.81 123.705 1007.88 123.619C1007.95 123.53 1008.04 123.459 1008.14 123.424L1009.51 122.98C1009.92 122.837 1010.29 122.607 1010.59 122.305C1010.89 122.003 1011.13 121.63 1011.25 121.221L1011.69 119.871C1011.73 119.765 1011.8 119.676 1011.89 119.605C1011.97 119.536 1012.08 119.499 1012.19 119.499C1012.3 119.499 1012.41 119.536 1012.49 119.605C1012.58 119.676 1012.65 119.765 1012.69 119.871L1013.13 121.221C1013.27 121.63 1013.51 122.003 1013.81 122.322C1014.11 122.624 1014.48 122.855 1014.91 122.997L1016.28 123.424Z" fill="white"/>
</g>
<path d="M560.221 193.233C597.281 193.233 627.324 163.189 627.324 126.129C627.324 89.0687 597.281 59.0254 560.221 59.0254C523.16 59.0254 493.117 89.0687 493.117 126.129C493.117 163.189 523.16 193.233 560.221 193.233Z" fill="#333399"/>
<path fill-rule="evenodd" clip-rule="evenodd" d="M558.124 107.493H561.875C565.139 107.493 567.725 107.493 569.748 107.765C571.83 108.046 573.515 108.635 574.845 109.964C576.174 111.294 576.763 112.979 577.044 115.061C577.316 117.086 577.316 119.67 577.316 122.934V130.237C577.316 133.501 577.316 136.087 577.044 138.11C576.763 140.192 576.174 141.877 574.845 143.208C573.515 144.536 571.83 145.126 569.748 145.406C567.723 145.678 565.139 145.678 561.875 145.678H558.124C554.86 145.678 552.274 145.678 550.251 145.406C548.17 145.126 546.484 144.536 545.154 143.208C543.826 141.877 543.236 140.192 542.955 138.11C542.684 136.086 542.684 133.501 542.684 130.237V122.934C542.684 119.67 542.684 117.084 542.955 115.061C543.236 112.979 543.826 111.294 545.154 109.964C546.484 108.635 548.17 108.046 550.251 107.765C552.276 107.493 554.86 107.493 558.124 107.493ZM550.605 110.406C548.818 110.646 547.788 111.097 547.035 111.848C546.285 112.599 545.834 113.629 545.594 115.416C545.349 117.242 545.346 119.647 545.346 123.033V130.138C545.346 133.525 545.349 135.931 545.594 137.757C545.834 139.542 546.285 140.572 547.037 141.323C547.788 142.074 548.818 142.526 550.605 142.765C552.43 143.01 554.835 143.014 558.222 143.014H561.774C565.161 143.014 567.567 143.01 569.393 142.765C571.178 142.526 572.208 142.074 572.959 141.323C573.71 140.572 574.161 139.542 574.401 137.755C574.646 135.931 574.65 133.525 574.65 130.138V123.033C574.65 119.647 574.646 117.242 574.401 115.414C574.161 113.629 573.71 112.599 572.959 111.848C572.208 111.097 571.178 110.646 569.391 110.406C567.567 110.161 565.161 110.157 561.774 110.157H558.222C554.835 110.157 552.432 110.161 550.605 110.406ZM551.564 123.033C551.564 122.68 551.704 122.341 551.954 122.092C552.204 121.842 552.542 121.701 552.896 121.701H567.104C567.457 121.701 567.796 121.842 568.045 122.092C568.295 122.341 568.436 122.68 568.436 123.033C568.436 123.387 568.295 123.726 568.045 123.975C567.796 124.225 567.457 124.366 567.104 124.366H552.896C552.542 124.366 552.204 124.225 551.954 123.975C551.704 123.726 551.564 123.387 551.564 123.033ZM551.564 130.138C551.564 129.784 551.704 129.446 551.954 129.196C552.204 128.946 552.542 128.806 552.896 128.806H561.776C562.129 128.806 562.468 128.946 562.717 129.196C562.967 129.446 563.108 129.784 563.108 130.138C563.108 130.491 562.967 130.83 562.717 131.08C562.468 131.329 562.129 131.47 561.776 131.47H552.896C552.542 131.47 552.204 131.329 551.954 131.08C551.704 130.83 551.564 130.491 551.564 130.138Z" fill="white"/>
<path d="M778.221 193.233C815.281 193.233 845.324 163.189 845.324 126.129C845.324 89.0687 815.281 59.0254 778.221 59.0254C741.16 59.0254 711.117 89.0687 711.117 126.129C711.117 163.189 741.16 193.233 778.221 193.233Z" fill="#333399"/>
<path d="M778.227 102.877C770.757 102.877 764.664 108.97 764.664 116.439C764.664 121.049 767.008 125.127 770.537 127.58C762.583 130.684 756.914 138.434 756.914 147.439H760.789C760.789 138.918 766.972 131.796 775.078 130.304L776.289 133.877H780.164L781.375 130.304C789.481 131.796 795.664 138.918 795.664 147.439H799.539C799.539 138.434 793.87 130.684 785.917 127.58C789.443 125.127 791.789 121.049 791.789 116.439C791.789 108.97 785.696 102.877 778.227 102.877ZM778.227 106.752C783.599 106.752 787.914 111.067 787.914 116.439C787.914 121.812 783.599 126.127 778.227 126.127C772.854 126.127 768.539 121.812 768.539 116.439C768.539 111.067 772.854 106.752 778.227 106.752ZM776.289 135.814L774.352 147.439H782.102L780.164 135.814H776.289Z" fill="white"/>
<path d="M125.221 193.233C162.281 193.233 192.324 163.189 192.324 126.129C192.324 89.0687 162.281 59.0254 125.221 59.0254C88.1605 59.0254 58.1172 89.0687 58.1172 126.129C58.1172 163.189 88.1605 193.233 125.221 193.233Z" fill="#333399"/>
<path d="M125.227 102.877C117.757 102.877 111.664 108.97 111.664 116.439C111.664 121.049 114.008 125.127 117.537 127.58C109.583 130.684 103.914 138.434 103.914 147.439H107.789C107.789 138.918 113.972 131.796 122.078 130.304L123.289 133.877H127.164L128.375 130.304C136.481 131.796 142.664 138.918 142.664 147.439H146.539C146.539 138.434 140.87 130.684 132.917 127.58C136.443 125.127 138.789 121.049 138.789 116.439C138.789 108.97 132.696 102.877 125.227 102.877ZM125.227 106.752C130.599 106.752 134.914 111.067 134.914 116.439C134.914 121.812 130.599 126.127 125.227 126.127C119.854 126.127 115.539 121.812 115.539 116.439C115.539 111.067 119.854 106.752 125.227 106.752ZM123.289 135.814L121.352 147.439H129.102L127.164 135.814H123.289Z" fill="white"/>
<path d="M16.1305 126.97C15.8079 86.964 37.5852 48.4101 75.6552 28.8912C129.373 1.46785 195.027 22.7612 222.289 76.4786C230.355 92.4487 234.226 109.387 234.226 126.002L234.388 126.325C234.549 142.779 238.421 159.394 246.325 175.041C273.748 228.759 339.403 250.052 392.959 222.629C430.706 203.432 452.484 165.201 452.484 125.518V126.002C452.161 85.9962 473.938 47.4422 512.008 28.0846C565.726 0.66128 631.38 21.9547 658.642 75.6721C666.708 91.6421 670.58 108.58 670.58 125.195L670.741 125.518C670.902 141.972 674.774 158.587 682.678 174.235C710.101 227.952 775.756 249.245 829.312 221.822C867.059 202.626 888.837 164.395 888.837 124.711V126.002C888.514 85.9962 910.292 47.4422 948.362 28.0846C1002.08 0.66128 1067.73 21.9547 1095 75.6721C1103.06 91.6421 1106.93 108.58 1106.93 125.195" stroke="#CACAFF" stroke-width="2" stroke-miterlimit="10"/>
<path d="M133.085 16.1478C133.085 20.1806 129.858 23.4069 125.826 23.4069C121.793 23.4069 118.566 20.1806 118.566 16.1478C118.566 12.1149 121.793 8.88867 125.826 8.88867C129.858 9.04999 133.085 12.2763 133.085 16.1478Z" fill="#333399"/>
<path d="M23.2292 126.97C23.2292 131.003 20.0029 134.229 15.97 134.229C11.9372 134.229 8.71094 131.003 8.71094 126.97C8.71094 122.937 11.9372 119.711 15.97 119.711C20.0029 119.711 23.2292 122.937 23.2292 126.97Z" fill="#333399"/>
<path d="M1114.35 126.97C1114.35 131.003 1111.13 134.229 1107.1 134.229C1103.06 134.229 1099.84 131.003 1099.84 126.97C1099.84 122.937 1103.06 119.711 1107.1 119.711C1111.13 119.711 1114.35 122.937 1114.35 126.97Z" fill="#333399"/>
<path d="M349.727 234.727C349.727 238.76 346.501 241.986 342.468 241.986C338.435 241.986 335.209 238.76 335.209 234.727C335.209 230.694 338.435 227.468 342.468 227.468C346.501 227.468 349.727 230.694 349.727 234.727Z" fill="#333399"/>
<path d="M562.661 23.4069C566.671 23.4069 569.921 20.1569 569.921 16.1478C569.921 12.1387 566.671 8.88867 562.661 8.88867C558.652 8.88867 555.402 12.1387 555.402 16.1478C555.402 20.1569 558.652 23.4069 562.661 23.4069Z" fill="#333399"/>
<path d="M778.014 234.727C778.014 238.76 774.788 241.986 770.755 241.986C766.722 241.986 763.496 238.76 763.496 234.727C763.496 230.694 766.722 227.468 770.755 227.468C774.788 227.468 778.014 230.694 778.014 234.727Z" fill="#333399"/>
<path d="M997.24 23.4069C1001.25 23.4069 1004.5 20.1569 1004.5 16.1478C1004.5 12.1387 1001.25 8.88867 997.24 8.88867C993.23 8.88867 989.98 12.1387 989.98 16.1478C989.98 20.1569 993.23 23.4069 997.24 23.4069Z" fill="#333399"/>
<path d="M65.9071 235.113C64.7657 235.113 63.7897 234.878 62.9791 234.409C62.1684 233.939 61.5444 233.273 61.1071 232.409C60.6804 231.534 60.4671 230.505 60.4671 229.321C60.4671 228.137 60.6804 227.113 61.1071 226.249C61.5444 225.385 62.1684 224.718 62.9791 224.249C63.7897 223.779 64.7657 223.545 65.9071 223.545C66.6751 223.545 67.3897 223.667 68.0511 223.913C68.7231 224.147 69.2831 224.489 69.7311 224.937L69.1551 226.265C68.6644 225.827 68.1577 225.513 67.6351 225.321C67.1231 225.118 66.5631 225.017 65.9551 225.017C64.7391 225.017 63.8111 225.39 63.1711 226.137C62.5311 226.883 62.2111 227.945 62.2111 229.321C62.2111 230.697 62.5311 231.763 63.1711 232.521C63.8111 233.267 64.7391 233.641 65.9551 233.641C66.5631 233.641 67.1231 233.545 67.6351 233.353C68.1577 233.15 68.6644 232.83 69.1551 232.393L69.7311 233.721C69.2831 234.169 68.7231 234.515 68.0511 234.761C67.3897 234.995 66.6751 235.113 65.9071 235.113ZM74.0316 235.113C73.1782 235.113 72.5382 234.873 72.1116 234.393C71.6956 233.902 71.4876 233.198 71.4876 232.281V223.689H73.1036V232.185C73.1036 232.526 73.1516 232.819 73.2476 233.065C73.3436 233.299 73.4876 233.475 73.6796 233.593C73.8716 233.71 74.1116 233.769 74.3996 233.769C74.5276 233.769 74.6502 233.763 74.7676 233.753C74.8849 233.742 74.9969 233.721 75.1036 233.689L75.0716 234.985C74.8902 235.027 74.7142 235.059 74.5436 235.081C74.3729 235.102 74.2022 235.113 74.0316 235.113ZM76.2342 225.353V223.673H78.1222V225.353H76.2342ZM76.3782 234.969V227.161H77.9942V234.969H76.3782ZM83.7088 235.113C82.9088 235.113 82.2155 234.947 81.6288 234.617C81.0528 234.275 80.6048 233.801 80.2848 233.193C79.9648 232.574 79.8048 231.849 79.8048 231.017C79.8048 230.195 79.9648 229.486 80.2848 228.889C80.6048 228.291 81.0528 227.833 81.6288 227.513C82.2155 227.182 82.9088 227.017 83.7088 227.017C84.1995 227.017 84.6848 227.102 85.1648 227.273C85.6448 227.433 86.0395 227.667 86.3488 227.977L85.8368 229.113C85.5488 228.835 85.2235 228.633 84.8608 228.505C84.4981 228.366 84.1568 228.297 83.8368 228.297C83.0795 228.297 82.4928 228.537 82.0768 229.017C81.6715 229.486 81.4688 230.158 81.4688 231.033C81.4688 231.907 81.6715 232.595 82.0768 233.097C82.4928 233.587 83.0795 233.833 83.8368 233.833C84.1568 233.833 84.4981 233.769 84.8608 233.641C85.2235 233.502 85.5488 233.294 85.8368 233.017L86.3488 234.169C86.0395 234.457 85.6395 234.686 85.1488 234.857C84.6688 235.027 84.1888 235.113 83.7088 235.113ZM87.7376 234.969V223.689H89.3536V230.569H89.3856L92.7776 227.161H94.7776L90.6656 231.289V230.537L95.0656 234.969H93.0496L89.3856 231.401H89.3536V234.969H87.7376ZM100.191 234.969V223.689H101.807V228.825H101.583C101.817 228.227 102.185 227.779 102.687 227.481C103.188 227.171 103.764 227.017 104.415 227.017C105.033 227.017 105.545 227.134 105.951 227.369C106.367 227.593 106.676 227.939 106.879 228.409C107.081 228.867 107.183 229.449 107.183 230.153V234.969H105.567V230.249C105.567 229.801 105.508 229.438 105.391 229.161C105.273 228.873 105.097 228.659 104.863 228.521C104.628 228.382 104.324 228.313 103.951 228.313C103.524 228.313 103.145 228.403 102.815 228.585C102.495 228.766 102.244 229.027 102.063 229.369C101.892 229.71 101.807 230.105 101.807 230.553V234.969H100.191ZM113.073 235.113C112.22 235.113 111.484 234.953 110.865 234.633C110.257 234.302 109.783 233.838 109.441 233.241C109.111 232.633 108.945 231.913 108.945 231.081C108.945 230.27 109.111 229.561 109.441 228.953C109.772 228.345 110.225 227.87 110.801 227.529C111.377 227.187 112.033 227.017 112.769 227.017C113.495 227.017 114.113 227.177 114.625 227.497C115.148 227.806 115.548 228.249 115.825 228.825C116.103 229.401 116.241 230.089 116.241 230.889V231.433H110.225V230.441H115.153L114.881 230.665C114.881 229.865 114.705 229.246 114.353 228.809C114.001 228.371 113.495 228.153 112.833 228.153C112.332 228.153 111.905 228.27 111.553 228.505C111.212 228.739 110.951 229.065 110.769 229.481C110.588 229.897 110.497 230.382 110.497 230.937V231.033C110.497 231.651 110.593 232.174 110.785 232.601C110.988 233.017 111.281 233.331 111.665 233.545C112.049 233.758 112.524 233.865 113.089 233.865C113.537 233.865 113.975 233.795 114.401 233.657C114.839 233.507 115.249 233.278 115.633 232.969L116.113 234.089C115.761 234.409 115.308 234.659 114.753 234.841C114.199 235.022 113.639 235.113 113.073 235.113ZM118.003 234.969V227.161H119.571V229.033H119.411C119.582 228.393 119.886 227.907 120.323 227.577C120.771 227.246 121.363 227.054 122.099 227.001L122.627 226.969L122.739 228.345L121.763 228.441C121.07 228.505 120.542 228.723 120.179 229.097C119.817 229.47 119.635 229.982 119.635 230.633V234.969H118.003ZM127.527 235.113C126.673 235.113 125.937 234.953 125.319 234.633C124.711 234.302 124.236 233.838 123.895 233.241C123.564 232.633 123.399 231.913 123.399 231.081C123.399 230.27 123.564 229.561 123.895 228.953C124.225 228.345 124.679 227.87 125.255 227.529C125.831 227.187 126.487 227.017 127.223 227.017C127.948 227.017 128.567 227.177 129.079 227.497C129.601 227.806 130.001 228.249 130.279 228.825C130.556 229.401 130.695 230.089 130.695 230.889V231.433H124.679V230.441H129.607L129.335 230.665C129.335 229.865 129.159 229.246 128.807 228.809C128.455 228.371 127.948 228.153 127.287 228.153C126.785 228.153 126.359 228.27 126.007 228.505C125.665 228.739 125.404 229.065 125.223 229.481C125.041 229.897 124.951 230.382 124.951 230.937V231.033C124.951 231.651 125.047 232.174 125.239 232.601C125.441 233.017 125.735 233.331 126.119 233.545C126.503 233.758 126.977 233.865 127.543 233.865C127.991 233.865 128.428 233.795 128.855 233.657C129.292 233.507 129.703 233.278 130.087 232.969L130.567 234.089C130.215 234.409 129.761 234.659 129.207 234.841C128.652 235.022 128.092 235.113 127.527 235.113ZM139.987 235.113C139.017 235.113 138.286 234.862 137.795 234.361C137.315 233.859 137.075 233.134 137.075 232.185V228.409H135.555V227.161H137.075V224.809H138.691V227.161H141.107V228.409H138.691V232.057C138.691 232.622 138.809 233.049 139.043 233.337C139.289 233.625 139.683 233.769 140.227 233.769C140.387 233.769 140.547 233.747 140.707 233.705C140.878 233.662 141.043 233.619 141.203 233.577L141.459 234.793C141.299 234.889 141.075 234.963 140.787 235.017C140.51 235.081 140.243 235.113 139.987 235.113ZM145.817 235.113C145.028 235.113 144.345 234.947 143.769 234.617C143.204 234.286 142.761 233.817 142.441 233.209C142.121 232.601 141.961 231.886 141.961 231.065C141.961 230.233 142.121 229.518 142.441 228.921C142.761 228.313 143.204 227.843 143.769 227.513C144.345 227.182 145.028 227.017 145.817 227.017C146.596 227.017 147.268 227.182 147.833 227.513C148.409 227.843 148.857 228.313 149.177 228.921C149.497 229.529 149.657 230.243 149.657 231.065C149.657 231.886 149.497 232.601 149.177 233.209C148.857 233.817 148.409 234.286 147.833 234.617C147.268 234.947 146.596 235.113 145.817 235.113ZM145.801 233.865C146.473 233.865 147.012 233.625 147.417 233.145C147.822 232.665 148.025 231.971 148.025 231.065C148.025 230.147 147.822 229.454 147.417 228.985C147.012 228.515 146.473 228.281 145.801 228.281C145.14 228.281 144.606 228.515 144.201 228.985C143.796 229.454 143.593 230.147 143.593 231.065C143.593 231.971 143.796 232.665 144.201 233.145C144.606 233.625 145.14 233.865 145.801 233.865ZM158.411 235.113C157.995 235.113 157.59 235.075 157.195 235.001C156.8 234.926 156.438 234.819 156.107 234.681C155.776 234.542 155.483 234.371 155.227 234.169L155.691 233.081C155.958 233.262 156.24 233.422 156.539 233.561C156.838 233.689 157.147 233.785 157.467 233.849C157.798 233.913 158.118 233.945 158.427 233.945C158.992 233.945 159.419 233.843 159.707 233.641C159.995 233.438 160.139 233.166 160.139 232.825C160.139 232.547 160.043 232.334 159.851 232.185C159.659 232.025 159.371 231.902 158.987 231.817L157.467 231.513C156.806 231.374 156.304 231.129 155.963 230.777C155.622 230.425 155.451 229.977 155.451 229.433C155.451 228.942 155.584 228.515 155.851 228.153C156.118 227.79 156.491 227.513 156.971 227.321C157.451 227.118 158.006 227.017 158.635 227.017C158.998 227.017 159.35 227.054 159.691 227.129C160.032 227.203 160.352 227.31 160.651 227.449C160.96 227.587 161.222 227.763 161.435 227.977L160.971 229.065C160.768 228.883 160.534 228.729 160.267 228.601C160.011 228.473 159.744 228.377 159.467 228.313C159.19 228.238 158.912 228.201 158.635 228.201C158.07 228.201 157.643 228.307 157.355 228.521C157.078 228.723 156.939 229.001 156.939 229.353C156.939 229.619 157.024 229.838 157.195 230.009C157.366 230.179 157.632 230.302 157.995 230.377L159.515 230.681C160.208 230.819 160.731 231.054 161.083 231.385C161.446 231.715 161.627 232.163 161.627 232.729C161.627 233.219 161.494 233.646 161.227 234.009C160.96 234.371 160.582 234.649 160.091 234.841C159.611 235.022 159.051 235.113 158.411 235.113ZM166.675 235.113C165.704 235.113 164.974 234.862 164.483 234.361C164.003 233.859 163.763 233.134 163.763 232.185V228.409H162.243V227.161H163.763V224.809H165.379V227.161H167.795V228.409H165.379V232.057C165.379 232.622 165.496 233.049 165.731 233.337C165.976 233.625 166.371 233.769 166.915 233.769C167.075 233.769 167.235 233.747 167.395 233.705C167.566 233.662 167.731 233.619 167.891 233.577L168.147 234.793C167.987 234.889 167.763 234.963 167.475 235.017C167.198 235.081 166.931 235.113 166.675 235.113ZM171.687 235.113C171.143 235.113 170.652 235.006 170.215 234.793C169.788 234.579 169.452 234.291 169.207 233.929C168.961 233.566 168.839 233.155 168.839 232.697C168.839 232.121 168.983 231.667 169.271 231.337C169.569 230.995 170.055 230.755 170.727 230.617C171.409 230.467 172.327 230.393 173.479 230.393H174.231V231.385H173.495C172.919 231.385 172.433 231.406 172.039 231.449C171.644 231.491 171.329 231.561 171.095 231.657C170.86 231.742 170.689 231.865 170.583 232.025C170.487 232.185 170.439 232.377 170.439 232.601C170.439 233.006 170.577 233.337 170.855 233.593C171.132 233.838 171.516 233.961 172.007 233.961C172.401 233.961 172.748 233.87 173.047 233.689C173.345 233.497 173.58 233.241 173.751 232.921C173.932 232.601 174.023 232.233 174.023 231.817V229.977C174.023 229.369 173.895 228.931 173.639 228.665C173.383 228.398 172.961 228.265 172.375 228.265C171.927 228.265 171.479 228.334 171.031 228.473C170.583 228.601 170.124 228.809 169.655 229.097L169.159 227.961C169.436 227.769 169.756 227.603 170.119 227.465C170.481 227.326 170.86 227.219 171.255 227.145C171.66 227.059 172.049 227.017 172.423 227.017C173.137 227.017 173.724 227.129 174.183 227.353C174.652 227.577 174.999 227.918 175.223 228.377C175.447 228.835 175.559 229.427 175.559 230.153V234.969H174.039V233.225H174.183C174.097 233.619 173.937 233.961 173.703 234.249C173.479 234.526 173.196 234.739 172.855 234.889C172.513 235.038 172.124 235.113 171.687 235.113ZM177.784 234.969V227.161H179.352V229.033H179.192C179.363 228.393 179.667 227.907 180.104 227.577C180.552 227.246 181.144 227.054 181.88 227.001L182.408 226.969L182.52 228.345L181.544 228.441C180.851 228.505 180.323 228.723 179.96 229.097C179.598 229.47 179.416 229.982 179.416 230.633V234.969H177.784ZM187.519 235.113C186.548 235.113 185.817 234.862 185.327 234.361C184.847 233.859 184.607 233.134 184.607 232.185V228.409H183.087V227.161H184.607V224.809H186.223V227.161H188.639V228.409H186.223V232.057C186.223 232.622 186.34 233.049 186.575 233.337C186.82 233.625 187.215 233.769 187.759 233.769C187.919 233.769 188.079 233.747 188.239 233.705C188.409 233.662 188.575 233.619 188.735 233.577L188.991 234.793C188.831 234.889 188.607 234.963 188.319 235.017C188.041 235.081 187.775 235.113 187.519 235.113Z" fill="#333399"/>
<path d="M500.899 235.113C499.758 235.113 498.782 234.878 497.971 234.409C497.161 233.939 496.537 233.273 496.099 232.409C495.673 231.534 495.459 230.505 495.459 229.321C495.459 228.137 495.673 227.113 496.099 226.249C496.537 225.385 497.161 224.718 497.971 224.249C498.782 223.779 499.758 223.545 500.899 223.545C501.667 223.545 502.382 223.667 503.043 223.913C503.715 224.147 504.275 224.489 504.723 224.937L504.147 226.265C503.657 225.827 503.15 225.513 502.627 225.321C502.115 225.118 501.555 225.017 500.947 225.017C499.731 225.017 498.803 225.39 498.163 226.137C497.523 226.883 497.203 227.945 497.203 229.321C497.203 230.697 497.523 231.763 498.163 232.521C498.803 233.267 499.731 233.641 500.947 233.641C501.555 233.641 502.115 233.545 502.627 233.353C503.15 233.15 503.657 232.83 504.147 232.393L504.723 233.721C504.275 234.169 503.715 234.515 503.043 234.761C502.382 234.995 501.667 235.113 500.899 235.113ZM509.024 235.113C508.17 235.113 507.53 234.873 507.104 234.393C506.688 233.902 506.48 233.198 506.48 232.281V223.689H508.096V232.185C508.096 232.526 508.144 232.819 508.24 233.065C508.336 233.299 508.48 233.475 508.672 233.593C508.864 233.71 509.104 233.769 509.392 233.769C509.52 233.769 509.642 233.763 509.76 233.753C509.877 233.742 509.989 233.721 510.096 233.689L510.064 234.985C509.882 235.027 509.706 235.059 509.536 235.081C509.365 235.102 509.194 235.113 509.024 235.113ZM511.226 225.353V223.673H513.114V225.353H511.226ZM511.37 234.969V227.161H512.986V234.969H511.37ZM518.701 235.113C517.901 235.113 517.208 234.947 516.621 234.617C516.045 234.275 515.597 233.801 515.277 233.193C514.957 232.574 514.797 231.849 514.797 231.017C514.797 230.195 514.957 229.486 515.277 228.889C515.597 228.291 516.045 227.833 516.621 227.513C517.208 227.182 517.901 227.017 518.701 227.017C519.192 227.017 519.677 227.102 520.157 227.273C520.637 227.433 521.032 227.667 521.341 227.977L520.829 229.113C520.541 228.835 520.216 228.633 519.853 228.505C519.49 228.366 519.149 228.297 518.829 228.297C518.072 228.297 517.485 228.537 517.069 229.017C516.664 229.486 516.461 230.158 516.461 231.033C516.461 231.907 516.664 232.595 517.069 233.097C517.485 233.587 518.072 233.833 518.829 233.833C519.149 233.833 519.49 233.769 519.853 233.641C520.216 233.502 520.541 233.294 520.829 233.017L521.341 234.169C521.032 234.457 520.632 234.686 520.141 234.857C519.661 235.027 519.181 235.113 518.701 235.113ZM522.73 234.969V223.689H524.346V230.569H524.378L527.77 227.161H529.77L525.658 231.289V230.537L530.058 234.969H528.042L524.378 231.401H524.346V234.969H522.73ZM535.183 234.969V223.689H536.799V228.825H536.575C536.81 228.227 537.178 227.779 537.679 227.481C538.18 227.171 538.756 227.017 539.407 227.017C540.026 227.017 540.538 227.134 540.943 227.369C541.359 227.593 541.668 227.939 541.871 228.409C542.074 228.867 542.175 229.449 542.175 230.153V234.969H540.559V230.249C540.559 229.801 540.5 229.438 540.383 229.161C540.266 228.873 540.09 228.659 539.855 228.521C539.62 228.382 539.316 228.313 538.943 228.313C538.516 228.313 538.138 228.403 537.807 228.585C537.487 228.766 537.236 229.027 537.055 229.369C536.884 229.71 536.799 230.105 536.799 230.553V234.969H535.183ZM548.066 235.113C547.212 235.113 546.476 234.953 545.858 234.633C545.25 234.302 544.775 233.838 544.434 233.241C544.103 232.633 543.938 231.913 543.938 231.081C543.938 230.27 544.103 229.561 544.434 228.953C544.764 228.345 545.218 227.87 545.794 227.529C546.37 227.187 547.026 227.017 547.762 227.017C548.487 227.017 549.106 227.177 549.618 227.497C550.14 227.806 550.54 228.249 550.818 228.825C551.095 229.401 551.234 230.089 551.234 230.889V231.433H545.218V230.441H550.146L549.874 230.665C549.874 229.865 549.698 229.246 549.346 228.809C548.994 228.371 548.487 228.153 547.826 228.153C547.324 228.153 546.898 228.27 546.546 228.505C546.204 228.739 545.943 229.065 545.762 229.481C545.58 229.897 545.49 230.382 545.49 230.937V231.033C545.49 231.651 545.586 232.174 545.778 232.601C545.98 233.017 546.274 233.331 546.658 233.545C547.042 233.758 547.516 233.865 548.082 233.865C548.53 233.865 548.967 233.795 549.394 233.657C549.831 233.507 550.242 233.278 550.626 232.969L551.106 234.089C550.754 234.409 550.3 234.659 549.746 234.841C549.191 235.022 548.631 235.113 548.066 235.113ZM552.995 234.969V227.161H554.563V229.033H554.403C554.574 228.393 554.878 227.907 555.315 227.577C555.763 227.246 556.355 227.054 557.091 227.001L557.619 226.969L557.731 228.345L556.755 228.441C556.062 228.505 555.534 228.723 555.171 229.097C554.809 229.47 554.627 229.982 554.627 230.633V234.969H552.995ZM562.519 235.113C561.665 235.113 560.929 234.953 560.311 234.633C559.703 234.302 559.228 233.838 558.887 233.241C558.556 232.633 558.391 231.913 558.391 231.081C558.391 230.27 558.556 229.561 558.887 228.953C559.217 228.345 559.671 227.87 560.247 227.529C560.823 227.187 561.479 227.017 562.215 227.017C562.94 227.017 563.559 227.177 564.071 227.497C564.593 227.806 564.993 228.249 565.271 228.825C565.548 229.401 565.687 230.089 565.687 230.889V231.433H559.671V230.441H564.599L564.327 230.665C564.327 229.865 564.151 229.246 563.799 228.809C563.447 228.371 562.94 228.153 562.279 228.153C561.777 228.153 561.351 228.27 560.999 228.505C560.657 228.739 560.396 229.065 560.215 229.481C560.033 229.897 559.943 230.382 559.943 230.937V231.033C559.943 231.651 560.039 232.174 560.231 232.601C560.433 233.017 560.727 233.331 561.111 233.545C561.495 233.758 561.969 233.865 562.535 233.865C562.983 233.865 563.42 233.795 563.847 233.657C564.284 233.507 564.695 233.278 565.079 232.969L565.559 234.089C565.207 234.409 564.753 234.659 564.199 234.841C563.644 235.022 563.084 235.113 562.519 235.113ZM574.98 235.113C574.009 235.113 573.278 234.862 572.788 234.361C572.308 233.859 572.068 233.134 572.068 232.185V228.409H570.548V227.161H572.068V224.809H573.684V227.161H576.1V228.409H573.684V232.057C573.684 232.622 573.801 233.049 574.036 233.337C574.281 233.625 574.676 233.769 575.22 233.769C575.38 233.769 575.54 233.747 575.7 233.705C575.87 233.662 576.036 233.619 576.196 233.577L576.452 234.793C576.292 234.889 576.068 234.963 575.78 235.017C575.502 235.081 575.236 235.113 574.98 235.113ZM580.809 235.113C580.02 235.113 579.337 234.947 578.761 234.617C578.196 234.286 577.753 233.817 577.433 233.209C577.113 232.601 576.953 231.886 576.953 231.065C576.953 230.233 577.113 229.518 577.433 228.921C577.753 228.313 578.196 227.843 578.761 227.513C579.337 227.182 580.02 227.017 580.809 227.017C581.588 227.017 582.26 227.182 582.825 227.513C583.401 227.843 583.849 228.313 584.169 228.921C584.489 229.529 584.649 230.243 584.649 231.065C584.649 231.886 584.489 232.601 584.169 233.209C583.849 233.817 583.401 234.286 582.825 234.617C582.26 234.947 581.588 235.113 580.809 235.113ZM580.793 233.865C581.465 233.865 582.004 233.625 582.409 233.145C582.815 232.665 583.017 231.971 583.017 231.065C583.017 230.147 582.815 229.454 582.409 228.985C582.004 228.515 581.465 228.281 580.793 228.281C580.132 228.281 579.599 228.515 579.193 228.985C578.788 229.454 578.585 230.147 578.585 231.065C578.585 231.971 578.788 232.665 579.193 233.145C579.599 233.625 580.132 233.865 580.793 233.865ZM593.403 235.113C592.987 235.113 592.582 235.075 592.187 235.001C591.793 234.926 591.43 234.819 591.099 234.681C590.769 234.542 590.475 234.371 590.219 234.169L590.683 233.081C590.95 233.262 591.233 233.422 591.531 233.561C591.83 233.689 592.139 233.785 592.459 233.849C592.79 233.913 593.11 233.945 593.419 233.945C593.985 233.945 594.411 233.843 594.699 233.641C594.987 233.438 595.131 233.166 595.131 232.825C595.131 232.547 595.035 232.334 594.843 232.185C594.651 232.025 594.363 231.902 593.979 231.817L592.459 231.513C591.798 231.374 591.297 231.129 590.955 230.777C590.614 230.425 590.443 229.977 590.443 229.433C590.443 228.942 590.577 228.515 590.843 228.153C591.11 227.79 591.483 227.513 591.963 227.321C592.443 227.118 592.998 227.017 593.627 227.017C593.99 227.017 594.342 227.054 594.683 227.129C595.025 227.203 595.345 227.31 595.643 227.449C595.953 227.587 596.214 227.763 596.427 227.977L595.963 229.065C595.761 228.883 595.526 228.729 595.259 228.601C595.003 228.473 594.737 228.377 594.459 228.313C594.182 228.238 593.905 228.201 593.627 228.201C593.062 228.201 592.635 228.307 592.347 228.521C592.07 228.723 591.931 229.001 591.931 229.353C591.931 229.619 592.017 229.838 592.187 230.009C592.358 230.179 592.625 230.302 592.987 230.377L594.507 230.681C595.201 230.819 595.723 231.054 596.075 231.385C596.438 231.715 596.619 232.163 596.619 232.729C596.619 233.219 596.486 233.646 596.219 234.009C595.953 234.371 595.574 234.649 595.083 234.841C594.603 235.022 594.043 235.113 593.403 235.113ZM601.667 235.113C600.696 235.113 599.966 234.862 599.475 234.361C598.995 233.859 598.755 233.134 598.755 232.185V228.409H597.235V227.161H598.755V224.809H600.371V227.161H602.787V228.409H600.371V232.057C600.371 232.622 600.488 233.049 600.723 233.337C600.968 233.625 601.363 233.769 601.907 233.769C602.067 233.769 602.227 233.747 602.387 233.705C602.558 233.662 602.723 233.619 602.883 233.577L603.139 234.793C602.979 234.889 602.755 234.963 602.467 235.017C602.19 235.081 601.923 235.113 601.667 235.113ZM606.679 235.113C606.135 235.113 605.644 235.006 605.207 234.793C604.78 234.579 604.444 234.291 604.199 233.929C603.954 233.566 603.831 233.155 603.831 232.697C603.831 232.121 603.975 231.667 604.263 231.337C604.562 230.995 605.047 230.755 605.719 230.617C606.402 230.467 607.319 230.393 608.471 230.393H609.223V231.385H608.487C607.911 231.385 607.426 231.406 607.031 231.449C606.636 231.491 606.322 231.561 606.087 231.657C605.852 231.742 605.682 231.865 605.575 232.025C605.479 232.185 605.431 232.377 605.431 232.601C605.431 233.006 605.57 233.337 605.847 233.593C606.124 233.838 606.508 233.961 606.999 233.961C607.394 233.961 607.74 233.87 608.039 233.689C608.338 233.497 608.572 233.241 608.743 232.921C608.924 232.601 609.015 232.233 609.015 231.817V229.977C609.015 229.369 608.887 228.931 608.631 228.665C608.375 228.398 607.954 228.265 607.367 228.265C606.919 228.265 606.471 228.334 606.023 228.473C605.575 228.601 605.116 228.809 604.647 229.097L604.151 227.961C604.428 227.769 604.748 227.603 605.111 227.465C605.474 227.326 605.852 227.219 606.247 227.145C606.652 227.059 607.042 227.017 607.415 227.017C608.13 227.017 608.716 227.129 609.175 227.353C609.644 227.577 609.991 227.918 610.215 228.377C610.439 228.835 610.551 229.427 610.551 230.153V234.969H609.031V233.225H609.175C609.09 233.619 608.93 233.961 608.695 234.249C608.471 234.526 608.188 234.739 607.847 234.889C607.506 235.038 607.116 235.113 606.679 235.113ZM612.777 234.969V227.161H614.345V229.033H614.185C614.355 228.393 614.659 227.907 615.097 227.577C615.545 227.246 616.137 227.054 616.873 227.001L617.401 226.969L617.513 228.345L616.537 228.441C615.843 228.505 615.315 228.723 614.953 229.097C614.59 229.47 614.409 229.982 614.409 230.633V234.969H612.777ZM622.511 235.113C621.54 235.113 620.81 234.862 620.319 234.361C619.839 233.859 619.599 233.134 619.599 232.185V228.409H618.079V227.161H619.599V224.809H621.215V227.161H623.631V228.409H621.215V232.057C621.215 232.622 621.332 233.049 621.567 233.337C621.812 233.625 622.207 233.769 622.751 233.769C622.911 233.769 623.071 233.747 623.231 233.705C623.402 233.662 623.567 233.619 623.727 233.577L623.983 234.793C623.823 234.889 623.599 234.963 623.311 235.017C623.034 235.081 622.767 235.113 622.511 235.113Z" fill="#333399"/>
<path d="M935.907 235.113C934.766 235.113 933.79 234.878 932.979 234.409C932.168 233.939 931.544 233.273 931.107 232.409C930.68 231.534 930.467 230.505 930.467 229.321C930.467 228.137 930.68 227.113 931.107 226.249C931.544 225.385 932.168 224.718 932.979 224.249C933.79 223.779 934.766 223.545 935.907 223.545C936.675 223.545 937.39 223.667 938.051 223.913C938.723 224.147 939.283 224.489 939.731 224.937L939.155 226.265C938.664 225.827 938.158 225.513 937.635 225.321C937.123 225.118 936.563 225.017 935.955 225.017C934.739 225.017 933.811 225.39 933.171 226.137C932.531 226.883 932.211 227.945 932.211 229.321C932.211 230.697 932.531 231.763 933.171 232.521C933.811 233.267 934.739 233.641 935.955 233.641C936.563 233.641 937.123 233.545 937.635 233.353C938.158 233.15 938.664 232.83 939.155 232.393L939.731 233.721C939.283 234.169 938.723 234.515 938.051 234.761C937.39 234.995 936.675 235.113 935.907 235.113ZM944.032 235.113C943.178 235.113 942.538 234.873 942.112 234.393C941.696 233.902 941.488 233.198 941.488 232.281V223.689H943.104V232.185C943.104 232.526 943.152 232.819 943.248 233.065C943.344 233.299 943.488 233.475 943.68 233.593C943.872 233.71 944.112 233.769 944.4 233.769C944.528 233.769 944.65 233.763 944.768 233.753C944.885 233.742 944.997 233.721 945.104 233.689L945.072 234.985C944.89 235.027 944.714 235.059 944.544 235.081C944.373 235.102 944.202 235.113 944.032 235.113ZM946.234 225.353V223.673H948.122V225.353H946.234ZM946.378 234.969V227.161H947.994V234.969H946.378ZM953.709 235.113C952.909 235.113 952.215 234.947 951.629 234.617C951.053 234.275 950.605 233.801 950.285 233.193C949.965 232.574 949.805 231.849 949.805 231.017C949.805 230.195 949.965 229.486 950.285 228.889C950.605 228.291 951.053 227.833 951.629 227.513C952.215 227.182 952.909 227.017 953.709 227.017C954.199 227.017 954.685 227.102 955.165 227.273C955.645 227.433 956.039 227.667 956.349 227.977L955.837 229.113C955.549 228.835 955.223 228.633 954.861 228.505C954.498 228.366 954.157 228.297 953.837 228.297C953.079 228.297 952.493 228.537 952.077 229.017C951.671 229.486 951.469 230.158 951.469 231.033C951.469 231.907 951.671 232.595 952.077 233.097C952.493 233.587 953.079 233.833 953.837 233.833C954.157 233.833 954.498 233.769 954.861 233.641C955.223 233.502 955.549 233.294 955.837 233.017L956.349 234.169C956.039 234.457 955.639 234.686 955.149 234.857C954.669 235.027 954.189 235.113 953.709 235.113ZM957.738 234.969V223.689H959.354V230.569H959.386L962.778 227.161H964.778L960.666 231.289V230.537L965.066 234.969H963.05L959.386 231.401H959.354V234.969H957.738ZM970.191 234.969V223.689H971.807V228.825H971.583C971.817 228.227 972.185 227.779 972.687 227.481C973.188 227.171 973.764 227.017 974.415 227.017C975.033 227.017 975.545 227.134 975.951 227.369C976.367 227.593 976.676 227.939 976.879 228.409C977.081 228.867 977.183 229.449 977.183 230.153V234.969H975.567V230.249C975.567 229.801 975.508 229.438 975.391 229.161C975.273 228.873 975.097 228.659 974.863 228.521C974.628 228.382 974.324 228.313 973.951 228.313C973.524 228.313 973.145 228.403 972.815 228.585C972.495 228.766 972.244 229.027 972.063 229.369C971.892 229.71 971.807 230.105 971.807 230.553V234.969H970.191ZM983.073 235.113C982.22 235.113 981.484 234.953 980.865 234.633C980.257 234.302 979.783 233.838 979.441 233.241C979.111 232.633 978.945 231.913 978.945 231.081C978.945 230.27 979.111 229.561 979.441 228.953C979.772 228.345 980.225 227.87 980.801 227.529C981.377 227.187 982.033 227.017 982.769 227.017C983.495 227.017 984.113 227.177 984.625 227.497C985.148 227.806 985.548 228.249 985.825 228.825C986.103 229.401 986.241 230.089 986.241 230.889V231.433H980.225V230.441H985.153L984.881 230.665C984.881 229.865 984.705 229.246 984.353 228.809C984.001 228.371 983.495 228.153 982.833 228.153C982.332 228.153 981.905 228.27 981.553 228.505C981.212 228.739 980.951 229.065 980.769 229.481C980.588 229.897 980.497 230.382 980.497 230.937V231.033C980.497 231.651 980.593 232.174 980.785 232.601C980.988 233.017 981.281 233.331 981.665 233.545C982.049 233.758 982.524 233.865 983.089 233.865C983.537 233.865 983.975 233.795 984.401 233.657C984.839 233.507 985.249 233.278 985.633 232.969L986.113 234.089C985.761 234.409 985.308 234.659 984.753 234.841C984.199 235.022 983.639 235.113 983.073 235.113ZM988.003 234.969V227.161H989.571V229.033H989.411C989.582 228.393 989.886 227.907 990.323 227.577C990.771 227.246 991.363 227.054 992.099 227.001L992.627 226.969L992.739 228.345L991.763 228.441C991.07 228.505 990.542 228.723 990.179 229.097C989.817 229.47 989.635 229.982 989.635 230.633V234.969H988.003ZM997.527 235.113C996.673 235.113 995.937 234.953 995.319 234.633C994.711 234.302 994.236 233.838 993.895 233.241C993.564 232.633 993.399 231.913 993.399 231.081C993.399 230.27 993.564 229.561 993.895 228.953C994.225 228.345 994.679 227.87 995.255 227.529C995.831 227.187 996.487 227.017 997.223 227.017C997.948 227.017 998.567 227.177 999.079 227.497C999.601 227.806 1000 228.249 1000.28 228.825C1000.56 229.401 1000.69 230.089 1000.69 230.889V231.433H994.679V230.441H999.607L999.335 230.665C999.335 229.865 999.159 229.246 998.807 228.809C998.455 228.371 997.948 228.153 997.287 228.153C996.785 228.153 996.359 228.27 996.007 228.505C995.665 228.739 995.404 229.065 995.223 229.481C995.041 229.897 994.951 230.382 994.951 230.937V231.033C994.951 231.651 995.047 232.174 995.239 232.601C995.441 233.017 995.735 233.331 996.119 233.545C996.503 233.758 996.977 233.865 997.543 233.865C997.991 233.865 998.428 233.795 998.855 233.657C999.292 233.507 999.703 233.278 1000.09 232.969L1000.57 234.089C1000.21 234.409 999.761 234.659 999.207 234.841C998.652 235.022 998.092 235.113 997.527 235.113ZM1009.99 235.113C1009.02 235.113 1008.29 234.862 1007.8 234.361C1007.32 233.859 1007.08 233.134 1007.08 232.185V228.409H1005.56V227.161H1007.08V224.809H1008.69V227.161H1011.11V228.409H1008.69V232.057C1008.69 232.622 1008.81 233.049 1009.04 233.337C1009.29 233.625 1009.68 233.769 1010.23 233.769C1010.39 233.769 1010.55 233.747 1010.71 233.705C1010.88 233.662 1011.04 233.619 1011.2 233.577L1011.46 234.793C1011.3 234.889 1011.08 234.963 1010.79 235.017C1010.51 235.081 1010.24 235.113 1009.99 235.113ZM1015.82 235.113C1015.03 235.113 1014.35 234.947 1013.77 234.617C1013.2 234.286 1012.76 233.817 1012.44 233.209C1012.12 232.601 1011.96 231.886 1011.96 231.065C1011.96 230.233 1012.12 229.518 1012.44 228.921C1012.76 228.313 1013.2 227.843 1013.77 227.513C1014.35 227.182 1015.03 227.017 1015.82 227.017C1016.6 227.017 1017.27 227.182 1017.83 227.513C1018.41 227.843 1018.86 228.313 1019.18 228.921C1019.5 229.529 1019.66 230.243 1019.66 231.065C1019.66 231.886 1019.5 232.601 1019.18 233.209C1018.86 233.817 1018.41 234.286 1017.83 234.617C1017.27 234.947 1016.6 235.113 1015.82 235.113ZM1015.8 233.865C1016.47 233.865 1017.01 233.625 1017.42 233.145C1017.82 232.665 1018.03 231.971 1018.03 231.065C1018.03 230.147 1017.82 229.454 1017.42 228.985C1017.01 228.515 1016.47 228.281 1015.8 228.281C1015.14 228.281 1014.61 228.515 1014.2 228.985C1013.8 229.454 1013.59 230.147 1013.59 231.065C1013.59 231.971 1013.8 232.665 1014.2 233.145C1014.61 233.625 1015.14 233.865 1015.8 233.865ZM1028.41 235.113C1028 235.113 1027.59 235.075 1027.2 235.001C1026.8 234.926 1026.44 234.819 1026.11 234.681C1025.78 234.542 1025.48 234.371 1025.23 234.169L1025.69 233.081C1025.96 233.262 1026.24 233.422 1026.54 233.561C1026.84 233.689 1027.15 233.785 1027.47 233.849C1027.8 233.913 1028.12 233.945 1028.43 233.945C1028.99 233.945 1029.42 233.843 1029.71 233.641C1030 233.438 1030.14 233.166 1030.14 232.825C1030.14 232.547 1030.04 232.334 1029.85 232.185C1029.66 232.025 1029.37 231.902 1028.99 231.817L1027.47 231.513C1026.81 231.374 1026.3 231.129 1025.96 230.777C1025.62 230.425 1025.45 229.977 1025.45 229.433C1025.45 228.942 1025.58 228.515 1025.85 228.153C1026.12 227.79 1026.49 227.513 1026.97 227.321C1027.45 227.118 1028.01 227.017 1028.64 227.017C1029 227.017 1029.35 227.054 1029.69 227.129C1030.03 227.203 1030.35 227.31 1030.65 227.449C1030.96 227.587 1031.22 227.763 1031.44 227.977L1030.97 229.065C1030.77 228.883 1030.53 228.729 1030.27 228.601C1030.01 228.473 1029.74 228.377 1029.47 228.313C1029.19 228.238 1028.91 228.201 1028.64 228.201C1028.07 228.201 1027.64 228.307 1027.36 228.521C1027.08 228.723 1026.94 229.001 1026.94 229.353C1026.94 229.619 1027.02 229.838 1027.2 230.009C1027.37 230.179 1027.63 230.302 1028 230.377L1029.52 230.681C1030.21 230.819 1030.73 231.054 1031.08 231.385C1031.45 231.715 1031.63 232.163 1031.63 232.729C1031.63 233.219 1031.49 233.646 1031.23 234.009C1030.96 234.371 1030.58 234.649 1030.09 234.841C1029.61 235.022 1029.05 235.113 1028.41 235.113ZM1036.67 235.113C1035.7 235.113 1034.97 234.862 1034.48 234.361C1034 233.859 1033.76 233.134 1033.76 232.185V228.409H1032.24V227.161H1033.76V224.809H1035.38V227.161H1037.79V228.409H1035.38V232.057C1035.38 232.622 1035.5 233.049 1035.73 233.337C1035.98 233.625 1036.37 233.769 1036.91 233.769C1037.07 233.769 1037.23 233.747 1037.39 233.705C1037.57 233.662 1037.73 233.619 1037.89 233.577L1038.15 234.793C1037.99 234.889 1037.76 234.963 1037.47 235.017C1037.2 235.081 1036.93 235.113 1036.67 235.113ZM1041.69 235.113C1041.14 235.113 1040.65 235.006 1040.21 234.793C1039.79 234.579 1039.45 234.291 1039.21 233.929C1038.96 233.566 1038.84 233.155 1038.84 232.697C1038.84 232.121 1038.98 231.667 1039.27 231.337C1039.57 230.995 1040.05 230.755 1040.73 230.617C1041.41 230.467 1042.33 230.393 1043.48 230.393H1044.23V231.385H1043.49C1042.92 231.385 1042.43 231.406 1042.04 231.449C1041.64 231.491 1041.33 231.561 1041.09 231.657C1040.86 231.742 1040.69 231.865 1040.58 232.025C1040.49 232.185 1040.44 232.377 1040.44 232.601C1040.44 233.006 1040.58 233.337 1040.85 233.593C1041.13 233.838 1041.52 233.961 1042.01 233.961C1042.4 233.961 1042.75 233.87 1043.05 233.689C1043.35 233.497 1043.58 233.241 1043.75 232.921C1043.93 232.601 1044.02 232.233 1044.02 231.817V229.977C1044.02 229.369 1043.89 228.931 1043.64 228.665C1043.38 228.398 1042.96 228.265 1042.37 228.265C1041.93 228.265 1041.48 228.334 1041.03 228.473C1040.58 228.601 1040.12 228.809 1039.65 229.097L1039.16 227.961C1039.44 227.769 1039.76 227.603 1040.12 227.465C1040.48 227.326 1040.86 227.219 1041.25 227.145C1041.66 227.059 1042.05 227.017 1042.42 227.017C1043.14 227.017 1043.72 227.129 1044.18 227.353C1044.65 227.577 1045 227.918 1045.22 228.377C1045.45 228.835 1045.56 229.427 1045.56 230.153V234.969H1044.04V233.225H1044.18C1044.1 233.619 1043.94 233.961 1043.7 234.249C1043.48 234.526 1043.2 234.739 1042.85 234.889C1042.51 235.038 1042.12 235.113 1041.69 235.113ZM1047.78 234.969V227.161H1049.35V229.033H1049.19C1049.36 228.393 1049.67 227.907 1050.1 227.577C1050.55 227.246 1051.14 227.054 1051.88 227.001L1052.41 226.969L1052.52 228.345L1051.54 228.441C1050.85 228.505 1050.32 228.723 1049.96 229.097C1049.6 229.47 1049.42 229.982 1049.42 230.633V234.969H1047.78ZM1057.52 235.113C1056.55 235.113 1055.82 234.862 1055.33 234.361C1054.85 233.859 1054.61 233.134 1054.61 232.185V228.409H1053.09V227.161H1054.61V224.809H1056.22V227.161H1058.64V228.409H1056.22V232.057C1056.22 232.622 1056.34 233.049 1056.57 233.337C1056.82 233.625 1057.21 233.769 1057.76 233.769C1057.92 233.769 1058.08 233.747 1058.24 233.705C1058.41 233.662 1058.57 233.619 1058.73 233.577L1058.99 234.793C1058.83 234.889 1058.61 234.963 1058.32 235.017C1058.04 235.081 1057.77 235.113 1057.52 235.113Z" fill="#333399"/>
<path d="M283.899 29.2924C282.758 29.2924 281.782 29.0578 280.971 28.5884C280.161 28.1191 279.537 27.4524 279.099 26.5884C278.673 25.7138 278.459 24.6844 278.459 23.5004C278.459 22.3164 278.673 21.2924 279.099 20.4284C279.537 19.5644 280.161 18.8978 280.971 18.4284C281.782 17.9591 282.758 17.7244 283.899 17.7244C284.667 17.7244 285.382 17.8471 286.043 18.0924C286.715 18.3271 287.275 18.6684 287.723 19.1164L287.147 20.4444C286.657 20.0071 286.15 19.6924 285.627 19.5004C285.115 19.2978 284.555 19.1964 283.947 19.1964C282.731 19.1964 281.803 19.5698 281.163 20.3164C280.523 21.0631 280.203 22.1244 280.203 23.5004C280.203 24.8764 280.523 25.9431 281.163 26.7004C281.803 27.4471 282.731 27.8204 283.947 27.8204C284.555 27.8204 285.115 27.7244 285.627 27.5324C286.15 27.3298 286.657 27.0098 287.147 26.5724L287.723 27.9004C287.275 28.3484 286.715 28.6951 286.043 28.9404C285.382 29.1751 284.667 29.2924 283.899 29.2924ZM292.024 29.2924C291.17 29.2924 290.53 29.0524 290.104 28.5724C289.688 28.0818 289.48 27.3778 289.48 26.4604V17.8684H291.096V26.3644C291.096 26.7058 291.144 26.9991 291.24 27.2444C291.336 27.4791 291.48 27.6551 291.672 27.7724C291.864 27.8898 292.104 27.9484 292.392 27.9484C292.52 27.9484 292.642 27.9431 292.76 27.9324C292.877 27.9218 292.989 27.9004 293.096 27.8684L293.064 29.1644C292.882 29.2071 292.706 29.2391 292.536 29.2604C292.365 29.2818 292.194 29.2924 292.024 29.2924ZM294.226 19.5324V17.8524H296.114V19.5324H294.226ZM294.37 29.1484V21.3404H295.986V29.1484H294.37ZM301.701 29.2924C300.901 29.2924 300.208 29.1271 299.621 28.7964C299.045 28.4551 298.597 27.9804 298.277 27.3724C297.957 26.7538 297.797 26.0284 297.797 25.1964C297.797 24.3751 297.957 23.6658 298.277 23.0684C298.597 22.4711 299.045 22.0124 299.621 21.6924C300.208 21.3618 300.901 21.1964 301.701 21.1964C302.192 21.1964 302.677 21.2818 303.157 21.4524C303.637 21.6124 304.032 21.8471 304.341 22.1564L303.829 23.2924C303.541 23.0151 303.216 22.8124 302.853 22.6844C302.49 22.5458 302.149 22.4764 301.829 22.4764C301.072 22.4764 300.485 22.7164 300.069 23.1964C299.664 23.6658 299.461 24.3378 299.461 25.2124C299.461 26.0871 299.664 26.7751 300.069 27.2764C300.485 27.7671 301.072 28.0124 301.829 28.0124C302.149 28.0124 302.49 27.9484 302.853 27.8204C303.216 27.6818 303.541 27.4738 303.829 27.1964L304.341 28.3484C304.032 28.6364 303.632 28.8658 303.141 29.0364C302.661 29.2071 302.181 29.2924 301.701 29.2924ZM305.73 29.1484V17.8684H307.346V24.7484H307.378L310.77 21.3404H312.77L308.658 25.4684V24.7164L313.058 29.1484H311.042L307.378 25.5804H307.346V29.1484H305.73ZM318.183 29.1484V17.8684H319.799V23.0044H319.575C319.81 22.4071 320.178 21.9591 320.679 21.6604C321.18 21.3511 321.756 21.1964 322.407 21.1964C323.026 21.1964 323.538 21.3138 323.943 21.5484C324.359 21.7724 324.668 22.1191 324.871 22.5884C325.074 23.0471 325.175 23.6284 325.175 24.3324V29.1484H323.559V24.4284C323.559 23.9804 323.5 23.6178 323.383 23.3404C323.266 23.0524 323.09 22.8391 322.855 22.7004C322.62 22.5618 322.316 22.4924 321.943 22.4924C321.516 22.4924 321.138 22.5831 320.807 22.7644C320.487 22.9458 320.236 23.2071 320.055 23.5484C319.884 23.8898 319.799 24.2844 319.799 24.7324V29.1484H318.183ZM331.066 29.2924C330.212 29.2924 329.476 29.1324 328.858 28.8124C328.25 28.4818 327.775 28.0178 327.434 27.4204C327.103 26.8124 326.938 26.0924 326.938 25.2604C326.938 24.4498 327.103 23.7404 327.434 23.1324C327.764 22.5244 328.218 22.0498 328.794 21.7084C329.37 21.3671 330.026 21.1964 330.762 21.1964C331.487 21.1964 332.106 21.3564 332.618 21.6764C333.14 21.9858 333.54 22.4284 333.818 23.0044C334.095 23.5804 334.234 24.2684 334.234 25.0684V25.6124H328.218V24.6204H333.146L332.874 24.8444C332.874 24.0444 332.698 23.4258 332.346 22.9884C331.994 22.5511 331.487 22.3324 330.826 22.3324C330.324 22.3324 329.898 22.4498 329.546 22.6844C329.204 22.9191 328.943 23.2444 328.762 23.6604C328.58 24.0764 328.49 24.5618 328.49 25.1164V25.2124C328.49 25.8311 328.586 26.3538 328.778 26.7804C328.98 27.1964 329.274 27.5111 329.658 27.7244C330.042 27.9378 330.516 28.0444 331.082 28.0444C331.53 28.0444 331.967 27.9751 332.394 27.8364C332.831 27.6871 333.242 27.4578 333.626 27.1484L334.106 28.2684C333.754 28.5884 333.3 28.8391 332.746 29.0204C332.191 29.2018 331.631 29.2924 331.066 29.2924ZM335.995 29.1484V21.3404H337.563V23.2124H337.403C337.574 22.5724 337.878 22.0871 338.315 21.7564C338.763 21.4258 339.355 21.2338 340.091 21.1804L340.619 21.1484L340.731 22.5244L339.755 22.6204C339.062 22.6844 338.534 22.9031 338.171 23.2764C337.809 23.6498 337.627 24.1618 337.627 24.8124V29.1484H335.995ZM345.519 29.2924C344.665 29.2924 343.929 29.1324 343.311 28.8124C342.703 28.4818 342.228 28.0178 341.887 27.4204C341.556 26.8124 341.391 26.0924 341.391 25.2604C341.391 24.4498 341.556 23.7404 341.887 23.1324C342.217 22.5244 342.671 22.0498 343.247 21.7084C343.823 21.3671 344.479 21.1964 345.215 21.1964C345.94 21.1964 346.559 21.3564 347.071 21.6764C347.593 21.9858 347.993 22.4284 348.271 23.0044C348.548 23.5804 348.687 24.2684 348.687 25.0684V25.6124H342.671V24.6204H347.599L347.327 24.8444C347.327 24.0444 347.151 23.4258 346.799 22.9884C346.447 22.5511 345.94 22.3324 345.279 22.3324C344.777 22.3324 344.351 22.4498 343.999 22.6844C343.657 22.9191 343.396 23.2444 343.215 23.6604C343.033 24.0764 342.943 24.5618 342.943 25.1164V25.2124C342.943 25.8311 343.039 26.3538 343.231 26.7804C343.433 27.1964 343.727 27.5111 344.111 27.7244C344.495 27.9378 344.969 28.0444 345.535 28.0444C345.983 28.0444 346.42 27.9751 346.847 27.8364C347.284 27.6871 347.695 27.4578 348.079 27.1484L348.559 28.2684C348.207 28.5884 347.753 28.8391 347.199 29.0204C346.644 29.2018 346.084 29.2924 345.519 29.2924ZM357.98 29.2924C357.009 29.2924 356.278 29.0418 355.788 28.5404C355.308 28.0391 355.068 27.3138 355.068 26.3644V22.5884H353.548V21.3404H355.068V18.9884H356.684V21.3404H359.1V22.5884H356.684V26.2364C356.684 26.8018 356.801 27.2284 357.036 27.5164C357.281 27.8044 357.676 27.9484 358.22 27.9484C358.38 27.9484 358.54 27.9271 358.7 27.8844C358.87 27.8418 359.036 27.7991 359.196 27.7564L359.452 28.9724C359.292 29.0684 359.068 29.1431 358.78 29.1964C358.502 29.2604 358.236 29.2924 357.98 29.2924ZM363.809 29.2924C363.02 29.2924 362.337 29.1271 361.761 28.7964C361.196 28.4658 360.753 27.9964 360.433 27.3884C360.113 26.7804 359.953 26.0658 359.953 25.2444C359.953 24.4124 360.113 23.6978 360.433 23.1004C360.753 22.4924 361.196 22.0231 361.761 21.6924C362.337 21.3618 363.02 21.1964 363.809 21.1964C364.588 21.1964 365.26 21.3618 365.825 21.6924C366.401 22.0231 366.849 22.4924 367.169 23.1004C367.489 23.7084 367.649 24.4231 367.649 25.2444C367.649 26.0658 367.489 26.7804 367.169 27.3884C366.849 27.9964 366.401 28.4658 365.825 28.7964C365.26 29.1271 364.588 29.2924 363.809 29.2924ZM363.793 28.0444C364.465 28.0444 365.004 27.8044 365.409 27.3244C365.815 26.8444 366.017 26.1511 366.017 25.2444C366.017 24.3271 365.815 23.6338 365.409 23.1644C365.004 22.6951 364.465 22.4604 363.793 22.4604C363.132 22.4604 362.599 22.6951 362.193 23.1644C361.788 23.6338 361.585 24.3271 361.585 25.2444C361.585 26.1511 361.788 26.8444 362.193 27.3244C362.599 27.8044 363.132 28.0444 363.793 28.0444ZM376.403 29.2924C375.987 29.2924 375.582 29.2551 375.187 29.1804C374.793 29.1058 374.43 28.9991 374.099 28.8604C373.769 28.7218 373.475 28.5511 373.219 28.3484L373.683 27.2604C373.95 27.4418 374.233 27.6018 374.531 27.7404C374.83 27.8684 375.139 27.9644 375.459 28.0284C375.79 28.0924 376.11 28.1244 376.419 28.1244C376.985 28.1244 377.411 28.0231 377.699 27.8204C377.987 27.6178 378.131 27.3458 378.131 27.0044C378.131 26.7271 378.035 26.5138 377.843 26.3644C377.651 26.2044 377.363 26.0818 376.979 25.9964L375.459 25.6924C374.798 25.5538 374.297 25.3084 373.955 24.9564C373.614 24.6044 373.443 24.1564 373.443 23.6124C373.443 23.1218 373.577 22.6951 373.843 22.3324C374.11 21.9698 374.483 21.6924 374.963 21.5004C375.443 21.2978 375.998 21.1964 376.627 21.1964C376.99 21.1964 377.342 21.2338 377.683 21.3084C378.025 21.3831 378.345 21.4898 378.643 21.6284C378.953 21.7671 379.214 21.9431 379.427 22.1564L378.963 23.2444C378.761 23.0631 378.526 22.9084 378.259 22.7804C378.003 22.6524 377.737 22.5564 377.459 22.4924C377.182 22.4178 376.905 22.3804 376.627 22.3804C376.062 22.3804 375.635 22.4871 375.347 22.7004C375.07 22.9031 374.931 23.1804 374.931 23.5324C374.931 23.7991 375.017 24.0178 375.187 24.1884C375.358 24.3591 375.625 24.4818 375.987 24.5564L377.507 24.8604C378.201 24.9991 378.723 25.2338 379.075 25.5644C379.438 25.8951 379.619 26.3431 379.619 26.9084C379.619 27.3991 379.486 27.8258 379.219 28.1884C378.953 28.5511 378.574 28.8284 378.083 29.0204C377.603 29.2018 377.043 29.2924 376.403 29.2924ZM384.667 29.2924C383.696 29.2924 382.966 29.0418 382.475 28.5404C381.995 28.0391 381.755 27.3138 381.755 26.3644V22.5884H380.235V21.3404H381.755V18.9884H383.371V21.3404H385.787V22.5884H383.371V26.2364C383.371 26.8018 383.488 27.2284 383.723 27.5164C383.968 27.8044 384.363 27.9484 384.907 27.9484C385.067 27.9484 385.227 27.9271 385.387 27.8844C385.558 27.8418 385.723 27.7991 385.883 27.7564L386.139 28.9724C385.979 29.0684 385.755 29.1431 385.467 29.1964C385.19 29.2604 384.923 29.2924 384.667 29.2924ZM389.679 29.2924C389.135 29.2924 388.644 29.1858 388.207 28.9724C387.78 28.7591 387.444 28.4711 387.199 28.1084C386.954 27.7458 386.831 27.3351 386.831 26.8764C386.831 26.3004 386.975 25.8471 387.263 25.5164C387.562 25.1751 388.047 24.9351 388.719 24.7964C389.402 24.6471 390.319 24.5724 391.471 24.5724H392.223V25.5644H391.487C390.911 25.5644 390.426 25.5858 390.031 25.6284C389.636 25.6711 389.322 25.7404 389.087 25.8364C388.852 25.9218 388.682 26.0444 388.575 26.2044C388.479 26.3644 388.431 26.5564 388.431 26.7804C388.431 27.1858 388.57 27.5164 388.847 27.7724C389.124 28.0178 389.508 28.1404 389.999 28.1404C390.394 28.1404 390.74 28.0498 391.039 27.8684C391.338 27.6764 391.572 27.4204 391.743 27.1004C391.924 26.7804 392.015 26.4124 392.015 25.9964V24.1564C392.015 23.5484 391.887 23.1111 391.631 22.8444C391.375 22.5778 390.954 22.4444 390.367 22.4444C389.919 22.4444 389.471 22.5138 389.023 22.6524C388.575 22.7804 388.116 22.9884 387.647 23.2764L387.151 22.1404C387.428 21.9484 387.748 21.7831 388.111 21.6444C388.474 21.5058 388.852 21.3991 389.247 21.3244C389.652 21.2391 390.042 21.1964 390.415 21.1964C391.13 21.1964 391.716 21.3084 392.175 21.5324C392.644 21.7564 392.991 22.0978 393.215 22.5564C393.439 23.0151 393.551 23.6071 393.551 24.3324V29.1484H392.031V27.4044H392.175C392.09 27.7991 391.93 28.1404 391.695 28.4284C391.471 28.7058 391.188 28.9191 390.847 29.0684C390.506 29.2178 390.116 29.2924 389.679 29.2924ZM395.777 29.1484V21.3404H397.345V23.2124H397.185C397.355 22.5724 397.659 22.0871 398.097 21.7564C398.545 21.4258 399.137 21.2338 399.873 21.1804L400.401 21.1484L400.513 22.5244L399.537 22.6204C398.843 22.6844 398.315 22.9031 397.953 23.2764C397.59 23.6498 397.409 24.1618 397.409 24.8124V29.1484H395.777ZM405.511 29.2924C404.54 29.2924 403.81 29.0418 403.319 28.5404C402.839 28.0391 402.599 27.3138 402.599 26.3644V22.5884H401.079V21.3404H402.599V18.9884H404.215V21.3404H406.631V22.5884H404.215V26.2364C404.215 26.8018 404.332 27.2284 404.567 27.5164C404.812 27.8044 405.207 27.9484 405.751 27.9484C405.911 27.9484 406.071 27.9271 406.231 27.8844C406.402 27.8418 406.567 27.7991 406.727 27.7564L406.983 28.9724C406.823 29.0684 406.599 29.1431 406.311 29.1964C406.034 29.2604 405.767 29.2924 405.511 29.2924Z" fill="#333399"/>
<path d="M718.907 29.2924C717.766 29.2924 716.79 29.0578 715.979 28.5884C715.168 28.1191 714.544 27.4524 714.107 26.5884C713.68 25.7138 713.467 24.6844 713.467 23.5004C713.467 22.3164 713.68 21.2924 714.107 20.4284C714.544 19.5644 715.168 18.8978 715.979 18.4284C716.79 17.9591 717.766 17.7244 718.907 17.7244C719.675 17.7244 720.39 17.8471 721.051 18.0924C721.723 18.3271 722.283 18.6684 722.731 19.1164L722.155 20.4444C721.664 20.0071 721.158 19.6924 720.635 19.5004C720.123 19.2978 719.563 19.1964 718.955 19.1964C717.739 19.1964 716.811 19.5698 716.171 20.3164C715.531 21.0631 715.211 22.1244 715.211 23.5004C715.211 24.8764 715.531 25.9431 716.171 26.7004C716.811 27.4471 717.739 27.8204 718.955 27.8204C719.563 27.8204 720.123 27.7244 720.635 27.5324C721.158 27.3298 721.664 27.0098 722.155 26.5724L722.731 27.9004C722.283 28.3484 721.723 28.6951 721.051 28.9404C720.39 29.1751 719.675 29.2924 718.907 29.2924ZM727.032 29.2924C726.178 29.2924 725.538 29.0524 725.112 28.5724C724.696 28.0818 724.488 27.3778 724.488 26.4604V17.8684H726.104V26.3644C726.104 26.7058 726.152 26.9991 726.248 27.2444C726.344 27.4791 726.488 27.6551 726.68 27.7724C726.872 27.8898 727.112 27.9484 727.4 27.9484C727.528 27.9484 727.65 27.9431 727.768 27.9324C727.885 27.9218 727.997 27.9004 728.104 27.8684L728.072 29.1644C727.89 29.2071 727.714 29.2391 727.544 29.2604C727.373 29.2818 727.202 29.2924 727.032 29.2924ZM729.234 19.5324V17.8524H731.122V19.5324H729.234ZM729.378 29.1484V21.3404H730.994V29.1484H729.378ZM736.709 29.2924C735.909 29.2924 735.215 29.1271 734.629 28.7964C734.053 28.4551 733.605 27.9804 733.285 27.3724C732.965 26.7538 732.805 26.0284 732.805 25.1964C732.805 24.3751 732.965 23.6658 733.285 23.0684C733.605 22.4711 734.053 22.0124 734.629 21.6924C735.215 21.3618 735.909 21.1964 736.709 21.1964C737.199 21.1964 737.685 21.2818 738.165 21.4524C738.645 21.6124 739.039 21.8471 739.349 22.1564L738.837 23.2924C738.549 23.0151 738.223 22.8124 737.861 22.6844C737.498 22.5458 737.157 22.4764 736.837 22.4764C736.079 22.4764 735.493 22.7164 735.077 23.1964C734.671 23.6658 734.469 24.3378 734.469 25.2124C734.469 26.0871 734.671 26.7751 735.077 27.2764C735.493 27.7671 736.079 28.0124 736.837 28.0124C737.157 28.0124 737.498 27.9484 737.861 27.8204C738.223 27.6818 738.549 27.4738 738.837 27.1964L739.349 28.3484C739.039 28.6364 738.639 28.8658 738.149 29.0364C737.669 29.2071 737.189 29.2924 736.709 29.2924ZM740.738 29.1484V17.8684H742.354V24.7484H742.386L745.778 21.3404H747.778L743.666 25.4684V24.7164L748.066 29.1484H746.05L742.386 25.5804H742.354V29.1484H740.738ZM753.191 29.1484V17.8684H754.807V23.0044H754.583C754.817 22.4071 755.185 21.9591 755.687 21.6604C756.188 21.3511 756.764 21.1964 757.415 21.1964C758.033 21.1964 758.545 21.3138 758.951 21.5484C759.367 21.7724 759.676 22.1191 759.879 22.5884C760.081 23.0471 760.183 23.6284 760.183 24.3324V29.1484H758.567V24.4284C758.567 23.9804 758.508 23.6178 758.391 23.3404C758.273 23.0524 758.097 22.8391 757.863 22.7004C757.628 22.5618 757.324 22.4924 756.951 22.4924C756.524 22.4924 756.145 22.5831 755.815 22.7644C755.495 22.9458 755.244 23.2071 755.063 23.5484C754.892 23.8898 754.807 24.2844 754.807 24.7324V29.1484H753.191ZM766.073 29.2924C765.22 29.2924 764.484 29.1324 763.865 28.8124C763.257 28.4818 762.783 28.0178 762.441 27.4204C762.111 26.8124 761.945 26.0924 761.945 25.2604C761.945 24.4498 762.111 23.7404 762.441 23.1324C762.772 22.5244 763.225 22.0498 763.801 21.7084C764.377 21.3671 765.033 21.1964 765.769 21.1964C766.495 21.1964 767.113 21.3564 767.625 21.6764C768.148 21.9858 768.548 22.4284 768.825 23.0044C769.103 23.5804 769.241 24.2684 769.241 25.0684V25.6124H763.225V24.6204H768.153L767.881 24.8444C767.881 24.0444 767.705 23.4258 767.353 22.9884C767.001 22.5511 766.495 22.3324 765.833 22.3324C765.332 22.3324 764.905 22.4498 764.553 22.6844C764.212 22.9191 763.951 23.2444 763.769 23.6604C763.588 24.0764 763.497 24.5618 763.497 25.1164V25.2124C763.497 25.8311 763.593 26.3538 763.785 26.7804C763.988 27.1964 764.281 27.5111 764.665 27.7244C765.049 27.9378 765.524 28.0444 766.089 28.0444C766.537 28.0444 766.975 27.9751 767.401 27.8364C767.839 27.6871 768.249 27.4578 768.633 27.1484L769.113 28.2684C768.761 28.5884 768.308 28.8391 767.753 29.0204C767.199 29.2018 766.639 29.2924 766.073 29.2924ZM771.003 29.1484V21.3404H772.571V23.2124H772.411C772.582 22.5724 772.886 22.0871 773.323 21.7564C773.771 21.4258 774.363 21.2338 775.099 21.1804L775.627 21.1484L775.739 22.5244L774.763 22.6204C774.07 22.6844 773.542 22.9031 773.179 23.2764C772.817 23.6498 772.635 24.1618 772.635 24.8124V29.1484H771.003ZM780.527 29.2924C779.673 29.2924 778.937 29.1324 778.319 28.8124C777.711 28.4818 777.236 28.0178 776.895 27.4204C776.564 26.8124 776.399 26.0924 776.399 25.2604C776.399 24.4498 776.564 23.7404 776.895 23.1324C777.225 22.5244 777.679 22.0498 778.255 21.7084C778.831 21.3671 779.487 21.1964 780.223 21.1964C780.948 21.1964 781.567 21.3564 782.079 21.6764C782.601 21.9858 783.001 22.4284 783.279 23.0044C783.556 23.5804 783.695 24.2684 783.695 25.0684V25.6124H777.679V24.6204H782.607L782.335 24.8444C782.335 24.0444 782.159 23.4258 781.807 22.9884C781.455 22.5511 780.948 22.3324 780.287 22.3324C779.785 22.3324 779.359 22.4498 779.007 22.6844C778.665 22.9191 778.404 23.2444 778.223 23.6604C778.041 24.0764 777.951 24.5618 777.951 25.1164V25.2124C777.951 25.8311 778.047 26.3538 778.239 26.7804C778.441 27.1964 778.735 27.5111 779.119 27.7244C779.503 27.9378 779.977 28.0444 780.543 28.0444C780.991 28.0444 781.428 27.9751 781.855 27.8364C782.292 27.6871 782.703 27.4578 783.087 27.1484L783.567 28.2684C783.215 28.5884 782.761 28.8391 782.207 29.0204C781.652 29.2018 781.092 29.2924 780.527 29.2924ZM792.987 29.2924C792.017 29.2924 791.286 29.0418 790.795 28.5404C790.315 28.0391 790.075 27.3138 790.075 26.3644V22.5884H788.555V21.3404H790.075V18.9884H791.691V21.3404H794.107V22.5884H791.691V26.2364C791.691 26.8018 791.809 27.2284 792.043 27.5164C792.289 27.8044 792.683 27.9484 793.227 27.9484C793.387 27.9484 793.547 27.9271 793.707 27.8844C793.878 27.8418 794.043 27.7991 794.203 27.7564L794.459 28.9724C794.299 29.0684 794.075 29.1431 793.787 29.1964C793.51 29.2604 793.243 29.2924 792.987 29.2924ZM798.817 29.2924C798.028 29.2924 797.345 29.1271 796.769 28.7964C796.204 28.4658 795.761 27.9964 795.441 27.3884C795.121 26.7804 794.961 26.0658 794.961 25.2444C794.961 24.4124 795.121 23.6978 795.441 23.1004C795.761 22.4924 796.204 22.0231 796.769 21.6924C797.345 21.3618 798.028 21.1964 798.817 21.1964C799.596 21.1964 800.268 21.3618 800.833 21.6924C801.409 22.0231 801.857 22.4924 802.177 23.1004C802.497 23.7084 802.657 24.4231 802.657 25.2444C802.657 26.0658 802.497 26.7804 802.177 27.3884C801.857 27.9964 801.409 28.4658 800.833 28.7964C800.268 29.1271 799.596 29.2924 798.817 29.2924ZM798.801 28.0444C799.473 28.0444 800.012 27.8044 800.417 27.3244C800.822 26.8444 801.025 26.1511 801.025 25.2444C801.025 24.3271 800.822 23.6338 800.417 23.1644C800.012 22.6951 799.473 22.4604 798.801 22.4604C798.14 22.4604 797.606 22.6951 797.201 23.1644C796.796 23.6338 796.593 24.3271 796.593 25.2444C796.593 26.1511 796.796 26.8444 797.201 27.3244C797.606 27.8044 798.14 28.0444 798.801 28.0444ZM811.411 29.2924C810.995 29.2924 810.59 29.2551 810.195 29.1804C809.8 29.1058 809.438 28.9991 809.107 28.8604C808.776 28.7218 808.483 28.5511 808.227 28.3484L808.691 27.2604C808.958 27.4418 809.24 27.6018 809.539 27.7404C809.838 27.8684 810.147 27.9644 810.467 28.0284C810.798 28.0924 811.118 28.1244 811.427 28.1244C811.992 28.1244 812.419 28.0231 812.707 27.8204C812.995 27.6178 813.139 27.3458 813.139 27.0044C813.139 26.7271 813.043 26.5138 812.851 26.3644C812.659 26.2044 812.371 26.0818 811.987 25.9964L810.467 25.6924C809.806 25.5538 809.304 25.3084 808.963 24.9564C808.622 24.6044 808.451 24.1564 808.451 23.6124C808.451 23.1218 808.584 22.6951 808.851 22.3324C809.118 21.9698 809.491 21.6924 809.971 21.5004C810.451 21.2978 811.006 21.1964 811.635 21.1964C811.998 21.1964 812.35 21.2338 812.691 21.3084C813.032 21.3831 813.352 21.4898 813.651 21.6284C813.96 21.7671 814.222 21.9431 814.435 22.1564L813.971 23.2444C813.768 23.0631 813.534 22.9084 813.267 22.7804C813.011 22.6524 812.744 22.5564 812.467 22.4924C812.19 22.4178 811.912 22.3804 811.635 22.3804C811.07 22.3804 810.643 22.4871 810.355 22.7004C810.078 22.9031 809.939 23.1804 809.939 23.5324C809.939 23.7991 810.024 24.0178 810.195 24.1884C810.366 24.3591 810.632 24.4818 810.995 24.5564L812.515 24.8604C813.208 24.9991 813.731 25.2338 814.083 25.5644C814.446 25.8951 814.627 26.3431 814.627 26.9084C814.627 27.3991 814.494 27.8258 814.227 28.1884C813.96 28.5511 813.582 28.8284 813.091 29.0204C812.611 29.2018 812.051 29.2924 811.411 29.2924ZM819.675 29.2924C818.704 29.2924 817.974 29.0418 817.483 28.5404C817.003 28.0391 816.763 27.3138 816.763 26.3644V22.5884H815.243V21.3404H816.763V18.9884H818.379V21.3404H820.795V22.5884H818.379V26.2364C818.379 26.8018 818.496 27.2284 818.731 27.5164C818.976 27.8044 819.371 27.9484 819.915 27.9484C820.075 27.9484 820.235 27.9271 820.395 27.8844C820.566 27.8418 820.731 27.7991 820.891 27.7564L821.147 28.9724C820.987 29.0684 820.763 29.1431 820.475 29.1964C820.198 29.2604 819.931 29.2924 819.675 29.2924ZM824.687 29.2924C824.143 29.2924 823.652 29.1858 823.215 28.9724C822.788 28.7591 822.452 28.4711 822.207 28.1084C821.961 27.7458 821.839 27.3351 821.839 26.8764C821.839 26.3004 821.983 25.8471 822.271 25.5164C822.569 25.1751 823.055 24.9351 823.727 24.7964C824.409 24.6471 825.327 24.5724 826.479 24.5724H827.231V25.5644H826.495C825.919 25.5644 825.433 25.5858 825.039 25.6284C824.644 25.6711 824.329 25.7404 824.095 25.8364C823.86 25.9218 823.689 26.0444 823.583 26.2044C823.487 26.3644 823.439 26.5564 823.439 26.7804C823.439 27.1858 823.577 27.5164 823.855 27.7724C824.132 28.0178 824.516 28.1404 825.007 28.1404C825.401 28.1404 825.748 28.0498 826.047 27.8684C826.345 27.6764 826.58 27.4204 826.751 27.1004C826.932 26.7804 827.023 26.4124 827.023 25.9964V24.1564C827.023 23.5484 826.895 23.1111 826.639 22.8444C826.383 22.5778 825.961 22.4444 825.375 22.4444C824.927 22.4444 824.479 22.5138 824.031 22.6524C823.583 22.7804 823.124 22.9884 822.655 23.2764L822.159 22.1404C822.436 21.9484 822.756 21.7831 823.119 21.6444C823.481 21.5058 823.86 21.3991 824.255 21.3244C824.66 21.2391 825.049 21.1964 825.423 21.1964C826.137 21.1964 826.724 21.3084 827.183 21.5324C827.652 21.7564 827.999 22.0978 828.223 22.5564C828.447 23.0151 828.559 23.6071 828.559 24.3324V29.1484H827.039V27.4044H827.183C827.097 27.7991 826.937 28.1404 826.703 28.4284C826.479 28.7058 826.196 28.9191 825.855 29.0684C825.513 29.2178 825.124 29.2924 824.687 29.2924ZM830.784 29.1484V21.3404H832.352V23.2124H832.192C832.363 22.5724 832.667 22.0871 833.104 21.7564C833.552 21.4258 834.144 21.2338 834.88 21.1804L835.408 21.1484L835.52 22.5244L834.544 22.6204C833.851 22.6844 833.323 22.9031 832.96 23.2764C832.598 23.6498 832.416 24.1618 832.416 24.8124V29.1484H830.784ZM840.519 29.2924C839.548 29.2924 838.817 29.0418 838.327 28.5404C837.847 28.0391 837.607 27.3138 837.607 26.3644V22.5884H836.087V21.3404H837.607V18.9884H839.223V21.3404H841.639V22.5884H839.223V26.2364C839.223 26.8018 839.34 27.2284 839.575 27.5164C839.82 27.8044 840.215 27.9484 840.759 27.9484C840.919 27.9484 841.079 27.9271 841.239 27.8844C841.409 27.8418 841.575 27.7991 841.735 27.7564L841.991 28.9724C841.831 29.0684 841.607 29.1431 841.319 29.1964C841.041 29.2604 840.775 29.2924 840.519 29.2924Z" fill="#333399"/>
<defs>
<clipPath id="clip0_1027_48421">
<rect width="42.624" height="42.6249" fill="white" transform="translate(322.016 105.271)"/>
</clipPath>
<clipPath id="clip1_1027_48421">
<rect width="42.624" height="42.6249" fill="white" transform="translate(974.031 105.271)"/>
</clipPath>
</defs>
</svg>
