<svg width="74" height="73" viewBox="0 0 74 73" fill="none" xmlns="http://www.w3.org/2000/svg">
<rect x="3.53547" y="2.96321" width="66.9299" height="66.9299" rx="33.465" fill="#333399"/>
<path fill-rule="evenodd" clip-rule="evenodd" d="M36.0318 26.5742H37.9678C39.6526 26.5742 40.9872 26.5742 42.0313 26.7145C43.1056 26.8593 43.9755 27.1636 44.662 27.8493C45.3477 28.5359 45.652 29.4058 45.7968 30.4801C45.9371 31.5251 45.9371 32.8589 45.9371 34.5437V38.313C45.9371 39.9979 45.9371 41.3325 45.7968 42.3766C45.652 43.4509 45.3477 44.3208 44.662 45.0074C43.9755 45.6931 43.1056 45.9974 42.0313 46.1423C40.9863 46.2825 39.6526 46.2825 37.9678 46.2825H36.0318C34.347 46.2825 33.0124 46.2825 31.9683 46.1423C30.894 45.9974 30.0241 45.6931 29.3376 45.0074C28.6519 44.3208 28.3476 43.4509 28.2027 42.3766C28.0625 41.3316 28.0625 39.9979 28.0625 38.313V34.5437C28.0625 32.8589 28.0625 31.5242 28.2027 30.4801C28.3476 29.4058 28.6519 28.5359 29.3376 27.8493C30.0241 27.1636 30.894 26.8593 31.9683 26.7145C33.0133 26.5742 34.347 26.5742 36.0318 26.5742ZM32.1507 28.0775C31.2286 28.2013 30.6969 28.4341 30.3083 28.8219C29.9215 29.2096 29.6886 29.7413 29.5649 30.6635C29.4384 31.6058 29.4366 32.847 29.4366 34.595V38.2617C29.4366 40.0098 29.4384 41.2519 29.5649 42.1942C29.6886 43.1154 29.9215 43.6471 30.3092 44.0349C30.6969 44.4226 31.2286 44.6554 32.1507 44.7792C33.0931 44.9057 34.3342 44.9075 36.0822 44.9075H37.9155C39.6636 44.9075 40.9056 44.9057 41.8479 44.7792C42.7692 44.6554 43.3008 44.4226 43.6886 44.0349C44.0763 43.6471 44.3091 43.1154 44.4329 42.1933C44.5594 41.2519 44.5612 40.0098 44.5612 38.2617V34.595C44.5612 32.847 44.5594 31.6058 44.4329 30.6625C44.3091 29.7413 44.0763 29.2096 43.6886 28.8219C43.3008 28.4341 42.7692 28.2013 41.847 28.0775C40.9056 27.951 39.6636 27.9492 37.9155 27.9492H36.0822C34.3342 27.9492 33.094 27.951 32.1507 28.0775ZM32.6457 34.595C32.6457 34.4127 32.7182 34.2378 32.8471 34.1089C32.976 33.98 33.1509 33.9075 33.3332 33.9075H40.6664C40.8487 33.9075 41.0236 33.98 41.1525 34.1089C41.2814 34.2378 41.3539 34.4127 41.3539 34.595C41.3539 34.7774 41.2814 34.9522 41.1525 35.0812C41.0236 35.2101 40.8487 35.2825 40.6664 35.2825H33.3332C33.1509 35.2825 32.976 35.2101 32.8471 35.0812C32.7182 34.9522 32.6457 34.7774 32.6457 34.595ZM32.6457 38.2617C32.6457 38.0794 32.7182 37.9045 32.8471 37.7756C32.976 37.6466 33.1509 37.5742 33.3332 37.5742H37.9164C38.0988 37.5742 38.2736 37.6466 38.4026 37.7756C38.5315 37.9045 38.6039 38.0794 38.6039 38.2617C38.6039 38.444 38.5315 38.6189 38.4026 38.7478C38.2736 38.8768 38.0988 38.9492 37.9164 38.9492H33.3332C33.1509 38.9492 32.976 38.8768 32.8471 38.7478C32.7182 38.6189 32.6457 38.444 32.6457 38.2617Z" fill="white"/>
<rect x="3.53547" y="2.96321" width="66.9299" height="66.9299" rx="33.465" stroke="white" stroke-width="5.57749"/>
</svg>
