<svg width="24" height="24" viewBox="0 0 24 24" fill="none" xmlns="http://www.w3.org/2000/svg">
<g clip-path="url(#clip0_2204_17325)">
<path d="M14.9909 2.6171L14.9909 2.61709C14.1097 1.73611 13.0726 1.30643 11.8275 1.30643C10.5822 1.30643 9.54532 1.73611 8.66434 2.61709C7.78318 3.49825 7.35331 4.53534 7.35331 5.78027C7.35331 7.02557 7.78317 8.06266 8.66434 8.94364L8.66435 8.94365C9.54568 9.82461 10.5826 10.2545 11.8275 10.2545C13.0726 10.2545 14.1097 9.8248 14.9909 8.94364L14.9909 8.94363C15.8719 8.06247 16.3017 7.02558 16.3017 5.78027C16.3017 4.53534 15.8719 3.49826 14.9909 2.6171ZM15.8441 9.79666C14.7389 10.9018 13.3892 11.4609 11.8275 11.4609C10.2662 11.4609 8.91648 10.9016 7.81113 9.79684C6.70615 8.69187 6.14688 7.34217 6.14688 5.78027C6.14688 4.21874 6.70615 2.86905 7.81113 1.76407C8.9161 0.659097 10.2656 0.1 11.8275 0.1C13.389 0.1 14.7387 0.659091 15.8439 1.76388C16.9491 2.86923 17.5082 4.21892 17.5082 5.78027C17.5082 7.34217 16.9489 8.69168 15.8441 9.79666Z" fill="#23272E" stroke="white" stroke-width="0.2"/>
<path d="M21.8438 18.4626L21.8438 18.4625C21.8117 17.9991 21.7466 17.4926 21.6507 16.9568C21.5539 16.4179 21.4295 15.9092 21.2809 15.4449M21.8438 18.4626L21.3761 15.4144M21.8438 18.4626C21.8757 18.9172 21.8919 19.3918 21.8921 19.8732L21.8438 18.4626ZM21.2809 15.4449L21.3761 15.4144M21.2809 15.4449C21.2809 15.4449 21.2809 15.4449 21.2809 15.4449L21.3761 15.4144M21.2809 15.4449C21.1278 14.967 20.9198 14.4947 20.6622 14.0419L20.6622 14.0418C20.396 13.5733 20.0839 13.1667 19.735 12.833L19.735 12.8329C19.3722 12.4858 18.9269 12.2056 18.4096 12.0006M21.3761 15.4144C21.2208 14.9297 21.0101 14.4511 20.7491 13.9924C20.4787 13.5164 20.1608 13.1018 19.8041 12.7607C19.4312 12.4038 18.9745 12.1169 18.4464 11.9076C17.9202 11.6994 17.337 11.5939 16.7131 11.5939C16.4681 11.5939 16.2312 11.6945 15.7736 11.9924M18.4096 12.0006C18.4096 12.0006 18.4096 12.0006 18.4096 12.0006L18.4464 11.9076L18.4096 12.0006ZM18.4096 12.0006C17.8962 11.7975 17.3257 11.6939 16.7131 11.6939C16.5002 11.6939 16.2851 11.7787 15.8282 12.0761M15.8282 12.0761L15.7736 11.9924M15.8282 12.0761C15.8282 12.0761 15.8282 12.0762 15.8282 12.0762L15.7736 11.9924M15.8282 12.0761C15.5463 12.26 15.2166 12.4726 14.8488 12.7076L14.8487 12.7077C14.5246 12.9142 14.09 13.105 13.5594 13.2764M15.7736 11.9924C15.492 12.176 15.1626 12.3884 14.7949 12.6234M10.4308 13.1813C9.90527 13.0115 9.47919 12.8239 9.16534 12.6235M10.4308 13.1813L10.4 13.2764C10.4 13.2764 10.4 13.2764 10.4001 13.2764M10.4308 13.1813L10.4001 13.2764M10.4308 13.1813C10.9444 13.3474 11.4655 13.4316 11.9797 13.4316C12.4942 13.4316 13.0153 13.3474 13.5286 13.1813M9.16534 12.6235L4.22471 12.8331L4.15558 12.7609L4.22471 12.8331M9.16534 12.6235C8.80115 12.3908 8.47156 12.1784 8.18573 11.9922L9.16534 12.6235ZM10.4001 13.2764C9.86995 13.1052 9.43515 12.9144 9.11154 12.7078L9.1115 12.7078C8.74712 12.475 8.41727 12.2624 8.13114 12.076L8.13114 12.076C7.6746 11.7785 7.45954 11.6938 7.24658 11.6938C6.63387 11.6938 6.06351 11.7975 5.55032 12.0007L5.5503 12.0008C5.0334 12.2054 4.58784 12.4857 4.22471 12.8331M10.4001 13.2764C10.9231 13.4456 11.4546 13.5316 11.9797 13.5316C12.5051 13.5316 13.0366 13.4456 13.5593 13.2764L13.5286 13.1813M4.22471 12.8331C3.87576 13.167 3.56369 13.5735 3.29771 14.0418M4.22471 12.8331L3.29771 14.0418M13.5286 13.1813C14.0546 13.0114 14.4805 12.8237 14.7949 12.6234M13.5286 13.1813L13.5594 13.2764M14.7949 12.6234L13.5594 13.2764M14.7949 12.6234L13.5594 13.2764M3.29771 14.0418L3.2977 14.0418C3.04043 14.4947 2.83232 14.9668 2.67923 15.4451L3.29771 14.0418ZM2.30961 16.9568L2.3096 16.9568C2.21347 17.4918 2.14861 17.9985 2.11649 18.4631L2.11648 18.4631C2.08479 18.919 2.06875 19.3937 2.06875 19.8734C2.06875 21.1035 2.45889 22.0898 3.22128 22.816C3.97527 23.5335 4.97521 23.9008 6.20233 23.9008H17.7585C18.9852 23.9008 19.9852 23.5335 20.7394 22.816C21.5019 22.0904 21.8921 21.1037 21.8921 19.8733L2.30961 16.9568ZM2.30961 16.9568C2.40633 16.4179 2.53075 15.9094 2.67922 15.4451L2.30961 16.9568ZM4.05313 21.9421L4.05312 21.9421C3.526 21.4403 3.27518 20.7582 3.27518 19.8734C3.27518 19.4216 3.29008 18.9752 3.31992 18.5465C3.31992 18.5465 3.31992 18.5465 3.31992 18.5465L3.41968 18.5534L4.05313 21.9421ZM4.05313 21.9421C4.58847 22.4516 5.29599 22.6944 6.20233 22.6944H17.7583C18.6645 22.6944 19.372 22.4516 19.9075 21.9419C20.4346 21.4403 20.6854 20.7584 20.6856 19.8734V19.8734C20.6854 19.4226 20.6705 18.9787 20.6408 18.5536L4.05313 21.9421ZM7.16259 12.901L7.18586 12.9133C7.23826 12.9412 7.32855 12.9928 7.47257 13.0867C7.7614 13.2749 8.09439 13.4897 8.46258 13.7249C8.86861 13.9837 9.39523 14.2196 10.029 14.4242L10.0291 14.4243C10.673 14.6325 11.3292 14.738 11.9799 14.738C12.6306 14.738 13.2869 14.6325 13.9305 14.4244L13.9305 14.4244C14.5649 14.2194 15.0914 13.9837 15.4979 13.7245C15.8747 13.4836 16.1983 13.2751 16.4871 13.0867L16.4872 13.0867C16.6311 12.993 16.7214 12.9412 16.7739 12.9133L16.7971 12.901L16.8235 12.9017C17.2379 12.9128 17.6219 12.9864 17.9656 13.1223L17.9656 13.1224C18.3338 13.2681 18.6492 13.4638 18.901 13.7047C19.1668 13.9589 19.4062 14.2733 19.6133 14.6379C19.6133 14.6379 19.6133 14.6379 19.6133 14.6379L19.5264 14.6873L7.16259 12.901ZM7.16259 12.901L7.13624 12.9017L7.16259 12.901ZM11.9799 14.838C12.6414 14.838 13.3081 14.7307 13.9612 14.5196L9.99829 14.5194C10.6518 14.7307 11.3183 14.838 11.9799 14.838ZM5.99451 13.1224C5.62616 13.2681 5.31071 13.4636 5.0589 13.7047L6.03131 13.2153L5.99452 13.1223C5.99451 13.1223 5.99451 13.1223 5.99451 13.1224Z" fill="#23272E" stroke="white" stroke-width="0.2"/>
</g>
<defs>
<clipPath id="clip0_2204_17325">
<rect width="24" height="24" fill="white"/>
</clipPath>
</defs>
</svg>
