<svg width="20" height="20" viewBox="0 0 20 20" fill="none" xmlns="http://www.w3.org/2000/svg">
<path d="M5.83464 5.62508C5.48955 5.62508 5.20964 5.34516 5.20964 5.00008V1.66675C5.20964 1.32166 5.48955 1.04175 5.83464 1.04175C6.17972 1.04175 6.45964 1.32166 6.45964 1.66675V5.00008C6.45964 5.34516 6.17972 5.62508 5.83464 5.62508ZM18.9596 5.83342V15.8334C18.9596 17.5562 17.5579 18.9584 15.8346 18.9584H4.16797C2.44472 18.9584 1.04297 17.5562 1.04297 15.8334V5.83342C1.04297 4.18191 2.33505 2.839 3.95964 2.7295V5.00008C3.95964 6.03358 4.80072 6.87508 5.83464 6.87508C6.86855 6.87508 7.70964 6.03358 7.70964 5.00008V2.70841H12.293V5.00008C12.293 6.03358 13.1341 6.87508 14.168 6.87508C15.2019 6.87508 16.043 6.03358 16.043 5.00008V2.7295C17.6676 2.839 18.9596 4.18191 18.9596 5.83342ZM11.1512 11.3908L9.24689 10.7561C8.84572 10.6226 8.62797 10.1872 8.76147 9.786C8.86647 9.47183 9.15905 9.26108 9.48939 9.26108H10.3186C10.7658 9.26108 11.1609 9.54591 11.3026 9.97075C11.4116 10.2987 11.7672 10.4728 12.0931 10.3662C12.4207 10.2564 12.5973 9.90316 12.4882 9.57525C12.2095 8.73833 11.4819 8.15117 10.6262 8.0355V7.5C10.6262 7.15491 10.3463 6.875 10.0012 6.875C9.65614 6.875 9.37622 7.15491 9.37622 7.5V8.02C8.55464 8.06625 7.83897 8.60167 7.57572 9.39042C7.22414 10.4459 7.79622 11.5901 8.85139 11.9425L10.7557 12.5772C11.1569 12.7107 11.3746 13.1461 11.2411 13.5473C11.1361 13.8615 10.8436 14.0722 10.5132 14.0722H9.68397C9.2368 14.0722 8.84172 13.7874 8.70005 13.3626C8.59139 13.0354 8.2378 12.8629 7.90947 12.9671C7.58189 13.0769 7.4053 13.4302 7.51439 13.7581C7.79314 14.595 8.52072 15.1822 9.37639 15.2978V15.8333C9.37639 16.1784 9.6563 16.4583 10.0014 16.4583C10.3465 16.4583 10.6264 16.1784 10.6264 15.8333V15.3133C11.448 15.2671 12.1636 14.7317 12.4269 13.9429C12.7785 12.8874 12.2064 11.7432 11.1512 11.3908ZM14.793 5.00008V1.66675C14.793 1.32166 14.5131 1.04175 14.168 1.04175C13.8229 1.04175 13.543 1.32166 13.543 1.66675V5.00008C13.543 5.34516 13.8229 5.62508 14.168 5.62508C14.5131 5.62508 14.793 5.34516 14.793 5.00008Z" fill="#304880"/>
</svg>
