<svg width="20" height="16" viewBox="0 0 20 16" fill="none" xmlns="http://www.w3.org/2000/svg">
<path d="M17.8516 11.2922V14.1141C17.8516 14.8067 17.2901 15.3683 16.5975 15.3683H1.54715C0.854492 15.3683 0.292969 14.8067 0.292969 14.1141V5.33475C0.292969 4.64209 0.854492 4.08057 1.54715 4.08057H16.5975C17.2901 4.08057 17.8516 4.64209 17.8516 5.33475V10.0379" stroke="#304880" stroke-width="1.2" stroke-miterlimit="10" stroke-linecap="round" stroke-linejoin="round"/>
<path d="M1.52344 2.82638C1.72219 2.58654 2.01008 2.41989 2.34395 2.38103L17.2932 0.640129C17.9812 0.560012 18.6039 1.05279 18.6841 1.74083L19.6996 10.4612C19.7797 11.1492 19.287 11.772 18.5989 11.8521L17.8528 11.939" stroke="#304880" stroke-width="1.2" stroke-miterlimit="10" stroke-linecap="round" stroke-linejoin="round"/>
<path d="M2.17578 11.6057H4.68418" stroke="#304880" stroke-width="1.2" stroke-miterlimit="10" stroke-linecap="round" stroke-linejoin="round"/>
<path d="M2.17578 13.1736H8.44672" stroke="#304880" stroke-width="1.2" stroke-miterlimit="10" stroke-linecap="round" stroke-linejoin="round"/>
<path d="M5.9375 11.6057H8.44586" stroke="#304880" stroke-width="1.2" stroke-miterlimit="10" stroke-linecap="round" stroke-linejoin="round"/>
<path d="M9.69922 11.6057H12.2076" stroke="#304880" stroke-width="1.2" stroke-miterlimit="10" stroke-linecap="round" stroke-linejoin="round"/>
<path d="M13.4609 11.6057H15.9693" stroke="#304880" stroke-width="1.2" stroke-miterlimit="10" stroke-linecap="round" stroke-linejoin="round"/>
<path d="M4.68418 10.0379H2.80289C2.45656 10.0379 2.17578 9.7572 2.17578 9.41083V8.15665C2.17578 7.81032 2.45652 7.52954 2.80289 7.52954H4.68418C5.03051 7.52954 5.31129 7.81028 5.31129 8.15665V9.41083C5.31125 9.7572 5.03051 10.0379 4.68418 10.0379Z" stroke="#304880" stroke-width="1.2" stroke-miterlimit="10" stroke-linecap="round" stroke-linejoin="round"/>
<path d="M3.42969 8.78369H4.0568" stroke="#304880" stroke-width="1.2" stroke-miterlimit="10" stroke-linecap="round" stroke-linejoin="round"/>
<path d="M15.0117 9.09734C15.2232 8.67227 15.3451 8.19418 15.3451 7.68637C15.3451 7.17855 15.2232 6.70043 15.0117 6.27539" stroke="#304880" stroke-width="1.2" stroke-miterlimit="10" stroke-linecap="round" stroke-linejoin="round"/>
<path d="M13.8867 8.53108C14.0139 8.2762 14.0904 7.99112 14.0904 7.68632C14.0904 7.38151 14.0139 7.09644 13.8867 6.84155" stroke="#304880" stroke-width="1.2" stroke-miterlimit="10" stroke-linecap="round" stroke-linejoin="round"/>
<path d="M12.7656 7.96708C12.8087 7.88251 12.8351 7.78802 12.8351 7.6863C12.8351 7.58454 12.8087 7.49009 12.7656 7.40552" stroke="#304880" stroke-width="1.2" stroke-miterlimit="10" stroke-linecap="round" stroke-linejoin="round"/>
</svg>
