<svg width="20" height="20" viewBox="0 0 20 20" fill="none" xmlns="http://www.w3.org/2000/svg">
<path d="M6.33897 19.3221L6.68559 17.1204L5.91348 17.1025H2.22656L4.78878 0.85633C4.79673 0.807286 4.82258 0.761555 4.86036 0.72908C4.89813 0.696605 4.94652 0.678711 4.99688 0.678711H11.2135C13.2774 0.678711 14.7016 1.10818 15.4452 1.95584C15.7939 2.3535 16.0159 2.76905 16.1232 3.22635C16.2359 3.70618 16.2379 4.27947 16.1279 4.97868L16.1199 5.02971V5.47773L16.4685 5.67523C16.7621 5.83098 16.9954 6.00926 17.1744 6.21339C17.4726 6.55338 17.6655 6.9855 17.747 7.49781C17.8312 8.0247 17.8033 8.65167 17.6655 9.36148C17.5064 10.178 17.2493 10.8891 16.902 11.471C16.5825 12.0072 16.1756 12.4519 15.6924 12.7966C15.2312 13.124 14.6831 13.3725 14.0634 13.5315C13.4629 13.688 12.7783 13.7668 12.0274 13.7668H11.5436C11.1976 13.7668 10.8616 13.8914 10.5978 14.1148C10.3334 14.3428 10.1584 14.6543 10.1047 14.9949L10.0683 15.1931L9.45591 19.0735L9.42807 19.216C9.42078 19.2611 9.40819 19.2836 9.38964 19.2989C9.37307 19.3128 9.34921 19.3221 9.32601 19.3221H6.33897Z" fill="#253B80"/>
<path d="M16.7989 5.08154C16.7803 5.20018 16.7591 5.32146 16.7352 5.44606C15.9154 9.65523 13.1106 11.1093 9.52842 11.1093H7.70451C7.26643 11.1093 6.89727 11.4274 6.82901 11.8596L5.89518 17.7819L5.63074 19.4607C5.58634 19.7444 5.80505 20.0002 6.09136 20.0002H9.32627C9.70935 20.0002 10.0348 19.7218 10.0951 19.3441L10.1269 19.1797L10.736 15.3145L10.7751 15.1024C10.8347 14.7233 11.1608 14.445 11.5439 14.445H12.0277C15.1618 14.445 17.6154 13.1725 18.3325 9.4902C18.632 7.95194 18.477 6.66752 17.6843 5.76418C17.4444 5.49179 17.1468 5.26579 16.7989 5.08154Z" fill="#179BD7"/>
<path d="M15.9404 4.73958C15.8151 4.70312 15.6859 4.66999 15.5533 4.64016C15.4201 4.611 15.2836 4.58515 15.1431 4.56262C14.6513 4.48309 14.1125 4.44531 13.5352 4.44531H8.66263C8.54268 4.44531 8.42868 4.47249 8.32662 4.52153C8.10194 4.62956 7.93493 4.8423 7.8945 5.10277L6.85795 11.668L6.82812 11.8596C6.89639 11.4275 7.26554 11.1093 7.70363 11.1093H9.52753C13.1097 11.1093 15.9145 9.65458 16.7343 5.44608C16.7589 5.32148 16.7794 5.20019 16.798 5.08156C16.5905 4.97154 16.3659 4.87743 16.1239 4.79724C16.0643 4.77735 16.0027 4.75813 15.9404 4.73958Z" fill="#222D65"/>
<path d="M7.89517 5.10256C7.9356 4.8421 8.10261 4.62935 8.32729 4.52199C8.43002 4.47294 8.54335 4.44577 8.66331 4.44577H13.5359C14.1132 4.44577 14.652 4.48355 15.1437 4.56308C15.2842 4.58561 15.4208 4.61146 15.554 4.64062C15.6865 4.67044 15.8158 4.70358 15.941 4.74003C16.0033 4.75859 16.065 4.77781 16.1253 4.79703C16.3672 4.87722 16.5919 4.972 16.7993 5.08135C17.0432 3.52586 16.7973 2.46678 15.9563 1.50777C15.0291 0.452 13.3556 0 11.2143 0H4.9976C4.56018 0 4.18705 0.318123 4.11945 0.750903L1.53006 17.1641C1.47903 17.4888 1.72955 17.7818 2.05695 17.7818H5.89497L6.85862 11.6678L7.89517 5.10256Z" fill="#253B80"/>
</svg>
