<svg width="20" height="21" viewBox="0 0 20 21" fill="none" xmlns="http://www.w3.org/2000/svg">
<path d="M12.9823 10.5034C12.9823 12.1534 11.649 13.4867 9.99896 13.4867C8.34896 13.4867 7.01562 12.1534 7.01562 10.5034C7.01562 8.85335 8.34896 7.52002 9.99896 7.52002C11.649 7.52002 12.9823 8.85335 12.9823 10.5034Z" stroke="#333399" stroke-linecap="round" stroke-linejoin="round"/>
<path d="M10.0018 17.3945C12.9435 17.3945 15.6852 15.6611 17.5935 12.6611C18.3435 11.4861 18.3435 9.51112 17.5935 8.33612C15.6852 5.33612 12.9435 3.60278 10.0018 3.60278C7.06016 3.60278 4.31849 5.33612 2.41016 8.33612C1.66016 9.51112 1.66016 11.4861 2.41016 12.6611C4.31849 15.6611 7.06016 17.3945 10.0018 17.3945Z" stroke="#333399" stroke-linecap="round" stroke-linejoin="round"/>
</svg>
