<svg width="20" height="21" viewBox="0 0 20 21" fill="none" xmlns="http://www.w3.org/2000/svg">
<g clip-path="url(#clip0_1100_65265)">
<path fill-rule="evenodd" clip-rule="evenodd" d="M10 20.9219C15.5078 20.9219 20 16.4297 20 10.9219C20 5.41406 15.5078 0.921875 10 0.921875C4.49219 0.921875 0 5.41406 0 10.9219C0 16.4297 4.49219 20.9219 10 20.9219Z" fill="#EF5350"/>
<path d="M9.09375 9.23828V10.6094H11.4141C11.5859 10.6094 11.7266 10.75 11.7266 10.9219C11.7266 11.0938 11.5859 11.2344 11.4141 11.2344H9.09375V12.6055H11.4141C11.5859 12.6055 11.7266 12.7461 11.7266 12.918C11.7266 13.0898 11.5859 13.2305 11.4141 13.2305H8.78125C8.60938 13.2305 8.46875 13.0898 8.46875 12.918V8.92578C8.46875 8.75391 8.60938 8.61328 8.78125 8.61328H11.4141C11.5859 8.61328 11.7266 8.75391 11.7266 8.92578C11.7266 9.09766 11.5859 9.23828 11.4141 9.23828H9.09375ZM15.4492 11.5C15.2773 11.4961 15.1328 11.6328 15.1328 11.8047C15.125 12.2461 14.7617 12.6016 14.3203 12.6016H13.9375C13.4883 12.6016 13.125 12.2383 13.125 11.7891V10.0469C13.125 9.59766 13.4883 9.23438 13.9375 9.23438H14.3203C14.7617 9.23438 15.125 9.58984 15.1328 10.0312C15.1367 10.2031 15.2812 10.3398 15.4492 10.3359C15.6211 10.332 15.7578 10.1914 15.7539 10.0195C15.7383 9.24219 15.0938 8.60938 14.3164 8.60938H13.9336C13.1406 8.60938 12.4961 9.25391 12.4961 10.0469V11.7891C12.4961 12.582 13.1406 13.2266 13.9336 13.2266H14.3164C15.0938 13.2266 15.7383 12.5937 15.7539 11.8164C15.7578 11.6484 15.6211 11.5039 15.4492 11.5ZM7.62891 10.0742C7.62891 10.8711 6.98437 11.5234 6.1875 11.5312L7.07422 12.6602C7.17969 12.7969 7.15625 12.9922 7.02344 13.0977C6.96484 13.1445 6.89844 13.1641 6.83203 13.1641C6.73828 13.1641 6.64844 13.125 6.58594 13.043L5.39062 11.5312H4.86719V12.918C4.86719 13.0898 4.72656 13.2305 4.55469 13.2305C4.38281 13.2305 4.24219 13.0898 4.24219 12.918V11.2188V8.92578C4.24219 8.89453 4.24609 8.86328 4.25781 8.83203C4.29688 8.70312 4.41406 8.61328 4.55469 8.61328H6.16797C6.97266 8.61719 7.62891 9.26953 7.62891 10.0742ZM7.00391 10.0742C7.00391 9.61328 6.62891 9.24219 6.17188 9.24219H4.87109V10.9102H6.17188C6.62891 10.9062 7.00391 10.5352 7.00391 10.0742Z" fill="white"/>
</g>
<defs>
<clipPath id="clip0_1100_65265">
<rect width="20" height="20" fill="white" transform="translate(0 0.921875)"/>
</clipPath>
</defs>
</svg>
