<svg width="16" height="16" viewBox="0 0 16 16" fill="none" xmlns="http://www.w3.org/2000/svg">
<path d="M8.00521 7.9987C9.84616 7.9987 11.3385 6.50631 11.3385 4.66536C11.3385 2.82442 9.84616 1.33203 8.00521 1.33203C6.16426 1.33203 4.67188 2.82442 4.67188 4.66536C4.67188 6.50631 6.16426 7.9987 8.00521 7.9987Z" stroke="white" stroke-linecap="round" stroke-linejoin="round"/>
<path d="M12.8021 10.4914L10.4421 12.8514C10.3488 12.9448 10.2621 13.1181 10.2421 13.2447L10.1155 14.1447C10.0688 14.4714 10.2955 14.6981 10.6221 14.6514L11.5221 14.5247C11.6488 14.5047 11.8288 14.4181 11.9155 14.3247L14.2755 11.9647C14.6821 11.5581 14.8755 11.0847 14.2755 10.4847C13.6821 9.89139 13.2088 10.0847 12.8021 10.4914Z" stroke="white" stroke-miterlimit="10" stroke-linecap="round" stroke-linejoin="round"/>
<path d="M12.4609 10.832C12.6609 11.552 13.2209 12.112 13.9409 12.312" stroke="white" stroke-miterlimit="10" stroke-linecap="round" stroke-linejoin="round"/>
<path d="M2.27344 14.6667C2.27344 12.0867 4.84012 10 8.00012 10C8.69346 10 9.3601 10.1 9.9801 10.2867" stroke="white" stroke-linecap="round" stroke-linejoin="round"/>
</svg>
