<svg width="16" height="16" viewBox="0 0 16 16" fill="none" xmlns="http://www.w3.org/2000/svg">
<g clip-path="url(#clip0_1100_55648)">
<rect x="3" y="8" width="10" height="5.83333" fill="white"/>
<path d="M0.812531 6.23606V13.1513C0.812531 14.7242 2.08709 15.9988 3.66 15.9988H12.338C13.9108 15.9988 15.1854 14.7242 15.1854 13.1513V6.23606H0.812531ZM11.4702 9.30047L7.64644 13.0971C7.51084 13.2327 7.34812 13.2869 7.15831 13.2869C6.96847 13.2869 6.80578 13.2056 6.67019 13.0971L4.50069 10.9547C4.2295 10.6835 4.2295 10.2496 4.50069 10.0056C4.77187 9.73437 5.20578 9.73437 5.44984 10.0056L7.13119 11.6869L10.4668 8.35131L10.4939 8.37844C10.7651 8.13437 11.1719 8.13437 11.4431 8.37844C11.7142 8.5954 11.7413 9.02928 11.4702 9.30047ZM12.3379 1.89709H12.0668V0.676748C12.0668 0.297092 11.7685 -0.0012207 11.3888 -0.0012207C11.0092 -0.0012207 10.7108 0.297092 10.7108 0.676748V1.89709H5.28709V0.676748C5.28709 0.297092 4.98881 -0.0012207 4.60912 -0.0012207C4.22947 -0.0012207 3.93116 0.297092 3.93116 0.676748V1.89709H3.65997C2.08709 1.89709 0.8125 3.17165 0.8125 4.74456V4.88015H15.1854V4.74456C15.1854 3.17165 13.9108 1.89709 12.3379 1.89709Z" fill="#304880"/>
</g>
<defs>
<clipPath id="clip0_1100_55648">
<rect width="16" height="16" fill="white" transform="translate(0 -0.0012207)"/>
</clipPath>
</defs>
</svg>
