<svg width="16" height="16" viewBox="0 0 16 16" fill="none" xmlns="http://www.w3.org/2000/svg">
<g clip-path="url(#clip0_1100_57408)">
<path d="M13.2919 11.2086C13.0542 11.0318 12.7182 11.0811 12.5414 11.3188C12.4442 11.4495 12.3401 11.5777 12.2322 11.6998C12.036 11.9217 12.0568 12.2607 12.2787 12.4569C12.3808 12.5471 12.5075 12.5914 12.6338 12.5914C12.7821 12.5914 12.9298 12.5302 13.0358 12.4103C13.1637 12.2656 13.2869 12.1138 13.4021 11.959C13.5789 11.7214 13.5295 11.3854 13.2919 11.2086Z" fill="#EEB931"/>
<path d="M14.1891 8.69305C13.8999 8.63005 13.614 8.81361 13.551 9.10301C13.5163 9.26222 13.4744 9.42173 13.4264 9.57716C13.3389 9.86018 13.4975 10.1605 13.7805 10.2479C13.8332 10.2642 13.8865 10.2719 13.939 10.2719C14.168 10.2719 14.3801 10.1241 14.4512 9.89378C14.5082 9.70933 14.558 9.52004 14.5991 9.33117C14.6621 9.04177 14.4785 8.75606 14.1891 8.69305Z" fill="#EEB931"/>
<path d="M10.7109 12.9265C10.5685 13.006 10.4211 13.0803 10.2728 13.1473C10.0028 13.2692 9.88279 13.5869 10.0047 13.8568C10.0943 14.0552 10.2895 14.1726 10.4938 14.1726C10.5676 14.1726 10.6426 14.1572 10.7142 14.1249C10.8902 14.0454 11.065 13.9573 11.2339 13.8631C11.4925 13.7187 11.5851 13.392 11.4407 13.1333C11.2963 12.8747 10.9696 12.7821 10.7109 12.9265Z" fill="#EEB931"/>
<path d="M7.32689 3.57441V7.64289L5.3602 9.60955C5.15077 9.81902 5.15077 10.1586 5.3602 10.368C5.46495 10.4728 5.60217 10.5251 5.73947 10.5251C5.87671 10.5251 6.01399 10.4727 6.11873 10.368L8.24248 8.24428C8.34304 8.14372 8.39955 8.00727 8.39955 7.86504V3.57441C8.39955 3.2782 8.15943 3.03809 7.86322 3.03809C7.567 3.03809 7.32689 3.2782 7.32689 3.57441Z" fill="#EEB931"/>
<path d="M14.1937 2.15311C13.8975 2.15311 13.6573 2.39322 13.6573 2.68943V4.17871C12.409 2.2209 10.2289 1 7.865 1C6.03129 1 4.30735 1.71409 3.01069 3.01069C1.71409 4.30735 1 6.03129 1 7.865C1 9.69871 1.71409 11.4227 3.01069 12.7193C4.30735 14.0159 6.03129 14.73 7.865 14.73C7.86953 14.73 7.8739 14.7294 7.87841 14.7293C7.88291 14.7294 7.88728 14.73 7.89182 14.73C8.08511 14.73 8.28031 14.7218 8.47204 14.7058C8.76721 14.6811 8.98646 14.4218 8.96176 14.1266C8.93701 13.8314 8.67805 13.6121 8.38253 13.6369C8.22045 13.6505 8.05537 13.6573 7.89182 13.6573C7.88728 13.6573 7.88291 13.6579 7.87841 13.658C7.8739 13.6579 7.86953 13.6573 7.865 13.6573C4.67109 13.6573 2.07266 11.0589 2.07266 7.865C2.07266 4.67109 4.67109 2.07266 7.865 2.07266C9.92337 2.07266 11.8166 3.1698 12.8511 4.9152H11.3764C11.0802 4.9152 10.8401 5.15531 10.8401 5.45152C10.8401 5.74774 11.0802 5.98785 11.3764 5.98785H13.0138C13.3404 5.98785 13.6459 5.89606 13.9061 5.73704C13.9229 5.72749 13.9389 5.71722 13.9543 5.70614C14.421 5.39907 14.73 4.87087 14.73 4.2716V2.68943C14.73 2.39322 14.4899 2.15311 14.1937 2.15311Z" fill="#EEB931"/>
</g>
<defs>
<clipPath id="clip0_1100_57408">
<rect width="13.73" height="13.73" fill="white" transform="translate(1 1)"/>
</clipPath>
</defs>
</svg>
