<svg width="77" height="77" viewBox="0 0 77 77" fill="none" xmlns="http://www.w3.org/2000/svg">
<mask id="mask0_1100_55360" style="mask-type:luminance" maskUnits="userSpaceOnUse" x="5" y="5" width="67" height="67">
<path d="M38.5013 70.5833C42.7154 70.5888 46.889 69.7614 50.7822 68.1487C54.6754 66.536 58.2116 64.1698 61.1875 61.1861C64.1712 58.2103 66.5374 54.6741 68.15 50.7809C69.7627 46.8876 70.5901 42.714 70.5847 38.5C70.59 34.286 69.7626 30.1124 68.1499 26.2192C66.5372 22.3259 64.1711 18.7898 61.1875 15.8139C58.2116 12.8302 54.6754 10.464 50.7822 8.85127C46.889 7.23858 42.7154 6.41119 38.5013 6.41665C34.2873 6.41128 30.1138 7.23871 26.2205 8.8514C22.3273 10.4641 18.7911 12.8302 15.8152 15.8139C12.8316 18.7898 10.4654 22.3259 8.85274 26.2192C7.24005 30.1124 6.41262 34.286 6.418 38.5C6.41254 42.714 7.23993 46.8876 8.85262 50.7809C10.4653 54.6741 12.8315 58.2103 15.8152 61.1861C18.7911 64.1697 22.3273 66.5359 26.2205 68.1486C30.1138 69.7613 34.2873 70.5887 38.5013 70.5833Z" fill="white" stroke="white" stroke-width="2" stroke-linejoin="round"/>
<path d="M25.668 38.5L35.293 48.125L54.543 28.875" stroke="black" stroke-width="2" stroke-linecap="round" stroke-linejoin="round"/>
</mask>
<g mask="url(#mask0_1100_55360)">
<path d="M0 0H77V77H0V0Z" fill="url(#paint0_linear_1100_55360)"/>
</g>
<defs>
<linearGradient id="paint0_linear_1100_55360" x1="38.5" y1="0" x2="38.5" y2="77" gradientUnits="userSpaceOnUse">
<stop stop-color="#304880"/>
<stop offset="1" stop-color="#4D4DB8"/>
</linearGradient>
</defs>
</svg>
