<svg width="18" height="19" viewBox="0 0 18 19" fill="none" xmlns="http://www.w3.org/2000/svg">
<path opacity="0.4" d="M17.8425 8.30188L13.8225 12.4194L14.7675 18.2469C14.8508 18.7119 14.346 19.0524 13.9425 18.8319L9 16.0944V0.921875C9.21 0.921875 9.42 1.01938 9.51 1.22188L11.9925 6.50938L17.52 7.34938C17.982 7.43188 18.1523 7.97563 17.8425 8.30188Z" fill="#2C3E50"/>
<path d="M8.9996 0.921875V16.0944L4.0571 18.8319C3.66035 19.0546 3.1481 18.7171 3.2321 18.2469L4.1771 12.4194L0.157104 8.30188C-0.152646 7.97563 0.0168535 7.43188 0.479603 7.34938L6.0071 6.50938L8.4896 1.22188C8.5796 1.01938 8.7896 0.921875 8.9996 0.921875Z" fill="#2C3E50"/>
</svg>
