<svg width="24" height="22" viewBox="0 0 24 22" fill="none" xmlns="http://www.w3.org/2000/svg">
<path d="M16.7719 3.26562V3.41563H16.9219H23.2936L23.3003 3.4158C23.4614 3.41687 23.5899 3.46876 23.6808 3.5581C23.7714 3.64705 23.8376 3.78599 23.85 3.98536V19.4375C23.85 20.5177 22.9709 21.3969 21.8906 21.3969H2.10938C1.02913 21.3969 0.15 20.5177 0.15 19.4375V3.96875C0.15 3.668 0.395756 3.41563 0.703125 3.41563H7.07812H7.22813V3.26562V2.5625C7.22813 1.48226 8.10726 0.603125 9.1875 0.603125H14.8125C15.8927 0.603125 16.7719 1.48226 16.7719 2.5625V3.26562ZM23.2897 3.41542L23.2905 3.41547L23.2897 3.41542ZM15.5156 3.41563H15.6656V3.26562V2.5625C15.6656 2.09202 15.283 1.70938 14.8125 1.70938H9.1875C8.71702 1.70938 8.33438 2.09202 8.33438 2.5625V3.26562V3.41563H8.48438H15.5156ZM22.4636 4.71931L22.5294 4.52187H22.3213H1.67871H1.4706L1.53641 4.71931L3.71992 11.2697C3.71993 11.2697 3.71994 11.2697 3.71994 11.2697C3.83613 11.6187 4.16153 11.8531 4.52911 11.8531H8.48438H8.63437V11.7031V11C8.63437 10.6945 8.88198 10.4469 9.1875 10.4469H14.8125C15.118 10.4469 15.3656 10.6945 15.3656 11V11.7031V11.8531H15.5156H19.4709C19.8385 11.8531 20.1639 11.6186 20.2801 11.2697L22.4636 4.71931ZM14.2594 11.7031V11.5531H14.1094H9.89062H9.74063V11.7031V13.1094V13.2594H9.89062H14.1094H14.2594V13.1094V11.7031ZM1.54855 8.25414L1.25625 8.30157V19.4375C1.25625 19.908 1.6389 20.2906 2.10938 20.2906H21.8906C22.3611 20.2906 22.7437 19.908 22.7437 19.4375V8.30157L22.4514 8.25414L21.3296 11.6196L21.3296 11.6196C21.0625 12.4212 20.3156 12.9594 19.4709 12.9594H15.5156H15.3656V13.1094V13.8125C15.3656 14.118 15.118 14.3656 14.8125 14.3656H9.1875C8.88198 14.3656 8.63437 14.118 8.63437 13.8125V13.1094V12.9594H8.48438H4.52911C3.68437 12.9594 2.9375 12.4212 2.67045 11.6196L2.67044 11.6196L1.54855 8.25414Z" fill="#23272E" stroke="white" stroke-width="0.3"/>
</svg>
