<svg width="33" height="32" viewBox="0 0 33 32" fill="none" xmlns="http://www.w3.org/2000/svg">
<path fill-rule="evenodd" clip-rule="evenodd" d="M8.69869 0H19.4014L28.4669 9.45791V27.8326C28.4669 30.1328 26.5997 32 24.2995 32H8.69869C6.39848 32 4.53125 30.1328 4.53125 27.8326V4.16744C4.53125 1.86723 6.39848 0 8.69869 0Z" fill="#333399"/>
<path opacity="0.302" fill-rule="evenodd" clip-rule="evenodd" d="M19.3867 0V9.37673H28.4658L19.3867 0Z" fill="white"/>
<path fill-rule="evenodd" clip-rule="evenodd" d="M20.5657 15.9941H12.4338C11.8249 15.9941 11.3242 16.4948 11.3242 17.1037V22.2724C11.3242 22.8812 11.8248 23.3819 12.4338 23.3819H20.5657C21.1745 23.3819 21.6616 22.8813 21.6616 22.2724V17.1036C21.6616 16.4948 21.1746 15.9941 20.5657 15.9941ZM14.6528 17.3878C15.3158 17.3878 15.8435 17.929 15.8435 18.5785C15.8435 19.2415 15.3158 19.7827 14.6528 19.7827C13.9898 19.7827 13.4486 19.2415 13.4486 18.5785C13.4486 17.929 13.9898 17.3878 14.6528 17.3878ZM20.931 22.2724C20.931 22.4753 20.7686 22.6512 20.5657 22.6512H12.4338C12.2308 22.6512 12.0684 22.4753 12.0684 22.2724V22.0559L13.5432 20.5811L14.761 21.7988C14.9098 21.9477 15.1399 21.9477 15.2887 21.7988L18.3466 18.7409L20.931 21.3253V22.2724Z" fill="white"/>
</svg>
