<svg width="38" height="38" viewBox="0 0 38 38" fill="none" xmlns="http://www.w3.org/2000/svg">
<path d="M26.2046 12.7525L16.5083 21.9919L11.8886 17.2199C11.2794 16.6107 10.3148 16.6107 9.75641 17.1692C9.14722 17.7784 9.14722 18.7429 9.70565 19.3013L15.3914 25.1394C15.696 25.444 16.1022 25.5963 16.4575 25.5963C16.8129 25.5963 17.219 25.444 17.5236 25.1902L28.3368 14.9355C28.9459 14.377 28.9967 13.4125 28.3875 12.8033C27.7783 12.1941 26.8138 12.1941 26.2046 12.7525Z" fill="#45B36C"/>
<path d="M18.9982 0.214844C8.64199 0.214844 0.214844 8.64199 0.214844 18.9982C0.214844 29.3545 8.64199 37.7817 18.9982 37.7817C29.3545 37.7817 37.7817 29.3545 37.7817 18.9982C37.7817 8.64199 29.3545 0.214844 18.9982 0.214844ZM18.9982 34.7357C10.3173 34.7357 3.2608 27.6792 3.2608 18.9982C3.2608 10.3173 10.3173 3.2608 18.9982 3.2608C27.6792 3.2608 34.7357 10.3173 34.7357 18.9982C34.7357 27.6792 27.6792 34.7357 18.9982 34.7357Z" fill="#45B36C"/>
</svg>
