<svg width="22" height="21" viewBox="0 0 22 21" fill="none" xmlns="http://www.w3.org/2000/svg">
<path d="M20.1861 8.5048C19.8613 8.31599 19.5695 8.0755 19.3221 7.7928C19.3471 7.39921 19.4409 7.01305 19.5991 6.6518C19.8901 5.8308 20.2191 4.9008 19.6911 4.1778C19.1631 3.4548 18.1661 3.4778 17.2911 3.4978C16.9045 3.53758 16.5139 3.51121 16.1361 3.4198C15.9348 3.09231 15.7911 2.73279 15.7111 2.3568C15.4631 1.5118 15.1801 0.556802 14.3111 0.270802C13.4731 0.000801861 12.6971 0.594802 12.0111 1.1168C11.7151 1.38712 11.3721 1.60098 10.9991 1.7478C10.6222 1.60217 10.2754 1.38826 9.97609 1.1168C9.29209 0.597802 8.51909 -0.00219807 7.67709 0.271802C6.81009 0.553802 6.52709 1.5118 6.27709 2.3568C6.19723 2.73157 6.05491 3.09023 5.85609 3.4178C5.47761 3.50896 5.08652 3.536 4.69909 3.4978C3.82109 3.4738 2.83209 3.4478 2.29909 4.1778C1.76609 4.9078 2.09909 5.8308 2.39109 6.6508C2.55154 7.01151 2.64668 7.39784 2.67209 7.7918C2.42517 8.07488 2.13367 8.31572 1.80909 8.5048C1.07709 9.0048 0.246094 9.5738 0.246094 10.4978C0.246094 11.4218 1.07709 11.9888 1.80909 12.4908C2.13359 12.6796 2.42509 12.9201 2.67209 13.2028C2.64935 13.5966 2.55692 13.9833 2.39909 14.3448C2.10909 15.1648 1.78109 16.0948 2.30809 16.8178C2.83509 17.5408 3.82909 17.5178 4.70809 17.4978C5.09506 17.458 5.48598 17.4844 5.86409 17.5758C6.06447 17.9036 6.20784 18.2631 6.28809 18.6388C6.53609 19.4838 6.81909 20.4388 7.68809 20.7248C7.82741 20.7695 7.97279 20.7924 8.11909 20.7928C8.8223 20.6919 9.47588 20.3721 9.98709 19.8788C10.2831 19.6085 10.6261 19.3946 10.9991 19.2478C11.376 19.3934 11.7228 19.6073 12.0221 19.8788C12.7071 20.4018 13.4831 20.9988 14.3221 20.7238C15.1891 20.4418 15.4721 19.4838 15.7221 18.6398C15.8022 18.2643 15.9456 17.9052 16.1461 17.5778C16.5231 17.486 16.913 17.459 17.2991 17.4978C18.1771 17.5188 19.1661 17.5478 19.6991 16.8178C20.2321 16.0878 19.8991 15.1648 19.6071 14.3438C19.4478 13.9834 19.3527 13.5979 19.3261 13.2048C19.5732 12.9215 19.865 12.6806 20.1901 12.4918C20.9221 11.9918 21.7531 11.4218 21.7531 10.4978C21.7531 9.5738 20.9191 9.0058 20.1861 8.5048Z" fill="#1ABA21"/>
<path d="M10.0008 13.25C9.90232 13.2502 9.80477 13.2308 9.71379 13.1931C9.62282 13.1553 9.54024 13.0999 9.47082 13.03L7.47082 11.03C7.33834 10.8878 7.26622 10.6998 7.26965 10.5055C7.27308 10.3112 7.35179 10.1258 7.4892 9.98838C7.62662 9.85097 7.812 9.77226 8.0063 9.76883C8.2006 9.7654 8.38865 9.83752 8.53082 9.97L10.0708 11.51L13.5508 8.9C13.71 8.78066 13.91 8.72941 14.1069 8.75754C14.3038 8.78567 14.4815 8.89087 14.6008 9.05C14.7202 9.20913 14.7714 9.40916 14.7433 9.60607C14.7152 9.80298 14.61 9.98066 14.4508 10.1L10.4508 13.1C10.321 13.1973 10.1631 13.2499 10.0008 13.25Z" fill="white"/>
</svg>
