<svg width="16" height="17" viewBox="0 0 16 17" fill="none" xmlns="http://www.w3.org/2000/svg">
<path d="M15.8453 4.27655L12.6453 1.07655C12.5955 1.02712 12.5364 0.988014 12.4714 0.961473C12.4064 0.934931 12.3368 0.921478 12.2667 0.921884H1.6C1.17565 0.921884 0.768687 1.09045 0.468629 1.39051C0.168571 1.69057 0 2.09754 0 2.52188V15.3219C0 15.7462 0.168571 16.1532 0.468629 16.4532C0.768687 16.7533 1.17565 16.9219 1.6 16.9219H14.4C14.8243 16.9219 15.2313 16.7533 15.5314 16.4532C15.8314 16.1532 16 15.7462 16 15.3219V4.65521C16.0004 4.58502 15.9869 4.51544 15.9604 4.45046C15.9339 4.38549 15.8948 4.32638 15.8453 4.27655ZM10.1333 1.98855V5.18855H5.86666V1.98855H10.1333ZM3.73333 15.8552V12.1219C3.73333 11.9804 3.78952 11.8448 3.88954 11.7448C3.98956 11.6447 4.12522 11.5885 4.26666 11.5885H11.7333C11.8748 11.5885 12.0104 11.6447 12.1104 11.7448C12.2105 11.8448 12.2667 11.9804 12.2667 12.1219V15.8552H3.73333ZM14.9333 15.3219C14.9333 15.4633 14.8771 15.599 14.7771 15.699C14.6771 15.799 14.5414 15.8552 14.4 15.8552H13.3333V12.1219C13.3333 11.6975 13.1648 11.2906 12.8647 10.9905C12.5646 10.6904 12.1577 10.5219 11.7333 10.5219H4.26666C3.84232 10.5219 3.43535 10.6904 3.13529 10.9905C2.83524 11.2906 2.66667 11.6975 2.66667 12.1219V15.8552H1.6C1.45855 15.8552 1.32289 15.799 1.22288 15.699C1.12286 15.599 1.06667 15.4633 1.06667 15.3219V2.52188C1.06667 2.38043 1.12286 2.24478 1.22288 2.14476C1.32289 2.04474 1.45855 1.98855 1.6 1.98855H4.8V5.18855C4.8 5.47145 4.91238 5.74276 5.11242 5.94279C5.31246 6.14283 5.58377 6.25521 5.86666 6.25521H10.1333C10.4162 6.25521 10.6875 6.14283 10.8876 5.94279C11.0876 5.74276 11.2 5.47145 11.2 5.18855V1.98855H12.048L14.9333 4.87388V15.3219Z" fill="#304880"/>
</svg>
