<svg width="24" height="25" viewBox="0 0 24 25" fill="none" xmlns="http://www.w3.org/2000/svg">
<g filter="url(#filter0_b_1100_65518)">
<circle cx="12" cy="12.9219" r="12" fill="black" fill-opacity="0.52"/>
</g>
<path d="M12.8258 17.9219H11.1758C11.0841 17.9219 11.0029 17.8927 10.932 17.8344C10.8612 17.776 10.8174 17.701 10.8008 17.6094L10.6008 16.3469C10.4424 16.2885 10.2758 16.2094 10.1008 16.1094C9.92578 16.0094 9.77162 15.9052 9.63828 15.7969L8.47578 16.3344C8.38411 16.376 8.29245 16.3823 8.20078 16.3531C8.10911 16.324 8.03828 16.2635 7.98828 16.1719L7.16328 14.7094C7.11328 14.626 7.10078 14.5385 7.12578 14.4469C7.15078 14.3552 7.20078 14.2802 7.27578 14.2219L8.35078 13.4344C8.33411 13.3594 8.3237 13.274 8.31953 13.1781C8.31536 13.0823 8.31328 12.9969 8.31328 12.9219C8.31328 12.8469 8.31536 12.7615 8.31953 12.6656C8.3237 12.5698 8.33411 12.4844 8.35078 12.4094L7.27578 11.6219C7.20078 11.5635 7.15078 11.4885 7.12578 11.3969C7.10078 11.3052 7.11328 11.2177 7.16328 11.1344L7.98828 9.67188C8.03828 9.58021 8.10911 9.51979 8.20078 9.49063C8.29245 9.46146 8.38411 9.46771 8.47578 9.50938L9.63828 10.0469C9.77162 9.93854 9.92578 9.83438 10.1008 9.73438C10.2758 9.63438 10.4424 9.55938 10.6008 9.50938L10.8008 8.23438C10.8174 8.14271 10.8612 8.06771 10.932 8.00937C11.0029 7.95104 11.0841 7.92188 11.1758 7.92188H12.8258C12.9174 7.92188 12.9987 7.95104 13.0695 8.00937C13.1404 8.06771 13.1841 8.14271 13.2008 8.23438L13.4008 9.49688C13.5591 9.55521 13.7279 9.63229 13.907 9.72813C14.0862 9.82396 14.2383 9.93021 14.3633 10.0469L15.5258 9.50938C15.6174 9.46771 15.7091 9.46146 15.8008 9.49063C15.8924 9.51979 15.9633 9.58021 16.0133 9.67188L16.8383 11.1219C16.8883 11.2052 16.9029 11.2948 16.882 11.3906C16.8612 11.4865 16.8091 11.5635 16.7258 11.6219L15.6508 12.3844C15.6674 12.4677 15.6779 12.5573 15.682 12.6531C15.6862 12.749 15.6883 12.8385 15.6883 12.9219C15.6883 13.0052 15.6862 13.0927 15.682 13.1844C15.6779 13.276 15.6674 13.3635 15.6508 13.4469L16.7258 14.2219C16.8008 14.2802 16.8508 14.3552 16.8758 14.4469C16.9008 14.5385 16.8883 14.626 16.8383 14.7094L16.0133 16.1719C15.9633 16.2635 15.8924 16.324 15.8008 16.3531C15.7091 16.3823 15.6174 16.376 15.5258 16.3344L14.3633 15.7969C14.2299 15.9052 14.0779 16.0115 13.907 16.1156C13.7362 16.2198 13.5674 16.2969 13.4008 16.3469L13.2008 17.6094C13.1841 17.701 13.1404 17.776 13.0695 17.8344C12.9987 17.8927 12.9174 17.9219 12.8258 17.9219ZM12.0008 14.5469C12.4508 14.5469 12.8341 14.3885 13.1508 14.0719C13.4674 13.7552 13.6258 13.3719 13.6258 12.9219C13.6258 12.4719 13.4674 12.0885 13.1508 11.7719C12.8341 11.4552 12.4508 11.2969 12.0008 11.2969C11.5508 11.2969 11.1674 11.4552 10.8508 11.7719C10.5341 12.0885 10.3758 12.4719 10.3758 12.9219C10.3758 13.3719 10.5341 13.7552 10.8508 14.0719C11.1674 14.3885 11.5508 14.5469 12.0008 14.5469Z" fill="white"/>
<defs>
<filter id="filter0_b_1100_65518" x="-20" y="-19.0781" width="64" height="64" filterUnits="userSpaceOnUse" color-interpolation-filters="sRGB">
<feFlood flood-opacity="0" result="BackgroundImageFix"/>
<feGaussianBlur in="BackgroundImageFix" stdDeviation="10"/>
<feComposite in2="SourceAlpha" operator="in" result="effect1_backgroundBlur_1100_65518"/>
<feBlend mode="normal" in="SourceGraphic" in2="effect1_backgroundBlur_1100_65518" result="shape"/>
</filter>
</defs>
</svg>
