<svg width="24" height="25" viewBox="0 0 24 25" fill="none" xmlns="http://www.w3.org/2000/svg">
<g filter="url(#filter0_b_1100_65503)">
<circle cx="12" cy="12.9219" r="12" fill="black" fill-opacity="0.52"/>
</g>
<path d="M8.28125 16.4219C8.10625 16.4219 7.95313 16.3562 7.82188 16.225C7.69063 16.0937 7.625 15.9406 7.625 15.7656V10.0781C7.625 9.90312 7.69063 9.75 7.82188 9.61875C7.95313 9.4875 8.10625 9.42188 8.28125 9.42188H13.9688C14.1438 9.42188 14.2969 9.4875 14.4281 9.61875C14.5594 9.75 14.625 9.90312 14.625 10.0781V12.4297L16.375 10.6797V15.1641L14.625 13.4141V15.7656C14.625 15.9406 14.5594 16.0937 14.4281 16.225C14.2969 16.3562 14.1438 16.4219 13.9688 16.4219H8.28125Z" fill="white"/>
<defs>
<filter id="filter0_b_1100_65503" x="-20" y="-19.0781" width="64" height="64" filterUnits="userSpaceOnUse" color-interpolation-filters="sRGB">
<feFlood flood-opacity="0" result="BackgroundImageFix"/>
<feGaussianBlur in="BackgroundImageFix" stdDeviation="10"/>
<feComposite in2="SourceAlpha" operator="in" result="effect1_backgroundBlur_1100_65503"/>
<feBlend mode="normal" in="SourceGraphic" in2="effect1_backgroundBlur_1100_65503" result="shape"/>
</filter>
</defs>
</svg>
