<svg width="49" height="49" viewBox="0 0 49 49" fill="none" xmlns="http://www.w3.org/2000/svg">
<g filter="url(#filter0_b_1100_65509)">
<path d="M24.4375 44.9219C35.4832 44.9219 44.4375 35.9676 44.4375 24.9219C44.4375 13.8762 35.4832 4.92188 24.4375 4.92188C13.3918 4.92188 4.4375 13.8762 4.4375 24.9219C4.4375 35.9676 13.3918 44.9219 24.4375 44.9219Z" fill="black" fill-opacity="0.52"/>
</g>
<path d="M21.9591 33.3809H27.0391C31.2791 33.3809 32.9591 31.6809 32.9591 27.4609V22.3809C32.9591 18.1409 31.2591 16.4609 27.0391 16.4609H21.9591C17.7191 16.4609 16.0391 18.1609 16.0391 22.3809V27.4609C16.0391 31.6809 17.7391 33.3809 21.9591 33.3809Z" fill="white"/>
<defs>
<filter id="filter0_b_1100_65509" x="-14.7625" y="-14.2781" width="78.4" height="78.4" filterUnits="userSpaceOnUse" color-interpolation-filters="sRGB">
<feFlood flood-opacity="0" result="BackgroundImageFix"/>
<feGaussianBlur in="BackgroundImageFix" stdDeviation="9.6"/>
<feComposite in2="SourceAlpha" operator="in" result="effect1_backgroundBlur_1100_65509"/>
<feBlend mode="normal" in="SourceGraphic" in2="effect1_backgroundBlur_1100_65509" result="shape"/>
</filter>
</defs>
</svg>
