<svg width="20" height="20" viewBox="0 0 20 20" fill="none" xmlns="http://www.w3.org/2000/svg">
<g clip-path="url(#clip0_1100_54002)">
<path fill-rule="evenodd" clip-rule="evenodd" d="M0.499554 2.50254C0 3.48297 0 4.76643 0 7.33333V12.6667C0 15.2336 0 16.517 0.499554 17.4975C0.938973 18.3599 1.64013 19.061 2.50254 19.5004C3.48297 20 4.76643 20 7.33333 20H12.6667C15.2336 20 16.517 20 17.4975 19.5004C18.3599 19.061 19.061 18.3599 19.5004 17.4975C20 16.517 20 15.2336 20 12.6667V7.33333C20 4.76643 20 3.48297 19.5004 2.50254C19.061 1.64013 18.3599 0.938973 17.4975 0.499554C16.517 0 15.2336 0 12.6667 0H7.33333C4.76643 0 3.48297 0 2.50254 0.499554C1.64013 0.938973 0.938973 1.64013 0.499554 2.50254ZM5.79267 4.48749L9.01213 4.51705V2.41667H11.0694V4.51705H14.3317V6.20762L8.78191 13.3386C8.78088 13.3507 9.71115 13.3551 10.7486 13.3599C11.8516 13.365 13.0757 13.3707 13.4306 13.3869C13.4455 13.3968 13.4729 13.4632 13.5097 13.5523C13.5455 13.6392 13.5902 13.7477 13.641 13.8466C13.8663 14.296 14.1118 14.6533 14.4204 14.9953C14.6065 15.2004 14.5962 15.4243 14.5668 15.5074H11.0694V17.5833H9.01213V15.5074H5.58334V13.705L11.1282 6.61742H5.79267L5.79267 4.48749Z" fill="#6627CF"/>
</g>
<defs>
<clipPath id="clip0_1100_54002">
<rect width="20" height="20" fill="white"/>
</clipPath>
</defs>
</svg>
