<svg width="14" height="14" viewBox="0 0 14 14" fill="none" xmlns="http://www.w3.org/2000/svg">
<g id="Icon">
<path id="Vector" fill-rule="evenodd" clip-rule="evenodd" d="M6.12533 11.8199H1.72116C1.69024 11.8199 1.66049 11.807 1.63891 11.7854C1.61674 11.7633 1.60449 11.7341 1.60449 11.7032C1.60449 11.7026 1.60449 10.8574 1.60449 10.8574C1.60449 10.3726 1.95041 9.9456 2.48358 9.58277C3.43558 8.93294 4.97616 8.52344 6.70866 8.52344C6.99449 8.52344 7.27508 8.5351 7.54924 8.55669C7.78958 8.57594 8.00074 8.39627 8.01999 8.15535C8.03866 7.91444 7.85899 7.70385 7.61808 7.6846C7.32174 7.66069 7.01841 7.64844 6.70866 7.64844C4.77083 7.64844 3.05524 8.13319 1.99008 8.85944C1.17749 9.4136 0.729492 10.1177 0.729492 10.8568V11.7032C0.729492 11.9657 0.833909 12.2183 1.01999 12.4044C1.20608 12.5899 1.45808 12.6949 1.72116 12.6943C2.89716 12.6949 6.12533 12.6949 6.12533 12.6949C6.36683 12.6949 6.56283 12.4983 6.56283 12.2574C6.56283 12.0159 6.36683 11.8199 6.12533 11.8199Z" fill="#2C3E50"/>
<path id="Vector_2" fill-rule="evenodd" clip-rule="evenodd" d="M6.70833 0.730469C4.93733 0.730469 3.5 2.1678 3.5 3.9388C3.5 5.7098 4.93733 7.14714 6.70833 7.14714C8.47933 7.14714 9.91667 5.7098 9.91667 3.9388C9.91667 2.1678 8.47933 0.730469 6.70833 0.730469ZM6.70833 1.60547C7.99633 1.60547 9.04167 2.6508 9.04167 3.9388C9.04167 5.2268 7.99633 6.27214 6.70833 6.27214C5.42033 6.27214 4.375 5.2268 4.375 3.9388C4.375 2.6508 5.42033 1.60547 6.70833 1.60547Z" fill="#2C3E50"/>
<path id="Vector_3" fill-rule="evenodd" clip-rule="evenodd" d="M10.5893 11.7903C11.2963 11.8965 12.0436 11.6771 12.5878 11.1329C13.499 10.2217 13.499 8.7424 12.5878 7.83181C11.6772 6.92065 10.1979 6.92065 9.28673 7.83181C8.74248 8.37606 8.52315 9.12331 8.62932 9.8309L7.27482 11.1848C7.19257 11.2671 7.14648 11.3785 7.14648 11.4946V12.8356C7.14648 13.0771 7.34248 13.2731 7.58398 13.2731H8.92507C9.04115 13.2731 9.15257 13.2271 9.23482 13.1448L10.5893 11.7903ZM10.559 10.892C10.4085 10.8517 10.2475 10.8949 10.1372 11.0051L8.74423 12.3981H8.02148V11.6754L9.41448 10.2824C9.52473 10.1721 9.5679 10.0111 9.52765 9.86065C9.39815 9.37356 9.52357 8.83223 9.90565 8.45015C10.475 7.88081 11.3996 7.88081 11.9695 8.45015C12.5388 9.02006 12.5388 9.94465 11.9695 10.514C11.5874 10.8961 11.0461 11.0215 10.559 10.892Z" fill="#2C3E50"/>
<path id="Vector_4" fill-rule="evenodd" clip-rule="evenodd" d="M10.4898 9.92697C10.243 9.68022 10.243 9.27947 10.4898 9.03272C10.7365 8.78597 11.1372 8.78597 11.384 9.03272C11.6307 9.27947 11.6307 9.68022 11.384 9.92697C11.1372 10.1737 10.7365 10.1737 10.4898 9.92697Z" fill="#2C3E50"/>
</g>
</svg>
