<svg width="24" height="25" viewBox="0 0 24 25" fill="none" xmlns="http://www.w3.org/2000/svg">
<path d="M18.375 13.3462L10.682 21.0392C9.83811 21.8831 8.69351 22.3572 7.50003 22.3572C6.30655 22.3572 5.16195 21.8831 4.31803 21.0392C3.47411 20.1953 3 19.0507 3 17.8572C3 16.6637 3.47411 15.5191 4.31803 14.6752L15.258 3.73519C15.5367 3.45665 15.8675 3.23574 16.2315 3.08504C16.5956 2.93435 16.9857 2.85684 17.3797 2.85693C17.7737 2.85703 18.1639 2.93472 18.5278 3.08558C18.8918 3.23645 19.2225 3.45752 19.501 3.73619C19.7796 4.01485 20.0005 4.34565 20.1512 4.70969C20.3019 5.07374 20.3794 5.4639 20.3793 5.85789C20.3792 6.25189 20.3015 6.64202 20.1506 7.00599C19.9998 7.36996 19.7787 7.70065 19.5 7.97919L8.55203 18.9272C8.26801 19.1995 7.88839 19.3483 7.49497 19.3433C7.10156 19.3383 6.72585 19.1789 6.44883 18.8995C6.1718 18.6202 6.01564 18.2431 6.01399 17.8497C6.01234 17.4562 6.16535 17.0779 6.44003 16.7962L14.25 8.98619M8.56103 18.9172L8.55103 18.9272" stroke="#8181A5" stroke-width="1.5" stroke-linecap="round" stroke-linejoin="round"/>
</svg>
