<svg width="18" height="19" viewBox="0 0 18 19" fill="none" xmlns="http://www.w3.org/2000/svg">
<path d="M14.25 2.01758C14.6478 2.01758 15.0294 2.17561 15.3107 2.45692C15.592 2.73822 15.75 3.11975 15.75 3.51758V12.5176C15.75 12.9154 15.592 13.2969 15.3107 13.5782C15.0294 13.8595 14.6478 14.0176 14.25 14.0176H12.75V15.5176C12.75 15.9154 12.592 16.2969 12.3107 16.5782C12.0294 16.8595 11.6478 17.0176 11.25 17.0176H3.75C3.35218 17.0176 2.97064 16.8595 2.68934 16.5782C2.40804 16.2969 2.25 15.9154 2.25 15.5176V6.51758C2.25 6.11975 2.40804 5.73822 2.68934 5.45692C2.97064 5.17561 3.35218 5.01758 3.75 5.01758H5.25V3.51758C5.25 3.11975 5.40804 2.73822 5.68934 2.45692C5.97064 2.17561 6.35218 2.01758 6.75 2.01758H14.25ZM11.25 6.51758H3.75V15.5176H11.25V6.51758ZM7.5 11.7676C7.69891 11.7676 7.88968 11.8466 8.03033 11.9872C8.17098 12.1279 8.25 12.3187 8.25 12.5176C8.25 12.7165 8.17098 12.9073 8.03033 13.0479C7.88968 13.1886 7.69891 13.2676 7.5 13.2676H6C5.80109 13.2676 5.61032 13.1886 5.46967 13.0479C5.32902 12.9073 5.25 12.7165 5.25 12.5176C5.25 12.3187 5.32902 12.1279 5.46967 11.9872C5.61032 11.8466 5.80109 11.7676 6 11.7676H7.5ZM14.25 3.51758H6.75V5.01758H11.25C11.6478 5.01758 12.0294 5.17561 12.3107 5.45692C12.592 5.73822 12.75 6.11975 12.75 6.51758V12.5176H14.25V3.51758ZM9 8.76758C9.19116 8.76779 9.37502 8.84099 9.51403 8.97221C9.65303 9.10344 9.73668 9.28279 9.74788 9.47362C9.75908 9.66446 9.69699 9.85236 9.5743 9.99895C9.45161 10.1455 9.27757 10.2398 9.08775 10.2623L9 10.2676H6C5.80884 10.2674 5.62498 10.1942 5.48597 10.0629C5.34697 9.93172 5.26332 9.75236 5.25212 9.56153C5.24092 9.3707 5.30301 9.18279 5.4257 9.0362C5.54839 8.88961 5.72243 8.79541 5.91225 8.77283L6 8.76758H9Z" fill="#8181A5"/>
</svg>
