<svg width="16" height="16" viewBox="0 0 16 16" fill="none" xmlns="http://www.w3.org/2000/svg">
<path d="M14.0149 11.8653C13.9836 11.768 13.959 11.6233 14.0196 11.4913C14.3343 10.8167 14.5003 10.0707 14.5003 9.33333C14.5003 7.294 13.2636 5.43533 11.409 4.61999C10.615 2.78666 8.78891 1.5 6.66758 1.5C3.81958 1.5 1.50156 3.81735 1.50156 6.66602C1.50156 7.40802 1.66623 8.15466 1.98089 8.83C2.02823 8.93066 2.03019 9.06202 1.98952 9.19202L1.55365 10.4893C1.43098 10.8573 1.5262 11.2566 1.80153 11.532C1.99753 11.728 2.25625 11.832 2.52158 11.832C2.62958 11.832 2.73897 11.8147 2.84564 11.7793L4.13421 11.346C4.27155 11.302 4.4029 11.3047 4.50824 11.354C4.54157 11.3693 4.5776 11.38 4.61094 11.3953C5.4256 13.2567 7.28958 14.4993 9.33425 14.4993C10.0716 14.4993 10.8182 14.3333 11.4889 14.0207C11.6242 13.9587 11.7696 13.9833 11.8622 14.0133L13.1583 14.4473C13.527 14.568 13.9256 14.4727 14.2003 14.198C14.4743 13.9233 14.5695 13.5247 14.4475 13.1533L14.0149 11.8653ZM4.32497 10.316C4.1603 10.316 3.99087 10.3426 3.8222 10.3966L2.50156 10.8067L2.93955 9.50268C3.06088 9.12202 3.0402 8.73001 2.88486 8.40401C2.6342 7.86401 2.50156 7.26266 2.50156 6.66532C2.50156 4.36799 4.37091 2.49935 6.66758 2.49935C8.96424 2.49935 10.8336 4.36799 10.8336 6.66532C10.8336 8.96266 8.96424 10.8313 6.66758 10.8313C6.07025 10.8313 5.46888 10.6987 4.93288 10.45C4.74621 10.3613 4.5403 10.316 4.32497 10.316ZM13.0663 12.1787L13.4723 13.4987L12.1749 13.064C11.7976 12.9413 11.4056 12.9587 11.0696 13.1127C10.5269 13.3653 9.92626 13.4993 9.33359 13.4993C7.96559 13.4993 6.73621 12.844 5.96755 11.7773C6.19955 11.8093 6.43358 11.8313 6.66758 11.8313C9.51558 11.8313 11.8336 9.51399 11.8336 6.66532C11.8336 6.43199 11.813 6.20401 11.7823 5.97868C12.835 6.75068 13.5003 7.99268 13.5003 9.33268C13.5003 9.92535 13.3669 10.5253 13.1122 11.0713C12.9589 11.406 12.9423 11.798 13.0663 12.1787Z" fill="#23272E"/>
</svg>
