<svg width="129" height="83" viewBox="0 0 129 83" fill="none" xmlns="http://www.w3.org/2000/svg">
<path d="M64.6772 23.7992C58.0904 23.7992 52.7248 29.8874 52.7248 37.3774C52.7248 44.8688 58.0904 50.9555 64.6772 50.9555C71.2656 50.9555 76.6296 44.8688 76.6296 37.3774C76.6296 29.8874 71.2656 23.7992 64.6772 23.7992ZM64.6772 53.0448C56.8846 53.0448 50.5529 46.0107 50.5529 37.3774C50.5529 28.744 56.8846 21.7114 64.6772 21.7114C72.4713 21.7114 78.8031 28.744 78.8031 37.3774C78.8031 46.0107 72.4713 53.0448 64.6772 53.0448Z" fill="#8181A5"/>
<path d="M64.6789 82.2892C40.4355 82.2892 35.3419 76.0392 35.3419 70.8004C35.3419 63.0818 43.8471 52.0815 56.5137 48.035C57.0903 47.8554 57.7009 48.1657 57.888 48.7033C58.075 49.2586 57.769 49.8467 57.1924 50.0263C45.5955 53.7297 37.5154 63.946 37.5154 70.8004C37.5154 76.8544 47.1583 80.2 64.6789 80.2C82.201 80.2 91.8439 76.8544 91.8439 70.8004C91.8439 63.946 83.7623 53.7297 72.1669 50.0263C71.5903 49.8467 71.2842 49.2586 71.4713 48.7033C71.6568 48.1657 72.2689 47.8554 72.8455 48.035C85.5122 52.0815 94.0174 63.0818 94.0174 70.8004C94.0174 76.0392 88.9238 82.2892 64.6789 82.2892Z" fill="#8181A5"/>
<mask id="mask0_4_16001" style="mask-type:luminance" maskUnits="userSpaceOnUse" x="85" y="0" width="29" height="33">
<path d="M85.0743 0.710693H113.963V32.2371H85.0743V0.710693Z" fill="white"/>
</mask>
<g mask="url(#mask0_4_16001)">
<path d="M99.4444 2.8991C92.856 2.8991 87.4919 8.9858 87.4919 16.4772C87.4919 23.9672 92.856 30.0554 99.4444 30.0554C106.031 30.0554 111.397 23.9672 111.397 16.4772C111.397 8.9858 106.031 2.8991 99.4444 2.8991ZM99.4444 32.1432C91.6502 32.1432 85.3185 25.1091 85.3185 16.4772C85.3185 7.84389 91.6502 0.809814 99.4444 0.809814C107.237 0.809814 113.57 7.84389 113.57 16.4772C113.57 25.1091 107.237 32.1432 99.4444 32.1432Z" fill="#8181A5"/>
</g>
<mask id="mask1_4_16001" style="mask-type:luminance" maskUnits="userSpaceOnUse" x="15" y="0" width="30" height="33">
<path d="M15.4337 0.710693H44.3224V32.2371H15.4337V0.710693Z" fill="white"/>
</mask>
<g mask="url(#mask1_4_16001)">
<path d="M29.9073 2.8991C23.3204 2.8991 17.9548 8.9858 17.9548 16.4772C17.9548 23.9672 23.3204 30.0554 29.9073 30.0554C36.4956 30.0554 41.8597 23.9672 41.8597 16.4772C41.8597 8.9858 36.4956 2.8991 29.9073 2.8991ZM29.9073 32.1432C22.1147 32.1432 15.7814 25.1091 15.7814 16.4772C15.7814 7.84389 22.1147 0.809814 29.9073 0.809814C37.6998 0.809814 44.0331 7.84389 44.0331 16.4772C44.0331 25.1091 37.6998 32.1432 29.9073 32.1432Z" fill="#8181A5"/>
</g>
<path d="M99.4482 61.3979C98.853 61.3979 98.3615 60.9242 98.3615 60.3525C98.3615 59.7823 98.853 59.3086 99.4482 59.3086C116.969 59.3086 126.613 55.9794 126.613 49.9091C126.613 43.0547 118.532 32.8384 106.935 29.1335C106.358 28.9538 106.052 28.3673 106.239 27.8119C106.426 27.2729 107.037 26.9625 107.615 27.1422C120.28 31.1901 128.785 42.1889 128.785 49.9091C128.785 55.1464 123.692 61.3979 99.4482 61.3979Z" fill="#8181A5"/>
<mask id="mask2_4_16001" style="mask-type:luminance" maskUnits="userSpaceOnUse" x="0" y="26" width="32" height="36">
<path d="M0.785278 26.9019H31.2569V61.4946H0.785278V26.9019Z" fill="white"/>
</mask>
<g mask="url(#mask2_4_16001)">
<path d="M29.907 61.4028C5.66202 61.4028 0.568481 55.1513 0.568481 49.9139C0.568481 42.1938 9.07524 31.195 21.7403 27.1471C22.3184 26.9674 22.9291 27.2778 23.1161 27.8168C23.3032 28.3722 22.9971 28.9587 22.4205 29.1384C10.8236 32.8433 2.74193 43.0595 2.74193 49.9139C2.74193 55.9843 12.3864 59.3135 29.907 59.3135C30.5021 59.3135 30.9937 59.7872 30.9937 60.3574C30.9937 60.9291 30.5021 61.4028 29.907 61.4028Z" fill="#8181A5"/>
</g>
</svg>
