<svg width="18" height="18" viewBox="0 0 18 18" fill="none" xmlns="http://www.w3.org/2000/svg">
<path d="M6.75 16.5H11.25C15 16.5 16.5 15 16.5 11.25V6.75C16.5 3 15 1.5 11.25 1.5H6.75C3 1.5 1.5 3 1.5 6.75V11.25C1.5 15 3 16.5 6.75 16.5Z" stroke="#23272E" stroke-linecap="round" stroke-linejoin="round"/>
<path d="M1.5 9.74969H4.32C4.89 9.74969 5.4075 10.0722 5.6625 10.5822L6.33 11.9247C6.75 12.7497 7.5 12.7497 7.68 12.7497H10.3275C10.8975 12.7497 11.415 12.4272 11.67 11.9172L12.3375 10.5747C12.5925 10.0647 13.11 9.74219 13.68 9.74219H16.485" stroke="#23272E" stroke-linecap="round" stroke-linejoin="round"/>
<path d="M7.75488 5.25H10.2524" stroke="#23272E" stroke-linecap="round" stroke-linejoin="round"/>
<path d="M7.125 7.5H10.875" stroke="#23272E" stroke-linecap="round" stroke-linejoin="round"/>
</svg>
