<svg width="16" height="16" viewBox="0 0 16 16" fill="none" xmlns="http://www.w3.org/2000/svg">
<path d="M8 1.5C4.416 1.5 1.5 4.416 1.5 8C1.5 11.584 4.416 14.5 8 14.5C8.276 14.5 8.5 14.276 8.5 14C8.5 13.724 8.276 13.5 8 13.5C4.96733 13.5 2.5 11.0327 2.5 8C2.5 4.96733 4.96733 2.5 8 2.5C11.0327 2.5 13.5 4.96733 13.5 8C13.5 9.09333 12.7573 10.1667 12 10.1667C11.2913 10.1667 10.8333 9.578 10.8333 8.66667V5.66667C10.8333 5.39067 10.6093 5.16667 10.3333 5.16667C10.0573 5.16667 9.83333 5.39067 9.83333 5.66667V5.85799C9.338 5.43333 8.70267 5.16667 8 5.16667C6.43733 5.16667 5.16667 6.43733 5.16667 8C5.16667 9.56267 6.43733 10.8333 8 10.8333C8.828 10.8333 9.56727 10.47 10.0859 9.902C10.4739 10.758 11.2533 11.1667 12 11.1667C13.4733 11.1667 14.5 9.498 14.5 8C14.5 4.416 11.584 1.5 8 1.5ZM8 9.83333C6.98867 9.83333 6.16667 9.01067 6.16667 8C6.16667 6.98933 6.98867 6.16667 8 6.16667C9.01133 6.16667 9.83333 6.98933 9.83333 8C9.83333 9.01067 9.01133 9.83333 8 9.83333Z" fill="#23272E"/>
</svg>
