<svg width="61" height="71" viewBox="0 0 61 71" fill="none" xmlns="http://www.w3.org/2000/svg">
<g opacity="0.2">
<path fill-rule="evenodd" clip-rule="evenodd" d="M17.7726 19.3701C17.7726 10.6926 24.5811 3.3501 33.3476 3.3501C42.1141 3.3501 48.9226 10.6926 48.9226 19.3701C48.9226 28.0476 42.1141 35.3901 33.3476 35.3901C24.5811 35.3901 17.7726 28.0476 17.7726 19.3701Z" fill="#8181A5"/>
<path fill-rule="evenodd" clip-rule="evenodd" d="M33.4099 30.3481C19.0587 30.3481 6.64764 41.3441 6.64764 56.0068L6.65654 65.6544C6.65772 66.8323 7.12585 67.9617 7.95834 68.7951C8.79083 69.6284 9.91974 70.0976 11.0976 70.1H55.5976C56.7779 70.1 57.9097 69.6312 58.7443 68.7966C59.5788 67.9621 60.0476 66.8302 60.0476 65.65V56.0068C60.0476 41.3752 47.7879 30.3481 33.4099 30.3481Z" fill="#8181A5"/>
</g>
<path d="M25.5601 27.825C32.9331 27.825 38.9101 21.848 38.9101 14.475C38.9101 7.102 32.9331 1.125 25.5601 1.125C18.1871 1.125 12.2101 7.102 12.2101 14.475C12.2101 21.848 18.1871 27.825 25.5601 27.825Z" stroke="#8181A5" stroke-linecap="round"/>
<path d="M50.0351 63.4249V54.525C50.0351 40.7389 38.9324 27.825 25.5601 27.825C12.1834 27.825 1.08514 40.7389 1.08514 54.525V63.4249" stroke="#8181A5" stroke-linecap="round"/>
</svg>
