<svg width="67" height="67" viewBox="0 0 67 67" fill="none" xmlns="http://www.w3.org/2000/svg">
<mask id="mask0_4_16573" style="mask-type:luminance" maskUnits="userSpaceOnUse" x="0" y="0" width="67" height="67">
<path d="M33.4997 65.5832C37.7138 65.5887 41.8874 64.7613 45.7806 63.1486C49.6739 61.5359 53.21 59.1697 56.1859 56.186C59.1696 53.2101 61.5358 49.674 63.1485 45.7807C64.7611 41.8875 65.5885 37.7139 65.5831 33.4999C65.5884 29.2858 64.761 25.1123 63.1483 21.2191C61.5356 17.3258 59.1695 13.7896 56.1859 10.8137C53.21 7.83003 49.6739 5.46384 45.7806 3.85115C41.8874 2.23846 37.7138 1.41107 33.4997 1.41653C29.2857 1.41116 25.1122 2.23859 21.2189 3.85127C17.3257 5.46396 13.7895 7.8301 10.8136 10.8137C7.82998 13.7896 5.46384 17.3258 3.85115 21.2191C2.23847 25.1123 1.41104 29.2858 1.41641 33.4999C1.41095 37.7139 2.23834 41.8875 3.85103 45.7807C5.46372 49.674 7.82991 53.2101 10.8136 56.186C13.7895 59.1696 17.3257 61.5358 21.2189 63.1485C25.1122 64.7611 29.2857 65.5886 33.4997 65.5832Z" fill="white" stroke="white" stroke-width="2" stroke-linejoin="round"/>
<path d="M20.6664 33.5L30.2914 43.125L49.5414 23.875" stroke="black" stroke-width="2" stroke-linecap="round" stroke-linejoin="round"/>
</mask>
<g mask="url(#mask0_4_16573)">
<path d="M-5.00024 -5H71.9998V72H-5.00024V-5Z" fill="url(#paint0_linear_4_16573)"/>
</g>
<defs>
<linearGradient id="paint0_linear_4_16573" x1="33.4998" y1="-5" x2="33.4998" y2="72" gradientUnits="userSpaceOnUse">
<stop stop-color="#7C7CE4"/>
<stop offset="1" stop-color="#4D4DB8"/>
</linearGradient>
</defs>
</svg>
