<svg width="50" height="50" viewBox="0 0 50 50" fill="none" xmlns="http://www.w3.org/2000/svg">
<g id="solar:folder-bold-duotone">
<g id="Group">
<g id="Vector" opacity="0.5">
<path d="M45.8333 29.1667V24.5792C45.8333 19.0958 45.8333 16.3521 44.2292 14.5708C44.082 14.4064 43.9263 14.2499 43.7625 14.1021C41.9813 12.5 39.2375 12.5 33.7542 12.5H32.975C30.5729 12.5 29.3708 12.5 28.25 12.1813C27.6349 12.0054 27.0421 11.7594 26.4833 11.4479C25.4667 10.8833 24.6167 10.0313 22.9167 8.33334L21.7708 7.1875C21.2 6.61667 20.9167 6.33334 20.6167 6.08334C19.3264 5.01384 17.7436 4.35822 16.075 4.20209C15.6875 4.16667 15.2833 4.16667 14.4792 4.16667C12.6396 4.16667 11.7208 4.16667 10.9542 4.3125C9.308 4.62339 7.79375 5.42321 6.60898 6.60761C5.4242 7.79202 4.6239 9.30602 4.3125 10.9521C4.16667 11.7208 4.16667 12.6417 4.16667 14.4792V29.1667C4.16667 37.0229 4.16667 40.9521 6.60834 43.3917C9.04792 45.8333 12.9771 45.8333 20.8333 45.8333H29.1667C37.0229 45.8333 40.9521 45.8333 43.3917 43.3917C45.8333 40.9521 45.8333 37.0229 45.8333 29.1667Z" fill="#6A6AD2"/>
<path d="M45.8333 29.1667V24.5792C45.8333 19.0958 45.8333 16.3521 44.2292 14.5708C44.082 14.4064 43.9263 14.2499 43.7625 14.1021C41.9813 12.5 39.2375 12.5 33.7542 12.5H32.975C30.5729 12.5 29.3708 12.5 28.25 12.1813C27.6349 12.0054 27.0421 11.7594 26.4833 11.4479C25.4667 10.8833 24.6167 10.0313 22.9167 8.33334L21.7708 7.1875C21.2 6.61667 20.9167 6.33334 20.6167 6.08334C19.3264 5.01384 17.7436 4.35822 16.075 4.20209C15.6875 4.16667 15.2833 4.16667 14.4792 4.16667C12.6396 4.16667 11.7208 4.16667 10.9542 4.3125C9.308 4.62339 7.79375 5.42321 6.60898 6.60761C5.4242 7.79202 4.6239 9.30602 4.3125 10.9521C4.16667 11.7208 4.16667 12.6417 4.16667 14.4792V29.1667C4.16667 37.0229 4.16667 40.9521 6.60834 43.3917C9.04792 45.8333 12.9771 45.8333 20.8333 45.8333H29.1667C37.0229 45.8333 40.9521 45.8333 43.3917 43.3917C45.8333 40.9521 45.8333 37.0229 45.8333 29.1667Z" fill="url(#paint0_linear_1405_45087)"/>
</g>
<g id="Vector_2">
<path d="M25.5208 20.8333C25.5208 20.4189 25.6855 20.0215 25.9785 19.7285C26.2715 19.4355 26.6689 19.2708 27.0833 19.2708H37.5C37.9144 19.2708 38.3118 19.4355 38.6049 19.7285C38.8979 20.0215 39.0625 20.4189 39.0625 20.8333C39.0625 21.2477 38.8979 21.6452 38.6049 21.9382C38.3118 22.2312 37.9144 22.3958 37.5 22.3958H27.0833C26.6689 22.3958 26.2715 22.2312 25.9785 21.9382C25.6855 21.6452 25.5208 21.2477 25.5208 20.8333Z" fill="#6A6AD2"/>
<path d="M25.5208 20.8333C25.5208 20.4189 25.6855 20.0215 25.9785 19.7285C26.2715 19.4355 26.6689 19.2708 27.0833 19.2708H37.5C37.9144 19.2708 38.3118 19.4355 38.6049 19.7285C38.8979 20.0215 39.0625 20.4189 39.0625 20.8333C39.0625 21.2477 38.8979 21.6452 38.6049 21.9382C38.3118 22.2312 37.9144 22.3958 37.5 22.3958H27.0833C26.6689 22.3958 26.2715 22.2312 25.9785 21.9382C25.6855 21.6452 25.5208 21.2477 25.5208 20.8333Z" fill="url(#paint1_linear_1405_45087)"/>
</g>
</g>
</g>
<defs>
<linearGradient id="paint0_linear_1405_45087" x1="4.16667" y1="25" x2="45.8333" y2="25" gradientUnits="userSpaceOnUse">
<stop stop-color="#333399" stop-opacity="0"/>
<stop offset="1" stop-color="#080895"/>
</linearGradient>
<linearGradient id="paint1_linear_1405_45087" x1="25.5208" y1="20.8333" x2="39.0625" y2="20.8333" gradientUnits="userSpaceOnUse">
<stop stop-color="#333399" stop-opacity="0"/>
<stop offset="1" stop-color="#080895"/>
</linearGradient>
</defs>
</svg>
