<?xml version="1.0" encoding="UTF-8"?>
<svg id="Layer_2" data-name="Layer 2" xmlns="http://www.w3.org/2000/svg" xmlns:xlink="http://www.w3.org/1999/xlink" viewBox="0 0 887.66 398.42">
  <defs>
    <style>
      .cls-1 {
        fill: url(#logo-gradient-2);
      }

      .cls-2 {
        fill: #fce71c;
      }

      .cls-3 {
        fill: url(#logo-gradient-6);
      }

      .cls-4 {
        fill: url(#logo-gradient-5);
      }

      .cls-5 {
        fill: url(#logo-gradient-3);
      }

      .cls-6 {
        fill: url(#logo-gradient);
      }

      .cls-7 {
        fill: url(#logo-gradient-4);
      }
    </style>
    <linearGradient id="logo-gradient" x1="932.61" y1="328.89" x2="634.38" y2="48.67" gradientUnits="userSpaceOnUse">
      <stop offset="0" stop-color="#f7931e"/>
      <stop offset=".13" stop-color="#f8ab1d"/>
      <stop offset=".28" stop-color="#f9c41c"/>
      <stop offset=".43" stop-color="#fad31c"/>
      <stop offset=".55" stop-color="#fbd91c"/>
      <stop offset=".59" stop-color="#fbde1c"/>
      <stop offset=".7" stop-color="#fbe51c"/>
      <stop offset="1" stop-color="#fce71c"/>
    </linearGradient>
    <linearGradient id="logo-gradient-2" x1="362.79" y1="227.33" x2="631.04" y2="-105.08" gradientUnits="userSpaceOnUse">
      <stop offset="0" stop-color="#f7931e"/>
      <stop offset="1" stop-color="#fce71c"/>
    </linearGradient>
    <linearGradient id="logo-gradient-3" x1="129.7" y1="558.98" x2="135.47" y2="110.9" xlink:href="#logo-gradient-2"/>
    <linearGradient id="logo-gradient-4" x1="132.66" y1="399.47" x2="137.79" y2=".52" xlink:href="#logo-gradient-2"/>
    <linearGradient id="logo-gradient-5" x1="440.62" y1="447.62" x2="446.85" y2="-36.83" xlink:href="#logo-gradient-2"/>
    <linearGradient id="logo-gradient-6" x1="610.56" y1="198.88" x2="887.66" y2="198.88" xlink:href="#logo-gradient-2"/>
  </defs>
  <g id="Layer_2-2" data-name="Layer 2">
    <g>
      <polygon class="cls-6" points="622.92 12.8 622.92 76.71 713.7 76.71 713.7 389.5 786.48 389.5 786.48 78.28 879.61 78.28 879.61 12.8 622.92 12.8"/>
      <polygon class="cls-1" points="331.52 12.8 331.52 389.5 405.09 389.5 405.09 249.15 549.57 249.15 549.57 181.32 402.48 181.32 402.48 78.54 563.7 78.54 563.7 12.8 331.52 12.8"/>
      <polygon class="cls-5" points="13.26 12.8 13.26 389.5 255.35 389.5 255.35 326.36 84.74 326.36 84.74 12.8 13.26 12.8"/>
      <path class="cls-2" d="M0,.66H97.45V314.89h173.02v83.53H0V.66ZM245.95,379.86v-46.4H72.92V19.23H24.53V379.86H245.95Zm-209.49-11.27H239.32v3.31H33.15l3.31-3.31Zm13.92-13.26H239.32v3.31H47.07l3.32-3.31Zm13.92-13.26H239.32v3.31H60.33l3.98-3.31Z"/>
      <path class="cls-7" d="M0,0H97.45V314.23h173.02v83.53H0V0ZM245.95,379.2v-46.4H72.92V18.56H24.53V379.2H245.95Zm-209.49-11.27H239.32v3.31H33.15l3.31-3.31Zm13.92-13.26H239.32v3.31H47.07l3.32-3.31Zm13.92-13.26H239.32v3.31H60.33l3.98-3.31Z"/>
      <path class="cls-4" d="M317.54,.66h256.56V86.85h-159.11v84.86h146.51v84.86h-146.51v141.87h-97.45V.66Zm72.92,379.2V237.99h146.51v-47.73h-146.51V68.28h159.11V19.23h-207.5V379.86h48.39ZM351.35,28.51h191.59v3.31h-188.27l-3.31-3.31Zm13.26,13.26h178.33v3.32h-175.01l-3.31-3.32Zm13.26,13.26h165.07v3.31h-161.75l-3.31-3.31Zm12.59,143.86h139.88v3.32h-139.88v-3.32Zm0,13.26h139.88v3.32h-139.88v-3.32Zm0,13.26h139.88v3.31h-139.88v-3.31Z"/>
      <path class="cls-3" d="M700.05,86.18h-89.5V0h277.11V86.18h-90.16V397.76h-97.45V86.18Zm72.92,293.02V67.62h90.16V18.56h-228.05v49.06h89.5V379.2h48.39ZM641.71,28.51h214.79v3.32h-214.79v-3.32Zm0,13.26h214.79v3.32h-214.79v-3.32Zm0,13.26h214.79v3.31h-214.79v-3.31Z"/>
    </g>
  </g>
</svg>