<svg width="41" height="41" viewBox="0 0 41 41" fill="none" xmlns="http://www.w3.org/2000/svg">
<g id="mdi:account-multiple-success-outline" clip-path="url(#clip0_1405_45025)">
<path id="Vector" d="M22.2083 18.7917C23.222 18.7917 24.2128 18.4911 25.0556 17.9279C25.8984 17.3648 26.5553 16.5644 26.9432 15.6279C27.3311 14.6914 27.4326 13.661 27.2349 12.6668C27.0371 11.6727 26.549 10.7595 25.8323 10.0427C25.1155 9.326 24.2023 8.83789 23.2082 8.64014C22.214 8.44239 21.1836 8.54388 20.2471 8.93178C19.3106 9.31968 18.5102 9.97657 17.9471 10.8194C17.3839 11.6622 17.0833 12.653 17.0833 13.6667C17.0833 15.0259 17.6233 16.3295 18.5844 17.2906C19.5455 18.2517 20.8491 18.7917 22.2083 18.7917ZM22.2083 11.9583C22.5462 11.9583 22.8765 12.0585 23.1574 12.2462C23.4384 12.434 23.6573 12.7008 23.7866 13.0129C23.9159 13.3251 23.9498 13.6686 23.8839 13.9999C23.8179 14.3313 23.6552 14.6357 23.4163 14.8746C23.1774 15.1136 22.873 15.2763 22.5416 15.3422C22.2102 15.4081 21.8667 15.3743 21.5546 15.245C21.2424 15.1157 20.9756 14.8967 20.7879 14.6158C20.6002 14.3348 20.5 14.0045 20.5 13.6667C20.5 13.2136 20.68 12.7791 21.0004 12.4587C21.3207 12.1383 21.7553 11.9583 22.2083 11.9583ZM29.2296 18.5525C30.2291 17.1193 30.7649 15.414 30.7649 13.6667C30.7649 11.9194 30.2291 10.2141 29.2296 8.78083C29.7209 8.62266 30.2339 8.54197 30.75 8.54167C32.1092 8.54167 33.4128 9.08162 34.3739 10.0427C35.3351 11.0039 35.875 12.3074 35.875 13.6667C35.875 15.0259 35.3351 16.3295 34.3739 17.2906C33.4128 18.2517 32.1092 18.7917 30.75 18.7917C30.2339 18.7914 29.7209 18.7107 29.2296 18.5525ZM22.2083 22.2083C11.9583 22.2083 11.9583 29.0417 11.9583 29.0417V32.4583H32.4583V29.0417C32.4583 29.0417 32.4583 22.2083 22.2083 22.2083ZM15.375 29.0417C15.375 28.5462 15.9217 25.625 22.2083 25.625C28.1875 25.625 28.9392 28.29 29.0417 29.0417M41 29.0417V32.4583H35.875V29.0417C35.8351 27.7718 35.5426 26.5225 35.0147 25.3669C34.4867 24.2112 33.7338 23.1724 32.8 22.3108C41 23.1479 41 29.0417 41 29.0417ZM12.5392 15.2383L14.5208 17.6471L6.40626 25.7617L1.70834 20.6367L3.69001 18.655L6.40626 21.3542L12.5392 15.2383Z" fill="#043866"/>
</g>
<defs>
<clipPath id="clip0_1405_45025">
<rect width="41" height="41" fill="white"/>
</clipPath>
</defs>
</svg>
