<svg width="44" height="46" viewBox="0 0 44 46" fill="none" xmlns="http://www.w3.org/2000/svg">
<g id="pepicons-print:credit-card">
<g id="Group">
<path id="Vector" opacity="0.2" d="M10.65 13.8H38.25C39.775 13.8 41.2376 14.4058 42.3159 15.4841C43.3942 16.5625 44 18.025 44 19.55V35.65C44 37.175 43.3942 38.6375 42.3159 39.7159C41.2376 40.7942 39.775 41.4 38.25 41.4H10.65C9.12503 41.4 7.66249 40.7942 6.58416 39.7159C5.50583 38.6375 4.90002 37.175 4.90002 35.65V19.55C4.90002 18.025 5.50583 16.5625 6.58416 15.4841C7.66249 14.4058 9.12503 13.8 10.65 13.8Z" fill="#FFA200"/>
<path id="Vector_2" fill-rule="evenodd" clip-rule="evenodd" d="M34.8 9.2H7.20001C5.67502 9.2 4.21248 9.8058 3.13415 10.8841C2.05581 11.9625 1.45001 13.425 1.45001 14.95V31.05C1.45001 32.575 2.05581 34.0375 3.13415 35.1159C4.21248 36.1942 5.67502 36.8 7.20001 36.8H34.8C36.325 36.8 37.7875 36.1942 38.8659 35.1159C39.9442 34.0375 40.55 32.575 40.55 31.05V14.95C40.55 13.425 39.9442 11.9625 38.8659 10.8841C37.7875 9.8058 36.325 9.2 34.8 9.2ZM3.75001 14.95C3.75001 14.035 4.11349 13.1575 4.76049 12.5105C5.40749 11.8635 6.28502 11.5 7.20001 11.5H34.8C35.715 11.5 36.5925 11.8635 37.2395 12.5105C37.8865 13.1575 38.25 14.035 38.25 14.95V31.05C38.25 31.965 37.8865 32.8425 37.2395 33.4895C36.5925 34.1365 35.715 34.5 34.8 34.5H7.20001C6.28502 34.5 5.40749 34.1365 4.76049 33.4895C4.11349 32.8425 3.75001 31.965 3.75001 31.05V14.95Z" fill="#FFA200"/>
<path id="Vector_3" fill-rule="evenodd" clip-rule="evenodd" d="M3.75004 14.95H38.25C38.555 14.95 38.8475 15.0712 39.0632 15.2868C39.2789 15.5025 39.4 15.795 39.4 16.1V18.4C39.4 18.705 39.2789 18.9975 39.0632 19.2132C38.8475 19.4288 38.555 19.55 38.25 19.55H3.75004C3.44504 19.55 3.15253 19.4288 2.93686 19.2132C2.7212 18.9975 2.60004 18.705 2.60004 18.4V16.1C2.60004 15.795 2.7212 15.5025 2.93686 15.2868C3.15253 15.0712 3.44504 14.95 3.75004 14.95ZM11.8 21.85H9.50004C8.89004 21.85 8.30503 22.0923 7.87369 22.5237C7.44236 22.955 7.20004 23.54 7.20004 24.15V26.45C7.20004 27.06 7.44236 27.645 7.87369 28.0763C8.30503 28.5077 8.89004 28.75 9.50004 28.75H11.8C12.41 28.75 12.995 28.5077 13.4264 28.0763C13.8577 27.645 14.1 27.06 14.1 26.45V24.15C14.1 23.54 13.8577 22.955 13.4264 22.5237C12.995 22.0923 12.41 21.85 11.8 21.85ZM9.50004 26.45V24.15H11.8V26.45H9.50004Z" fill="#FFA200"/>
</g>
</g>
</svg>
