<svg width="18" height="18" viewBox="0 0 18 18" fill="none" xmlns="http://www.w3.org/2000/svg">
<path d="M14.625 1.6875H3.375C2.31825 1.6875 1.6875 2.31825 1.6875 3.375V6C1.6875 6.3105 1.9395 6.5625 2.25 6.5625H2.4375V13.5C2.4375 15.3135 3.4365 16.3125 5.25 16.3125H12.75C14.5635 16.3125 15.5625 15.3135 15.5625 13.5V6.5625H15.75C16.0605 6.5625 16.3125 6.3105 16.3125 6V3.375C16.3125 2.31825 15.6818 1.6875 14.625 1.6875ZM2.8125 3.375C2.8125 2.93325 2.93325 2.8125 3.375 2.8125H14.625C15.0667 2.8125 15.1875 2.93325 15.1875 3.375V5.4375H2.8125V3.375ZM14.4375 13.5C14.4375 14.6827 13.9327 15.1875 12.75 15.1875H5.25C4.06725 15.1875 3.5625 14.6827 3.5625 13.5V6.5625H14.4375V13.5ZM6.9375 9C6.9375 8.6895 7.1895 8.4375 7.5 8.4375H10.5C10.8105 8.4375 11.0625 8.6895 11.0625 9C11.0625 9.3105 10.8105 9.5625 10.5 9.5625H7.5C7.1895 9.5625 6.9375 9.3105 6.9375 9Z" fill="#23272E"/>
</svg>
