<svg width="24" height="25" viewBox="0 0 24 25" fill="none" xmlns="http://www.w3.org/2000/svg">
<path fill-rule="evenodd" clip-rule="evenodd" d="M8.04812 3.09537C8.1839 3.24072 8.25638 3.43404 8.24963 3.63283C8.24288 3.83161 8.15745 4.01958 8.01212 4.15537L3.72612 8.15537C3.65088 8.22568 3.56198 8.27975 3.46494 8.3142C3.3679 8.34865 3.26481 8.36275 3.16208 8.35563C3.05935 8.3485 2.9592 8.32029 2.86785 8.27276C2.7765 8.22523 2.69591 8.1594 2.63112 8.07937L1.41712 6.57937C1.35513 6.50281 1.30883 6.41479 1.28087 6.32034C1.2529 6.22589 1.24381 6.12685 1.25412 6.02888C1.27493 5.83103 1.37349 5.64956 1.52812 5.52437C1.68274 5.39919 1.88075 5.34056 2.0786 5.36138C2.27646 5.38219 2.45793 5.48075 2.58312 5.63537L3.29112 6.51037L6.98812 3.05937C7.13346 2.92359 7.32679 2.8511 7.52557 2.85785C7.72436 2.86461 7.91232 2.95004 8.04812 3.09537ZM11.2501 5.60737C11.2501 5.40846 11.3291 5.2177 11.4698 5.07704C11.6104 4.93639 11.8012 4.85737 12.0001 4.85737H22.0001C22.199 4.85737 22.3898 4.93639 22.5304 5.07704C22.6711 5.2177 22.7501 5.40846 22.7501 5.60737C22.7501 5.80629 22.6711 5.99705 22.5304 6.1377C22.3898 6.27836 22.199 6.35737 22.0001 6.35737H12.0001C11.8012 6.35737 11.6104 6.27836 11.4698 6.1377C11.3291 5.99705 11.2501 5.80629 11.2501 5.60737ZM8.04812 10.0954C8.1839 10.2407 8.25638 10.434 8.24963 10.6328C8.24288 10.8316 8.15745 11.0196 8.01212 11.1554L3.72612 15.1554C3.65088 15.2257 3.56198 15.2797 3.46494 15.3142C3.3679 15.3487 3.26481 15.3628 3.16208 15.3556C3.05935 15.3485 2.9592 15.3203 2.86785 15.2728C2.7765 15.2252 2.69591 15.1594 2.63112 15.0794L1.41712 13.5794C1.35513 13.5028 1.30883 13.4148 1.28087 13.3203C1.2529 13.2259 1.24381 13.1269 1.25412 13.0289C1.26443 12.9309 1.29393 12.8359 1.34094 12.7494C1.38795 12.6628 1.45155 12.5864 1.52812 12.5244C1.60468 12.4624 1.6927 12.4161 1.78715 12.3881C1.8816 12.3602 1.98064 12.3511 2.0786 12.3614C2.17657 12.3717 2.27155 12.4012 2.35811 12.4482C2.44467 12.4952 2.52113 12.5588 2.58312 12.6354L3.29112 13.5104L6.98812 10.0594C7.13346 9.92359 7.32679 9.8511 7.52557 9.85785C7.72436 9.86461 7.91232 9.95004 8.04812 10.0954ZM11.2501 12.6074C11.2501 12.4085 11.3291 12.2177 11.4698 12.077C11.6104 11.9364 11.8012 11.8574 12.0001 11.8574H22.0001C22.199 11.8574 22.3898 11.9364 22.5304 12.077C22.6711 12.2177 22.7501 12.4085 22.7501 12.6074C22.7501 12.8063 22.6711 12.9971 22.5304 13.1377C22.3898 13.2784 22.199 13.3574 22.0001 13.3574H12.0001C11.8012 13.3574 11.6104 13.2784 11.4698 13.1377C11.3291 12.9971 11.2501 12.8063 11.2501 12.6074ZM8.04812 17.0954C8.1839 17.2407 8.25638 17.434 8.24963 17.6328C8.24288 17.8316 8.15745 18.0196 8.01212 18.1554L3.72612 22.1554C3.65088 22.2257 3.56198 22.2798 3.46494 22.3142C3.3679 22.3487 3.26481 22.3628 3.16208 22.3556C3.05935 22.3485 2.9592 22.3203 2.86785 22.2728C2.7765 22.2252 2.69591 22.1594 2.63112 22.0794L1.41712 20.5794C1.35513 20.5028 1.30883 20.4148 1.28087 20.3203C1.2529 20.2259 1.24381 20.1269 1.25412 20.0289C1.26443 19.9309 1.29393 19.8359 1.34094 19.7494C1.38795 19.6628 1.45155 19.5864 1.52812 19.5244C1.60468 19.4624 1.6927 19.4161 1.78715 19.3881C1.8816 19.3602 1.98064 19.3511 2.0786 19.3614C2.17657 19.3717 2.27155 19.4012 2.35811 19.4482C2.44467 19.4952 2.52113 19.5588 2.58312 19.6354L3.29112 20.5104L6.98812 17.0594C7.13346 16.9236 7.32679 16.8511 7.52557 16.8579C7.72436 16.8646 7.91232 16.95 8.04812 17.0954ZM11.2501 19.6074C11.2501 19.4085 11.3291 19.2177 11.4698 19.077C11.6104 18.9364 11.8012 18.8574 12.0001 18.8574H22.0001C22.199 18.8574 22.3898 18.9364 22.5304 19.077C22.6711 19.2177 22.7501 19.4085 22.7501 19.6074C22.7501 19.8063 22.6711 19.9971 22.5304 20.1377C22.3898 20.2784 22.199 20.3574 22.0001 20.3574H12.0001C11.8012 20.3574 11.6104 20.2784 11.4698 20.1377C11.3291 19.9971 11.2501 19.8063 11.2501 19.6074Z" fill="#8181A5"/>
</svg>
