<svg width="18" height="15" viewBox="0 0 18 15" fill="none" xmlns="http://www.w3.org/2000/svg">
<path d="M9.5625 12.25C9.5625 12.5605 9.3105 12.8125 9 12.8125H3.75C1.9365 12.8125 0.9375 11.8135 0.9375 10V3.25C0.9375 1.4365 1.9365 0.4375 3.75 0.4375H12.75C14.5635 0.4375 15.5625 1.4365 15.5625 3.25V6.25C15.5625 6.5605 15.3105 6.8125 15 6.8125C14.6895 6.8125 14.4375 6.5605 14.4375 6.25V3.25C14.4375 2.06725 13.9327 1.5625 12.75 1.5625H3.75C2.56725 1.5625 2.0625 2.06725 2.0625 3.25V10C2.0625 11.1827 2.56725 11.6875 3.75 11.6875H9C9.3105 11.6875 9.5625 11.9395 9.5625 12.25ZM12.0443 3.5455L8.36023 6.2245C8.29423 6.27175 8.2065 6.27175 8.1405 6.2245L4.45642 3.5455C4.20367 3.36175 3.85278 3.4195 3.67053 3.66925C3.48753 3.9205 3.54306 4.273 3.79431 4.45525L7.47821 7.13425C7.70921 7.30225 7.98 7.38625 8.25 7.38625C8.52 7.38625 8.79154 7.30225 9.02179 7.13425L12.7057 4.45525C12.9569 4.273 13.0125 3.9205 12.8295 3.66925C12.6472 3.41875 12.2971 3.361 12.0443 3.5455ZM17.0625 11.125C17.0625 12.883 15.633 14.3125 13.875 14.3125C12.117 14.3125 10.6875 12.883 10.6875 11.125C10.6875 9.367 12.117 7.9375 13.875 7.9375C15.633 7.9375 17.0625 9.367 17.0625 11.125ZM11.8125 11.125C11.8125 11.4888 11.9152 11.8262 12.0817 12.1232L14.8733 9.331C14.5763 9.16525 14.2395 9.0625 13.875 9.0625C12.7373 9.0625 11.8125 9.98725 11.8125 11.125ZM15.9375 11.125C15.9375 10.7612 15.8348 10.4238 15.6683 10.1268L12.8767 12.919C13.1737 13.0847 13.5105 13.1875 13.875 13.1875C15.0127 13.1875 15.9375 12.2627 15.9375 11.125Z" fill="#23272E"/>
</svg>
