<svg width="18" height="18" viewBox="0 0 18 18" fill="none" xmlns="http://www.w3.org/2000/svg">
<path d="M13.2188 1.6875H4.78125C2.78625 1.6875 1.6875 2.78625 1.6875 4.78125V13.2188C1.6875 15.2137 2.78625 16.3125 4.78125 16.3125H13.2188C15.2137 16.3125 16.3125 15.2137 16.3125 13.2188V4.78125C16.3125 2.78625 15.2137 1.6875 13.2188 1.6875ZM15.1875 13.2188C15.1875 14.5988 14.5988 15.1875 13.2188 15.1875H4.78125C3.40125 15.1875 2.8125 14.5988 2.8125 13.2188V4.78125C2.8125 3.40125 3.40125 2.8125 4.78125 2.8125H13.2188C14.5988 2.8125 15.1875 3.40125 15.1875 4.78125V13.2188ZM12.9375 7.125C12.9375 7.4355 12.6855 7.6875 12.375 7.6875H9.375C9.0645 7.6875 8.8125 7.4355 8.8125 7.125C8.8125 6.8145 9.0645 6.5625 9.375 6.5625H12.375C12.6855 6.5625 12.9375 6.8145 12.9375 7.125ZM12.9375 10.875C12.9375 11.1855 12.6855 11.4375 12.375 11.4375H9.375C9.0645 11.4375 8.8125 11.1855 8.8125 10.875C8.8125 10.5645 9.0645 10.3125 9.375 10.3125H12.375C12.6855 10.3125 12.9375 10.5645 12.9375 10.875ZM7.52252 6.22723C7.74227 6.44698 7.74227 6.80326 7.52252 7.02301L6.52277 8.02277C6.41327 8.13227 6.26924 8.18774 6.12524 8.18774C5.98199 8.18774 5.83722 8.133 5.72772 8.0235L5.22748 7.52325C5.00773 7.3035 5.00773 6.94723 5.22748 6.72748C5.44723 6.50848 5.80275 6.50773 6.02325 6.72748L6.12598 6.83025L6.72821 6.22801C6.94721 6.00751 7.30277 6.00748 7.52252 6.22723ZM7.52252 9.97723C7.74227 10.197 7.74227 10.5533 7.52252 10.773L6.52277 11.7728C6.41327 11.8823 6.26924 11.9377 6.12524 11.9377C5.98199 11.9377 5.83722 11.883 5.72772 11.7735L5.22748 11.2733C5.00773 11.0535 5.00773 10.6972 5.22748 10.4775C5.44723 10.2585 5.80275 10.2577 6.02325 10.4775L6.12598 10.5802L6.72821 9.97801C6.94721 9.75751 7.30277 9.75748 7.52252 9.97723Z" fill="#23272E"/>
</svg>
