<svg width="26" height="27" viewBox="0 0 26 27" fill="none" xmlns="http://www.w3.org/2000/svg">
<path d="M18.6875 13.6074C19.334 13.6074 19.954 13.8642 20.4111 14.3213C20.8682 14.7785 21.125 15.3985 21.125 16.0449V16.8574C21.125 20.0603 18.1025 23.3574 13 23.3574C7.8975 23.3574 4.875 20.0603 4.875 16.8574V16.0449C4.875 15.3985 5.13181 14.7785 5.58893 14.3213C6.04605 13.8642 6.66603 13.6074 7.3125 13.6074H18.6875ZM18.6875 15.2324H7.3125C7.09701 15.2324 6.89035 15.318 6.73798 15.4704C6.5856 15.6228 6.5 15.8294 6.5 16.0449V16.8574C6.5 19.1942 8.827 21.7324 13 21.7324C17.173 21.7324 19.5 19.1942 19.5 16.8574V16.0449C19.5 15.8294 19.4144 15.6228 19.262 15.4704C19.1097 15.318 18.903 15.2324 18.6875 15.2324ZM13 3.04492C14.1852 3.04492 15.3218 3.51574 16.1599 4.35379C16.9979 5.19184 17.4688 6.32849 17.4688 7.51367C17.4688 8.69886 16.9979 9.8355 16.1599 10.6736C15.3218 11.5116 14.1852 11.9824 13 11.9824C11.8148 11.9824 10.6782 11.5116 9.84012 10.6736C9.00206 9.8355 8.53125 8.69886 8.53125 7.51367C8.53125 6.32849 9.00206 5.19184 9.84012 4.35379C10.6782 3.51574 11.8148 3.04492 13 3.04492ZM13 4.66992C12.2458 4.66992 11.5225 4.96953 10.9892 5.50284C10.4559 6.03614 10.1562 6.75946 10.1562 7.51367C10.1562 8.26788 10.4559 8.9912 10.9892 9.52451C11.5225 10.0578 12.2458 10.3574 13 10.3574C13.7542 10.3574 14.4775 10.0578 15.0108 9.52451C15.5441 8.9912 15.8438 8.26788 15.8438 7.51367C15.8438 6.75946 15.5441 6.03614 15.0108 5.50284C14.4775 4.96953 13.7542 4.66992 13 4.66992Z" fill="#8181A5"/>
</svg>
