<svg width="16" height="16" viewBox="0 0 16 16" fill="none" xmlns="http://www.w3.org/2000/svg">
<path d="M8.59302 3.92188H3.40633C2.26633 3.92188 1.33301 4.8552 1.33301 5.9952V13.5685C1.33301 14.5352 2.02634 14.9485 2.87301 14.4752L5.493 13.0152C5.773 12.8619 6.22634 12.8619 6.49967 13.0152L9.11967 14.4752C9.96634 14.9485 10.6597 14.5352 10.6597 13.5685V5.9952C10.6663 4.8552 9.73302 3.92188 8.59302 3.92188Z" stroke="#23272E" stroke-linecap="round" stroke-linejoin="round"/>
<path d="M10.6663 5.9952V13.5685C10.6663 14.5352 9.97301 14.9419 9.12634 14.4752L6.50635 13.0152C6.22635 12.8619 5.773 12.8619 5.493 13.0152L2.87301 14.4752C2.02634 14.9419 1.33301 14.5352 1.33301 13.5685V5.9952C1.33301 4.8552 2.26633 3.92188 3.40633 3.92188H8.59302C9.73302 3.92188 10.6663 4.8552 10.6663 5.9952Z" stroke="#23272E" stroke-linecap="round" stroke-linejoin="round"/>
<path d="M14.6663 3.40535V10.9787C14.6663 11.9454 13.973 12.352 13.1263 11.8854L10.6663 10.512V5.99202C10.6663 4.85202 9.73302 3.9187 8.59302 3.9187H5.33301V3.40535C5.33301 2.26535 6.26633 1.33203 7.40633 1.33203H12.593C13.733 1.33203 14.6663 2.26535 14.6663 3.40535Z" stroke="#23272E" stroke-linecap="round" stroke-linejoin="round"/>
</svg>
