<svg width="14" height="15" viewBox="0 0 14 15" fill="none" xmlns="http://www.w3.org/2000/svg">
<path d="M11.5 12.7676H2.5C2.0875 12.7676 1.75 12.4301 1.75 12.0176V3.01758C1.75 2.60508 2.0875 2.26758 2.5 2.26758H6.25C6.6625 2.26758 7 1.93008 7 1.51758C7 1.10508 6.6625 0.767578 6.25 0.767578H1.75C1.35218 0.767578 0.970644 0.925613 0.68934 1.20692C0.408035 1.48822 0.25 1.86975 0.25 2.26758V12.7676C0.25 13.5926 0.925 14.2676 1.75 14.2676H12.25C13.075 14.2676 13.75 13.5926 13.75 12.7676V8.26758C13.75 7.85508 13.4125 7.51758 13 7.51758C12.5875 7.51758 12.25 7.85508 12.25 8.26758V12.0176C12.25 12.4301 11.9125 12.7676 11.5 12.7676ZM8.5 1.51758C8.5 1.93008 8.8375 2.26758 9.25 2.26758H11.1925L4.345 9.11508C4.20477 9.25531 4.12598 9.44551 4.12598 9.64383C4.12598 9.84215 4.20477 10.0323 4.345 10.1726C4.48523 10.3128 4.67543 10.3916 4.87375 10.3916C5.07207 10.3916 5.26227 10.3128 5.4025 10.1726L12.25 3.32508V5.26758C12.25 5.68008 12.5875 6.01758 13 6.01758C13.4125 6.01758 13.75 5.68008 13.75 5.26758V1.51758C13.75 1.10508 13.4125 0.767578 13 0.767578H9.25C8.8375 0.767578 8.5 1.10508 8.5 1.51758Z" fill="#8181A5"/>
</svg>
