<svg width="141" height="140" viewBox="0 0 141 140" fill="none" xmlns="http://www.w3.org/2000/svg">
<rect x="20.5" width="100" height="100" rx="50" fill="#333399"/>
<g filter="url(#filter0_d_1100_72554)">
<rect x="40.5" y="20" width="60" height="60" rx="30" fill="white" shape-rendering="crispEdges"/>
<path d="M68.483 36.978L61.8296 39.4846C60.2963 40.058 59.043 41.8713 59.043 43.498V53.4046C59.043 54.978 60.083 57.0446 61.3496 57.9913L67.083 62.2713C68.963 63.6846 72.0563 63.6846 73.9363 62.2713L79.6696 57.9913C80.9363 57.0446 81.9763 54.978 81.9763 53.4046V43.498C81.9763 41.858 80.723 40.0446 79.1896 39.4713L72.5363 36.978C71.403 36.5646 69.5896 36.5646 68.483 36.978Z" stroke="#333399" stroke-width="2" stroke-linecap="round" stroke-linejoin="round"/>
<path d="M73.362 51.9167L67.6953 46.25" stroke="#333399" stroke-width="2" stroke-miterlimit="10" stroke-linecap="round" stroke-linejoin="round"/>
<path d="M73.3034 46.3203L67.6367 51.987" stroke="#333399" stroke-width="2" stroke-miterlimit="10" stroke-linecap="round" stroke-linejoin="round"/>
</g>
<defs>
<filter id="filter0_d_1100_72554" x="0.5" y="0" width="140" height="140" filterUnits="userSpaceOnUse" color-interpolation-filters="sRGB">
<feFlood flood-opacity="0" result="BackgroundImageFix"/>
<feColorMatrix in="SourceAlpha" type="matrix" values="0 0 0 0 0 0 0 0 0 0 0 0 0 0 0 0 0 0 127 0" result="hardAlpha"/>
<feOffset dy="20"/>
<feGaussianBlur stdDeviation="20"/>
<feComposite in2="hardAlpha" operator="out"/>
<feColorMatrix type="matrix" values="0 0 0 0 0 0 0 0 0 0 0 0 0 0 0 0 0 0 0.3 0"/>
<feBlend mode="normal" in2="BackgroundImageFix" result="effect1_dropShadow_1100_72554"/>
<feBlend mode="normal" in="SourceGraphic" in2="effect1_dropShadow_1100_72554" result="shape"/>
</filter>
</defs>
</svg>
