<svg width="20" height="21" viewBox="0 0 20 21" fill="none" xmlns="http://www.w3.org/2000/svg">
<g clip-path="url(#clip0_1159_48287)">
<path opacity="0.4" d="M12.5001 12.5649C12.5001 12.7584 12.4294 12.926 12.2881 13.0671C12.1467 13.2087 11.9792 13.2793 11.7858 13.2793H8.21436C8.02078 13.2793 7.85343 13.2087 7.71204 13.0671C7.57069 12.926 7.50001 12.7584 7.50001 12.5649V10.7793H0V16.1365C0 16.6275 0.174776 17.0478 0.524524 17.3974C0.874193 17.7471 1.29466 17.922 1.78576 17.922H18.2144C18.7054 17.922 19.1258 17.7471 19.4755 17.3974C19.8253 17.0478 20 16.6275 20 16.1365V10.7793H12.5001V12.5649Z" fill="#304880"/>
<path d="M19.4755 5.23129C19.1258 4.88154 18.7053 4.70677 18.2144 4.70677H14.2857V2.92098C14.2857 2.62334 14.1816 2.37042 13.9732 2.16206C13.765 1.95383 13.5119 1.84961 13.2144 1.84961H6.78578C6.48822 1.84961 6.23526 1.95383 6.02686 2.16206C5.81847 2.3703 5.71437 2.6233 5.71437 2.92098V4.70677H1.78576C1.2947 4.70677 0.874232 4.88154 0.524524 5.23129C0.174776 5.581 0 6.00123 0 6.49233V10.7781H20V6.49233C20 6.00123 19.8253 5.581 19.4755 5.23129ZM12.8572 4.70677H7.14291V3.27811H12.8572V4.70677Z" fill="#304880"/>
</g>
<defs>
<clipPath id="clip0_1159_48287">
<rect width="20" height="20" fill="white" transform="translate(0 0.421875)"/>
</clipPath>
</defs>
</svg>
