<svg width="20" height="21" viewBox="0 0 20 21" fill="none" xmlns="http://www.w3.org/2000/svg">
<path opacity="0.4" d="M19.4477 12.0602H12.7383C12.7383 12.0602 14.2627 10.9079 14.0166 8.37448C14.3673 8.19989 14.7078 8.13394 14.9739 8.11914H17.1772C19.7074 8.66561 20.0003 10.6268 20.0003 11.3159C20.0003 11.8037 19.7369 12.0602 19.4477 12.0602Z" fill="#2C3E50"/>
<path opacity="0.4" d="M0.552273 12.0602H7.26172C7.26172 12.0602 5.73733 10.9079 5.98343 8.37448C5.63274 8.19989 5.29221 8.13394 5.02605 8.11914H2.82277C0.292572 8.66561 -0.000259399 10.6268 -0.000259399 11.3159C-0.000259399 11.8037 0.26311 12.0602 0.552273 12.0602Z" fill="#2C3E50"/>
<ellipse opacity="0.4" cx="16.021" cy="4.55823" rx="2.47026" ry="2.47034" fill="#2C3E50"/>
<ellipse opacity="0.4" cx="2.47026" cy="2.47034" rx="2.47026" ry="2.47034" transform="matrix(-1 0 0 1 6.44922 2.08789)" fill="#2C3E50"/>
<path fill-rule="evenodd" clip-rule="evenodd" d="M12.9257 9.08793C12.9257 10.6973 11.621 12.002 10.0117 12.002C8.4023 12.002 7.09766 10.6973 7.09766 9.08793C7.09766 7.47852 8.4023 6.17383 10.0117 6.17383C11.621 6.17383 12.9257 7.47852 12.9257 9.08793ZM10.0117 10.5845C10.8382 10.5845 11.5082 9.91448 11.5082 9.08793C11.5082 8.26138 10.8382 7.59133 10.0117 7.59133C9.18514 7.59133 8.51512 8.26138 8.51512 9.08793C8.51512 9.91448 9.18514 10.5845 10.0117 10.5845Z" fill="#2C3E50"/>
<path fill-rule="evenodd" clip-rule="evenodd" d="M4.97203 18.1055H15.4021C15.6039 18.0754 16.0074 17.8337 16.0074 17.1075C16.0074 16.1998 15.3183 13.4598 12.0245 13.1367H8.04862C6.65574 13.1367 4.21173 14.1828 4.01604 17.1182C3.9854 17.5373 4.12189 17.7756 4.29235 17.9221C4.4753 18.0793 4.73082 18.1055 4.97203 18.1055ZM5.58073 16.6509H14.4392C14.2809 15.9908 13.5693 14.6543 11.9887 14.5885H8.01281C7.26154 14.5885 5.74524 15.126 5.58073 16.6509Z" fill="#2C3E50"/>
</svg>
