<svg width="20" height="20" viewBox="0 0 20 20" fill="none" xmlns="http://www.w3.org/2000/svg">
<path opacity="0.4" d="M7.71421 1.99902H13.0771L13.615 3.38296C13.708 3.62205 13.9485 3.7627 14.1817 3.86959C14.2841 3.91653 14.3297 4.05082 14.4229 4.11422L14.6003 4.235C14.8044 4.37396 14.9009 4.62765 15.049 4.82518C15.0701 4.85327 15.0935 4.87949 15.1189 4.90355C15.3319 5.10477 15.6453 5.20705 15.8242 5.43908L16.0963 5.79202C16.1657 5.88194 16.3023 5.92368 16.3496 6.02693C16.4539 6.25457 16.6089 6.48279 16.8508 6.54755C17.3263 6.67487 18.0395 6.87414 17.9983 6.91351C17.9983 9.96333 17.9983 17.2032 17.9983 17.6343C17.9983 18.1813 17.5549 18.6247 17.008 18.6247H7.71421C7.51516 18.6396 7.32996 18.5128 7.17485 18.3453C6.7951 17.9353 6.7152 17.349 6.71319 16.7902C6.71234 16.5537 6.71217 16.2875 6.71244 16.0104C6.7141 14.3518 7.6194 12.8276 9.06822 12.0203L9.77862 11.6244L8.5352 10.6755C7.39372 9.80441 6.72392 8.45069 6.72392 7.0148V2.98942C6.72395 2.44243 7.16731 1.99902 7.71421 1.99902Z" fill="#333399"/>
<path d="M17.6708 6.45538L13.5363 2.32049C13.4009 2.18512 13.2436 2.07678 13.0727 1.99902V5.93754C13.0727 6.47962 13.5121 6.91908 14.0541 6.91908H17.9922C17.9144 6.74809 17.8061 6.59076 17.6708 6.45538Z" fill="#333399"/>
<path fill-rule="evenodd" clip-rule="evenodd" d="M2.49127 10.7063C2.68747 10.9943 2.68747 11.3731 2.49127 11.6611C2.17902 12.1195 2.38364 12.7493 2.90566 12.9367C3.23368 13.0543 3.45627 13.3607 3.46681 13.7091C3.48357 14.2635 4.01928 14.6527 4.55166 14.4974C4.70996 14.4512 4.874 14.453 5.02551 14.497V18.3816C5.02551 18.6019 5.26707 18.7369 5.45467 18.6214L6.37461 18.055C6.46513 17.9993 6.57929 17.9993 6.66981 18.055L7.58974 18.6214C7.77734 18.7369 8.01891 18.6019 8.01891 18.3816V14.5285C8.43088 14.4925 8.77858 14.1539 8.79203 13.709C8.80257 13.3606 9.02516 13.0542 9.35318 12.9365C9.8752 12.7493 10.0799 12.1194 9.76757 11.6611C9.57137 11.373 9.57137 10.9943 9.76757 10.7063C10.0798 10.2479 9.8752 9.61805 9.35318 9.4308C9.02516 9.31313 8.80257 9.00674 8.79203 8.65837C8.77527 8.10397 8.23956 7.71472 7.70718 7.87009C7.44786 7.94576 7.17311 7.89246 6.96336 7.73626C6.90275 7.69106 6.8484 7.63688 6.8006 7.57509C6.4612 7.13643 5.79904 7.13643 5.45964 7.57509C5.24635 7.8507 4.8862 7.96775 4.55166 7.87013C4.01928 7.71476 3.48357 8.10402 3.46681 8.65841C3.45627 9.00675 3.23368 9.31317 2.90566 9.43085C2.38364 9.61813 2.17902 10.248 2.49127 10.7063ZM6.17438 13.393C5.02178 13.393 4.08742 12.4586 4.08742 11.3058C4.08742 10.1531 5.02178 9.21867 6.17438 9.21867C7.32697 9.21867 8.26134 10.1531 8.26134 11.3058C8.26134 12.4586 7.32697 13.393 6.17438 13.393Z" fill="#333399"/>
</svg>
