<svg width="20" height="20" viewBox="0 0 20 20" fill="none" xmlns="http://www.w3.org/2000/svg">
<g clip-path="url(#clip0_1100_53981)">
<path d="M0.604844 14.9479H19.3952C19.7292 14.9479 20 14.7173 20 13.9915V5.28258C20 4.94855 19.7292 4.67773 19.3952 4.67773H0.604844C0.270781 4.67773 0 4.94855 0 5.28258V13.9915C0 14.7173 0.270781 14.9479 0.604844 14.9479Z" fill="#92E0FF"/>
<path d="M13.6511 10.0029V9.25482C13.6511 9.14346 13.5608 9.05322 13.4495 9.05322H2.40863C2.2973 9.05322 2.20703 9.1435 2.20703 9.25482V10.0029L7.92906 10.3545L13.6511 10.0029Z" fill="#EDF4FA"/>
<path d="M19.3952 14.5965H0.604844C0.270781 14.5965 0 14.3258 0 13.9917V14.7175C0 15.0515 0.270781 15.3224 0.604844 15.3224H19.3952C19.7292 15.3224 20 15.0516 20 14.7175V13.9917C20 14.3258 19.7292 14.5965 19.3952 14.5965Z" fill="#75D5F2"/>
<path d="M2.40863 10.7287H13.4495C13.5609 10.7287 13.6511 10.6384 13.6511 10.5271V10.0029H2.20703V10.5271C2.20703 10.6384 2.2973 10.7287 2.40863 10.7287Z" fill="#D8E5EF"/>
<path d="M16.2333 7.49514C16.2144 7.50006 16.1954 7.50514 16.1762 7.51092C15.8165 7.61932 15.5479 7.92639 15.4752 8.31232C15.4084 8.66643 15.5234 9.00912 15.7752 9.20658C15.8942 9.2999 16.0392 9.38545 16.2333 9.47439V10.7579C16.0954 10.7387 15.9928 10.6922 15.8283 10.5846C15.6883 10.493 15.5004 10.5322 15.4088 10.6722C15.3172 10.8123 15.3565 11.0001 15.4965 11.0917C15.7847 11.2803 15.988 11.3464 16.2333 11.3675V11.5565C16.2333 11.7238 16.369 11.8595 16.5363 11.8595C16.7037 11.8595 16.8393 11.7238 16.8393 11.5565V11.3385C17.3439 11.2108 17.6673 10.7799 17.7387 10.3551C17.8306 9.80861 17.5339 9.31478 17.0004 9.12619C16.9474 9.10744 16.8934 9.08799 16.8394 9.06795V8.10166C16.9415 8.14002 17.0021 8.18916 17.0114 8.19701C17.0691 8.24959 17.1424 8.28607 17.2263 8.28607C17.3941 8.28607 17.5301 8.15006 17.5301 7.98229C17.5301 7.88416 17.4834 7.79717 17.4112 7.74162C17.3658 7.7024 17.1598 7.53748 16.8393 7.47404V7.30545C16.8393 7.13807 16.7036 7.00244 16.5363 7.00244C16.369 7.00244 16.2333 7.13811 16.2333 7.30545V7.49514ZM16.2333 8.78885C16.203 8.76947 16.1748 8.74979 16.1492 8.72971C16.0772 8.67326 16.0464 8.55342 16.0707 8.42447C16.0884 8.33072 16.1398 8.22248 16.2333 8.15135L16.2333 8.78885ZM16.8393 9.7142C17.1684 9.85275 17.161 10.1357 17.141 10.2546C17.1133 10.4196 17.0109 10.5931 16.8393 10.691V9.7142Z" fill="#DA4A54"/>
<path d="M2.19363 7.19098H6.08344C6.25078 7.19098 6.38645 7.05531 6.38645 6.88797C6.38645 6.72059 6.25078 6.58496 6.08344 6.58496H2.19363C2.02629 6.58496 1.89062 6.72059 1.89062 6.88797C1.89062 7.05535 2.02629 7.19098 2.19363 7.19098Z" fill="#407093"/>
<path d="M17.8875 13.4146C18.0548 13.4146 18.1905 13.279 18.1905 13.1116C18.1905 12.9442 18.0548 12.8086 17.8875 12.8086H14.7249C14.5575 12.8086 14.4219 12.9443 14.4219 13.1116C14.4219 13.2789 14.5575 13.4146 14.7249 13.4146H17.8875Z" fill="#407093"/>
<path d="M2.19363 12.8086C2.02629 12.8086 1.89062 12.9443 1.89062 13.1116C1.89062 13.2789 2.02629 13.4146 2.19363 13.4146H3.58891C3.75625 13.4146 3.89191 13.279 3.89191 13.1116C3.89191 12.9442 3.75625 12.8086 3.58891 12.8086H2.19363Z" fill="#407093"/>
<path d="M5.43973 12.8086C5.27238 12.8086 5.13672 12.9443 5.13672 13.1116C5.13672 13.2789 5.27238 13.4146 5.43973 13.4146H6.83496C7.0023 13.4146 7.13797 13.279 7.13797 13.1116C7.13797 12.9442 7.0023 12.8086 6.83496 12.8086H5.43973Z" fill="#407093"/>
<path d="M8.68973 12.8086C8.52238 12.8086 8.38672 12.9443 8.38672 13.1116C8.38672 13.2789 8.52238 13.4146 8.68973 13.4146H10.085C10.2523 13.4146 10.388 13.279 10.388 13.1116C10.388 12.9442 10.2523 12.8086 10.085 12.8086H8.68973Z" fill="#407093"/>
</g>
<defs>
<clipPath id="clip0_1100_53981">
<rect width="20" height="20" fill="white"/>
</clipPath>
</defs>
</svg>
