<svg width="6" height="10" viewBox="0 0 6 10" fill="none" xmlns="http://www.w3.org/2000/svg">
<path d="M4.85917 9.39523L1.13917 5.66856C1.01501 5.54366 0.945313 5.37469 0.945312 5.19857C0.945312 5.02244 1.01501 4.85347 1.13917 4.72856L4.85917 1.0019C4.95242 0.907879 5.07156 0.843758 5.20139 0.817712C5.33122 0.791665 5.46587 0.804873 5.58816 0.855651C5.71046 0.906429 5.81486 0.992476 5.88806 1.10282C5.96126 1.21317 5.99994 1.34281 5.99917 1.47523V8.9219C5.99994 9.05431 5.96126 9.18396 5.88806 9.29431C5.81486 9.40465 5.71046 9.4907 5.58816 9.54148C5.46587 9.59226 5.33122 9.60546 5.20139 9.57942C5.07156 9.55337 4.95242 9.48925 4.85917 9.39523Z" fill="#2C3E50"/>
</svg>
