<svg width="12" height="13" viewBox="0 0 12 13" fill="none" xmlns="http://www.w3.org/2000/svg">
<path d="M7.40473 6.70618L11.7006 2.41971C11.8887 2.23156 11.9944 1.97638 11.9944 1.7103C11.9944 1.44421 11.8887 1.18903 11.7006 1.00088C11.5125 0.812732 11.2573 0.707031 10.9913 0.707031C10.7252 0.707031 10.4701 0.812732 10.282 1.00088L5.99609 5.29734L1.71024 1.00088C1.52211 0.812732 1.26697 0.707031 1.00092 0.707031C0.734876 0.707031 0.479728 0.812732 0.291606 1.00088C0.103485 1.18903 -0.0022013 1.44421 -0.0022013 1.7103C-0.0022013 1.97638 0.103485 2.23156 0.291606 2.41971L4.58746 6.70618L0.291606 10.9926C0.197969 11.0855 0.123646 11.196 0.0729267 11.3178C0.022207 11.4396 -0.00390625 11.5702 -0.00390625 11.7021C-0.00390625 11.834 0.022207 11.9646 0.0729267 12.0863C0.123646 12.2081 0.197969 12.3186 0.291606 12.4115C0.38448 12.5051 0.494974 12.5795 0.616715 12.6302C0.738457 12.6809 0.869037 12.707 1.00092 12.707C1.13281 12.707 1.26338 12.6809 1.38513 12.6302C1.50687 12.5795 1.61736 12.5051 1.71024 12.4115L5.99609 8.11502L10.282 12.4115C10.3748 12.5051 10.4853 12.5795 10.6071 12.6302C10.7288 12.6809 10.8594 12.707 10.9913 12.707C11.1232 12.707 11.2537 12.6809 11.3755 12.6302C11.4972 12.5795 11.6077 12.5051 11.7006 12.4115C11.7942 12.3186 11.8685 12.2081 11.9193 12.0863C11.97 11.9646 11.9961 11.834 11.9961 11.7021C11.9961 11.5702 11.97 11.4396 11.9193 11.3178C11.8685 11.196 11.7942 11.0855 11.7006 10.9926L7.40473 6.70618Z" fill="#8F95B2"/>
</svg>
