<svg width="20" height="20" viewBox="0 0 20 20" fill="none" xmlns="http://www.w3.org/2000/svg">
<path d="M7.29231 17.5H15.832M9.81904 4.42643C9.81904 4.42643 9.81904 5.78861 11.1812 7.1508C12.5434 8.51299 13.9056 8.51299 13.9056 8.51299M4.43172 14.9901L7.29231 14.5814C7.70495 14.5225 8.08733 14.3313 8.38206 14.0365L15.2678 7.1508C16.0201 6.39848 16.0201 5.17874 15.2678 4.42642L13.9056 3.06424C13.1533 2.31192 11.9335 2.31192 11.1812 3.06424L4.2955 9.94997C4.00076 10.2447 3.80957 10.6271 3.75063 11.0397L3.34197 13.9003C3.25116 14.536 3.79603 15.0809 4.43172 14.9901Z" stroke="#304880" stroke-width="1.25" stroke-linecap="round"/>
</svg>
