<svg width="16" height="16" viewBox="0 0 16 16" fill="none" xmlns="http://www.w3.org/2000/svg">
<path d="M5.83229 14H12.6641M7.85367 3.54114C7.85367 3.54114 7.85367 4.63089 8.94342 5.72064C10.0332 6.81039 11.1229 6.81039 11.1229 6.81039M3.54381 11.992L5.83229 11.6651C6.16239 11.618 6.4683 11.465 6.70409 11.2292L12.2127 5.72064C12.8145 5.11879 12.8145 4.14299 12.2127 3.54114L11.1229 2.45139C10.5211 1.84954 9.54527 1.84954 8.94342 2.45139L3.43484 7.95997C3.19905 8.19576 3.0461 8.50167 2.99894 8.83177L2.67201 11.1202C2.59936 11.6288 3.03526 12.0647 3.54381 11.992Z" stroke="#2C3E50" stroke-opacity="0.8" stroke-linecap="round"/>
</svg>
