<svg width="16" height="16" viewBox="0 0 16 16" fill="none" xmlns="http://www.w3.org/2000/svg">
<path d="M10.3866 8.00288C10.3866 9.32288 9.31995 10.3895 7.99995 10.3895C6.67995 10.3895 5.61328 9.32288 5.61328 8.00288C5.61328 6.68288 6.67995 5.61621 7.99995 5.61621C9.31995 5.61621 10.3866 6.68288 10.3866 8.00288Z" stroke="#2C3E50" stroke-opacity="0.8" stroke-linecap="round" stroke-linejoin="round"/>
<path d="M7.9999 13.5158C10.3532 13.5158 12.5466 12.1291 14.0732 9.72909C14.6732 8.78909 14.6732 7.20909 14.0732 6.26909C12.5466 3.86909 10.3532 2.48242 7.9999 2.48242C5.64656 2.48242 3.45323 3.86909 1.92656 6.26909C1.32656 7.20909 1.32656 8.78909 1.92656 9.72909C3.45323 12.1291 5.64656 13.5158 7.9999 13.5158Z" stroke="#2C3E50" stroke-opacity="0.8" stroke-linecap="round" stroke-linejoin="round"/>
</svg>
