<svg width="38" height="38" viewBox="0 0 38 38" fill="none" xmlns="http://www.w3.org/2000/svg">
<path d="M15.7565 24.2026C13.4165 22.3997 10.668 20.2821 10.668 16.6112C10.668 12.5588 15.2514 9.68483 19.0013 13.5808L20.668 15.2463C20.9121 15.4904 21.3078 15.4903 21.5519 15.2462C21.7959 15.0021 21.7958 14.6063 21.5517 14.3623L19.9417 12.7529C23.475 10.1662 27.3346 12.8925 27.3346 16.6112C27.3346 20.2821 24.5862 22.3997 22.2461 24.2026C22.0029 24.39 21.7641 24.574 21.5332 24.756C20.668 25.4381 19.8346 26.0803 19.0013 26.0803C18.168 26.0803 17.3346 25.4381 16.4694 24.756C16.2386 24.574 15.9998 24.39 15.7565 24.2026Z" stroke="#6969D0"/>
<rect x="1" y="1" width="36" height="36" rx="8" stroke="#6969D0"/>
</svg>
