<svg width="22" height="23" viewBox="0 0 22 23" fill="none" xmlns="http://www.w3.org/2000/svg">
<path d="M14.6089 16.4337V16.4306L14.357 16.4325C14.0248 16.435 13.6932 16.4016 13.3681 16.3329L13.3667 16.3326C12.664 16.1884 12.0014 15.8919 11.4256 15.4641C10.9266 15.0933 10.5032 14.6316 10.1773 14.1042C11.4071 13.606 12.4705 12.7647 13.2387 11.6777C14.0646 10.5091 14.5092 9.11386 14.5114 7.68291C14.5114 7.68295 14.5114 7.683 14.5114 7.68304L14.6089 16.4337ZM14.6089 16.4337C15.1712 16.4051 15.7252 16.2805 16.2465 16.0646C16.8449 15.8167 17.3887 15.4533 17.8467 14.9953C18.3047 14.5373 18.668 13.9935 18.9159 13.3951C19.1638 12.7967 19.2914 12.1553 19.2914 11.5075C19.2914 10.8598 19.1638 10.2184 18.9159 9.61993C18.668 9.02149 18.3047 8.47774 17.8467 8.01971C17.3887 7.56169 16.8449 7.19836 16.2465 6.95048C15.6686 6.71111 15.0506 6.58392 14.4256 6.57548L14.6089 16.4337ZM14.3875 4.56752H14.3889H14.4264C16.265 4.56752 18.0283 5.2979 19.3284 6.598C20.6285 7.8981 21.3589 9.66141 21.3589 11.5C21.3589 13.3386 20.6285 15.1019 19.3284 16.402C18.0284 17.7021 16.2652 18.4324 14.4267 18.4325C14.4266 18.4325 14.4265 18.4325 14.4264 18.4325V18.1825C14.1757 18.1828 13.9252 18.1678 13.6764 18.1375L14.3875 4.56752ZM14.3875 4.56752H14.3861H14.3847H14.3833H14.3819H14.3805H14.379H14.3776H14.3762H14.3748H14.3734H14.372H14.3706H14.3692H14.3678H14.3664H14.365H14.3636H14.3621H14.3607H14.3593H14.3579H14.3565H14.3551H14.3537H14.3523H14.3509H14.3495H14.348H14.3466H14.3452H14.3438H14.3424H14.341H14.3396H14.3382H14.3367H14.3353H14.3339H14.3325H14.3311H14.3297H14.3283H14.3268H14.3254H14.324H14.3226H14.3212H14.3198H14.3184H14.3169H14.3155H14.3141H14.3127H14.3113H14.3099H14.3084H14.307H14.3056H14.3042H14.3028H14.3014H14.2999H14.2985H14.2971H14.2957H14.2943H14.2929H14.2914H14.29H14.2886H14.2872H14.2858H14.2843H14.2829H14.2815H14.2801H14.2787H14.2772H14.2758H14.2744H14.273H14.2716H14.2701H14.2687H14.2673H14.2659H14.2644H14.263H14.2616H14.2602H14.2587H14.2573H14.2559H14.2545H14.2531H14.2516H14.2502H14.2488H14.2474H14.2459H14.2445H14.2431H14.2417H14.2402H14.2388H14.2374H14.2359H14.2345H14.2331H14.2317H14.2302H14.2288H14.2274H14.226H14.2245H14.2231H14.2217H14.2202H14.2188H14.2174H14.216H14.2145H14.2131H14.2117H14.2102H14.2088H14.2074H14.2059H14.2045H14.2031H14.2016H14.2002H14.1988H14.1973H14.1959H14.1945H14.1931H14.1916H14.1902H14.1888H14.1873H14.1859H14.1844H14.183H14.1816H14.1801H14.1787H14.1773H14.1758H14.1744H14.173H14.1715H14.1701H14.1687H14.1672H14.1658H14.1643H14.1629H14.1615H14.16H14.1586H14.1572H14.1557H14.1543H14.1528H14.1514H14.15H14.1485H14.1471H14.1456H14.1442H14.1428H14.1413H14.1399H14.1384H14.137H14.1355H14.1341H14.1327H14.1312H14.1298H14.1283H14.1269H14.1254H14.124H14.1226H14.1211H14.1197H14.1182H14.1168H14.1153H14.1139H14.1124H14.111H14.1096H14.1081H14.1067H14.1052H14.1038H14.1023H14.1009H14.0994H14.098H14.0965H14.0951H14.0936H14.0922H14.0907H14.0893H14.0878H14.0864H14.0849H14.0835H14.082H14.0806H14.0791H14.0777H14.0762H14.0748H14.0733H14.0719H14.0704H14.069H14.0675H14.0661H14.0646H14.0631H14.0617H14.0602H14.0588H14.0573H14.0559H14.0544H14.053H14.0515H14.05H14.0486H14.0471H14.0457H14.0442H14.0428H14.0413H14.0398H14.0384H14.0369H14.0355H14.034H14.0326H14.0311H14.0296H14.0282H14.0267H14.0253H14.0238H14.0223H14.0209H14.0194H14.0179H14.0165H14.015H14.0136H14.0121H14.0106H14.0092H14.0077H14.0062H14.0048H14.0033H14.0019H14.0004H13.9989H13.9975H13.996H13.9945H13.9931H13.9916H13.9901H13.9887H13.9872H13.9857H13.9843H13.9828H13.9813H13.9798H13.9784H13.9769H13.9754H13.974H13.9725H13.971H13.9696H13.9681H13.9666H13.9651H13.9637H13.9622H13.9607H13.9593H13.9578H13.9563H13.9548H13.9534H13.9519H13.9504H13.9489H13.9475H13.946H13.9445H13.943H13.9416H13.9401H13.9386H13.9371H13.9357H13.9342H13.9327H13.9312H13.9298H13.9283H13.9268H13.9253H13.9238H13.9224H13.9209H13.9194H13.9179H13.9164H13.915H13.9135H13.912H13.9105H13.909H13.9076H13.9061H13.9046H13.9031H13.9016H13.9001H13.8987H13.8972H13.8957H13.8942H13.8927H13.8912H13.8897H13.8883H13.8868H13.8853H13.8838H13.8823H13.8808H13.8793H13.8778H13.8764H13.8749H13.8734H13.8719H13.8704H13.8689H13.8674H13.8659H13.8644H13.863H13.8615H13.86H13.8585H13.857H13.8555H13.854H13.8525H13.851H13.8495H13.848H13.8465H13.845H13.8435H13.8421H13.8406H13.8391H13.8376H13.8361H13.8346H13.8331H13.8316H13.8301H13.8286H13.8271H13.8256H13.8241H13.8226H13.8211H13.8196H13.8181H13.8166H13.8151H13.8136H13.8121H13.8106H13.8091H13.8076H13.8061H13.8046H13.8031H13.8016H13.8001H13.7986H13.7971H13.7956H13.7941H13.7938C13.384 3.76609 12.8217 3.05176 12.1379 2.46492C11.4141 1.8438 10.5698 1.37889 9.65797 1.09931C8.74612 0.819736 7.78636 0.73153 6.83883 0.840222C5.8913 0.948913 4.97643 1.25216 4.15158 1.73095C3.32672 2.20974 2.60966 2.85376 2.04534 3.62263C1.48101 4.3915 1.0816 5.26866 0.872117 6.19911C0.662639 7.12957 0.647617 8.09326 0.827993 9.02979C0.99751 9.90994 1.33617 10.7483 1.82463 11.4985C1.07296 12.6282 0.672613 13.9568 0.676388 15.3162C0.655328 16.9065 1.1829 18.4555 2.1703 19.7023C3.15813 20.9497 4.54578 21.8185 6.0994 22.1621C7.65301 22.5057 9.27759 22.3032 10.6993 21.5888C12.0667 20.9016 13.1661 19.7813 13.8277 18.4051L14.3875 4.56752ZM7.60985 20.25L7.60925 20.25C6.30156 20.2481 5.04796 19.7278 4.12328 18.8031C3.19866 17.8785 2.67835 16.625 2.67639 15.3174C2.6769 14.525 2.87213 13.7464 3.24293 13.0495C4.47478 14.0626 6.02231 14.6205 7.62359 14.6225H7.62389H7.63248C7.81892 14.6225 8.01944 14.6225 8.22805 14.6003C8.61074 15.366 9.13207 16.0549 9.76612 16.6316C10.3716 17.1824 11.0692 17.6212 11.8261 17.9284C11.4053 18.5992 10.8289 19.1607 10.1441 19.5641C9.37642 20.0165 8.50092 20.2534 7.60985 20.25ZM7.60925 2.75002C8.5869 2.74861 9.54298 3.03731 10.3565 3.57958C11.1699 4.12185 11.8042 4.8933 12.179 5.79626C12.5538 6.69922 12.6522 7.69308 12.4618 8.65201C12.2714 9.61094 11.8008 10.4918 11.1095 11.1831C10.4182 11.8744 9.53732 12.3451 8.57838 12.5354C7.61945 12.7258 6.62559 12.6274 5.72264 12.2526C4.81968 11.8778 4.04823 11.2436 3.50596 10.4301C2.96369 9.61661 2.67498 8.66053 2.67639 7.68288C2.67828 6.37518 3.1986 5.12159 4.12328 4.19691C5.04796 3.27222 6.30156 2.75191 7.60925 2.75002Z" fill="#8F95B2" stroke="#8F95B2" stroke-width="0.5"/>
</svg>
