<svg width="150" height="151" viewBox="0 0 150 151" fill="none" xmlns="http://www.w3.org/2000/svg">
<path d="M80.401 106.314C83.66 106.314 86.302 103.672 86.302 100.413C86.302 97.1537 83.66 94.5117 80.401 94.5117C77.142 94.5117 74.5 97.1537 74.5 100.413C74.5 103.672 77.142 106.314 80.401 106.314Z" fill="#EBEBEB"/>
<path d="M82.5501 96.9111C82.5641 97.1946 82.4874 97.4752 82.3311 97.7121C82.1723 97.9557 81.9504 98.1517 81.6891 98.2791C81.4204 98.4146 81.1095 98.4404 80.8221 98.3511C80.5487 98.2663 80.3146 98.0865 80.1621 97.8441C80.3729 97.9954 80.6148 98.0979 80.8701 98.1441C80.9901 98.1666 81.1131 98.1666 81.2331 98.1441C81.3526 98.1268 81.4682 98.0892 81.5751 98.0331C81.6321 98.0061 81.6861 97.9761 81.7401 97.9461C81.7941 97.9161 81.8481 97.8771 81.8961 97.8381C81.9956 97.7616 82.0871 97.6752 82.1691 97.5801C82.3374 97.3833 82.4667 97.1563 82.5501 96.9111Z" fill="#C7C7C7"/>
<path d="M80.425 97.2497C80.3997 97.0531 80.4431 96.8538 80.548 96.6857C80.6551 96.5117 80.809 96.3714 80.992 96.2807C81.1842 96.1853 81.4061 96.1692 81.61 96.2357C81.7998 96.301 81.9574 96.4362 82.051 96.6137C81.9016 96.5213 81.7354 96.4591 81.562 96.4307C81.4054 96.4134 81.2471 96.4415 81.106 96.5117C80.7962 96.6658 80.5538 96.9284 80.425 97.2497Z" fill="#C7C7C7"/>
<path d="M80.4001 103.185C80.4725 103.365 80.4778 103.565 80.4151 103.749C80.3509 103.938 80.2319 104.104 80.0731 104.226C79.9915 104.289 79.8979 104.336 79.798 104.363C79.698 104.39 79.5936 104.396 79.4911 104.382C79.2983 104.356 79.1218 104.26 78.9961 104.112C79.1584 104.165 79.3293 104.189 79.5001 104.181C79.6518 104.17 79.7969 104.115 79.9171 104.022C80.0396 103.925 80.1415 103.804 80.2171 103.668C80.3063 103.519 80.3683 103.355 80.4001 103.185Z" fill="#C7C7C7"/>
<path d="M79.1769 103.855C79.1445 103.795 79.1244 103.729 79.1177 103.661C79.111 103.593 79.1179 103.525 79.1379 103.459C79.1774 103.322 79.2606 103.201 79.3749 103.114C79.434 103.068 79.5022 103.034 79.575 103.016C79.6479 102.997 79.7238 102.994 79.7979 103.006C79.8653 103.019 79.9295 103.044 79.9867 103.082C80.0439 103.12 80.093 103.168 80.1309 103.225C80.0173 103.203 79.901 103.198 79.7859 103.21C79.6926 103.222 79.6044 103.26 79.5309 103.318C79.3579 103.454 79.2337 103.643 79.1769 103.855Z" fill="#C7C7C7"/>
<path d="M78.2727 97.877C78.3248 97.9254 78.3664 97.9839 78.3953 98.0488C78.4242 98.1138 78.4396 98.1839 78.4407 98.255C78.4418 98.3321 78.4275 98.4087 78.3986 98.4803C78.3698 98.5519 78.327 98.6171 78.2727 98.672C78.2172 98.7285 78.1492 98.7713 78.0742 98.7968C77.9992 98.8223 77.9192 98.8299 77.8407 98.819C77.6997 98.8057 77.568 98.743 77.4688 98.642C77.5922 98.6454 77.7158 98.6374 77.8377 98.618C77.9327 98.6028 78.0207 98.5588 78.0897 98.492C78.1607 98.42 78.2123 98.3312 78.2397 98.234C78.2701 98.1175 78.2813 97.997 78.2727 97.877Z" fill="#C7C7C7"/>
<path d="M77.5399 98.45C77.497 98.4207 77.4615 98.3819 77.436 98.3366C77.4105 98.2914 77.3958 98.2409 77.3929 98.189C77.3907 98.1336 77.3999 98.0784 77.42 98.0268C77.4402 97.9752 77.4708 97.9283 77.5099 97.889C77.551 97.8471 77.6018 97.8159 77.6577 97.7982C77.7137 97.7804 77.7731 97.7766 77.8309 97.787C77.8815 97.7939 77.9303 97.8111 77.9741 97.8374C78.0179 97.8637 78.056 97.8986 78.0859 97.94C78.0019 97.95 77.9186 97.966 77.8369 97.988C77.7819 98.0018 77.732 98.031 77.6929 98.072C77.6495 98.1143 77.6158 98.1655 77.5939 98.222C77.5656 98.2952 77.5475 98.3719 77.5399 98.45Z" fill="#C7C7C7"/>
<path d="M82.3732 104.096C82.339 104.158 82.2924 104.213 82.2361 104.257C82.1799 104.301 82.1153 104.333 82.0462 104.351C81.9722 104.373 81.8943 104.38 81.8174 104.371C81.7406 104.363 81.6663 104.338 81.5992 104.3C81.5308 104.26 81.4725 104.205 81.4288 104.139C81.3851 104.073 81.3572 103.997 81.3472 103.919C81.3286 103.778 81.3582 103.635 81.4312 103.514C81.4561 103.635 81.4943 103.752 81.5452 103.865C81.5808 103.954 81.6452 104.029 81.7282 104.078C81.8142 104.13 81.9125 104.159 82.0132 104.162C82.1361 104.16 82.2579 104.138 82.3732 104.096Z" fill="#C7C7C7"/>
<path d="M81.6406 103.529C81.6582 103.48 81.6868 103.436 81.7243 103.4C81.7618 103.364 81.8071 103.337 81.8566 103.322C81.911 103.304 81.9686 103.298 82.0255 103.304C82.0824 103.31 82.1374 103.329 82.1866 103.358C82.2391 103.389 82.283 103.433 82.3144 103.485C82.3458 103.537 82.3638 103.597 82.3666 103.658C82.3718 103.709 82.3668 103.76 82.3519 103.809C82.337 103.858 82.3124 103.903 82.2796 103.943C82.2476 103.864 82.2115 103.787 82.1716 103.712C82.1439 103.662 82.1036 103.621 82.0546 103.592C82.0024 103.562 81.9456 103.542 81.8866 103.532C81.8052 103.519 81.7224 103.518 81.6406 103.529Z" fill="#C7C7C7"/>
<path d="M84.3971 99.9443C84.409 100.088 84.3637 100.23 84.2711 100.34C84.1682 100.457 84.0241 100.529 83.8691 100.541C83.7898 100.546 83.7105 100.532 83.6373 100.501C83.564 100.471 83.4986 100.424 83.4461 100.364C83.3514 100.259 83.2953 100.125 83.2871 99.9833C83.3791 100.068 83.4796 100.144 83.5871 100.208C83.668 100.261 83.7635 100.288 83.8601 100.283C83.9604 100.276 84.0574 100.244 84.1421 100.19C84.2397 100.123 84.3258 100.039 84.3971 99.9443Z" fill="#C7C7C7"/>
<path d="M83.4695 99.8869C83.455 99.8355 83.4531 99.7814 83.4641 99.7291C83.475 99.6769 83.4985 99.6281 83.5325 99.5869C83.5682 99.5409 83.6136 99.5034 83.6654 99.4769C83.7173 99.4505 83.7743 99.4358 83.8325 99.4339C83.8899 99.4315 83.947 99.4428 83.9991 99.4668C84.0513 99.4908 84.097 99.5268 84.1325 99.5719C84.1653 99.6106 84.19 99.6555 84.2049 99.704C84.2199 99.7525 84.2248 99.8035 84.2195 99.8539C84.1503 99.8048 84.077 99.7617 84.0005 99.7249C83.9507 99.6989 83.8945 99.6875 83.8385 99.6919C83.778 99.6948 83.7188 99.7101 83.6645 99.7369C83.5935 99.7785 83.528 99.8289 83.4695 99.8869Z" fill="#C7C7C7"/>
<path d="M76.5787 101.282C76.5852 101.353 76.5774 101.424 76.5557 101.492C76.5341 101.559 76.4991 101.622 76.4527 101.675C76.4027 101.734 76.3414 101.782 76.2723 101.817C76.2032 101.851 76.1278 101.872 76.0508 101.876C75.9714 101.881 75.8919 101.868 75.8185 101.837C75.7451 101.807 75.6798 101.759 75.6277 101.699C75.5339 101.595 75.4779 101.461 75.4688 101.321C75.5613 101.406 75.6618 101.481 75.7687 101.546C75.8498 101.599 75.9454 101.624 76.0418 101.618C76.1418 101.612 76.2387 101.581 76.3238 101.528C76.4214 101.46 76.5075 101.377 76.5787 101.282Z" fill="#C7C7C7"/>
<path d="M75.6506 101.222C75.6365 101.17 75.6349 101.116 75.6458 101.064C75.6568 101.012 75.68 100.963 75.7136 100.922C75.7498 100.877 75.7953 100.839 75.847 100.813C75.8988 100.787 75.9555 100.772 76.0136 100.769C76.0706 100.766 76.1275 100.777 76.1796 100.801C76.2317 100.824 76.2776 100.86 76.3136 100.904C76.3461 100.943 76.3705 100.988 76.3855 101.036C76.4004 101.085 76.4055 101.135 76.4006 101.186C76.3306 101.139 76.2574 101.097 76.1816 101.06C76.132 101.033 76.0759 101.02 76.0195 101.024C75.9602 101.028 75.9022 101.043 75.8486 101.069C75.7757 101.11 75.7091 101.162 75.6506 101.222Z" fill="#C7C7C7"/>
<g opacity="0.4">
<path d="M14.527 78.4761C14.5173 80.7534 14.9524 83.0107 15.808 85.1211C16.675 87.2001 18.046 89.0421 19.822 90.2001C20.2551 90.4872 20.7129 90.7352 21.19 90.9411C21.6588 91.1348 22.145 91.2835 22.642 91.3851C23.6105 91.5849 24.6081 91.5991 25.582 91.4271C27.514 91.0941 29.296 90.1371 30.874 88.8771C30.97 88.7961 31.078 88.7151 31.174 88.6401L31.396 88.4271C31.54 88.2771 31.696 88.1271 31.822 87.9681C32.1099 87.6401 32.3717 87.2901 32.605 86.9211C33.1154 86.1234 33.5522 85.281 33.91 84.4041C34.6884 82.4694 35.3271 80.4813 35.821 78.4551C36.892 74.2551 37.744 69.8061 38.758 65.2881C39.01 64.1561 39.279 63.0201 39.565 61.8801C39.841 60.7371 40.147 59.5911 40.465 58.4361C41.1115 56.0339 41.942 53.6849 42.949 51.4101C43.225 50.8101 43.528 50.2101 43.8879 49.5891C44.0649 49.2891 44.2659 48.9681 44.4879 48.6621C44.7099 48.3561 44.9259 48.0621 45.163 47.7951C46.0704 46.7394 47.1217 45.8164 48.2859 45.0531C50.4879 43.5741 52.75 42.6531 54.922 41.7171C57.094 40.7811 59.236 39.9171 61.2609 38.8821C63.2657 37.8763 65.1506 36.6475 66.8799 35.2191C68.5531 33.8171 69.9798 32.145 71.101 30.2721C72.2049 28.4151 73.009 26.3901 73.24 24.4191C73.366 23.4793 73.3529 22.5261 73.201 21.5901C73.0564 20.7533 72.7507 19.9525 72.3009 19.2321C71.8983 18.5954 71.3687 18.0486 70.7451 17.6258C70.1215 17.2031 69.4175 16.9135 68.6769 16.7751C67.9211 16.6275 67.147 16.5971 66.382 16.6851C65.5605 16.7868 64.7546 16.9883 63.982 17.2851C63.781 17.3601 63.583 17.4441 63.382 17.5281L62.674 17.8281C62.206 18.0381 61.7409 18.2571 61.2879 18.4911C60.3879 18.9561 59.488 19.4571 58.615 20.0181C56.866 21.1251 55.147 22.4661 53.233 23.9181C51.226 25.4624 49.1083 26.8572 46.897 28.0911C44.5917 29.3228 42.1737 30.3304 39.676 31.1001C39.376 31.2021 39.058 31.2831 38.749 31.3731L37.918 31.6101C37.459 31.7451 36.994 31.8921 36.532 32.0511C35.611 32.3751 34.699 32.7441 33.811 33.1551C30.262 34.8111 27.16 37.1331 24.952 40.1511C23.8099 41.69 22.8655 43.3661 22.141 45.1401C21.7511 46.068 21.4215 47.0199 21.154 47.9901C20.8662 48.995 20.6319 50.0144 20.452 51.0441C20.272 52.0911 20.131 53.1651 20.044 54.2571C19.999 54.7701 19.966 55.4391 19.924 56.0571C19.882 56.6751 19.819 57.2901 19.747 57.9021C19.4602 60.3221 19.004 62.719 18.382 65.0751C17.782 67.4061 17.038 69.6621 16.282 71.8791C15.901 72.9891 15.52 74.0901 15.181 75.1791C14.8159 76.2438 14.5959 77.3527 14.527 78.4761ZM13.627 78.4761C13.6301 77.8626 13.6924 77.2507 13.813 76.6491C13.918 76.0491 14.056 75.4821 14.191 74.9121C14.461 73.7691 14.752 72.6411 14.992 71.5071C15.232 70.3731 15.445 69.2421 15.592 68.1051C15.739 66.9681 15.835 65.8281 15.892 64.6911C15.9732 62.4373 15.8285 60.1811 15.46 57.9561C15.376 57.4041 15.268 56.8581 15.16 56.3151C15.052 55.7721 14.923 55.2681 14.797 54.6231C14.5406 53.3805 14.3533 52.1245 14.236 50.8611C13.9814 48.2352 14.1036 45.5864 14.599 42.9951C15.1261 40.2867 16.1123 37.6883 17.515 35.3121C18.9519 32.9289 20.7504 30.7833 22.846 28.9521C24.9003 27.1532 27.1879 25.6395 29.647 24.4521C30.8568 23.8591 32.1034 23.344 33.379 22.9101C34.015 22.6851 34.663 22.4901 35.323 22.3101L36.925 21.8811C38.8919 21.3446 40.8098 20.6421 42.658 19.7811C44.5755 18.866 46.427 17.8185 48.199 16.6461C50.104 15.4461 52.165 14.0451 54.451 12.8301C55.5977 12.2132 56.7764 11.6574 57.982 11.1651C58.582 10.9161 59.1819 10.6911 59.812 10.4751L60.736 10.1751C61.0869 10.0701 61.441 9.96812 61.798 9.87512C63.2616 9.5032 64.7706 9.34058 66.2799 9.39212C67.8469 9.44182 69.3931 9.76467 70.849 10.3461C72.335 10.9439 73.685 11.8357 74.818 12.9681C75.9368 14.085 76.8041 15.4279 77.3619 16.9071C77.886 18.3059 78.1435 19.7905 78.1209 21.2841C78.1052 22.6753 77.887 24.0568 77.4729 25.3851C76.6702 27.8358 75.4469 30.128 73.858 32.1591C73.1036 33.1498 72.2827 34.088 71.401 34.9671C70.5241 35.8305 69.5975 36.6418 68.6259 37.3971C64.7589 40.3971 60.367 42.3891 56.398 44.7081C54.418 45.8541 52.531 47.1081 51.1 48.5541C50.4293 49.2289 49.8595 49.9968 49.408 50.8341C49.306 51.0341 49.213 51.2341 49.1289 51.4341C49.048 51.6291 48.973 51.8271 48.898 52.0341C48.751 52.4661 48.616 52.9341 48.493 53.4321C48.25 54.4191 48.061 55.4841 47.893 56.5701C47.725 57.6561 47.575 58.7691 47.422 59.8911L46.978 63.2931C46.8279 64.4361 46.678 65.5881 46.498 66.7461C45.79 71.3661 44.89 76.0791 43.198 80.7711C42.3459 83.2099 41.208 85.5391 39.808 87.7101C39.427 88.2681 39.031 88.8201 38.59 89.3601C38.1482 89.9132 37.669 90.4354 37.156 90.9231C36.6272 91.4335 36.0595 91.9019 35.458 92.3241C35.151 92.5411 34.8325 92.7414 34.504 92.9241L34 93.1941C33.838 93.2781 33.7 93.3381 33.541 93.4101C32.323 93.9757 31.0477 94.4082 29.737 94.7001C28.4034 94.9949 27.0343 95.0959 25.672 95.0001C24.3172 94.9036 22.9895 94.5727 21.748 94.0221C21.1415 93.7529 20.5611 93.4285 20.014 93.0531C19.4814 92.689 18.9797 92.2816 18.514 91.8351C16.7522 90.0796 15.4525 87.9152 14.731 85.5351C14.0203 83.2569 13.6484 80.8865 13.627 78.5001V78.4761Z" fill="#EBEBEB"/>
<path d="M52.2955 88.5108C53.5367 86.1426 54.4597 83.6208 55.0405 81.0108C55.6675 78.4098 56.0665 75.7548 56.4565 73.0698C56.6635 71.7288 56.8495 70.3698 57.0955 69.0108C57.3253 67.613 57.6358 66.2297 58.0255 64.8678C58.4389 63.3998 59.0335 61.989 59.7955 60.6678C60.677 59.1615 61.8871 57.8736 63.3355 56.8998C63.7225 56.6448 64.1395 56.4318 64.5355 56.2038C64.9315 55.9758 65.3935 55.8318 65.8315 55.6608C66.2695 55.4898 66.7315 55.3908 67.1695 55.2768C67.6075 55.1628 68.0695 55.1118 68.5165 55.0368C70.2397 54.8079 71.987 54.8311 73.7035 55.1058C75.3869 55.374 77.0312 55.8476 78.5995 56.5158C80.0684 57.1508 81.4823 57.9064 82.8265 58.7748C85.2672 60.3914 87.5873 62.1831 89.7685 64.1358L92.8405 66.8358C93.3415 67.2768 93.8485 67.6968 94.3405 68.1198L95.0875 68.7468L95.8345 69.3468C96.8052 70.1242 97.8145 70.8521 98.8585 71.5278C99.8452 72.1729 100.885 72.7329 101.966 73.2018C103.116 73.6711 104.305 74.0386 105.518 74.2998C106.784 74.5998 108.104 74.8218 109.457 75.0198C112.157 75.4188 114.977 75.6708 117.83 76.0008L119.975 76.2678C120.698 76.3728 121.415 76.4808 122.141 76.6128C123.615 76.8593 125.067 77.2184 126.485 77.6868C127.969 78.1665 129.367 78.8805 130.625 79.8018C131.898 80.7559 132.936 81.987 133.661 83.4018C134.008 84.0851 134.288 84.8004 134.495 85.5378L134.765 86.6268C134.84 86.9868 134.888 87.3348 134.951 87.6918C135.163 89.1185 135.244 90.5614 135.194 92.0028C135.122 93.454 134.909 94.8948 134.558 96.3048C134.462 96.6558 134.39 97.0158 134.276 97.3608L133.94 98.4018C133.682 99.0828 133.421 99.7668 133.112 100.427C131.874 103.088 130.248 105.55 128.285 107.732C127.32 108.833 126.29 109.877 125.201 110.858C124.127 111.857 122.981 112.766 121.817 113.651C121.217 114.077 120.641 114.524 120.032 114.926L119.132 115.544L118.211 116.144C116.973 116.92 115.709 117.65 114.419 118.334C113.774 118.673 113.123 119 112.472 119.33C111.821 119.66 111.155 119.954 110.492 120.251C109.829 120.548 109.163 120.851 108.488 121.118C107.813 121.385 107.144 121.67 106.46 121.919L102.56 123.377C101.924 123.614 101.3 123.869 100.673 124.115L99.7315 124.487L98.7985 124.874C93.8477 126.919 89.0267 129.266 84.3625 131.9C82.0195 133.223 79.6975 134.6 77.1775 135.992C75.9205 136.697 74.5885 137.381 73.1305 138.032C71.5857 138.728 69.9785 139.276 68.3305 139.67C66.5613 140.083 64.7463 140.265 62.9305 140.213C61.2033 140.16 59.4867 139.923 57.8095 139.508C56.9935 139.331 56.2345 139.094 55.4635 138.869C55.0825 138.749 54.7165 138.617 54.3445 138.494C53.9725 138.371 53.6065 138.245 53.2225 138.086L52.0885 137.63L51.5245 137.396L50.9635 137.123C50.2047 136.771 49.4665 136.376 48.7525 135.941C48.3925 135.719 48.0325 135.503 47.6755 135.272L46.6375 134.507L46.1275 134.12C45.9565 133.988 45.8005 133.835 45.6355 133.691L44.6755 132.815C44.3755 132.515 44.0755 132.167 43.7935 131.846L43.3615 131.354C43.2235 131.186 43.1005 131.006 42.9685 130.829C42.7135 130.475 42.4555 130.124 42.2095 129.767C41.9635 129.41 41.7745 129.017 41.5645 128.639C40.7743 127.158 40.213 125.566 39.8995 123.917L39.7765 123.317C39.7435 123.116 39.7225 122.918 39.6985 122.717C39.6505 122.321 39.5995 121.925 39.5665 121.517C39.5226 120.743 39.5175 119.967 39.5515 119.192C39.6193 117.7 39.814 116.217 40.1335 114.758C40.4471 113.355 40.8397 111.971 41.3095 110.612C42.2356 107.98 43.3247 105.408 44.5705 102.911C44.8705 102.296 45.1705 101.672 45.4945 101.066C45.8185 100.46 46.0945 99.8418 46.4335 99.2388C46.7725 98.6358 47.0755 98.0388 47.3995 97.4388L48.3685 95.6388L52.2955 88.5108ZM53.0935 88.9188C51.8095 91.2948 50.6155 93.7188 49.5535 96.1938L49.1575 97.1208L48.7855 98.0568C48.5305 98.6778 48.3055 99.3108 48.0775 99.9408C47.6125 101.198 47.2105 102.476 46.8385 103.757C46.0972 106.286 45.5872 108.878 45.3145 111.5C45.1819 112.768 45.1248 114.044 45.1435 115.319C45.1703 116.539 45.2957 117.755 45.5185 118.955C45.5995 119.555 45.7825 120.098 45.9145 120.656L46.1875 121.457C46.2355 121.589 46.2745 121.721 46.3225 121.85L46.4935 122.228C46.9001 123.198 47.4404 124.107 48.0985 124.928C48.2635 125.126 48.4285 125.318 48.5815 125.528L49.1215 126.068C49.2115 126.158 49.2955 126.254 49.3885 126.338L49.6885 126.581C49.8895 126.74 50.0755 126.911 50.2885 127.067L50.9335 127.511C51.0415 127.586 51.1405 127.667 51.2545 127.733L51.6055 127.934L52.2985 128.339L53.0455 128.696C54.0807 129.187 55.1506 129.601 56.2465 129.935C56.5165 130.031 56.8195 130.112 57.1195 130.193C57.4195 130.274 57.7195 130.364 58.0195 130.436C58.6045 130.565 59.1925 130.721 59.7565 130.808C60.8197 131.016 61.9011 131.117 62.9845 131.108C63.9745 131.093 64.9594 130.961 65.9185 130.715C67.8595 130.22 70.0255 129.164 72.3745 127.907C73.5475 127.286 74.7445 126.626 75.9745 125.957C77.2045 125.288 78.4615 124.637 79.7245 123.983C84.8505 121.369 90.1547 119.12 95.5975 117.254L96.5995 116.9L97.6225 116.564C98.3035 116.342 98.9845 116.111 99.6685 115.901L103.673 114.68C104.948 114.287 106.211 113.87 107.468 113.441L109.337 112.766C109.955 112.529 110.573 112.295 111.188 112.052C112.403 111.548 113.63 111.053 114.812 110.489L115.712 110.075L116.591 109.64C117.191 109.358 117.746 109.04 118.325 108.74C120.596 107.509 122.742 106.06 124.733 104.414C125.705 103.596 126.619 102.711 127.466 101.765C128.311 100.838 129.065 99.8337 129.719 98.7648C131.044 96.6437 131.884 94.2556 132.176 91.7718C132.307 90.5219 132.301 89.2615 132.158 88.0128C132.113 87.7128 132.083 87.3828 132.029 87.0768L131.843 86.1768C131.688 85.6044 131.479 85.048 131.219 84.5148C130.702 83.4598 129.931 82.5497 128.975 81.8658C127.955 81.1582 126.818 80.6371 125.615 80.3268C124.338 79.992 123.032 79.7712 121.715 79.6668C120.377 79.5558 119.015 79.5168 117.635 79.5288C114.881 79.5438 112.073 79.7148 109.178 79.7748C107.726 79.7958 106.25 79.7748 104.732 79.6848C103.157 79.5965 101.593 79.3737 100.055 79.0188C96.7825 78.2178 93.9625 76.7508 91.4095 75.1188C86.3395 71.8368 82.3465 67.9188 78.2905 65.0358C76.2715 63.5988 74.2735 62.4528 72.2155 61.8228C71.1809 61.5056 70.1105 61.3201 69.0295 61.2708C68.0474 61.1838 67.0585 61.3284 66.1425 61.6931C65.2265 62.0579 64.4089 62.6325 63.7555 63.3708C62.9403 64.254 62.2416 65.238 61.6765 66.2988C61.0633 67.4337 60.5154 68.6026 60.0355 69.7998C59.5525 71.0328 59.0935 72.2958 58.6765 73.5738C57.8185 76.1298 57.0655 78.7428 56.2045 81.3258C55.3883 83.9409 54.3495 86.4812 53.0995 88.9188H53.0935Z" fill="#EBEBEB"/>
<path d="M135.815 27.4644C135.438 28.2721 135.006 29.0529 134.522 29.8014C134.3 30.1614 134.066 30.5004 133.832 30.8424C133.598 31.1844 133.352 31.5054 133.106 31.8204C132.62 32.4624 132.11 33.0534 131.606 33.6444C129.548 35.9694 127.307 37.9644 125.111 39.9444L124.334 40.6494L123.992 40.9494L123.659 41.3004C123.434 41.5254 123.236 41.7834 123.026 42.0294C122.816 42.2754 122.63 42.5574 122.426 42.8334C122.222 43.1094 122.048 43.3914 121.874 43.6914C121.7 43.9914 121.523 44.2914 121.358 44.5914C121.037 45.1914 120.71 45.8424 120.425 46.4964C119.225 49.1184 118.325 51.9354 116.942 54.7584C116.218 56.2606 115.259 57.6378 114.101 58.8384C113.468 59.4735 112.763 60.0332 112.001 60.5064C111.613 60.744 111.213 60.9603 110.801 61.1544C110.594 61.2504 110.387 61.3524 110.177 61.4364L109.541 61.6734C108.696 61.9658 107.827 62.1846 106.943 62.3274C106.499 62.4084 106.019 62.4324 105.548 62.4744C105.077 62.5164 104.618 62.4744 104.147 62.4744C103.676 62.4744 103.247 62.3934 102.77 62.3424C102.546 62.3156 102.322 62.2776 102.101 62.2284L101.435 62.0934L101.102 62.0214L100.781 61.9284L100.139 61.7364C99.7149 61.6147 99.2982 61.4674 98.8914 61.2954C97.2997 60.6594 95.7948 59.8248 94.4124 58.8114C93.0802 57.8236 91.851 56.7039 90.7434 55.4694C89.6638 54.2458 88.711 52.9161 87.8994 51.5004C87.6984 51.1464 87.5064 50.7894 87.3174 50.4354C87.1284 50.0814 86.9694 49.7004 86.7984 49.3344C86.6274 48.9684 86.4714 48.5964 86.3274 48.2184C86.1834 47.8404 86.0274 47.4714 85.9074 47.0814C85.3905 45.5606 84.9972 44.0005 84.7314 42.4164C84.4616 40.8605 84.3172 39.2855 84.2994 37.7064C84.2698 36.1639 84.3864 34.622 84.6474 33.1014C84.9055 31.5999 85.3826 30.1444 86.0634 28.7814C86.7827 27.3997 87.809 26.201 89.0634 25.2774C90.3411 24.3624 91.7381 23.6265 93.2154 23.0904C96.1648 22.0235 99.2157 21.2615 102.32 20.8164C103.853 20.5824 105.377 20.4264 106.886 20.3304C107.033 20.3239 107.178 20.3048 107.321 20.2734L107.672 20.2104C107.912 20.1384 108.14 20.1174 108.377 20.0334L108.725 19.9344C108.842 19.8924 108.959 19.8444 109.076 19.8114C109.31 19.7484 109.556 19.6254 109.793 19.5504C110.876 19.1092 111.93 18.6012 112.949 18.0294L114.728 17.0304L115.679 16.4934L116.699 15.9564C117.377 15.5844 118.136 15.2274 118.916 14.8734C119.763 14.5034 120.633 14.1878 121.52 13.9284C122.521 13.6354 123.55 13.4484 124.589 13.3704C125.724 13.2836 126.866 13.3522 127.982 13.5744L128.408 13.6554L128.822 13.7664C129.095 13.8444 129.374 13.9194 129.647 14.0064C130.171 14.1907 130.683 14.4071 131.18 14.6544L131.903 15.0294L132.566 15.4404C132.995 15.7184 133.409 16.0188 133.805 16.3404C133.91 16.4184 133.991 16.4784 134.105 16.5774C134.219 16.6764 134.405 16.8414 134.558 16.9794C134.87 17.2604 135.156 17.5686 135.413 17.9004C135.476 17.9814 135.545 18.0654 135.608 18.1524L135.791 18.4314C135.908 18.6204 136.019 18.8064 136.13 18.9984C136.329 19.3852 136.499 19.7863 136.637 20.1984C136.697 20.4024 136.751 20.6034 136.802 20.7984C136.829 20.9004 136.853 21.0054 136.871 21.0984L136.919 21.3984C136.946 21.5904 136.967 21.7854 136.988 21.9804C137.009 22.1754 137.003 22.3434 137.009 22.5264C137.015 22.7094 137.009 22.8894 137.009 23.0634L136.967 23.5554C136.949 23.7144 136.937 23.8884 136.91 24.0384L136.823 24.5004C136.604 25.5242 136.265 26.5189 135.815 27.4644Z" fill="#EBEBEB"/>
<path d="M36.8645 106.805C37.0123 107.663 37.0736 108.533 37.0475 109.403C36.9817 110.99 36.7094 112.561 36.2375 114.077C35.8294 115.556 35.3088 117.001 34.6805 118.4C34.0419 119.806 33.236 121.129 32.2805 122.342C31.2819 123.604 30.1197 124.727 28.8245 125.681C27.3725 126.698 25.7033 127.363 23.9495 127.622C23.0197 127.761 22.076 127.78 21.1415 127.679C20.2387 127.578 19.3566 127.341 18.5255 126.974C17.7881 126.643 17.0981 126.215 16.4735 125.702C15.9146 125.235 15.3847 124.734 14.8865 124.202C14.6286 123.924 14.3966 123.623 14.1935 123.302C14.0022 122.966 13.8387 122.615 13.7045 122.252C13.4528 121.503 13.2779 120.73 13.1825 119.945C12.9588 118.314 12.9407 116.661 13.1285 115.025C13.3068 113.454 13.8182 111.94 14.6285 110.582C15.4124 109.295 16.4469 108.179 17.6705 107.3C18.9333 106.443 20.2927 105.739 21.7205 105.2C23.1425 104.636 24.5195 104.105 25.8275 103.487C27.1355 102.869 28.4015 102.182 29.9945 101.687C30.4197 101.553 30.8566 101.458 31.2995 101.405C31.8158 101.336 32.3395 101.344 32.8535 101.429C33.543 101.562 34.1861 101.872 34.7195 102.329C34.852 102.445 34.9782 102.568 35.0975 102.698C35.2085 102.824 35.3195 102.953 35.4245 103.088C35.6086 103.338 35.774 103.6 35.9195 103.874C36.0542 104.125 36.1744 104.383 36.2795 104.648C36.3695 104.888 36.4715 105.152 36.5345 105.383L36.6395 105.746L36.7265 106.097C36.7835 106.352 36.8225 106.574 36.8645 106.805Z" fill="#EBEBEB"/>
</g>
<g opacity="0.4">
<path d="M121.604 56.4437C128.657 50.9657 135.752 52.0307 135.752 52.0307C135.752 52.0307 135.785 59.2067 129.347 65.3957C123.914 70.6187 118.757 70.3217 116.978 68.2697C115.199 66.2177 115.652 61.0637 121.604 56.4437Z" fill="#EBEBEB"/>
<path d="M120.821 59.9871C125.291 56.5131 129.788 57.1911 129.788 57.1911C129.788 57.1911 129.809 61.7361 125.729 65.6631C122.285 68.9631 119.012 68.7861 117.887 67.4841C116.762 66.1821 117.047 62.9151 120.821 59.9871Z" fill="white"/>
</g>
<path d="M124.061 61.8619L123.527 61.4359C123.49 61.407 123.46 61.3712 123.437 61.3305C123.415 61.2898 123.4 61.245 123.395 61.1988C123.39 61.1525 123.393 61.1057 123.406 61.0609C123.419 61.0162 123.441 60.9744 123.47 60.938C123.499 60.9017 123.535 60.8715 123.576 60.8492C123.616 60.8268 123.661 60.8127 123.707 60.8077C123.754 60.8027 123.801 60.8069 123.845 60.8199C123.89 60.833 123.931 60.8548 123.968 60.8839L124.502 61.3099C124.538 61.3388 124.568 61.3746 124.59 61.4151C124.613 61.4556 124.627 61.5002 124.632 61.5462C124.637 61.5922 124.633 61.6388 124.62 61.6832C124.606 61.7276 124.585 61.769 124.556 61.805C124.527 61.8413 124.491 61.8717 124.451 61.8943C124.411 61.9169 124.366 61.9312 124.32 61.9365C124.274 61.9418 124.227 61.938 124.183 61.9252C124.138 61.9124 124.097 61.8909 124.061 61.8619Z" fill="#EBEBEB"/>
<path d="M118.039 67.3552L117.667 66.7822C117.616 66.7037 117.598 66.6083 117.617 66.5166C117.636 66.425 117.691 66.3446 117.769 66.2932C117.808 66.2674 117.851 66.2496 117.897 66.2408C117.943 66.2319 117.99 66.2323 118.036 66.2417C118.082 66.2512 118.125 66.2697 118.164 66.296C118.202 66.3223 118.235 66.356 118.261 66.3952L118.633 66.9682C118.684 67.047 118.701 67.1427 118.681 67.2344C118.662 67.3261 118.606 67.4062 118.528 67.4572C118.449 67.5083 118.354 67.5262 118.262 67.5071C118.171 67.488 118.09 67.4334 118.039 67.3552Z" fill="#EBEBEB"/>
<path d="M121.553 60.7736H121.184C121.138 60.7721 121.092 60.7614 121.049 60.7422C121.007 60.7229 120.969 60.6955 120.937 60.6615C120.905 60.6275 120.881 60.5876 120.864 60.5441C120.848 60.5005 120.84 60.4541 120.842 60.4076C120.844 60.3611 120.854 60.3154 120.873 60.273C120.893 60.2307 120.92 60.1925 120.954 60.1608C120.988 60.129 121.028 60.1043 121.072 60.0879C121.115 60.0716 121.162 60.064 121.208 60.0656H121.574C121.62 60.0668 121.666 60.0771 121.708 60.096C121.751 60.115 121.789 60.1421 121.821 60.1758C121.852 60.2096 121.877 60.2493 121.894 60.2927C121.91 60.3361 121.918 60.3823 121.916 60.4286C121.915 60.4751 121.905 60.5209 121.886 60.5634C121.867 60.6059 121.84 60.6443 121.806 60.6764C121.772 60.7084 121.733 60.7335 121.689 60.7502C121.646 60.7669 121.599 60.7748 121.553 60.7736Z" fill="#EBEBEB"/>
<path d="M124.949 65.2102V64.8442C124.951 64.7978 124.961 64.7521 124.98 64.7098C124.999 64.6675 125.026 64.6293 125.06 64.5975C125.093 64.5657 125.133 64.5409 125.176 64.5245C125.22 64.5082 125.266 64.5006 125.312 64.5022C125.359 64.5033 125.405 64.5136 125.447 64.5325C125.49 64.5514 125.528 64.5785 125.56 64.6122C125.592 64.6459 125.617 64.6856 125.634 64.729C125.651 64.7724 125.659 64.8187 125.657 64.8652V65.2342C125.656 65.2805 125.646 65.3262 125.627 65.3685C125.608 65.4109 125.581 65.449 125.547 65.4808C125.513 65.5126 125.474 65.5374 125.43 65.5538C125.387 65.5702 125.341 65.5778 125.294 65.5762C125.248 65.575 125.202 65.5646 125.159 65.5455C125.116 65.5265 125.078 65.4991 125.046 65.4651C125.014 65.4311 124.989 65.391 124.972 65.3473C124.956 65.3035 124.948 65.2569 124.949 65.2102Z" fill="#EBEBEB"/>
<path d="M117.128 65.3176L117.086 64.9546C117.076 64.8631 117.101 64.771 117.157 64.6978C117.213 64.6245 117.295 64.5758 117.386 64.5616C117.48 64.5515 117.574 64.579 117.648 64.638C117.721 64.697 117.769 64.7828 117.779 64.8766L117.818 65.2396C117.829 65.331 117.804 65.423 117.748 65.496C117.692 65.5689 117.609 65.6169 117.518 65.6296C117.472 65.635 117.425 65.6312 117.381 65.6185C117.336 65.6057 117.294 65.5841 117.258 65.5551C117.222 65.5261 117.192 65.4901 117.169 65.4494C117.147 65.4086 117.133 65.3638 117.128 65.3176Z" fill="#EBEBEB"/>
<path d="M123.083 68.5158L122.741 68.6508C122.698 68.6678 122.652 68.6761 122.605 68.6751C122.559 68.6742 122.513 68.6642 122.47 68.6455C122.427 68.6268 122.389 68.5999 122.357 68.5663C122.324 68.5328 122.299 68.4932 122.282 68.4498C122.265 68.4065 122.257 68.3602 122.258 68.3137C122.259 68.2671 122.269 68.2213 122.288 68.1786C122.306 68.136 122.333 68.0975 122.367 68.0652C122.4 68.033 122.44 68.0077 122.483 67.9908L122.825 67.8588C122.912 67.8243 123.01 67.8258 123.096 67.8629C123.182 67.9001 123.249 67.9698 123.284 68.0568C123.302 68.1001 123.31 68.1464 123.31 68.1931C123.309 68.2397 123.299 68.2858 123.28 68.3285C123.261 68.3712 123.234 68.4098 123.2 68.442C123.167 68.4741 123.127 68.4992 123.083 68.5158Z" fill="#EBEBEB"/>
<path d="M121.852 68.5493C124.094 68.2991 125.707 66.2796 125.457 64.0385C125.207 61.7974 123.188 60.1835 120.946 60.4337C118.705 60.6839 117.091 62.7035 117.342 64.9445C117.592 67.1856 119.611 68.7995 121.852 68.5493Z" fill="#EBEBEB"/>
<path d="M119.652 62.2578C119.663 62.4543 119.738 62.6419 119.865 62.7918C119.992 62.9475 120.159 63.0658 120.348 63.1338C120.543 63.2052 120.758 63.1987 120.948 63.1158C121.129 63.0359 121.276 62.8945 121.362 62.7168C121.23 62.84 121.072 62.9323 120.9 62.9868C120.82 63.0104 120.735 63.0196 120.651 63.0138C120.567 63.0112 120.484 62.995 120.405 62.9658L120.285 62.9178C120.246 62.8968 120.207 62.8788 120.171 62.8548C120.097 62.8099 120.028 62.7576 119.964 62.6988C119.832 62.5742 119.726 62.4243 119.652 62.2578Z" fill="#C7C7C7"/>
<path d="M121.136 62.3301C121.138 62.192 121.092 62.0575 121.007 61.9491C120.92 61.8376 120.804 61.7533 120.671 61.7061C120.538 61.6552 120.39 61.6581 120.259 61.7141C120.128 61.7701 120.024 61.8748 119.969 62.0061C120.065 61.9307 120.175 61.8756 120.293 61.8441C120.398 61.8183 120.509 61.8246 120.611 61.8621C120.838 61.9466 121.026 62.1137 121.136 62.3301Z" fill="#C7C7C7"/>
<path d="M122.828 64.9609C122.791 65.0906 122.803 65.2293 122.861 65.3509C122.917 65.4769 123.011 65.5819 123.131 65.6509C123.191 65.689 123.259 65.7143 123.33 65.7251C123.4 65.736 123.473 65.7322 123.542 65.7139C123.673 65.6815 123.788 65.6013 123.863 65.4889C123.755 65.5387 123.639 65.5691 123.521 65.5789C123.415 65.5819 123.311 65.5538 123.221 65.4979C123.126 65.4434 123.043 65.3699 122.978 65.2819C122.908 65.1851 122.858 65.0763 122.828 64.9609Z" fill="#C7C7C7"/>
<path d="M123.718 65.3273C123.736 65.2842 123.746 65.2378 123.746 65.1908C123.746 65.1439 123.736 65.0974 123.718 65.0543C123.68 64.9625 123.614 64.8855 123.529 64.8353C123.484 64.808 123.435 64.7902 123.383 64.7829C123.331 64.7757 123.279 64.7792 123.229 64.7933C123.183 64.8068 123.141 64.8295 123.104 64.8599C123.067 64.8903 123.037 64.9279 123.016 64.9703C123.092 64.9454 123.172 64.9322 123.253 64.9313C123.317 64.9347 123.38 64.9543 123.436 64.9883C123.564 65.0676 123.663 65.1866 123.718 65.3273Z" fill="#C7C7C7"/>
<path d="M124.178 63.8965C124.146 63.9338 124.122 63.9772 124.107 64.0241C124.092 64.071 124.087 64.1205 124.091 64.1695C124.096 64.2225 124.112 64.2741 124.137 64.321C124.162 64.3679 124.197 64.4092 124.238 64.4425C124.28 64.4756 124.329 64.499 124.381 64.511C124.433 64.5229 124.486 64.5231 124.538 64.5115C124.633 64.4908 124.718 64.4377 124.778 64.3615C124.695 64.3685 124.61 64.3685 124.526 64.3615C124.458 64.3602 124.393 64.3359 124.34 64.2925C124.287 64.2488 124.245 64.192 124.22 64.1275C124.194 64.0533 124.18 63.9753 124.178 63.8965Z" fill="#C7C7C7"/>
<path d="M124.725 64.2319C124.752 64.2094 124.774 64.1805 124.789 64.1475C124.803 64.1145 124.809 64.0786 124.806 64.0429C124.804 64.0033 124.794 63.9645 124.776 63.9292C124.758 63.8939 124.732 63.8631 124.701 63.8389C124.669 63.8129 124.632 63.795 124.593 63.7866C124.553 63.7782 124.512 63.7797 124.473 63.7909C124.438 63.7997 124.406 63.8154 124.378 63.8371C124.351 63.8588 124.327 63.8859 124.311 63.9169C124.369 63.918 124.427 63.923 124.485 63.9319C124.523 63.9378 124.559 63.9532 124.59 63.9769C124.622 64.0034 124.65 64.036 124.671 64.0729C124.695 64.1234 124.713 64.1768 124.725 64.2319Z" fill="#C7C7C7"/>
<path d="M118.482 63.3168C118.483 63.3664 118.494 63.4153 118.514 63.4607C118.534 63.506 118.563 63.5469 118.599 63.5808C118.639 63.618 118.687 63.6466 118.738 63.6647C118.79 63.6828 118.845 63.6899 118.899 63.6858C118.954 63.6833 119.008 63.6683 119.055 63.6417C119.103 63.6152 119.144 63.5779 119.175 63.5328C119.231 63.4532 119.259 63.357 119.253 63.2598C119.199 63.324 119.139 63.3833 119.073 63.4368C119.021 63.478 118.957 63.503 118.89 63.5088C118.821 63.5123 118.752 63.4978 118.689 63.4668C118.613 63.4283 118.543 63.3776 118.482 63.3168Z" fill="#C7C7C7"/>
<path d="M119.113 63.2002C119.118 63.1648 119.115 63.1288 119.103 63.0949C119.092 63.0611 119.073 63.0304 119.047 63.0052C119.02 62.9769 118.987 62.9548 118.95 62.9403C118.913 62.9259 118.874 62.9193 118.834 62.9212C118.796 62.9233 118.759 62.9337 118.726 62.9515C118.693 62.9694 118.663 62.9943 118.641 63.0246C118.618 63.0548 118.602 63.0897 118.594 63.1268C118.586 63.1639 118.586 63.2022 118.594 63.2392C118.648 63.1972 118.69 63.1612 118.732 63.1342C118.766 63.1145 118.804 63.1022 118.843 63.0982C118.885 63.0965 118.927 63.1037 118.966 63.1192C119.019 63.1392 119.068 63.1665 119.113 63.2002Z" fill="#C7C7C7"/>
<path d="M121.069 65.8197C120.915 65.9097 120.739 65.9523 120.561 65.9421C120.384 65.9319 120.213 65.8693 120.071 65.7623C119.929 65.6553 119.822 65.5086 119.763 65.3408C119.705 65.1729 119.697 64.9915 119.741 64.8193C119.786 64.6471 119.88 64.4919 120.012 64.3733C120.145 64.2546 120.309 64.1778 120.485 64.1526C120.661 64.1274 120.841 64.1549 121.001 64.2316C121.162 64.3084 121.296 64.4309 121.387 64.5837C121.447 64.6856 121.487 64.7986 121.504 64.916C121.521 65.0334 121.514 65.1529 121.485 65.2678C121.455 65.3827 121.403 65.4906 121.332 65.5853C121.26 65.68 121.171 65.7596 121.069 65.8197Z" fill="#DBDBDB"/>
<path d="M120.141 64.6638C120.031 64.7291 119.937 64.8197 119.867 64.9281C119.798 65.0365 119.755 65.1597 119.742 65.2878C119.702 65.1424 119.698 64.9891 119.732 64.8419C119.766 64.6948 119.837 64.5586 119.937 64.4458C120.037 64.3331 120.165 64.2474 120.307 64.1967C120.449 64.146 120.602 64.132 120.751 64.1558C120.9 64.1797 121.041 64.2406 121.16 64.3331C121.28 64.4256 121.374 64.5467 121.434 64.6851C121.494 64.8236 121.519 64.975 121.505 65.1254C121.492 65.2758 121.441 65.4204 121.356 65.5458C121.388 65.3922 121.375 65.2327 121.319 65.0862C121.263 64.9398 121.166 64.8125 121.04 64.7196C120.913 64.6267 120.763 64.5721 120.606 64.5622C120.45 64.5523 120.294 64.5875 120.156 64.6638H120.141Z" fill="#C7C7C7"/>
<path d="M119.4 65.3301C119.423 65.5688 119.519 65.7949 119.673 65.9781C119.833 66.1659 120.04 66.3078 120.273 66.3891C120.509 66.482 120.77 66.482 121.005 66.3891C121.22 66.2857 121.394 66.1136 121.5 65.9001C121.343 66.0601 121.15 66.1795 120.936 66.2481C120.885 66.2643 120.833 66.2764 120.78 66.2841C120.728 66.2901 120.674 66.2901 120.621 66.2841C120.519 66.2808 120.417 66.2606 120.321 66.2241L120.171 66.1641C120.123 66.1371 120.075 66.1161 120.03 66.0861C119.937 66.0296 119.849 65.9632 119.769 65.8881C119.611 65.7282 119.485 65.5386 119.4 65.3301Z" fill="#C7C7C7"/>
<path d="M118.444 65.7804C118.402 65.7952 118.358 65.8016 118.314 65.7992C118.269 65.7969 118.226 65.7859 118.186 65.7668C118.146 65.7477 118.11 65.721 118.081 65.688C118.051 65.6551 118.028 65.6167 118.013 65.5749C117.999 65.5331 117.992 65.4889 117.995 65.4446C117.997 65.4004 118.008 65.3571 118.027 65.3171C118.046 65.2771 118.073 65.2413 118.106 65.2117C118.139 65.182 118.177 65.1592 118.219 65.1444C118.303 65.1164 118.395 65.1223 118.475 65.1609C118.556 65.1996 118.617 65.2679 118.648 65.3514C118.678 65.4353 118.673 65.5277 118.635 65.6081C118.597 65.6886 118.528 65.7505 118.444 65.7804Z" fill="#DBDBDB"/>
<path d="M118.2 65.3002C118.155 65.3161 118.114 65.3427 118.081 65.3777C118.049 65.4127 118.025 65.455 118.011 65.5012C118.004 65.4267 118.022 65.3518 118.062 65.2886C118.102 65.2255 118.163 65.1778 118.233 65.1532C118.318 65.1251 118.41 65.1311 118.49 65.1697C118.57 65.2084 118.632 65.2767 118.662 65.3602C118.684 65.4203 118.687 65.4853 118.673 65.5475C118.659 65.6096 118.627 65.6664 118.581 65.7112C118.61 65.6399 118.61 65.5605 118.581 65.4892C118.569 65.4517 118.549 65.4171 118.523 65.3873C118.497 65.3575 118.466 65.3331 118.43 65.3155C118.395 65.2979 118.356 65.2876 118.317 65.2849C118.277 65.2823 118.238 65.2875 118.2 65.3002Z" fill="#C7C7C7"/>
<path d="M117.862 65.4824C117.849 65.572 117.864 65.6636 117.907 65.7434C117.952 65.8253 118.019 65.8936 118.099 65.9414C118.182 65.9917 118.281 66.0079 118.375 65.9864C118.464 65.9657 118.543 65.9135 118.597 65.8394C118.525 65.8813 118.446 65.9079 118.363 65.9174C118.286 65.9225 118.21 65.9037 118.144 65.8634C118.074 65.8224 118.012 65.7675 117.964 65.702C117.915 65.6364 117.881 65.5618 117.862 65.4824Z" fill="#C7C7C7"/>
<path d="M120.986 67.7003C120.893 67.7162 120.796 67.704 120.71 67.6652C120.623 67.6263 120.55 67.5626 120.499 67.4822C120.449 67.4017 120.423 67.308 120.426 67.2131C120.429 67.1181 120.46 67.0261 120.515 66.9487C120.57 66.8713 120.647 66.812 120.736 66.7783C120.824 66.7446 120.921 66.738 121.014 66.7594C121.106 66.7807 121.19 66.8291 121.256 66.8983C121.321 66.9676 121.364 67.0546 121.379 67.1483C121.39 67.2104 121.388 67.2739 121.374 67.3354C121.36 67.3968 121.334 67.4549 121.298 67.5062C121.261 67.5575 121.215 67.6011 121.161 67.6344C121.108 67.6677 121.048 67.6901 120.986 67.7003Z" fill="#DBDBDB"/>
<path d="M120.747 66.9472C120.679 66.9586 120.616 66.9857 120.561 67.0264C120.506 67.067 120.462 67.1201 120.432 67.1812C120.439 67.0635 120.49 66.9528 120.574 66.8704C120.658 66.7879 120.77 66.7396 120.888 66.7348C121.006 66.7299 121.121 66.7689 121.212 66.8441C121.303 66.9193 121.363 67.0255 121.38 67.1422C121.395 67.2318 121.384 67.3238 121.349 67.4077C121.314 67.4915 121.256 67.5638 121.182 67.6162C121.238 67.5271 121.262 67.4208 121.248 67.3162C121.24 67.2588 121.22 67.2036 121.19 67.1538C121.161 67.104 121.121 67.0606 121.075 67.0262C121.028 66.9919 120.975 66.9672 120.919 66.9536C120.862 66.94 120.804 66.9378 120.747 66.9472Z" fill="#C7C7C7"/>
<path d="M120.25 67.1328C120.217 67.2555 120.222 67.3852 120.265 67.5048C120.306 67.6272 120.379 67.7361 120.478 67.8198C120.579 67.9063 120.708 67.9532 120.841 67.9518C120.969 67.9463 121.091 67.8977 121.189 67.8138C121.081 67.8642 120.963 67.8878 120.844 67.8828C120.733 67.8724 120.628 67.8273 120.544 67.7538C120.455 67.6789 120.383 67.5858 120.334 67.4808C120.281 67.372 120.253 67.2534 120.25 67.1328Z" fill="#C7C7C7"/>
<path d="M122.594 62.8581C122.683 62.9971 122.812 63.1059 122.964 63.1698C123.116 63.2338 123.284 63.25 123.446 63.2162C123.607 63.1825 123.754 63.1004 123.868 62.9809C123.982 62.8614 124.057 62.7101 124.082 62.5471C124.108 62.3841 124.083 62.2172 124.012 62.0685C123.941 61.9197 123.826 61.7963 123.682 61.7145C123.539 61.6326 123.374 61.5963 123.21 61.6104C123.046 61.6244 122.889 61.6882 122.762 61.7931C122.599 61.9125 122.49 62.0915 122.459 62.291C122.427 62.4905 122.476 62.6944 122.594 62.8581Z" fill="#DBDBDB"/>
<path d="M123.711 62.1558C123.777 62.2389 123.822 62.3376 123.839 62.4426C123.857 62.5476 123.848 62.6554 123.813 62.7558C123.921 62.6276 123.983 62.4664 123.988 62.2985C123.993 62.1306 123.941 61.9661 123.84 61.8318C123.701 61.6856 123.51 61.5999 123.309 61.5932C123.107 61.5865 122.911 61.6592 122.763 61.7958C122.647 61.8869 122.559 62.0074 122.506 62.1447C122.453 62.2819 122.438 62.4308 122.463 62.5758C122.499 62.3989 122.596 62.24 122.736 62.1258C122.869 62.0013 123.047 61.9346 123.229 61.9402C123.412 61.9458 123.585 62.0233 123.711 62.1558Z" fill="#C7C7C7"/>
<path d="M122.27 62.3447C122.178 62.5317 122.164 62.7474 122.231 62.9447C122.266 63.0456 122.322 63.1377 122.396 63.2147C122.467 63.2955 122.554 63.36 122.652 63.404C122.75 63.448 122.856 63.4704 122.963 63.4697C123.065 63.4719 123.166 63.4578 123.263 63.4277C123.454 63.3696 123.629 63.2668 123.773 63.1277C123.599 63.1999 123.418 63.2532 123.233 63.2867C123.061 63.3174 122.883 63.2998 122.72 63.2357C122.643 63.1986 122.572 63.1501 122.51 63.0917C122.445 63.0348 122.392 62.9655 122.354 62.8877C122.278 62.7176 122.249 62.53 122.27 62.3447Z" fill="#C7C7C7"/>
<path d="M19.8386 102.702L22.1486 100.392C22.3068 100.235 22.4323 100.048 22.518 99.8419C22.6037 99.6359 22.6478 99.4151 22.6478 99.1921C22.6478 98.969 22.6037 98.7482 22.518 98.5422C22.4323 98.3363 22.3068 98.1493 22.1486 97.9921C21.9912 97.8342 21.8041 97.709 21.5982 97.6236C21.3923 97.5381 21.1716 97.4941 20.9486 97.4941C20.7257 97.4941 20.5049 97.5381 20.299 97.6236C20.0931 97.709 19.9061 97.8342 19.7486 97.9921L17.4386 100.302C17.2804 100.459 17.1549 100.646 17.0692 100.852C16.9836 101.058 16.9395 101.279 16.9395 101.502C16.9395 101.725 16.9836 101.946 17.0692 102.152C17.1549 102.358 17.2804 102.545 17.4386 102.702C17.5961 102.86 17.7831 102.985 17.989 103.071C18.1949 103.156 18.4157 103.2 18.6386 103.2C18.8616 103.2 19.0823 103.156 19.2882 103.071C19.4941 102.985 19.6812 102.86 19.8386 102.702Z" fill="#EBEBEB"/>
<path d="M51.3935 125.601L52.8605 122.682C53.0619 122.281 53.0957 121.816 52.9545 121.39C52.8133 120.963 52.5087 120.61 52.1075 120.408C51.9088 120.308 51.6923 120.248 51.4704 120.232C51.2485 120.216 51.0255 120.243 50.8143 120.313C50.6031 120.383 50.4077 120.494 50.2394 120.64C50.0711 120.785 49.9332 120.963 49.8335 121.161L48.3665 124.08C48.2664 124.279 48.2064 124.496 48.1901 124.718C48.1738 124.94 48.2014 125.162 48.2713 125.374C48.3413 125.585 48.4522 125.78 48.5977 125.949C48.7433 126.117 48.9206 126.255 49.1195 126.354C49.3182 126.455 49.5347 126.515 49.7566 126.531C49.9785 126.547 50.2015 126.52 50.4127 126.45C50.6239 126.38 50.8193 126.269 50.9876 126.123C51.1559 125.978 51.2938 125.8 51.3935 125.601Z" fill="#EBEBEB"/>
<path d="M31.1668 96.1799L32.9038 95.9309C33.3484 95.8671 33.7496 95.6293 34.019 95.2698C34.2885 94.9104 34.4042 94.4587 34.3408 94.0139C34.3095 93.7936 34.2351 93.5816 34.1218 93.39C34.0085 93.1985 33.8585 93.0312 33.6804 92.8977C33.5023 92.7642 33.2997 92.6672 33.0841 92.6121C32.8684 92.5571 32.644 92.5451 32.4238 92.5769L30.6868 92.8259C30.4664 92.8572 30.2544 92.9316 30.0629 93.0449C29.8714 93.1582 29.7041 93.3082 29.5706 93.4863C29.4371 93.6644 29.34 93.867 29.285 94.0827C29.23 94.2983 29.218 94.5227 29.2498 94.7429C29.3137 95.1876 29.5515 95.5887 29.9109 95.8581C30.2703 96.1276 30.7221 96.2433 31.1668 96.1799Z" fill="#EBEBEB"/>
<path d="M17.3791 119.102L17.1301 117.365C17.0989 117.145 17.0244 116.933 16.9111 116.742C16.7978 116.55 16.6478 116.383 16.4697 116.249C16.2917 116.116 16.089 116.019 15.8734 115.964C15.6578 115.909 15.4334 115.897 15.2131 115.928C14.9932 115.96 14.7815 116.034 14.5904 116.147C14.3992 116.26 14.2322 116.41 14.099 116.588C13.9658 116.766 13.869 116.968 13.8141 117.183C13.7592 117.399 13.7473 117.623 13.7791 117.842L14.0251 119.582C14.0897 120.027 14.3277 120.427 14.687 120.697C15.0462 120.966 15.4975 121.082 15.9421 121.019C16.3868 120.956 16.7879 120.718 17.0573 120.358C17.3268 119.999 17.4425 119.547 17.3791 119.102Z" fill="#EBEBEB"/>
<path d="M54.6328 116.487V112.641C54.6328 112.283 54.3427 111.993 53.9848 111.993H51.8938C51.5359 111.993 51.2458 112.283 51.2458 112.641V116.487C51.2458 116.845 51.5359 117.135 51.8938 117.135H53.9848C54.3427 117.135 54.6328 116.845 54.6328 116.487Z" fill="#EBEBEB"/>
<path d="M28.0228 133.827L29.7178 134.28C29.9327 134.337 30.1569 134.352 30.3774 134.323C30.598 134.294 30.8106 134.221 31.0032 134.11C31.1957 133.998 31.3644 133.85 31.4996 133.673C31.6347 133.497 31.7337 133.295 31.7908 133.08C31.8484 132.865 31.8631 132.64 31.8339 132.42C31.8048 132.199 31.7324 131.986 31.621 131.793C31.5095 131.6 31.3612 131.431 31.1844 131.296C31.0077 131.161 30.806 131.061 30.5908 131.004L28.8958 130.551C28.6807 130.493 28.4564 130.479 28.2356 130.508C28.0148 130.537 27.802 130.609 27.6092 130.721C27.4164 130.832 27.2474 130.98 27.112 131.157C26.9766 131.334 26.8773 131.536 26.8198 131.751C26.7053 132.186 26.7675 132.648 26.9929 133.037C27.2184 133.426 27.5886 133.71 28.0228 133.827Z" fill="#EBEBEB"/>
<path d="M33.8916 133.371C44.6844 133.371 53.4336 124.622 53.4336 113.829C53.4336 103.036 44.6844 94.2871 33.8916 94.2871C23.0989 94.2871 14.3496 103.036 14.3496 113.829C14.3496 124.622 23.0989 133.371 33.8916 133.371Z" fill="#EBEBEB"/>
<path d="M41.0016 102.237C41.0508 103.176 40.7974 104.106 40.2786 104.889C39.7547 105.697 39.0203 106.346 38.1546 106.767C37.2644 107.214 36.2363 107.301 35.2836 107.01C34.3809 106.724 33.6077 106.129 33.0996 105.33C33.7943 105.845 34.5946 106.198 35.4426 106.365C35.8395 106.436 36.2457 106.436 36.6426 106.365C37.0386 106.304 37.4223 106.181 37.7796 105.999C37.9626 105.909 38.1486 105.81 38.3286 105.699C38.5086 105.588 38.6766 105.474 38.8356 105.342C39.1658 105.092 39.4676 104.806 39.7356 104.49C40.3 103.829 40.7301 103.063 41.0016 102.237Z" fill="#C7C7C7"/>
<path d="M33.9757 103.362C33.889 102.711 34.0334 102.049 34.3837 101.493C34.735 100.915 35.2453 100.451 35.8537 100.155C36.1673 99.9974 36.509 99.9032 36.8591 99.878C37.2092 99.8528 37.5608 99.897 37.8937 100.008C38.5225 100.222 39.0454 100.668 39.3547 101.256C38.86 100.95 38.3093 100.746 37.7347 100.656C37.2193 100.595 36.6975 100.688 36.2347 100.923C35.206 101.429 34.4012 102.298 33.9757 103.362Z" fill="#C7C7C7"/>
<path d="M27.3578 116.784C27.5987 117.379 27.6157 118.041 27.4058 118.647C27.2001 119.277 26.8065 119.829 26.2778 120.228C26.0081 120.439 25.6991 120.593 25.3688 120.682C25.0385 120.771 24.6937 120.793 24.3548 120.747C23.7166 120.659 23.1333 120.339 22.7168 119.847C23.2543 120.025 23.8193 120.104 24.3848 120.081C24.8855 120.045 25.3639 119.86 25.7588 119.55C26.1782 119.233 26.531 118.837 26.7968 118.383C27.0761 117.887 27.266 117.346 27.3578 116.784Z" fill="#C7C7C7"/>
<path d="M23.3098 119.001C23.202 118.803 23.1348 118.585 23.1121 118.36C23.0894 118.136 23.1118 117.909 23.1778 117.693C23.308 117.236 23.5841 116.835 23.9638 116.55C24.1584 116.396 24.3832 116.285 24.6236 116.224C24.8639 116.163 25.1145 116.153 25.3588 116.196C25.5829 116.234 25.7969 116.318 25.9877 116.442C26.1785 116.566 26.3422 116.727 26.4688 116.916C26.0934 116.842 25.7092 116.825 25.3288 116.865C25.0191 116.91 24.7264 117.035 24.4798 117.228C23.9061 117.675 23.495 118.298 23.3098 119.001Z" fill="#C7C7C7"/>
<path d="M20.3484 112.435C20.5209 112.596 20.6593 112.79 20.7551 113.006C20.851 113.222 20.9024 113.455 20.9064 113.692C20.9108 113.947 20.864 114.201 20.7686 114.438C20.6733 114.675 20.5314 114.89 20.3514 115.072C20.1664 115.258 19.9411 115.398 19.693 115.483C19.4448 115.568 19.1804 115.594 18.9204 115.561C18.4543 115.508 18.0207 115.296 17.6934 114.961C18.0966 114.976 18.5005 114.953 18.8994 114.892C19.216 114.844 19.5093 114.697 19.7364 114.472C19.97 114.235 20.1402 113.943 20.2314 113.623C20.3362 113.236 20.3757 112.834 20.3484 112.435Z" fill="#C7C7C7"/>
<path d="M17.9282 114.333C17.7861 114.236 17.6683 114.107 17.584 113.958C17.4997 113.808 17.4512 113.64 17.4422 113.469C17.43 113.28 17.4582 113.091 17.525 112.914C17.5917 112.737 17.6954 112.576 17.8292 112.443C17.9671 112.304 18.1365 112.2 18.3229 112.141C18.5093 112.081 18.7074 112.067 18.9002 112.101C19.0663 112.126 19.2259 112.183 19.3696 112.27C19.5132 112.357 19.6382 112.472 19.7372 112.608C19.46 112.645 19.1854 112.7 18.9152 112.773C18.7342 112.818 18.5692 112.913 18.4382 113.046C18.298 113.188 18.1869 113.356 18.1112 113.541C18.0129 113.795 17.9513 114.061 17.9282 114.333Z" fill="#C7C7C7"/>
<path d="M47.1271 106.646C47.1497 106.882 47.1241 107.119 47.0519 107.344C46.9797 107.569 46.8623 107.776 46.7071 107.954C46.5411 108.148 46.338 108.307 46.1098 108.422C45.8815 108.536 45.6328 108.604 45.3781 108.62C45.1163 108.636 44.8543 108.592 44.6124 108.491C44.3705 108.389 44.1552 108.233 43.9831 108.035C43.6681 107.689 43.4817 107.246 43.4551 106.778C43.7516 107.058 44.0741 107.308 44.4181 107.525C44.6856 107.698 45.0001 107.783 45.3181 107.768C45.6492 107.747 45.9698 107.644 46.2511 107.468C46.5859 107.244 46.8818 106.966 47.1271 106.646Z" fill="#C7C7C7"/>
<path d="M44.0546 106.458C44.013 106.291 44.0106 106.116 44.0475 105.948C44.0845 105.78 44.1598 105.623 44.2676 105.489C44.3839 105.34 44.5304 105.218 44.6974 105.13C44.8644 105.042 45.0482 104.99 45.2366 104.979C45.4316 104.965 45.627 104.999 45.8058 105.078C45.9846 105.157 46.1414 105.278 46.2626 105.432C46.3726 105.56 46.4559 105.708 46.5074 105.869C46.5589 106.03 46.5777 106.199 46.5626 106.368C46.3309 106.209 46.0883 106.066 45.8366 105.942C45.6715 105.855 45.4855 105.817 45.2996 105.831C45.1006 105.843 44.9059 105.893 44.7266 105.981C44.4811 106.107 44.2548 106.267 44.0546 106.458Z" fill="#C7C7C7"/>
<path d="M36.171 119.924C36.9523 120.278 37.821 120.391 38.6669 120.251C39.5128 120.11 40.2978 119.721 40.9223 119.133C41.5469 118.546 41.9828 117.786 42.1749 116.95C42.367 116.114 42.3065 115.24 42.0011 114.439C41.6958 113.638 41.1593 112.945 40.4598 112.449C39.7602 111.953 38.9292 111.676 38.0719 111.653C37.2147 111.63 36.37 111.862 35.6448 112.32C34.9197 112.778 34.3469 113.44 33.999 114.224C33.5322 115.268 33.4988 116.455 33.906 117.524C34.3132 118.592 35.1278 119.456 36.171 119.924Z" fill="#DBDBDB"/>
<path d="M39.9562 113.933C40.5186 114.185 41.0135 114.565 41.4004 115.044C41.7873 115.524 42.0552 116.088 42.1822 116.69C42.2996 115.976 42.235 115.243 41.9945 114.56C41.7539 113.877 41.3451 113.265 40.8058 112.782C40.2665 112.298 39.6142 111.958 38.9089 111.794C38.2036 111.629 37.4682 111.645 36.7705 111.839C36.0729 112.033 35.4355 112.401 34.9171 112.906C34.3988 113.412 34.0163 114.041 33.8049 114.733C33.5935 115.426 33.56 116.161 33.7076 116.87C33.8552 117.579 34.179 118.24 34.6492 118.79C34.4056 118.068 34.3772 117.291 34.5676 116.554C34.758 115.816 35.1589 115.149 35.7215 114.635C36.284 114.122 36.9839 113.782 37.7358 113.659C38.4877 113.536 39.2592 113.635 39.9562 113.942V113.933Z" fill="#C7C7C7"/>
<path d="M43.9064 116.696C43.9286 117.845 43.5954 118.972 42.9524 119.924C42.3015 120.899 41.4027 121.683 40.3484 122.195C39.2709 122.739 38.0267 122.853 36.8684 122.513C35.7625 122.174 34.8044 121.469 34.1504 120.515C34.9908 121.184 35.9761 121.646 37.0274 121.865C37.2786 121.907 37.532 121.934 37.7864 121.946C38.0377 121.949 38.2887 121.929 38.5364 121.886C39.0364 121.811 39.5214 121.657 39.9734 121.43C40.2044 121.313 40.4354 121.19 40.6574 121.058C40.8794 120.926 41.0954 120.779 41.2934 120.611C41.7074 120.295 42.0839 119.933 42.4154 119.531C43.1014 118.698 43.6089 117.733 43.9064 116.696Z" fill="#C7C7C7"/>
<path d="M48.6349 118.341C48.9465 118.416 49.273 118.396 49.5732 118.284C49.8734 118.173 50.1338 117.975 50.3212 117.715C50.5087 117.455 50.6148 117.146 50.6262 116.826C50.6375 116.506 50.5536 116.189 50.385 115.917C50.2164 115.645 49.9707 115.429 49.6792 115.296C49.3876 115.164 49.0633 115.121 48.7473 115.173C48.4313 115.225 48.1379 115.37 47.9042 115.589C47.6706 115.808 47.5073 116.091 47.4349 116.403C47.3377 116.819 47.4094 117.257 47.6343 117.62C47.8593 117.984 48.2191 118.243 48.6349 118.341Z" fill="#DBDBDB"/>
<path d="M49.597 115.875C49.8206 115.928 50.0287 116.032 50.2043 116.18C50.38 116.328 50.5183 116.516 50.608 116.727C50.6004 116.457 50.525 116.193 50.3885 115.96C50.2521 115.727 50.0591 115.532 49.8274 115.393C49.5957 115.254 49.3327 115.176 49.0628 115.165C48.7928 115.155 48.5245 115.213 48.2828 115.333C48.041 115.454 47.8335 115.633 47.6795 115.855C47.5255 116.077 47.4299 116.334 47.4015 116.603C47.3731 116.872 47.4129 117.143 47.5171 117.393C47.6214 117.642 47.7867 117.861 47.998 118.029C47.8147 117.711 47.76 117.334 47.845 116.976C47.9315 116.598 48.1646 116.27 48.4931 116.063C48.8216 115.857 49.2186 115.789 49.597 115.875Z" fill="#C7C7C7"/>
<path d="M51.2375 116.601C51.3501 117.021 51.3216 117.467 51.1565 117.87C50.9923 118.284 50.716 118.644 50.3585 118.911C49.9928 119.192 49.5332 119.322 49.0745 119.274C48.6383 119.223 48.2348 119.018 47.9375 118.695C48.299 118.859 48.6922 118.943 49.0895 118.941C49.458 118.928 49.8129 118.799 50.1035 118.572C50.4143 118.335 50.6747 118.039 50.8694 117.701C51.0642 117.362 51.1893 116.988 51.2375 116.601Z" fill="#C7C7C7"/>
<path d="M37.5513 128.799C38.0049 128.826 38.4562 128.717 38.848 128.487C39.2398 128.257 39.5545 127.916 39.7522 127.507C39.95 127.098 40.0218 126.639 39.9587 126.189C39.8956 125.739 39.7003 125.318 39.3976 124.979C39.0949 124.64 38.6985 124.399 38.2585 124.285C37.8185 124.172 37.3547 124.192 36.926 124.342C36.4973 124.493 36.1229 124.767 35.8502 125.131C35.5775 125.494 35.4188 125.93 35.3943 126.384C35.3773 126.684 35.4196 126.985 35.5188 127.269C35.618 127.553 35.7721 127.814 35.9724 128.038C36.1727 128.263 36.4153 128.445 36.6862 128.576C36.9571 128.706 37.2511 128.782 37.5513 128.799Z" fill="#DBDBDB"/>
<path d="M38.2889 125.114C38.6152 125.132 38.9327 125.226 39.2153 125.39C39.498 125.553 39.7378 125.782 39.9149 126.056C39.8384 125.68 39.6682 125.329 39.42 125.035C39.1718 124.742 38.8536 124.516 38.4949 124.378C38.1362 124.24 37.7485 124.195 37.3677 124.246C36.9868 124.298 36.6252 124.445 36.3161 124.673C36.007 124.902 35.7605 125.204 35.5994 125.553C35.4382 125.902 35.3676 126.286 35.3941 126.669C35.4206 127.053 35.5433 127.423 35.751 127.747C35.9586 128.07 36.2444 128.336 36.5819 128.519C36.2464 128.119 36.0768 127.604 36.1079 127.082C36.1217 126.81 36.1891 126.543 36.3063 126.297C36.4234 126.05 36.5879 125.829 36.7905 125.646C36.993 125.464 37.2296 125.323 37.4868 125.231C37.7439 125.14 38.0164 125.1 38.2889 125.114Z" fill="#C7C7C7"/>
<path d="M40.7681 125.733C40.9898 126.299 41.0348 126.918 40.8971 127.509C40.7599 128.114 40.4649 128.671 40.0421 129.123C39.6119 129.593 39.0208 129.885 38.3861 129.939C37.7763 129.98 37.1703 129.817 36.6641 129.474C37.2055 129.652 37.7813 129.698 38.3441 129.609C38.8782 129.508 39.3648 129.235 39.7301 128.832C40.1101 128.428 40.3996 127.947 40.5791 127.422C40.7586 126.879 40.823 126.303 40.7681 125.733Z" fill="#C7C7C7"/>
<path d="M27.327 106.662C26.292 108.243 24.006 108.579 22.227 107.412C20.448 106.245 19.827 104.016 20.865 102.435C21.903 100.854 24.183 100.518 25.965 101.685C27.747 102.852 28.359 105.081 27.327 106.662Z" fill="#DBDBDB"/>
<path d="M21.6449 103.917C21.3766 104.345 21.2206 104.833 21.1912 105.337C21.1618 105.841 21.2601 106.344 21.4769 106.8C20.2769 105.57 19.9769 103.773 20.8589 102.432C21.8909 100.854 24.1769 100.518 25.9589 101.685C26.5569 102.054 27.0446 102.577 27.3708 103.199C27.697 103.822 27.8497 104.52 27.8129 105.222C27.5457 104.401 27.0018 103.698 26.2739 103.233C24.6599 102.177 22.5839 102.48 21.6449 103.917Z" fill="#C7C7C7"/>
<path d="M28.588 104.052C28.8539 104.459 29.0361 104.915 29.1242 105.394C29.2123 105.872 29.2044 106.363 29.101 106.839C28.9879 107.334 28.7678 107.799 28.456 108.201C28.1468 108.607 27.768 108.956 27.337 109.23C26.8903 109.48 26.4011 109.646 25.894 109.719C25.4038 109.78 24.907 109.766 24.421 109.677C23.4815 109.512 22.5943 109.128 21.832 108.555C22.699 108.807 23.5916 108.961 24.493 109.014C25.3259 109.075 26.1588 108.896 26.893 108.498C27.243 108.285 27.5553 108.015 27.817 107.7C28.0911 107.391 28.3057 107.034 28.45 106.647C28.7324 105.811 28.7801 104.913 28.588 104.052Z" fill="#C7C7C7"/>
<path d="M70.0943 37.3525C69.8813 37.0975 57.5393 31.3735 46.3613 39.9025C36.0863 47.7445 32.5193 62.4835 33.8843 62.8375C35.5553 63.2695 40.1333 56.2375 48.9203 52.3705C52.0373 50.9995 56.9963 52.3705 56.9963 52.3705L70.0943 37.3525Z" fill="#333399"/>
<path opacity="0.1" d="M57.002 52.3672C55.5304 51.9929 54.0202 51.7915 52.502 51.7672C54.44 47.7112 58.058 40.1452 60.407 35.2432C65.936 35.2942 69.986 37.2112 70.109 37.3432L57.002 52.3672Z" fill="black"/>
<path d="M90.4247 61.3311C90.6407 61.5831 94.2707 74.6961 84.0257 84.3261C74.6087 93.1821 59.4857 94.2891 59.3597 92.8851C59.2067 91.1661 66.8957 87.8 72.1457 79.7631C74.0057 76.913 73.4687 71.7951 73.4687 71.7951L90.4247 61.3311Z" fill="#333399"/>
<path opacity="0.1" d="M90.9027 71.3151L73.3047 76.4361C73.5399 74.9006 73.5913 73.3426 73.4577 71.7951L90.4137 61.3311C90.5487 61.4751 91.8027 65.8221 90.9027 71.3151Z" fill="black"/>
<path d="M61.6907 77.3604L49.6367 63.1434C49.6367 63.1434 55.9367 46.2864 70.8647 34.9644C78.3257 29.3154 87.0647 25.0884 94.9157 22.2924C105.731 18.4164 114.779 17.3004 116.18 18.9444C117.581 20.5884 114.98 29.3424 109.406 39.3834C105.359 46.6464 99.7547 54.5904 92.9627 61.0284C79.3487 73.9164 61.6907 77.3604 61.6907 77.3604Z" fill="#C7C7C7"/>
<path d="M90.974 54.9413C89.3528 56.3173 87.3598 57.1815 85.2472 57.4246C83.1347 57.6677 80.9975 57.2787 79.106 56.3068C77.2146 55.335 75.6539 53.824 74.6215 51.9649C73.589 50.1059 73.1312 47.9824 73.3059 45.8631C73.4806 43.7438 74.2799 41.7239 75.6028 40.059C76.9258 38.3941 78.7128 37.159 80.7378 36.51C82.7628 35.8609 84.9349 35.8271 86.9791 36.4128C89.0234 36.9985 90.8479 38.1774 92.222 39.8003C94.062 41.9747 94.964 44.7902 94.73 47.629C94.496 50.4677 93.1452 53.0976 90.974 54.9413Z" fill="#A6A6A6"/>
<path d="M91.5634 53.9431C89.9417 55.3179 87.9489 56.181 85.8368 56.4231C83.7246 56.6653 81.5881 56.2757 79.6974 55.3037C77.8067 54.3316 76.2467 52.8207 75.2147 50.962C74.1827 49.1034 73.725 46.9804 73.8996 44.8616C74.0741 42.7429 74.873 40.7234 76.1953 39.0587C77.5175 37.394 79.3037 36.1587 81.328 35.5091C83.3523 34.8596 85.5238 34.8249 87.5678 35.4094C89.6118 35.994 91.4366 37.1715 92.8113 38.7931C94.6541 40.968 95.5578 43.7856 95.3238 46.6265C95.0897 49.4674 93.7372 52.0991 91.5634 53.9431Z" fill="#333399"/>
<path d="M89.4343 51.4257C88.3106 52.381 86.9288 52.9816 85.4637 53.1514C83.9985 53.3213 82.516 53.0526 81.2035 52.3796C79.8911 51.7066 78.8078 50.6593 78.0908 49.3704C77.3737 48.0815 77.055 46.6089 77.1752 45.1389C77.2953 43.6688 77.8488 42.2674 78.7656 41.1121C79.6824 39.9567 80.9213 39.0992 82.3256 38.6482C83.7299 38.1971 85.2364 38.1728 86.6545 38.5782C88.0726 38.9836 89.3386 39.8005 90.2923 40.9257C91.5695 42.4324 92.1965 44.3845 92.0356 46.3532C91.8748 48.3218 90.9392 50.1462 89.4343 51.4257Z" fill="white"/>
<path d="M89.4378 51.426C88.7344 52.025 87.9256 52.4879 87.0529 52.791L81.0529 52.302C80.2409 51.8619 79.5185 51.2738 78.9228 50.568C78.4854 50.0557 78.121 49.4853 77.8398 48.873L90.7698 49.926C90.3965 50.4846 89.9483 50.9893 89.4378 51.426Z" fill="#EBEBEB"/>
<path d="M90.9399 41.8053L79.0059 40.8333C79.2461 40.557 79.5069 40.2993 79.7859 40.0623C81.2923 38.7843 83.2446 38.1569 85.2135 38.3177C87.1824 38.4786 89.0069 39.4147 90.2859 40.9203C90.526 41.1982 90.7446 41.4941 90.9399 41.8053Z" fill="#EBEBEB"/>
<path d="M91.5862 48.3808L77.3062 47.2138C77.2588 46.9949 77.2238 46.7736 77.2012 46.5508L91.7932 47.7508C91.7362 47.9548 91.6642 48.1678 91.5862 48.3808Z" fill="#EBEBEB"/>
<path d="M109.406 39.3836L94.916 22.2836C105.731 18.4166 114.779 17.3006 116.18 18.9446C117.581 20.5886 114.992 29.3426 109.406 39.3836Z" fill="#333399"/>
<path d="M99.1763 23.736C99.0819 23.8165 98.9657 23.8672 98.8424 23.8816C98.7191 23.896 98.5943 23.8735 98.4839 23.817C98.3734 23.7604 98.2822 23.6723 98.2218 23.5639C98.1614 23.4554 98.1346 23.3315 98.1447 23.2078C98.1548 23.0841 98.2013 22.9662 98.2785 22.869C98.3557 22.7718 98.46 22.6997 98.5782 22.6618C98.6963 22.6239 98.8231 22.6219 98.9424 22.6561C99.0617 22.6904 99.1682 22.7592 99.2484 22.854C99.3554 22.9806 99.408 23.1445 99.3945 23.3098C99.381 23.4752 99.3026 23.6284 99.1763 23.736Z" fill="white"/>
<path d="M101.754 26.7765C101.691 26.8316 101.618 26.8736 101.539 26.9001C101.46 26.9266 101.377 26.9371 101.294 26.931C101.211 26.9249 101.13 26.9023 101.055 26.8645C100.981 26.8266 100.915 26.7744 100.861 26.7108C100.807 26.6472 100.767 26.5735 100.742 26.494C100.717 26.4145 100.708 26.3308 100.716 26.2478C100.723 26.1648 100.747 26.0842 100.787 26.0107C100.826 25.9371 100.879 25.8721 100.944 25.8195C101.071 25.7158 101.234 25.6662 101.398 25.6814C101.561 25.6966 101.712 25.7753 101.818 25.9006C101.925 26.026 101.977 26.188 101.965 26.3518C101.953 26.5155 101.877 26.6681 101.754 26.7765Z" fill="white"/>
<path d="M104.33 29.8163C104.234 29.8939 104.118 29.9419 103.996 29.954C103.873 29.9662 103.75 29.9421 103.641 29.8848C103.532 29.8274 103.443 29.7393 103.384 29.6314C103.325 29.5235 103.299 29.4006 103.309 29.2781C103.319 29.1555 103.365 29.0386 103.441 28.942C103.517 28.8454 103.62 28.7733 103.737 28.7347C103.854 28.6962 103.979 28.6928 104.098 28.7251C104.217 28.7574 104.323 28.8238 104.405 28.9163C104.461 28.9794 104.503 29.0533 104.53 29.1334C104.557 29.2135 104.567 29.2982 104.56 29.3823C104.553 29.4664 104.529 29.5483 104.489 29.6229C104.45 29.6975 104.395 29.7633 104.33 29.8163Z" fill="white"/>
<path d="M106.909 32.8588C106.814 32.9368 106.698 32.9851 106.576 32.9978C106.454 33.0104 106.33 32.9867 106.221 32.9297C106.112 32.8727 106.022 32.7849 105.963 32.6772C105.903 32.5695 105.877 32.4467 105.887 32.3241C105.897 32.2014 105.942 32.0844 106.018 31.9875C106.094 31.8907 106.197 31.8182 106.313 31.7793C106.43 31.7404 106.556 31.7366 106.674 31.7685C106.793 31.8004 106.9 31.8666 106.982 31.9588C107.037 32.0219 107.08 32.0957 107.107 32.1756C107.133 32.2556 107.143 32.3401 107.137 32.4241C107.13 32.5081 107.106 32.5899 107.067 32.6646C107.028 32.7393 106.975 32.8053 106.909 32.8588Z" fill="white"/>
<path d="M109.503 35.9013C109.408 35.9814 109.292 36.0317 109.169 36.0458C109.046 36.0599 108.921 36.0372 108.811 35.9806C108.701 35.924 108.61 35.8359 108.55 35.7276C108.49 35.6193 108.463 35.4956 108.473 35.3721C108.483 35.2485 108.529 35.1308 108.606 35.0336C108.683 34.9364 108.787 34.8643 108.905 34.8262C109.023 34.7881 109.15 34.7859 109.269 34.8197C109.388 34.8535 109.495 34.922 109.575 35.0163C109.628 35.0791 109.669 35.1518 109.694 35.2303C109.72 35.3088 109.729 35.3915 109.723 35.4737C109.716 35.556 109.693 35.636 109.655 35.7094C109.618 35.7828 109.566 35.848 109.503 35.9013Z" fill="white"/>
<path d="M53.103 62.8105C52.9756 62.9142 52.8127 62.9638 52.6492 62.9486C52.4856 62.9334 52.3346 62.8547 52.2285 62.7293C52.1224 62.604 52.0697 62.442 52.0818 62.2782C52.0938 62.1144 52.1697 61.9619 52.293 61.8535C52.3556 61.7984 52.4285 61.7564 52.5075 61.7299C52.5865 61.7033 52.67 61.6928 52.7531 61.699C52.8362 61.7051 52.9173 61.7277 52.9916 61.7655C53.0658 61.8033 53.1318 61.8556 53.1857 61.9192C53.2395 61.9828 53.2801 62.0565 53.3052 62.136C53.3302 62.2155 53.3391 62.2992 53.3314 62.3822C53.3237 62.4652 53.2995 62.5458 53.2603 62.6193C53.2211 62.6929 53.1676 62.7578 53.103 62.8105Z" fill="#A6A6A6"/>
<path d="M55.6947 65.8519C55.5996 65.93 55.4836 65.9783 55.3612 65.9909C55.2388 66.0035 55.1155 65.9799 55.0064 65.9229C54.8974 65.8659 54.8076 65.7781 54.7481 65.6704C54.6886 65.5627 54.6621 65.4399 54.6719 65.3172C54.6817 65.1946 54.7274 65.0776 54.8032 64.9807C54.8791 64.8838 54.9818 64.8114 55.0985 64.7725C55.2152 64.7335 55.3407 64.7298 55.4596 64.7617C55.5784 64.7936 55.6852 64.8598 55.7667 64.9519C55.8225 65.0151 55.865 65.0888 55.8917 65.1688C55.9184 65.2487 55.9286 65.3332 55.9219 65.4172C55.9152 65.5012 55.8916 65.583 55.8526 65.6577C55.8135 65.7324 55.7598 65.7985 55.6947 65.8519Z" fill="#A6A6A6"/>
<path d="M58.2706 68.9003C58.176 68.9804 58.0598 69.0307 57.9367 69.0448C57.8136 69.059 57.689 69.0363 57.5788 68.9796C57.4685 68.923 57.3776 68.835 57.3173 68.7267C57.2571 68.6183 57.2303 68.4946 57.2403 68.3711C57.2504 68.2476 57.2968 68.1298 57.3738 68.0326C57.4507 67.9355 57.5548 67.8633 57.6727 67.8252C57.7906 67.7872 57.9172 67.7849 58.0364 67.8187C58.1557 67.8526 58.2622 67.921 58.3426 68.0153C58.3961 68.0781 58.4366 68.1508 58.462 68.2293C58.4873 68.3078 58.4969 68.3906 58.4902 68.4728C58.4835 68.555 58.4607 68.6351 58.423 68.7084C58.3853 68.7818 58.3335 68.847 58.2706 68.9003Z" fill="#A6A6A6"/>
<path d="M60.849 71.934C60.7539 72.012 60.6379 72.0603 60.5155 72.073C60.3931 72.0856 60.2697 72.0619 60.1607 72.0049C60.0517 71.9479 59.9618 71.8601 59.9024 71.7524C59.8429 71.6447 59.8164 71.5219 59.8262 71.3993C59.836 71.2766 59.8817 71.1596 59.9575 71.0627C60.0334 70.9659 60.1361 70.8934 60.2528 70.8545C60.3695 70.8156 60.495 70.8118 60.6139 70.8437C60.7327 70.8756 60.8395 70.9418 60.921 71.034C60.9768 71.0971 61.0193 71.1709 61.046 71.2508C61.0727 71.3308 61.0829 71.4153 61.0762 71.4993C61.0695 71.5833 61.0459 71.6651 61.0069 71.7398C60.9678 71.8145 60.9141 71.8805 60.849 71.934Z" fill="#A6A6A6"/>
<path d="M63.4253 74.9725C63.33 75.0502 63.2138 75.0981 63.0914 75.1103C62.969 75.1225 62.8457 75.0984 62.7369 75.041C62.6281 74.9836 62.5386 74.8955 62.4795 74.7877C62.4204 74.6798 62.3943 74.5569 62.4045 74.4343C62.4147 74.3117 62.4608 74.1948 62.5369 74.0982C62.6131 74.0016 62.716 73.9296 62.8328 73.891C62.9496 73.8524 63.0752 73.8491 63.1939 73.8813C63.3126 73.9136 63.4191 73.9801 63.5003 74.0725C63.5564 74.1356 63.599 74.2095 63.6257 74.2896C63.6524 74.3697 63.6625 74.4544 63.6555 74.5386C63.6485 74.6227 63.6245 74.7045 63.5849 74.7791C63.5454 74.8537 63.4911 74.9195 63.4253 74.9725Z" fill="#A6A6A6"/>
<path opacity="0.2" d="M115.502 18.5215C107.156 19.1215 92.7017 24.1735 77.4947 36.1015C66.2567 44.9125 58.0577 60.3325 54.2357 68.5675L49.6367 63.1435C49.6367 63.1435 55.9367 46.2865 70.8647 34.9645C78.3257 29.3155 87.0647 25.0885 94.9157 22.2925C104.609 18.8155 112.88 17.5555 115.502 18.5215Z" fill="white"/>
<path d="M56.3069 79.6763L46.5059 68.1143L50.3189 63.9473L61.0409 76.5953L56.3069 79.6763Z" fill="#333399"/>
<path opacity="0.1" d="M61.0413 76.5962L58.7343 78.0962L48.8613 65.5412L50.3193 63.9512L61.0413 76.5962Z" fill="black"/>
<path d="M109.252 40.928L104.773 40.628L102.667 44.894L102.859 40.142L98.7852 38.258L103.309 38.303L105.367 34.292L105.259 38.798L109.252 40.928Z" fill="#FCFCFC"/>
<path d="M108.151 24.3838L105.646 24.2188L104.47 26.6038L104.578 23.9458L102.301 22.8928L104.83 22.9168L105.979 20.6758L105.919 23.1958L108.151 24.3838Z" fill="#FCFCFC"/>
<path d="M87.8969 75.2393L85.3949 75.0713L84.2189 77.4562L84.3239 74.8012L82.0469 73.7483L84.5759 73.7723L85.7279 71.5312L85.6649 74.0512L87.8969 75.2393Z" fill="#FCFCFC"/>
<path d="M43.3402 53.1152L40.8352 52.9472L39.6592 55.3322L39.7672 52.6772L37.4902 51.6242L40.0192 51.6482L41.1682 49.4072L41.1082 51.9242L43.3402 53.1152Z" fill="#FCFCFC"/>
<path opacity="0.6" d="M54.1524 77.0971C49.6074 80.1601 45.5964 84.0691 42.6684 88.7401C39.6641 93.4346 37.9668 98.8457 37.7514 104.415C37.6794 107.238 38.0241 110.057 38.7744 112.779C39.5464 115.552 40.7145 118.199 42.2424 120.639C43.807 123.122 45.6833 125.395 47.8254 127.401C50.0057 129.441 52.3902 131.25 54.9414 132.801C52.1898 131.544 49.5758 130.004 47.1414 128.208C44.6778 126.382 42.4596 124.247 40.5414 121.854C36.5653 116.903 34.1417 110.887 33.5754 104.562C33.0114 98.1691 34.3614 91.6081 37.1574 85.7551C39.9534 79.9021 44.1324 74.7031 49.0704 70.4551L54.1524 77.0971Z" fill="#333399"/>
<path d="M46.3799 84.0656L44.5919 84.3956L44.1929 86.2796L43.7939 84.3956L42.0059 84.0626L43.7879 83.6276L44.1929 81.8486L44.6009 83.6276L46.3799 84.0656Z" fill="white"/>
<path d="M39.8005 119.354L38.8015 119.54L38.5795 120.593L38.3545 119.54L37.3555 119.354L38.3515 119.111L38.5795 118.118L38.8075 119.111L39.8005 119.354Z" fill="white"/>
<path d="M39.2634 110.214L38.2644 110.397L38.0424 111.453L37.8204 110.397L36.8184 110.214L37.8144 109.971L38.0424 108.975L38.2704 109.971L39.2634 110.214Z" fill="white"/>
<path d="M45.0583 78.1881L44.0593 78.3741L43.8343 79.4271L43.6123 78.3741L42.6133 78.1881L43.6093 77.9451L43.8343 76.9521L44.0623 77.9451L45.0583 78.1881Z" fill="white"/>
<path d="M42.1647 121.635C42.1011 121.652 42.045 121.69 42.005 121.742C41.965 121.794 41.9434 121.858 41.9434 121.924C41.9434 121.99 41.965 122.054 42.005 122.106C42.045 122.159 42.1011 122.196 42.1647 122.214C42.2282 122.196 42.2843 122.159 42.3243 122.106C42.3643 122.054 42.386 121.99 42.386 121.924C42.386 121.858 42.3643 121.794 42.3243 121.742C42.2843 121.69 42.2282 121.652 42.1647 121.635Z" fill="white"/>
<path d="M50.4323 76.7783C50.3687 76.7956 50.3126 76.8333 50.2726 76.8856C50.2326 76.9379 50.2109 77.002 50.2109 77.0678C50.2109 77.1337 50.2326 77.1977 50.2726 77.25C50.3126 77.3023 50.3687 77.3401 50.4323 77.3573C50.4958 77.3401 50.5519 77.3023 50.5919 77.25C50.6319 77.1977 50.6536 77.1337 50.6536 77.0678C50.6536 77.002 50.6319 76.9379 50.5919 76.8856C50.5519 76.8333 50.4958 76.7956 50.4323 76.7783Z" fill="white"/>
<path d="M34.8385 102.612C34.775 102.63 34.7189 102.667 34.6789 102.72C34.6389 102.772 34.6172 102.836 34.6172 102.902C34.6172 102.968 34.6389 103.032 34.6789 103.084C34.7189 103.136 34.775 103.174 34.8385 103.191C34.9021 103.174 34.9582 103.136 34.9982 103.084C35.0382 103.032 35.0598 102.968 35.0598 102.902C35.0598 102.836 35.0382 102.772 34.9982 102.72C34.9582 102.667 34.9021 102.63 34.8385 102.612Z" fill="white"/>
<path d="M41.6489 120.126C41.5987 120.132 41.5524 120.156 41.5189 120.194C41.4853 120.232 41.4668 120.281 41.4668 120.331C41.4668 120.382 41.4853 120.431 41.5189 120.469C41.5524 120.507 41.5987 120.531 41.6489 120.537C41.6991 120.531 41.7454 120.507 41.779 120.469C41.8125 120.431 41.831 120.382 41.831 120.331C41.831 120.281 41.8125 120.232 41.779 120.194C41.7454 120.156 41.6991 120.132 41.6489 120.126Z" fill="white"/>
<path d="M34.7333 92.4893C34.6792 92.4893 34.6273 92.5107 34.589 92.549C34.5508 92.5873 34.5293 92.6392 34.5293 92.6933C34.5293 92.7474 34.5508 92.7992 34.589 92.8375C34.6273 92.8758 34.6792 92.8973 34.7333 92.8973C34.7874 92.8973 34.8393 92.8758 34.8775 92.8375C34.9158 92.7992 34.9373 92.7474 34.9373 92.6933C34.9373 92.6392 34.9158 92.5873 34.8775 92.549C34.8393 92.5107 34.7874 92.4893 34.7333 92.4893Z" fill="white"/>
<path d="M36.8179 113.447C36.6774 113.458 36.5459 113.521 36.45 113.624C36.3541 113.727 36.3008 113.863 36.3008 114.004C36.3008 114.145 36.3541 114.28 36.45 114.384C36.5459 114.487 36.6774 114.55 36.8179 114.56C36.9584 114.55 37.0899 114.487 37.1858 114.384C37.2817 114.28 37.335 114.145 37.335 114.004C37.335 113.863 37.2817 113.727 37.1858 113.624C37.0899 113.521 36.9584 113.458 36.8179 113.447Z" fill="white"/>
<path d="M37.3558 90.6055C37.2086 90.6055 37.0674 90.6639 36.9633 90.768C36.8593 90.8721 36.8008 91.0133 36.8008 91.1605C36.8008 91.3077 36.8593 91.4488 36.9633 91.5529C37.0674 91.657 37.2086 91.7155 37.3558 91.7155C37.503 91.7155 37.6441 91.657 37.7482 91.5529C37.8523 91.4488 37.9108 91.3077 37.9108 91.1605C37.9108 91.0133 37.8523 90.8721 37.7482 90.768C37.6441 90.6639 37.503 90.6055 37.3558 90.6055Z" fill="white"/>
</svg>
