<svg width="24" height="25" viewBox="0 0 24 25" fill="none" xmlns="http://www.w3.org/2000/svg">
<g filter="url(#filter0_b_1100_65514)">
<circle cx="12" cy="12.9219" r="12" fill="black" fill-opacity="0.52"/>
</g>
<path d="M12.5 8.42188C12.0027 8.42188 11.5258 8.61942 11.1742 8.97105C10.8225 9.32268 10.625 9.79959 10.625 10.2969V12.9219C10.625 13.4192 10.8225 13.8961 11.1742 14.2477C11.5258 14.5993 12.0027 14.7969 12.5 14.7969C12.9973 14.7969 13.4742 14.5993 13.8258 14.2477C14.1775 13.8961 14.375 13.4192 14.375 12.9219V10.2969C14.375 9.79959 14.1775 9.32268 13.8258 8.97105C13.4742 8.61942 12.9973 8.42188 12.5 8.42188ZM9.5 12.5469C9.59946 12.5469 9.69484 12.5864 9.76516 12.6567C9.83549 12.727 9.875 12.8224 9.875 12.9219C9.875 13.6181 10.1516 14.2857 10.6438 14.778C11.1361 15.2703 11.8038 15.5469 12.5 15.5469C13.1962 15.5469 13.8639 15.2703 14.3562 14.778C14.8484 14.2857 15.125 13.6181 15.125 12.9219C15.125 12.8224 15.1645 12.727 15.2348 12.6567C15.3052 12.5864 15.4005 12.5469 15.5 12.5469C15.5995 12.5469 15.6948 12.5864 15.7652 12.6567C15.8355 12.727 15.875 12.8224 15.875 12.9219C15.8752 13.7522 15.5693 14.5534 15.0158 15.1723C14.4623 15.7912 13.7001 16.1844 12.875 16.2766V17.0469C12.875 17.1463 12.8355 17.2417 12.7652 17.312C12.6948 17.3824 12.5995 17.4219 12.5 17.4219C12.4005 17.4219 12.3052 17.3824 12.2348 17.312C12.1645 17.2417 12.125 17.1463 12.125 17.0469V16.2766C11.2999 16.1844 10.5377 15.7912 9.98421 15.1723C9.43074 14.5534 9.12484 13.7522 9.125 12.9219C9.125 12.8224 9.16451 12.727 9.23484 12.6567C9.30516 12.5864 9.40054 12.5469 9.5 12.5469Z" fill="white"/>
<defs>
<filter id="filter0_b_1100_65514" x="-20" y="-19.0781" width="64" height="64" filterUnits="userSpaceOnUse" color-interpolation-filters="sRGB">
<feFlood flood-opacity="0" result="BackgroundImageFix"/>
<feGaussianBlur in="BackgroundImageFix" stdDeviation="10"/>
<feComposite in2="SourceAlpha" operator="in" result="effect1_backgroundBlur_1100_65514"/>
<feBlend mode="normal" in="SourceGraphic" in2="effect1_backgroundBlur_1100_65514" result="shape"/>
</filter>
</defs>
</svg>
