<svg width="73" height="73" viewBox="0 0 73 73" fill="none" xmlns="http://www.w3.org/2000/svg">
<rect x="3.19368" y="2.96321" width="66.9299" height="66.9299" rx="33.465" fill="#333399"/>
<path d="M36.6621 24.4268C32.8071 24.4268 29.6621 27.5718 29.6621 31.4268C29.6621 33.8058 30.8721 35.9108 32.6931 37.1768C28.5881 38.7788 25.6621 42.7788 25.6621 47.4268H27.6621C27.6621 43.0288 30.8531 39.3528 35.0371 38.5828L35.6621 40.4268H37.6621L38.2871 38.5828C42.4711 39.3528 45.6621 43.0288 45.6621 47.4268H47.6621C47.6621 42.7788 44.7361 38.7788 40.6311 37.1768C42.4511 35.9108 43.6621 33.8058 43.6621 31.4268C43.6621 27.5718 40.5171 24.4268 36.6621 24.4268ZM36.6621 26.4268C39.4351 26.4268 41.6621 28.6538 41.6621 31.4268C41.6621 34.1998 39.4351 36.4268 36.6621 36.4268C33.8891 36.4268 31.6621 34.1998 31.6621 31.4268C31.6621 28.6538 33.8891 26.4268 36.6621 26.4268ZM35.6621 41.4268L34.6621 47.4268H38.6621L37.6621 41.4268H35.6621Z" fill="white"/>
<rect x="3.19368" y="2.96321" width="66.9299" height="66.9299" rx="33.465" stroke="white" stroke-width="5.57749"/>
</svg>
