<svg width="118" height="118" viewBox="0 0 118 118" fill="none" xmlns="http://www.w3.org/2000/svg">
<g filter="url(#filter0_d_1748_18932)">
<rect x="27.9824" y="25.752" width="61.3524" height="61.3524" rx="30.6762" fill="#304880" shape-rendering="crispEdges"/>
<path d="M58.6621 44.4268C54.8071 44.4268 51.6621 47.5718 51.6621 51.4268C51.6621 53.8058 52.8721 55.9108 54.6931 57.1768C50.5881 58.7788 47.6621 62.7788 47.6621 67.4268H49.6621C49.6621 63.0288 52.8531 59.3528 57.0371 58.5828L57.6621 60.4268H59.6621L60.2871 58.5828C64.4711 59.3528 67.6621 63.0288 67.6621 67.4268H69.6621C69.6621 62.7788 66.7361 58.7788 62.6311 57.1768C64.4511 55.9108 65.6621 53.8058 65.6621 51.4268C65.6621 47.5718 62.5171 44.4268 58.6621 44.4268ZM58.6621 46.4268C61.4351 46.4268 63.6621 48.6538 63.6621 51.4268C63.6621 54.1998 61.4351 56.4268 58.6621 56.4268C55.8891 56.4268 53.6621 54.1998 53.6621 51.4268C53.6621 48.6538 55.8891 46.4268 58.6621 46.4268ZM57.6621 61.4268L56.6621 67.4268H60.6621L59.6621 61.4268H57.6621Z" fill="white"/>
<rect x="25.1937" y="22.9632" width="66.9299" height="66.9299" rx="33.465" stroke="white" stroke-width="5.57749" shape-rendering="crispEdges"/>
</g>
<defs>
<filter id="filter0_d_1748_18932" x="0.094326" y="0.0958309" width="117.128" height="117.127" filterUnits="userSpaceOnUse" color-interpolation-filters="sRGB">
<feFlood flood-opacity="0" result="BackgroundImageFix"/>
<feColorMatrix in="SourceAlpha" type="matrix" values="0 0 0 0 0 0 0 0 0 0 0 0 0 0 0 0 0 0 127 0" result="hardAlpha"/>
<feOffset dy="2.231"/>
<feGaussianBlur stdDeviation="11.155"/>
<feComposite in2="hardAlpha" operator="out"/>
<feColorMatrix type="matrix" values="0 0 0 0 0 0 0 0 0 0 0 0 0 0 0 0 0 0 0.1 0"/>
<feBlend mode="normal" in2="BackgroundImageFix" result="effect1_dropShadow_1748_18932"/>
<feBlend mode="normal" in="SourceGraphic" in2="effect1_dropShadow_1748_18932" result="shape"/>
</filter>
</defs>
</svg>
