<svg width="73" height="73" viewBox="0 0 73 73" fill="none" xmlns="http://www.w3.org/2000/svg">
<rect x="3.20735" y="2.96321" width="66.9299" height="66.9299" rx="33.465" fill="#333399"/>
<path d="M36.6758 24.4268C32.8208 24.4268 29.6758 27.5718 29.6758 31.4268C29.6758 33.8058 30.8858 35.9108 32.7068 37.1768C28.6018 38.7788 25.6758 42.7788 25.6758 47.4268H27.6758C27.6758 43.0288 30.8668 39.3528 35.0508 38.5828L35.6758 40.4268H37.6758L38.3008 38.5828C42.4848 39.3528 45.6758 43.0288 45.6758 47.4268H47.6758C47.6758 42.7788 44.7498 38.7788 40.6448 37.1768C42.4648 35.9108 43.6758 33.8058 43.6758 31.4268C43.6758 27.5718 40.5308 24.4268 36.6758 24.4268ZM36.6758 26.4268C39.4488 26.4268 41.6758 28.6538 41.6758 31.4268C41.6758 34.1998 39.4488 36.4268 36.6758 36.4268C33.9028 36.4268 31.6758 34.1998 31.6758 31.4268C31.6758 28.6538 33.9028 26.4268 36.6758 26.4268ZM35.6758 41.4268L34.6758 47.4268H38.6758L37.6758 41.4268H35.6758Z" fill="white"/>
<rect x="3.20735" y="2.96321" width="66.9299" height="66.9299" rx="33.465" stroke="white" stroke-width="5.57749"/>
</svg>
