<svg width="16" height="17" viewBox="0 0 16 17" fill="none" xmlns="http://www.w3.org/2000/svg">
<path d="M2 7.43946C2 5.30746 2 4.24146 2.252 3.88279C2.50333 3.52479 3.50533 3.18146 5.51 2.49546L5.892 2.36479C6.93667 2.00679 7.45867 1.82812 8 1.82812C8.54067 1.82812 9.06333 2.00679 10.108 2.36479L10.49 2.49546C12.4947 3.18146 13.4967 3.52479 13.748 3.88279C14 4.24146 14 5.30812 14 7.43946V8.48879C14 12.2475 11.174 14.0721 9.40067 14.8461C8.92 15.0561 8.68 15.1615 8 15.1615C7.32 15.1615 7.08 15.0561 6.59933 14.8461C4.826 14.0715 2 12.2481 2 8.48879V7.43946Z" stroke="#EB52F9"/>
<path d="M7.23541 6.06492C7.57341 5.45892 7.74208 5.15625 7.99474 5.15625C8.24741 5.15625 8.41608 5.45892 8.75408 6.06492L8.84074 6.22158C8.93741 6.39425 8.98541 6.48025 9.06008 6.53692C9.13474 6.59358 9.22808 6.61492 9.41474 6.65692L9.58408 6.69558C10.2401 6.84358 10.5681 6.91825 10.6461 7.16892C10.7241 7.42025 10.5007 7.68158 10.0534 8.20425L9.93741 8.33958C9.81074 8.48825 9.74741 8.56225 9.71874 8.65425C9.69008 8.74625 9.69941 8.84558 9.71874 9.04358L9.73608 9.22358C9.80408 9.92158 9.83741 10.2703 9.63341 10.4256C9.42941 10.5809 9.12208 10.4389 8.50808 10.1569L8.34874 10.0836C8.17474 10.0036 8.08741 9.96292 7.99474 9.96292C7.90208 9.96292 7.81474 10.0029 7.64074 10.0829L7.48141 10.1563C6.86808 10.4396 6.56008 10.5809 6.35608 10.4256C6.15208 10.2709 6.18541 9.92158 6.25341 9.22425L6.27074 9.04358C6.29008 8.84558 6.29941 8.74625 6.27074 8.65425C6.24208 8.56225 6.17874 8.48758 6.05208 8.33958L5.93608 8.20425C5.48941 7.68158 5.26541 7.42025 5.34341 7.16892C5.42141 6.91825 5.74941 6.84358 6.40541 6.69558L6.57474 6.65692C6.76141 6.61492 6.85474 6.59358 6.92941 6.53692C7.00408 6.48025 7.05208 6.39425 7.14808 6.22158L7.23541 6.06492Z" stroke="#EB52F9"/>
</svg>
