<svg width="14" height="19" viewBox="0 0 14 19" fill="none" xmlns="http://www.w3.org/2000/svg">
<path fill-rule="evenodd" clip-rule="evenodd" d="M9.19609 0.421875V4.91228H13.6977L11.4091 2.53417L9.2334 0.421875H9.19609ZM7.99609 0.421875V5.21228C7.99609 5.70934 8.39904 6.11228 8.89609 6.11228H13.7266V16.7017C13.7266 17.8062 12.8311 18.7017 11.7266 18.7017H2C0.895431 18.7017 0 17.8062 0 16.7017V2.42187C0 1.31731 0.895431 0.421875 2 0.421875H7.99609ZM2.28516 10.5625C2.28516 10.0102 2.73287 9.5625 3.28516 9.5625H7.10156C7.65385 9.5625 8.10156 10.0102 8.10156 10.5625V14.3623C8.10156 14.9146 7.65385 15.3623 7.10156 15.3623H3.28516C2.73287 15.3623 2.28516 14.9146 2.28516 14.3623V10.5625ZM9.15645 13.4845L9.15625 12.4635L9.15645 11.4424C9.15648 11.2995 9.23271 11.1675 9.35645 11.0961L10.8444 10.237C11.1111 10.0831 11.4444 10.2755 11.4444 10.5834V14.3435C11.4444 14.6515 11.1111 14.8439 10.8444 14.6899L9.35645 13.8309C9.23271 13.7594 9.15648 13.6274 9.15645 13.4845Z" fill="#333399"/>
</svg>
