<svg width="24" height="24" viewBox="0 0 24 24" fill="none" xmlns="http://www.w3.org/2000/svg">
<g clip-path="url(#clip0_2204_17286)">
<path d="M16.6383 14.72C18.094 14.7206 19.5173 14.2894 20.7281 13.4811C21.9388 12.6727 22.8826 11.5234 23.4401 10.1786C23.9977 8.83382 24.1438 7.35388 23.8602 5.92598C23.5765 4.49808 22.8758 3.18637 21.8466 2.15676C20.8174 1.12714 19.506 0.425874 18.0782 0.141643C16.6504 -0.142587 15.1704 0.00299007 13.8254 0.559963C12.4804 1.11694 11.3307 2.06028 10.5218 3.27069C9.71298 4.4811 9.28125 5.9042 9.28125 7.36C9.2831 9.31091 10.0587 11.1814 11.4379 12.5612C12.8171 13.941 14.6873 14.7174 16.6383 14.72ZM16.6383 0.750503C17.9457 0.749909 19.224 1.13709 20.3114 1.86306C21.3989 2.58904 22.2465 3.6212 22.7473 4.829C23.248 6.0368 23.3793 7.36597 23.1246 8.64839C22.8698 9.93082 22.2405 11.1089 21.3161 12.0336C20.3918 12.9583 19.2139 13.5881 17.9316 13.8433C16.6493 14.0986 15.32 13.9678 14.1121 13.4675C12.9041 12.9672 11.8716 12.1199 11.1452 11.0328C10.4188 9.94563 10.0312 8.66749 10.0312 7.36C10.033 5.60802 10.7295 3.92824 11.9681 2.68916C13.2068 1.45009 14.8863 0.752885 16.6383 0.750503Z" fill="#23272E"/>
<path d="M17.2645 9.83713H15.8195C15.5411 9.83713 15.274 9.7265 15.0771 9.52959C14.8802 9.33267 14.7695 9.0656 14.7695 8.78713C14.7695 8.68767 14.73 8.59229 14.6597 8.52196C14.5894 8.45163 14.494 8.41213 14.3945 8.41213C14.2951 8.41213 14.1997 8.45163 14.1294 8.52196C14.059 8.59229 14.0195 8.68767 14.0195 8.78713C14.0195 9.0235 14.0661 9.25757 14.1565 9.47596C14.247 9.69434 14.3796 9.89277 14.5467 10.0599C14.7139 10.2271 14.9123 10.3597 15.1307 10.4501C15.3491 10.5406 15.5832 10.5871 15.8195 10.5871H16.1665V11.8926C16.1665 11.9921 16.206 12.0875 16.2764 12.1578C16.3467 12.2281 16.4421 12.2676 16.5415 12.2676C16.641 12.2676 16.7364 12.2281 16.8067 12.1578C16.877 12.0875 16.9165 11.9921 16.9165 11.8926V10.5871H17.2665C17.7439 10.5871 18.2018 10.3975 18.5393 10.0599C18.8769 9.72235 19.0665 9.26451 19.0665 8.78713C19.0665 8.30974 18.8769 7.8519 18.5393 7.51433C18.2018 7.17677 17.7439 6.98712 17.2665 6.98712H15.8215C15.5431 6.98712 15.276 6.8765 15.0791 6.67959C14.8822 6.48267 14.7715 6.2156 14.7715 5.93713C14.7715 5.65865 14.8822 5.39158 15.0791 5.19466C15.276 4.99775 15.5431 4.88713 15.8215 4.88713H17.2665C17.4044 4.88713 17.541 4.91428 17.6683 4.96705C17.7957 5.01982 17.9115 5.09716 18.009 5.19466C18.1065 5.29216 18.1838 5.40792 18.2366 5.53531C18.2894 5.6627 18.3165 5.79924 18.3165 5.93713C18.3165 6.03658 18.356 6.13196 18.4264 6.20229C18.4967 6.27262 18.5921 6.31213 18.6915 6.31213C18.791 6.31213 18.8864 6.27262 18.9567 6.20229C19.027 6.13196 19.0665 6.03658 19.0665 5.93713C19.0665 5.45974 18.8769 5.0019 18.5393 4.66433C18.2018 4.32677 17.7439 4.13713 17.2665 4.13713H16.9165V2.82813C16.9165 2.72867 16.877 2.63329 16.8067 2.56296C16.7364 2.49263 16.641 2.45313 16.5415 2.45312C16.4421 2.45313 16.3467 2.49263 16.2764 2.56296C16.206 2.63329 16.1665 2.72867 16.1665 2.82813V4.13363H15.8195C15.3421 4.13363 14.8843 4.32327 14.5467 4.66083C14.2092 4.9984 14.0195 5.45624 14.0195 5.93363C14.0195 6.41102 14.2092 6.86885 14.5467 7.20642C14.8843 7.54398 15.3421 7.73362 15.8195 7.73362H17.2645C17.543 7.73362 17.8101 7.84425 18.007 8.04116C18.2039 8.23808 18.3145 8.50515 18.3145 8.78363C18.3145 9.0621 18.2039 9.32917 18.007 9.52609C17.8101 9.723 17.543 9.83363 17.2645 9.83363V9.83713Z" fill="#23272E"/>
<path d="M21.8801 16.1624C21.1011 16.4169 18.6581 17.1624 18.6576 17.1624L16.0981 17.7624C15.9609 17.5041 15.7527 17.2904 15.4981 17.1464C15.3356 17.0464 11.5011 14.7129 10.2181 14.1399C9.61231 13.9005 8.93991 13.8909 8.32756 14.1129L3.48956 16.1024L3.17156 15.3289C3.15287 15.2834 3.12537 15.2419 3.09063 15.207C3.0559 15.1721 3.01461 15.1443 2.96914 15.1254C2.92367 15.1064 2.87491 15.0966 2.82565 15.0966C2.77638 15.0965 2.72759 15.1061 2.68206 15.1249L0.229063 16.1344C0.137997 16.1729 0.0658072 16.2458 0.0281975 16.3372C-0.00941227 16.4286 -0.00939865 16.5312 0.0282354 16.6226C0.0658694 16.7141 0.138079 16.7869 0.229155 16.8254C0.320231 16.8638 0.422806 16.8647 0.514563 16.8279L2.62056 15.9609L5.27356 22.4139L3.16806 23.2809C3.08796 23.3141 3.02182 23.374 2.98089 23.4504C2.93996 23.5268 2.92677 23.6151 2.94356 23.7001C2.96036 23.7852 3.00611 23.8618 3.07302 23.9169C3.13993 23.972 3.22387 24.0022 3.31056 24.0024C3.35949 24.0025 3.40793 23.9928 3.45306 23.9739L5.90606 22.9649C5.95164 22.9462 5.99308 22.9187 6.02801 22.884C6.06294 22.8493 6.09068 22.808 6.10963 22.7625C6.12858 22.717 6.13837 22.6683 6.13845 22.619C6.13852 22.5698 6.12888 22.521 6.11006 22.4754L5.72156 21.5309L7.73306 20.7024L12.8971 22.6724C13.3417 22.8421 13.8314 22.8521 14.2826 22.7009L14.4326 22.6509C16.3333 22.0331 18.1807 21.2619 19.9566 20.3449C20.2486 20.1949 22.3621 19.1179 23.1271 18.6589C23.4716 18.4904 23.7378 18.1953 23.87 17.8352C24.0023 17.4752 23.9905 17.078 23.8371 16.7264C23.4896 16.0854 22.7576 15.8749 21.8801 16.1624ZM22.7411 18.0159C21.9986 18.4614 19.9056 19.5269 19.6126 19.6784C17.8713 20.5773 16.0601 21.3335 14.1966 21.9394L14.0466 21.9894C13.7597 22.0849 13.4488 22.0785 13.1661 21.9714L7.86606 19.9489C7.77683 19.9148 7.67791 19.916 7.58956 19.9524L5.43956 20.8364L3.77456 16.7954L8.61356 14.8024C9.03599 14.658 9.49542 14.6646 9.91356 14.8209C11.1536 15.3744 15.0701 17.7589 15.1241 17.7914C15.221 17.8446 15.306 17.9172 15.3738 18.0046C15.4416 18.092 15.4908 18.1924 15.5182 18.2995C15.5456 18.4067 15.5507 18.5183 15.5333 18.6275C15.5158 18.7367 15.4761 18.8412 15.4166 18.9344C15.312 19.0971 15.1528 19.217 14.9676 19.2728C14.7825 19.3285 14.5835 19.3163 14.4066 19.2384L11.7651 18.0579C11.7199 18.0364 11.6709 18.0242 11.621 18.0219C11.571 18.0196 11.5211 18.0274 11.4742 18.0446C11.4273 18.0619 11.3843 18.0884 11.3478 18.1226C11.3112 18.1567 11.2819 18.1978 11.2615 18.2435C11.2411 18.2891 11.23 18.3384 11.2289 18.3884C11.2279 18.4384 11.2368 18.4881 11.2552 18.5346C11.2736 18.5811 11.3011 18.6234 11.3361 18.6591C11.3711 18.6948 11.4129 18.7231 11.4591 18.7424L14.1001 19.9229C14.298 20.0112 14.5123 20.0567 14.7291 20.0564C14.9354 20.0583 15.1401 20.0188 15.3309 19.9403C15.5218 19.8618 15.695 19.7458 15.8403 19.5993C15.9857 19.4528 16.1002 19.2787 16.1772 19.0872C16.2542 18.8957 16.292 18.6908 16.2886 18.4844L18.8536 17.8844C18.8781 17.8769 21.3286 17.1309 22.1146 16.8739C22.4146 16.7739 22.9561 16.6709 23.1796 17.0829C23.4031 17.4949 22.9261 17.9054 22.7411 18.0159Z" fill="#23272E"/>
</g>
<defs>
<clipPath id="clip0_2204_17286">
<rect width="24" height="24" fill="white"/>
</clipPath>
</defs>
</svg>
