<svg width="24" height="24" viewBox="0 0 24 24" fill="none" xmlns="http://www.w3.org/2000/svg">
<path d="M11.9983 3.91372C12.2853 3.91372 12.52 3.67894 12.52 3.39198V3.13111C12.52 2.84416 12.2853 2.60938 11.9983 2.60938C11.7113 2.60938 11.4766 2.84416 11.4766 3.13111V3.39198C11.4766 3.67894 11.7113 3.91372 11.9983 3.91372Z" fill="#23272E"/>
<path d="M11.9983 20.0859C11.7113 20.0859 11.4766 20.3207 11.4766 20.6077V20.8685C11.4766 21.1555 11.7113 21.3903 11.9983 21.3903C12.2853 21.3903 12.52 21.1555 12.52 20.8685V20.6077C12.52 20.3207 12.2853 20.0859 11.9983 20.0859Z" fill="#23272E"/>
<path d="M3.39198 11.4766H3.13111C2.84416 11.4766 2.60938 11.7113 2.60938 11.9983C2.60938 12.2853 2.84416 12.52 3.13111 12.52H3.39198C3.67894 12.52 3.91372 12.2853 3.91372 11.9983C3.91372 11.7113 3.67894 11.4766 3.39198 11.4766Z" fill="#23272E"/>
<path d="M20.8685 11.4766H20.6077C20.3207 11.4766 20.0859 11.7113 20.0859 11.9983C20.0859 12.2853 20.3207 12.52 20.6077 12.52H20.8685C21.1555 12.52 21.3903 12.2853 21.3903 11.9983C21.3903 11.7113 21.1555 11.4766 20.8685 11.4766Z" fill="#23272E"/>
<path d="M6.10571 5.37527C5.89701 5.16658 5.58397 5.16658 5.37527 5.37527C5.16658 5.58397 5.16658 5.89701 5.37527 6.10571L5.55788 6.28832C5.66223 6.39266 5.79266 6.44484 5.9231 6.44484C6.05353 6.44484 6.18397 6.39266 6.28832 6.28832C6.49701 6.07962 6.49701 5.76658 6.28832 5.55788L6.10571 5.37527Z" fill="#23272E"/>
<path d="M5.55788 17.7112L5.37527 17.8938C5.16658 18.1025 5.16658 18.4156 5.37527 18.6243C5.47962 18.7286 5.61005 18.7808 5.74049 18.7808C5.87092 18.7808 6.00136 18.7286 6.10571 18.6243L6.28832 18.4416C6.49701 18.2329 6.49701 17.9199 6.28832 17.7112C6.07962 17.5025 5.76658 17.5025 5.55788 17.7112Z" fill="#23272E"/>
<path d="M17.8938 5.37527L17.7112 5.55788C17.5025 5.76658 17.5025 6.07962 17.7112 6.28832C17.8156 6.39266 17.946 6.44484 18.0764 6.44484C18.2069 6.44484 18.3373 6.39266 18.4416 6.28832L18.6243 6.10571C18.8329 5.89701 18.8329 5.58397 18.6243 5.37527C18.4156 5.16658 18.1025 5.16658 17.8938 5.37527Z" fill="#23272E"/>
<path d="M12.52 11.793V7.04518C12.52 6.75822 12.2853 6.52344 11.9983 6.52344C11.7113 6.52344 11.4766 6.75822 11.4766 7.04518V12.0017C11.4766 12.1321 11.5287 12.2626 11.6331 12.3669L17.3461 18.08C17.4505 18.1843 17.5809 18.2365 17.7113 18.2365C17.8418 18.2365 17.9722 18.1843 18.0766 18.08C18.2853 17.8713 18.2853 17.5582 18.0766 17.3495L12.52 11.793Z" fill="#23272E"/>
<path d="M12 0C5.37391 0 0 5.37391 0 12C0 18.6261 5.37391 24 12 24C18.6261 24 24 18.6261 24 12C24 5.37391 18.6261 0 12 0ZM12 22.9565C5.94783 22.9565 1.04348 18.0522 1.04348 12C1.04348 5.94783 5.94783 1.04348 12 1.04348C18.0522 1.04348 22.9565 5.94783 22.9565 12C22.9565 18.0522 18.0522 22.9565 12 22.9565Z" fill="#23272E"/>
</svg>
