<svg width="33" height="33" viewBox="0 0 33 33" fill="none" xmlns="http://www.w3.org/2000/svg">
<path d="M29.8374 8.64635V19.8933C29.8362 20.9926 29.3989 22.0465 28.6216 22.8239C27.8443 23.6012 26.7904 24.0384 25.6911 24.0397H21.2078C20.9879 24.0397 20.777 23.9523 20.6214 23.7968C20.4659 23.6413 20.3786 23.4303 20.3786 23.2104C20.3786 22.9905 20.4659 22.7795 20.6214 22.624C20.777 22.4685 20.9879 22.3811 21.2078 22.3811H25.6911C26.3506 22.3804 26.983 22.118 27.4494 21.6516C27.9158 21.1853 28.1781 20.5529 28.1789 19.8933V8.64635C28.1781 7.98677 27.9158 7.35441 27.4494 6.88802C26.983 6.42163 26.3506 6.15928 25.6911 6.15854H7.44713C6.78755 6.15928 6.1552 6.42163 5.6888 6.88802C5.22241 7.35441 4.96006 7.98677 4.95932 8.64635V19.8933C4.96006 20.5529 5.22241 21.1853 5.6888 21.6516C6.1552 22.118 6.78755 22.3804 7.44713 22.3811H12.2437C12.4637 22.3811 12.6746 22.4685 12.8301 22.624C12.9856 22.7795 13.073 22.9905 13.073 23.2104C13.073 23.4303 12.9856 23.6413 12.8301 23.7968C12.6746 23.9523 12.4637 24.0397 12.2437 24.0397H7.44713C6.34783 24.0384 5.29392 23.6012 4.5166 22.8239C3.73928 22.0465 3.30203 20.9926 3.30078 19.8933V8.64635C3.30202 7.54705 3.73926 6.49312 4.51658 5.7158C5.29391 4.93848 6.34783 4.50123 7.44713 4.5H25.6911C26.7904 4.50123 27.8443 4.93848 28.6216 5.7158C29.3989 6.49312 29.8362 7.54705 29.8374 8.64635ZM21.1771 17.972C21.343 17.8276 21.4448 17.6233 21.4601 17.4039C21.4754 17.1845 21.4029 16.968 21.2586 16.8021L17.1948 12.1301C17.1169 12.0406 17.0208 11.9688 16.9129 11.9197C16.8049 11.8705 16.6877 11.845 16.5691 11.845C16.4505 11.845 16.3333 11.8705 16.2253 11.9197C16.1174 11.9688 16.0213 12.0406 15.9434 12.1301L11.8796 16.8022C11.7364 16.9683 11.6648 17.1843 11.6805 17.4031C11.6963 17.6218 11.798 17.8255 11.9635 17.9694C12.129 18.1133 12.3447 18.1858 12.5635 18.1711C12.7824 18.1563 12.9864 18.0554 13.131 17.8906L15.7398 14.8914V27.6707C15.7398 27.8907 15.8272 28.1016 15.9827 28.2571C16.1382 28.4126 16.3492 28.5 16.5691 28.5C16.789 28.5 17 28.4126 17.1555 28.2571C17.311 28.1016 17.3984 27.8907 17.3984 27.6707V14.8914L20.0071 17.8906C20.0786 17.9728 20.1656 18.04 20.263 18.0886C20.3605 18.1372 20.4666 18.1661 20.5752 18.1736C20.6839 18.1812 20.7929 18.1673 20.8962 18.1327C20.9995 18.0981 21.0949 18.0435 21.1771 17.9721V17.972Z" fill="#304880"/>
</svg>
