<svg width="16" height="16" viewBox="0 0 16 16" fill="none" xmlns="http://www.w3.org/2000/svg">
<path d="M14.1254 6.67117C13.9088 6.5453 13.7143 6.38497 13.5494 6.1965C13.566 5.93411 13.6285 5.67667 13.734 5.43584C13.928 4.8885 14.1474 4.2685 13.7954 3.7865C13.4434 3.3045 12.7787 3.31984 12.1954 3.33317C11.9376 3.35969 11.6772 3.34211 11.4254 3.28117C11.2912 3.06284 11.1954 2.82316 11.142 2.5725C10.9767 2.00917 10.788 1.3725 10.2087 1.18184C9.65003 1.00184 9.1327 1.39784 8.67536 1.74584C8.47803 1.92605 8.24937 2.06862 8.0007 2.1665C7.74943 2.06942 7.51823 1.92681 7.3187 1.74584C6.8627 1.39984 6.34737 0.999837 5.78603 1.1825C5.20803 1.3705 5.01936 2.00917 4.8527 2.5725C4.79945 2.82235 4.70457 3.06146 4.57203 3.27984C4.31971 3.34061 4.05898 3.35864 3.8007 3.33317C3.21536 3.31717 2.55603 3.29984 2.2007 3.7865C1.84536 4.27317 2.06736 4.8885 2.26203 5.43517C2.36899 5.67564 2.43242 5.93319 2.44936 6.19584C2.28475 6.38455 2.09041 6.54511 1.87403 6.67117C1.38603 7.0045 0.832031 7.38384 0.832031 7.99984C0.832031 8.61584 1.38603 8.99384 1.87403 9.3285C2.09036 9.45436 2.2847 9.61469 2.44936 9.80317C2.4342 10.0657 2.37258 10.3235 2.26736 10.5645C2.07403 11.1112 1.85536 11.7312 2.2067 12.2132C2.55803 12.6952 3.2207 12.6798 3.8067 12.6665C4.06468 12.64 4.32529 12.6575 4.57736 12.7185C4.71095 12.9371 4.80653 13.1767 4.86003 13.4272C5.02536 13.9905 5.21403 14.6272 5.79337 14.8178C5.88625 14.8476 5.98316 14.8629 6.0807 14.8632C6.5495 14.7959 6.98522 14.5827 7.32603 14.2538C7.52337 14.0736 7.75203 13.9311 8.0007 13.8332C8.25197 13.9303 8.48317 14.0729 8.6827 14.2538C9.13937 14.6025 9.6567 15.0005 10.216 14.8172C10.794 14.6292 10.9827 13.9905 11.1494 13.4278C11.2028 13.1775 11.2984 12.9381 11.432 12.7198C11.6834 12.6586 11.9433 12.6406 12.2007 12.6665C12.786 12.6805 13.4454 12.6998 13.8007 12.2132C14.156 11.7265 13.934 11.1112 13.7394 10.5638C13.6331 10.3236 13.5697 10.0666 13.552 9.8045C13.7167 9.61562 13.9113 9.45504 14.128 9.32917C14.616 8.99584 15.17 8.61584 15.17 7.99984C15.17 7.38384 14.614 7.00517 14.1254 6.67117Z" fill="#333399"/>
<path d="M7.33258 9.83301C7.26691 9.83313 7.20187 9.82024 7.14123 9.79506C7.08058 9.76989 7.02552 9.73293 6.97925 9.68634L5.64591 8.35301C5.55759 8.25823 5.50951 8.13286 5.5118 8.00333C5.51408 7.87379 5.56656 7.7502 5.65817 7.6586C5.74977 7.56699 5.87336 7.51451 6.0029 7.51223C6.13243 7.50994 6.2578 7.55802 6.35258 7.64634L7.37925 8.67301L9.69925 6.93301C9.80533 6.85344 9.93868 6.81928 10.07 6.83804C10.2012 6.85679 10.3197 6.92692 10.3992 7.03301C10.4788 7.1391 10.513 7.27244 10.4942 7.40372C10.4755 7.535 10.4053 7.65345 10.2992 7.73301L7.63258 9.73301C7.54601 9.79788 7.44076 9.83296 7.33258 9.83301Z" fill="white"/>
</svg>
