<svg width="38" height="38" viewBox="0 0 38 38" fill="none" xmlns="http://www.w3.org/2000/svg">
<path d="M12.5122 26.9297C12.2101 26.9304 11.9146 26.8413 11.6633 26.6737C11.4119 26.5062 11.216 26.2677 11.1004 25.9886C10.9848 25.7095 10.9548 25.4023 11.014 25.1061C11.0733 24.8099 11.2193 24.538 11.4334 24.3248L24.3815 11.3766C24.5232 11.2349 24.6914 11.1225 24.8765 11.0458C25.0616 10.9691 25.26 10.9297 25.4604 10.9297C25.6607 10.9297 25.8592 10.9691 26.0443 11.0458C26.2294 11.1225 26.3976 11.2349 26.5393 11.3766C26.6809 11.5182 26.7934 11.6864 26.8701 11.8716C26.9467 12.0567 26.9862 12.2551 26.9862 12.4554C26.9862 12.6558 26.9467 12.8542 26.8701 13.0394C26.7934 13.2244 26.6809 13.3926 26.5393 13.5343L13.5911 26.4826C13.4498 26.6248 13.2817 26.7375 13.0964 26.8143C12.9113 26.891 12.7127 26.9303 12.5122 26.9297Z" fill="#FB2525"/>
<path d="M25.4623 26.9297C25.2618 26.9299 25.0634 26.8905 24.8782 26.8138C24.693 26.7371 24.5249 26.6245 24.3834 26.4826L11.4351 13.5343C11.2935 13.3926 11.1811 13.2244 11.1044 13.0394C11.0278 12.8542 10.9883 12.6558 10.9883 12.4554C10.9883 12.2551 11.0278 12.0567 11.1044 11.8716C11.1811 11.6864 11.2935 11.5182 11.4351 11.3766C11.5769 11.2349 11.7451 11.1225 11.9302 11.0458C12.1153 10.9691 12.3137 10.9297 12.5141 10.9297C12.7145 10.9297 12.9128 10.9691 13.098 11.0458C13.2831 11.1225 13.4513 11.2349 13.593 11.3766L26.5411 24.3248C26.7552 24.538 26.9012 24.8099 26.9604 25.1061C27.0197 25.4023 26.9897 25.7095 26.8741 25.9886C26.7584 26.2677 26.5626 26.5062 26.3112 26.6737C26.0598 26.8413 25.7644 26.9304 25.4623 26.9297Z" fill="#FB2525"/>
<path d="M18.9982 0.136719C8.64199 0.136719 0.214844 8.56387 0.214844 18.9201C0.214844 29.2764 8.64199 37.7035 18.9982 37.7035C29.3545 37.7035 37.7817 29.2764 37.7817 18.9201C37.7817 8.56387 29.3545 0.136719 18.9982 0.136719ZM18.9982 34.6576C10.3173 34.6576 3.2608 27.6011 3.2608 18.9201C3.2608 10.2391 10.3173 3.18268 18.9982 3.18268C27.6792 3.18268 34.7357 10.2391 34.7357 18.9201C34.7357 27.6011 27.6792 34.6576 18.9982 34.6576Z" fill="#FB2525"/>
</svg>
