<svg width="14" height="11" viewBox="0 0 14 11" fill="none" xmlns="http://www.w3.org/2000/svg">
<path d="M12.5547 2.93359C12.6273 3.6645 12.6644 4.40582 12.6644 5.15582C12.6644 5.90581 12.6273 6.64714 12.5547 7.37804" stroke="white" stroke-width="0.7" stroke-linecap="round"/>
<path d="M10.375 3.48828C10.4203 4.03784 10.4435 4.59369 10.4435 5.15495C10.4435 5.7162 10.4203 6.27206 10.375 6.82161" stroke="white" stroke-width="0.7" stroke-linecap="round"/>
<path d="M7.66667 5.15625C7.66667 3.98687 7.58471 2.83799 7.4266 1.71587C7.32407 0.988137 6.47899 0.669464 5.89373 1.11397L4.8696 1.89181C4.52168 2.15605 4.09682 2.29911 3.65993 2.29911H3C1.89543 2.29911 1 3.19454 1 4.29911V6.01339C1 7.11796 1.89543 8.01339 3 8.01339H3.65993C4.09682 8.01339 4.52168 8.15645 4.8696 8.42069L5.89373 9.19853C6.47899 9.64304 7.32407 9.32436 7.4266 8.59663C7.58471 7.47451 7.66667 6.32563 7.66667 5.15625Z" fill="white" stroke="white" stroke-width="0.5" stroke-linejoin="round"/>
</svg>
