<svg width="41" height="38" viewBox="0 0 41 38" fill="none" xmlns="http://www.w3.org/2000/svg">
<path d="M-18.8437 30.3746C-18.8437 34.7929 -15.2463 38.4297 -10.8676 37.8397C-5.76543 37.1522 -0.762323 35.8065 4.01471 33.8278C11.2617 30.826 17.8465 26.4261 23.3932 20.8795C28.9398 15.3329 33.3396 8.74806 36.3415 1.50104C38.3202 -3.276 39.6659 -8.2791 40.3534 -13.3813C40.9433 -17.76 37.3066 -21.3574 32.8883 -21.3574L-10.8438 -21.3574C-15.262 -21.3574 -18.8437 -17.7757 -18.8437 -13.3574L-18.8437 30.3746Z" fill="#6A6AD2"/>
<path d="M-18.8437 30.3746C-18.8437 34.7929 -15.2463 38.4297 -10.8676 37.8397C-5.76543 37.1522 -0.762323 35.8065 4.01471 33.8278C11.2617 30.826 17.8465 26.4261 23.3932 20.8795C28.9398 15.3329 33.3396 8.74806 36.3415 1.50104C38.3202 -3.276 39.6659 -8.2791 40.3534 -13.3813C40.9433 -17.76 37.3066 -21.3574 32.8883 -21.3574L-10.8438 -21.3574C-15.262 -21.3574 -18.8437 -17.7757 -18.8437 -13.3574L-18.8437 30.3746Z" fill="url(#paint0_linear_1065_60790)"/>
<defs>
<linearGradient id="paint0_linear_1065_60790" x1="11.0223" y1="-21.3574" x2="11.0223" y2="38.3746" gradientUnits="userSpaceOnUse">
<stop stop-color="#333399" stop-opacity="0"/>
<stop offset="1" stop-color="#080895"/>
</linearGradient>
</defs>
</svg>
