<svg width="137" height="139" viewBox="0 0 137 139" fill="none" xmlns="http://www.w3.org/2000/svg">
<g clip-path="url(#clip0_272_51977)">
<path d="M65.1934 127.594C99.6863 127.594 127.648 99.6115 127.648 65.0938C127.648 30.576 99.6863 2.59375 65.1934 2.59375C30.7004 2.59375 2.73828 30.576 2.73828 65.0938C2.73828 99.6115 30.7004 127.594 65.1934 127.594Z" fill="#F1F3F9" stroke="#D6DCE8" stroke-width="2" stroke-miterlimit="10"/>
<path d="M133.006 102.066L73.9271 136.161C70.9775 137.896 66.5531 138.069 64.0372 136.594L3.13613 101.372C0.620266 99.8975 0.880527 97.3817 3.83016 95.6466L62.9094 61.5524C65.859 59.8174 70.2835 59.6438 72.7993 61.1187L133.7 96.3406C136.216 97.8155 135.956 100.331 133.006 102.066Z" fill="#F1F3F9" stroke="#D6DCE8" stroke-width="2" stroke-miterlimit="10"/>
<path d="M64.3136 90.0535L33.863 107.577C32.7352 108.271 31.0002 108.358 29.9591 107.751L14.7772 98.9891C13.7362 98.3819 13.9097 97.4276 15.0375 96.7335L45.488 79.1226C46.6158 78.4285 48.3509 78.3418 49.3919 78.949L64.5738 87.7112C65.6149 88.3184 65.4414 89.3595 64.3136 90.0535Z" fill="#D6DCE8"/>
<path d="M100.489 111.482L70.0378 129.007C68.91 129.701 67.175 129.787 66.1339 129.18L36.8084 112.669C35.7674 112.062 35.9409 111.108 37.0687 110.414L67.5192 92.8022C68.647 92.1082 70.3821 92.0215 71.4231 92.6287L100.749 109.14C101.79 109.747 101.617 110.788 100.489 111.482Z" fill="#D6DCE8"/>
<path opacity="0.2" d="M73.9246 130.958L133.004 96.8647C133.019 96.8556 133.035 96.8464 133.05 96.8372L72.7968 61.9898C70.2809 60.515 65.8566 60.6885 62.907 62.4236L3.82769 96.5177C3.81214 96.5269 3.79666 96.5361 3.78125 96.5452L64.0347 131.392C66.5505 132.867 70.975 132.693 73.9246 130.958Z" fill="#AAB2C5"/>
<path d="M133.006 82.9805L73.9271 117.075C70.9775 118.81 66.5531 118.983 64.0372 117.509L3.13613 82.2864C0.620266 80.8116 0.880527 78.2958 3.83016 76.5607L62.9094 42.4665C65.859 40.7314 70.2835 40.5579 72.7993 42.0327L133.7 77.2547C136.216 78.7295 135.956 81.2454 133.006 82.9805Z" fill="#F1F3F9" stroke="#D6DCE8" stroke-width="2" stroke-miterlimit="10"/>
<path d="M27.2522 74.1346L16.5815 80.2941C15.714 80.7279 14.4127 80.7279 13.5452 80.2941C12.6776 79.8603 12.6776 79.0796 13.5452 78.559L24.2159 72.3995C25.0834 71.9658 26.3847 71.9658 27.2522 72.3995C28.1198 72.8333 28.033 73.6141 27.2522 74.1346Z" fill="#AAB2C5"/>
<path d="M38.0101 79.9452L27.4262 86.0179C26.7322 86.3649 25.5176 86.3649 24.9971 86.0179C24.3031 85.6709 24.3031 84.9769 24.9971 84.6299L35.581 78.5571C36.2751 78.2101 37.4896 78.2101 38.0101 78.5571C38.7042 78.9041 38.6174 79.5114 38.0101 79.9452Z" fill="#AAB2C5"/>
<path d="M54.4082 92.699L46.6871 97.1234C46.0798 97.4704 44.8653 97.3837 44.3448 97.1234C43.6507 96.7764 43.6507 96.0824 44.3448 95.7354L52.0659 91.3109C52.6731 90.9639 53.8877 91.0507 54.4082 91.3109C54.7552 91.658 54.9287 92.352 54.4082 92.699Z" fill="#AAB2C5"/>
<path d="M100.039 66.3263L89.195 72.5725C88.5009 73.0063 87.2864 72.9195 86.7659 72.5725C86.0718 72.2255 86.1586 71.5315 86.7659 71.1845L97.6101 64.9382C98.3041 64.5044 99.5187 64.5912 100.039 64.9382C100.56 65.2852 100.646 65.9792 100.039 66.3263Z" fill="#AAB2C5"/>
<path d="M83.1221 76.127L60.3926 89.2268C59.6986 89.6606 58.4841 89.5738 57.9635 89.2268C57.2695 88.8798 57.3563 88.1858 58.0503 87.8388L80.7797 74.739C81.4738 74.3052 82.6883 74.3919 83.2089 74.739C83.6426 75.086 83.7294 75.78 83.1221 76.127Z" fill="#AAB2C5"/>
<path d="M71.3256 90.0958L57.2715 98.1639C56.5775 98.5976 55.3629 98.5109 54.8424 98.1639C54.1484 97.8169 54.2351 97.1228 54.9292 96.7758L68.9832 88.7077C69.6773 88.274 70.8918 88.3607 71.4123 88.7077C71.9329 89.1415 71.9329 89.7488 71.3256 90.0958Z" fill="#AAB2C5"/>
<path d="M84.3371 82.5468L76.7028 86.9712C76.0088 87.3182 74.7942 87.3182 74.2737 86.9712C73.5797 86.6242 73.6664 85.9302 74.2737 85.5832L81.908 81.1587C82.6021 80.8117 83.8166 80.8117 84.3371 81.1587C84.9444 81.5925 84.8576 82.2865 84.3371 82.5468Z" fill="#AAB2C5"/>
<path d="M76.0101 95.3029L59.7872 104.672C59.0932 105.106 57.8786 105.019 57.3581 104.672C56.6641 104.325 56.7508 103.631 57.4449 103.284L73.6678 93.9148C74.3618 93.4811 75.5764 93.5678 76.0969 93.9148C76.7042 94.2619 76.7909 94.7824 76.0101 95.3029Z" fill="#AAB2C5"/>
<path d="M87.5467 88.6209L81.3004 92.1778C80.6064 92.5249 79.3919 92.5249 78.8713 92.1778C78.1773 91.8308 78.2641 91.1368 78.8713 90.7898L85.1176 87.2329C85.8116 86.8859 87.0262 86.8859 87.5467 87.2329C88.2407 87.5799 88.3275 88.1004 87.5467 88.6209Z" fill="#AAB2C5"/>
<path d="M72.7969 104.236L65.9434 108.227C65.2494 108.661 64.0348 108.574 63.5143 108.227C62.8203 107.88 62.907 107.186 63.601 106.839L70.4546 102.848C71.1486 102.414 72.3632 102.501 72.8837 102.848C73.5777 103.195 73.6645 103.803 72.7969 104.236Z" fill="#AAB2C5"/>
<path d="M78.699 100.855L77.3977 101.636C76.7904 101.983 75.5759 101.896 75.0554 101.636C74.3613 101.289 74.3613 100.681 74.9686 100.248L76.2699 99.4671C76.8772 99.1201 78.0917 99.2069 78.6123 99.4671C79.3063 99.9009 79.3063 100.508 78.699 100.855Z" fill="#AAB2C5"/>
<path d="M43.2168 91.9176L40.3539 93.5659C39.7467 93.9129 38.6189 93.8262 38.0983 93.4792C37.4043 93.1322 37.4043 92.5249 38.0116 92.1779L40.8745 90.5296C41.4817 90.1825 42.6095 90.2693 43.13 90.6163C43.7373 91.0501 43.8241 91.6574 43.2168 91.9176Z" fill="#AAB2C5"/>
<path d="M68.2872 77.5185L50.5895 87.6686C49.8955 88.1024 48.6809 88.0157 48.1604 87.6686C47.4664 87.3216 47.5531 86.6276 48.1604 86.2806L65.8582 76.0437C66.5522 75.6099 67.7667 75.6966 68.2872 76.0437C68.9813 76.4774 68.9813 77.0847 68.2872 77.5185Z" fill="#AAB2C5"/>
<path d="M49.8969 80.2052L33.6739 89.5745C32.9799 90.0083 31.7654 89.9216 31.2448 89.5745C30.5508 89.2275 30.6376 88.5335 31.3316 88.1865L47.4678 78.8171C48.1618 78.3833 49.3763 78.4701 49.8969 78.8171C50.6777 79.1641 50.7644 79.7714 49.8969 80.2052Z" fill="#AAB2C5"/>
<path d="M71.4976 67.713L55.3614 77.0824C54.6674 77.5162 53.4528 77.4294 52.9323 77.0824C52.2383 76.7354 52.325 76.0414 53.0191 75.6943L69.242 66.325C69.936 65.8912 71.1506 65.9779 71.6711 66.325C72.2784 66.672 72.3651 67.2792 71.4976 67.713Z" fill="#AAB2C5"/>
<path d="M83.1209 61.0351L76.8746 64.592C76.1806 64.939 74.966 64.939 74.4455 64.592C73.7515 64.245 73.8383 63.551 74.4455 63.2039L80.6918 59.647C81.3858 59.3 82.6004 59.3 83.1209 59.647C83.8149 60.0808 83.9017 60.6013 83.1209 61.0351Z" fill="#AAB2C5"/>
<path opacity="0.2" d="M122.334 71.5518L73.5101 99.7274C70.5605 101.462 66.136 101.636 63.6202 100.161L14.0859 71.5132L62.9092 43.3376C65.8588 41.6025 70.2833 41.429 72.7991 42.9038L122.334 71.5518Z" fill="#AAB2C5"/>
<path d="M132.588 43.5391L73.5091 77.6332C70.5595 79.3683 66.1351 79.5418 63.6192 78.067L2.71815 42.8451C0.202299 41.3703 0.46256 38.8544 3.41218 37.1193L62.4914 3.0251C65.441 1.29003 69.8655 1.11652 72.3813 2.59133L133.282 37.8134C135.798 39.2882 135.538 41.804 132.588 43.5391Z" fill="white" stroke="#D6DCE8" stroke-width="2" stroke-miterlimit="10"/>
<path d="M27.096 34.8651L16.4253 41.0246C15.5578 41.4583 14.2565 41.4583 13.3889 41.0246C12.5214 40.5908 12.5214 39.81 13.3889 39.2895L24.0596 33.13C24.9272 32.6962 26.2285 32.6962 27.096 33.13C27.9636 33.5638 27.9636 34.4313 27.096 34.8651Z" fill="#AAB2C5"/>
<path d="M46.8743 30.6112L22.67 44.5786C22.1495 44.8388 21.282 44.8388 20.7615 44.5786C20.2409 44.3183 20.2409 43.7978 20.7615 43.5375L44.9657 29.5702C45.4862 29.3099 46.3538 29.3099 46.8743 29.5702C47.3948 29.8304 47.3948 30.351 46.8743 30.6112Z" fill="#D6DCE8"/>
<path d="M78.1083 63.1452L66.9171 69.5648C65.8761 70.1721 64.2277 70.2589 63.2735 69.7383L29.0058 49.9586C28.0515 49.4381 28.225 48.4838 29.266 47.8765L40.4572 41.4568C41.4983 40.8495 43.1466 40.7627 44.1009 41.2832L78.3686 61.0631C79.2361 61.5836 79.1494 62.5379 78.1083 63.1452Z" fill="#D6DCE8"/>
<path d="M99.0127 29.3973L68.5622 46.9215C67.4344 47.6155 65.6993 47.7023 64.6583 47.095L49.4764 38.3329C48.4354 37.7256 48.6089 36.7713 49.7367 36.0773L80.1872 18.4663C81.315 17.7723 83.0501 17.6855 84.0911 18.2928L99.273 27.0549C100.315 27.6622 100.141 28.7032 99.0127 29.3973Z" fill="#D6DCE8"/>
<path d="M98.4064 51.4319L86.4344 58.3722C85.8271 58.7192 84.8728 58.8059 84.2655 58.4589L72.6405 51.7789C72.12 51.4319 72.12 50.9114 72.8141 50.5644L84.7861 43.6241C85.3933 43.277 86.3476 43.1903 86.9549 43.5373L98.5799 50.2173C99.1004 50.5644 99.0137 51.0849 98.4064 51.4319Z" fill="#D6DCE8"/>
<path d="M118.622 39.8069L106.649 46.7472C106.042 47.0942 105.088 47.1809 104.481 46.8339L92.8554 40.1539C92.3349 39.8069 92.3349 39.2864 93.0289 38.9393L105 31.9991C105.608 31.652 106.562 31.5653 107.169 31.9123L118.794 38.5923C119.315 38.8526 119.229 39.4599 118.622 39.8069Z" fill="#D6DCE8"/>
</g>
<defs>
<clipPath id="clip0_272_51977">
<rect width="137" height="138" fill="white" transform="translate(0 0.59375)"/>
</clipPath>
</defs>
</svg>
