<svg width="41" height="41" viewBox="0 0 41 41" fill="none" xmlns="http://www.w3.org/2000/svg">
<g id="clarity:contract-line">
<path id="Vector" d="M9.1111 9.33888H27.3333V11.1611H9.1111V9.33888ZM9.1111 18.45H18.3202V20.2722H9.1111V18.45ZM26.6249 13.8944H9.1111V15.7167H24.8038L26.6249 13.8944ZM14.5698 33.1098C14.8761 33.461 15.2649 33.7307 15.7013 33.8945C16.1376 34.0583 16.6078 34.1111 17.0697 34.0482H25.9564C26.1678 34.0482 26.3706 33.9642 26.5201 33.8147C26.6696 33.6652 26.7536 33.4624 26.7536 33.251C26.7536 33.0396 26.6696 32.8368 26.5201 32.6873C26.3706 32.5378 26.1678 32.4538 25.9564 32.4538H17.0697C16.0321 32.4355 16.2166 31.5347 16.3624 31.2557C16.5525 30.9282 16.7005 30.5781 16.8032 30.2136C16.8712 29.9203 16.8392 29.6127 16.712 29.3398C16.5848 29.0669 16.3699 28.8445 16.1016 28.708C15.6705 28.5137 15.1876 28.4661 14.7268 28.5725C14.2661 28.6788 13.8529 28.9332 13.5505 29.2968C13.1587 29.7011 12.6143 30.3195 12.0927 30.9208C12.415 29.6578 12.833 28.0372 13.243 26.4564C13.3605 26.0962 13.3371 25.7049 13.1775 25.3612C13.018 25.0176 12.7341 24.7472 12.3831 24.6045C11.9944 24.4712 11.5696 24.4902 11.1944 24.6579C10.8192 24.8255 10.5216 25.1292 10.3616 25.5077C9.8696 26.4541 5.9746 32.9811 5.93588 33.0471C5.88218 33.137 5.84672 33.2366 5.83151 33.3402C5.81631 33.4438 5.82165 33.5494 5.84724 33.6509C5.87284 33.7524 5.91818 33.8479 5.98067 33.9319C6.04317 34.0159 6.1216 34.0868 6.21149 34.1405C6.39302 34.2489 6.61019 34.2808 6.81523 34.2291C7.02027 34.1774 7.19638 34.0464 7.30482 33.8649C7.4506 33.62 10.5598 28.4119 11.5403 26.6728C10.8023 29.52 9.98918 32.6884 9.94135 32.9731C9.8875 33.1824 9.90367 33.4036 9.98737 33.6029C10.0711 33.8022 10.2177 33.9686 10.4049 34.0767C10.6134 34.1801 10.8503 34.2111 11.0784 34.1649C11.3065 34.1187 11.5127 33.9979 11.6645 33.8216C11.808 33.6917 12.0768 33.3831 12.7544 32.5961C13.3858 31.8536 14.0324 31.1242 14.6939 30.4083C14.9422 30.1464 15.0925 30.2625 14.9468 30.5199C14.6616 30.8803 14.4767 31.3096 14.4107 31.7643C14.3447 32.2191 14.3988 32.6832 14.5698 33.1098Z" fill="#043866"/>
<path id="Vector_2" d="M31.8889 24.7082V36.4444H4.55555V4.55555H31.8889V10.242L33.4036 8.7273C33.6368 8.49732 33.8924 8.29129 34.1667 8.1123V3.41666C34.1667 3.11461 34.0467 2.82493 33.8331 2.61134C33.6195 2.39776 33.3298 2.27777 33.0278 2.27777H3.41666C3.11461 2.27777 2.82493 2.39776 2.61134 2.61134C2.39776 2.82493 2.27777 3.11461 2.27777 3.41666V37.5833C2.27777 37.8854 2.39776 38.1751 2.61134 38.3886C2.82493 38.6022 3.11461 38.7222 3.41666 38.7222H33.0278C33.3298 38.7222 33.6195 38.6022 33.8331 38.3886C34.0467 38.1751 34.1667 37.8854 34.1667 37.5833V24.403C33.4681 24.7731 32.6602 24.8814 31.8889 24.7082Z" fill="#043866"/>
<path id="Vector_3" d="M38.868 13.5084L38.2724 12.9127C38.5768 12.5104 38.7309 12.0143 38.708 11.5103C38.6851 11.0064 38.4867 10.5263 38.1471 10.1532C37.7062 9.76465 37.1297 9.56603 36.5431 9.60058C35.9565 9.63514 35.4073 9.90008 35.0151 10.3377L20.7505 24.6L19.7973 28.1784C19.7822 28.2252 19.7804 28.2753 19.792 28.3231C19.8036 28.3709 19.8282 28.4145 19.8632 28.4492C19.8981 28.4839 19.9419 28.5082 19.9897 28.5195C20.0376 28.5308 20.0877 28.5286 20.1344 28.5132L23.7003 27.5486L37.0162 14.2327L37.5788 14.7964C37.6181 14.8357 37.6492 14.8823 37.6705 14.9336C37.6918 14.9849 37.7027 15.0399 37.7027 15.0954C37.7027 15.1509 37.6918 15.2059 37.6705 15.2572C37.6492 15.3085 37.6181 15.3551 37.5788 15.3944L31.9789 20.9943C31.808 21.1652 31.7121 21.3971 31.7122 21.6387C31.7124 21.8804 31.8085 22.1121 31.9794 22.2829C32.1504 22.4537 32.3822 22.5496 32.6239 22.5495C32.8655 22.5494 33.0973 22.4533 33.2681 22.2824L38.868 16.6824C39.2889 16.2613 39.5253 15.6903 39.5253 15.0948C39.5253 14.4994 39.2889 13.9284 38.868 13.5072V13.5084Z" fill="#043866"/>
</g>
</svg>
