<svg width="41" height="34" viewBox="0 0 41 34" fill="none" xmlns="http://www.w3.org/2000/svg">
<g id="fontisto:list-2" clip-path="url(#clip0_1405_45018)">
<path id="Vector" d="M9.42579 3.77683H39.5862C40.0734 3.75829 40.5346 3.55141 40.8728 3.19958C41.2111 2.84775 41.4003 2.37833 41.4007 1.88978C41.401 1.40123 41.2126 0.93152 40.8748 0.579186C40.537 0.226853 40.0762 0.0192759 39.5891 0L9.42579 0C8.93858 0.0185434 8.47747 0.225428 8.13919 0.577253C7.80091 0.929078 7.61174 1.3985 7.61138 1.88705C7.61101 2.3756 7.79947 2.84531 8.13723 3.19765C8.47498 3.54998 8.93578 3.75756 9.42296 3.77683H9.42579ZM39.5848 7.55508H9.42438L9.37207 7.55367C8.87187 7.55367 8.39216 7.75277 8.03846 8.10719C7.68477 8.4616 7.48607 8.94228 7.48607 9.4435C7.48607 9.94471 7.68477 10.4254 8.03846 10.7798C8.39216 11.1342 8.87187 11.3333 9.37207 11.3333L9.42721 11.3319H9.42438H39.5848C40.072 11.3134 40.5331 11.1065 40.8714 10.7547C41.2097 10.4028 41.3989 9.93341 41.3992 9.44486C41.3996 8.95631 41.2111 8.4866 40.8734 8.13427C40.5356 7.78194 40.0748 7.57436 39.5877 7.55508H39.5848ZM39.5848 15.1116H9.42438C8.93717 15.1301 8.47606 15.337 8.13778 15.6888C7.79949 16.0407 7.61033 16.5101 7.60996 16.9986C7.6096 17.4872 7.79806 17.9569 8.13581 18.3092C8.47357 18.6616 8.93437 18.8691 9.42155 18.8884H39.5848C40.072 18.8699 40.5331 18.663 40.8714 18.3112C41.2097 17.9593 41.3989 17.4899 41.3992 17.0014C41.3996 16.5128 41.2111 16.0431 40.8734 15.6908C40.5356 15.3384 40.0748 15.1309 39.5877 15.1116H39.5848ZM39.5848 30.2218H9.42438C8.93717 30.2403 8.47606 30.4472 8.13778 30.799C7.79949 31.1508 7.61033 31.6203 7.60996 32.1088C7.6096 32.5974 7.79806 33.0671 8.13581 33.4194C8.47357 33.7717 8.93437 33.9793 9.42155 33.9986H39.5848C40.072 33.98 40.5331 33.7732 40.8714 33.4213C41.2097 33.0695 41.3989 32.6001 41.3992 32.1115C41.3996 31.623 41.2111 31.1533 40.8734 30.8009C40.5356 30.4486 40.0748 30.241 39.5877 30.2218H39.5848ZM39.5848 22.6667H9.42438C8.93717 22.6852 8.47606 22.8921 8.13778 23.2439C7.79949 23.5957 7.61033 24.0652 7.60996 24.5537C7.6096 25.0423 7.79806 25.512 8.13581 25.8643C8.47357 26.2166 8.93437 26.4242 9.42155 26.4435H39.5848C40.072 26.425 40.5331 26.2181 40.8714 25.8662C41.2097 25.5144 41.3989 25.045 41.3992 24.5564C41.3996 24.0679 41.2111 23.5982 40.8734 23.2459C40.5356 22.8935 40.0748 22.6859 39.5877 22.6667H39.5848ZM1.88603 0H1.88321C1.38313 0.000375631 0.903674 0.199745 0.550266 0.55427C0.196858 0.908795 -0.00156822 1.38945 -0.00138079 1.89054C-0.00119335 2.39163 0.197592 2.87214 0.551266 3.2264C0.904939 3.58066 1.38454 3.77967 1.88462 3.77967C2.38469 3.77967 2.8643 3.58066 3.21797 3.2264C3.57165 2.87214 3.77043 2.39163 3.77062 1.89054C3.77081 1.38945 3.57238 0.908795 3.21897 0.55427C2.86556 0.199745 2.38611 0.000375631 1.88603 0ZM1.88603 7.55508H1.88321C1.38313 7.55546 0.903674 7.75483 0.550266 8.10935C0.196858 8.46388 -0.00156822 8.94453 -0.00138079 9.44562C-0.00119335 9.94672 0.197592 10.4272 0.551266 10.7815C0.904939 11.1357 1.38454 11.3347 1.88462 11.3347C2.38469 11.3347 2.8643 11.1357 3.21797 10.7815C3.57165 10.4272 3.77043 9.94672 3.77062 9.44562C3.77081 8.94453 3.57238 8.46388 3.21897 8.10935C2.86556 7.75483 2.38611 7.55546 1.88603 7.55508ZM1.88603 15.1116H1.88321C1.38313 15.112 0.903674 15.3113 0.550266 15.6659C0.196858 16.0204 -0.00156822 16.501 -0.00138079 17.0021C-0.00119335 17.5032 0.197592 17.9837 0.551266 18.338C0.904939 18.6922 1.38454 18.8912 1.88462 18.8912C2.38469 18.8912 2.8643 18.6922 3.21797 18.338C3.57165 17.9837 3.77043 17.5032 3.77062 17.0021C3.77081 16.501 3.57238 16.0204 3.21897 15.6659C2.86556 15.3113 2.38611 15.112 1.88603 15.1116ZM1.88603 30.2218H1.88321C1.38313 30.2221 0.903674 30.4215 0.550266 30.776C0.196858 31.1305 -0.00156822 31.6112 -0.00138079 32.1123C-0.00119335 32.6134 0.197592 33.0939 0.551266 33.4481C0.904939 33.8024 1.38454 34.0014 1.88462 34.0014C2.38469 34.0014 2.8643 33.8024 3.21797 33.4481C3.57165 33.0939 3.77043 32.6134 3.77062 32.1123C3.77081 31.6112 3.57238 31.1305 3.21897 30.776C2.86556 30.4215 2.38611 30.2221 1.88603 30.2218ZM1.88603 22.6667H1.88321C1.38313 22.667 0.903674 22.8664 0.550266 23.2209C0.196858 23.5755 -0.00156822 24.0561 -0.00138079 24.5572C-0.00119335 25.0583 0.197592 25.5388 0.551266 25.8931C0.904939 26.2473 1.38454 26.4463 1.88462 26.4463C2.38469 26.4463 2.8643 26.2473 3.21797 25.8931C3.57165 25.5388 3.77043 25.0583 3.77062 24.5572C3.77081 24.0561 3.57238 23.5755 3.21897 23.2209C2.86556 22.8664 2.38611 22.667 1.88603 22.6667Z" fill="#E56353"/>
</g>
<defs>
<clipPath id="clip0_1405_45018">
<rect width="41" height="34" fill="white"/>
</clipPath>
</defs>
</svg>
