<svg width="53" height="53" viewBox="0 0 53 53" fill="none" xmlns="http://www.w3.org/2000/svg">
<g id="la:handshake">
<path id="Vector" d="M31.9872 11.5424C31.0679 11.549 30.1553 11.5937 29.1914 11.8521C28.1413 12.1372 27.1449 12.592 26.2416 13.1987C24.9729 12.4533 23.744 11.8405 22.5664 11.6964C21.1039 11.5159 19.7458 11.6136 18.1674 11.6467C16.2958 11.6848 15.0752 12.6405 13.0943 13.4057C11.1151 14.1676 8.56612 14.9062 4.96875 14.9062H3.3125V30.8477L4.24497 31.3131L7.29744 32.8153L18.1674 44.9258L18.2188 44.9771C19.4609 46.2061 21.1371 46.5108 22.6178 46.4263C24.1001 46.3435 25.4913 45.9096 26.6027 45.2372C29.049 43.7614 35.7121 39.1289 35.7121 39.1289L35.8678 39.0246L35.9721 38.9219C36.7605 38.1385 37.1563 37.1828 37.4213 36.1791L43.7863 32.9693L48.548 31.3661L49.6875 31.0017V14.9062H48.0312C45.2471 14.9253 42.4864 14.3974 39.9057 13.3527C37.9248 12.5792 36.7224 11.6335 34.8309 11.5937C33.8206 11.5739 32.9047 11.5358 31.9872 11.5424ZM32.0368 14.8549C32.7822 14.8483 33.6434 14.888 34.7299 14.9062C34.9038 14.9129 36.4955 15.5919 38.7148 16.4598C40.5914 17.1968 43.1983 17.8511 46.375 18.0631V28.6217L42.5441 29.9168H42.4414L42.3371 29.9665L37.3186 32.5039C37.0522 31.7353 36.6293 31.0303 36.0764 30.4336L35.9721 30.2779L28.933 21.6356L27.8979 20.3404L26.6027 21.3756L22.1523 24.9994C20.6584 26.0346 19.4477 25.7365 18.2188 25.1551C17.8627 24.9862 17.8825 24.9348 17.5977 24.7411L25.1551 18.4771L25.2578 18.3744C27.502 16.1484 28.8817 15.3783 30.0709 15.0619C30.6671 14.8996 31.2932 14.8615 32.0368 14.8549ZM20.4978 14.9062C21.0504 14.8854 21.6037 14.9026 22.154 14.9576C22.5879 15.0089 23.0798 15.3783 23.5005 15.5273C23.3316 15.683 23.209 15.7725 23.0335 15.9414L22.9308 16.0457L13.8728 23.5486L12.4749 24.6881L13.7171 25.9816C13.7171 25.9816 14.9145 27.2768 16.7712 28.1562C18.6278 29.0357 21.4948 29.5343 24.0686 27.7422L24.173 27.6378L27.3811 24.9994L33.4894 32.5039L33.5407 32.6082L33.5921 32.6579C34.6852 33.7395 34.6603 35.4404 33.5921 36.5418C33.5788 36.5534 33.6053 36.5799 33.5921 36.5915C33.5788 36.5998 33.3602 36.729 33.3337 36.7489L31.159 33.7974L28.4676 35.7651L30.5909 38.6105C29.7297 39.1935 29.3421 39.4982 28.4163 40.1127L26.1919 37.1099L23.4989 39.0776L25.6222 41.923C25.4334 42.0389 25.0458 42.299 24.8967 42.3901C24.3734 42.7064 23.3631 43.0625 22.4637 43.1138C21.6174 43.1602 20.9698 42.9648 20.6534 42.6998L20.6021 42.6484L9.52509 30.3822L9.31806 30.1222L6.625 28.7773V18.0631C9.78844 17.856 12.4152 17.2283 14.2852 16.5112C16.4979 15.6632 18.078 14.9642 18.2701 14.9576L20.4961 14.9062H20.4978Z" fill="#5E81F4"/>
</g>
</svg>
