<svg width="41" height="41" viewBox="0 0 41 41" fill="none" xmlns="http://www.w3.org/2000/svg">
<g id="UI/Activity/Notice">
<circle id="Background" cx="20.5" cy="20.5" r="20" fill="#EB4B4B" fill-opacity="0.2" stroke="#EB4B4B"/>
<path id="Color" fill-rule="evenodd" clip-rule="evenodd" d="M21.1012 9.53468C21.0662 9.23366 20.8104 9 20.5 9C20.1657 9 19.8947 9.27099 19.8947 9.60526V10.8158L19.8988 10.8864C19.9338 11.1874 20.1896 11.4211 20.5 11.4211C20.8343 11.4211 21.1053 11.1501 21.1053 10.8158V9.60526L21.1012 9.53468ZM13.1806 12.3246L13.1186 12.2705L13.0516 12.2262C12.8206 12.0948 12.5216 12.1277 12.3246 12.3246C12.0883 12.561 12.0883 12.9442 12.3246 13.1806L13.172 14.028L13.234 14.0822C13.4712 14.2627 13.8113 14.2447 14.028 14.028C14.2644 13.7916 14.2644 13.4084 14.028 13.172L13.1806 12.3246ZM10.8158 19.8947C11.1501 19.8947 11.4211 20.1657 11.4211 20.5C11.4211 20.8104 11.1874 21.0662 10.8864 21.1012L10.8158 21.1053H9.60526C9.27099 21.1053 9 20.8343 9 20.5C9 20.1896 9.23366 19.9338 9.53468 19.8988L9.60526 19.8947H10.8158ZM31.3947 19.8947C31.729 19.8947 32 20.1657 32 20.5C32 20.8104 31.7663 21.0662 31.4653 21.1012L31.3947 21.1053H30.1842C29.8499 21.1053 29.5789 20.8343 29.5789 20.5C29.5789 20.1896 29.8126 19.9338 30.1136 19.8988L30.1842 19.8947H31.3947ZM28.6754 12.3246C28.892 12.5413 28.9101 12.8814 28.7295 13.1186L28.6754 13.1806L27.828 14.028C27.5916 14.2644 27.2084 14.2644 26.972 14.028C26.7553 13.8113 26.7373 13.4712 26.9178 13.234L26.972 13.172L27.8194 12.3246C28.0558 12.0883 28.439 12.0883 28.6754 12.3246ZM20.5 15.0526C23.4528 15.0526 25.8568 17.402 25.9449 20.3335L25.9474 20.5V24.7368H26.5526C27.5555 24.7368 28.3684 25.5498 28.3684 26.5526V28.9737C28.3684 29.9765 27.5555 30.7895 26.5526 30.7895H14.4474C13.4445 30.7895 12.6316 29.9765 12.6316 28.9737V26.5526C12.6316 25.5498 13.4445 24.7368 14.4474 24.7368H15.0526V20.5C15.0526 17.4915 17.4915 15.0526 20.5 15.0526ZM15.6579 25.9474H14.4474C14.1131 25.9474 13.8421 26.2184 13.8421 26.5526V28.9737C13.8421 29.308 14.1131 29.5789 14.4474 29.5789H26.5526C26.8869 29.5789 27.1579 29.308 27.1579 28.9737V26.5526C27.1579 26.2184 26.8869 25.9474 26.5526 25.9474H25.3421H15.6579ZM24.7368 24.7368H16.2632V20.5L16.2658 20.348C16.3458 18.0785 18.2109 16.2632 20.5 16.2632C22.8399 16.2632 24.7368 18.1601 24.7368 20.5V24.7368Z" fill="#EB4B4B"/>
</g>
</svg>
