<svg width="41" height="43" viewBox="0 0 41 43" fill="none" xmlns="http://www.w3.org/2000/svg">
<g id="teenyicons:contract-outline">
<path id="Vector" d="M12.3 20.0667H10.9333V22.9333H12.3V20.0667ZM28.7 22.9333H30.0667V20.0667H28.7V22.9333ZM12.3 11.4667H10.9333V14.3333H12.3V11.4667ZM17.7667 14.3333H19.1333V11.4667H17.7667V14.3333ZM28.7 1.43333L29.6676 0.418533L29.2658 0H28.7V1.43333ZM36.9 10.0333H38.2667V9.43993L37.8676 9.01853L36.9 10.0333ZM20.5 32.9667L21.1123 34.2481L21.2216 34.1907L21.32 34.1133L20.5 32.9667ZM12.3 22.9333H28.7V20.0667H12.3V22.9333ZM12.3 14.3333H17.7667V11.4667H12.3V14.3333ZM34.1667 40.1333H6.83333V43H34.1667V40.1333ZM5.46666 38.7V4.3H2.73333V38.7H5.46666ZM6.83333 2.86667H28.7V0H6.83333V2.86667ZM35.5333 10.0333V38.7H38.2667V10.0333H35.5333ZM27.7324 2.44813L35.9324 11.0481L37.8676 9.01853L29.6676 0.418533L27.7324 2.44813ZM6.83333 40.1333C6.47087 40.1333 6.12325 39.9823 5.86695 39.7135C5.61065 39.4447 5.46666 39.0801 5.46666 38.7H2.73333C2.73333 39.8404 3.16529 40.9342 3.93419 41.7406C4.70309 42.547 5.74594 43 6.83333 43V40.1333ZM34.1667 43C35.2541 43 36.2969 42.547 37.0658 41.7406C37.8347 40.9342 38.2667 39.8404 38.2667 38.7H35.5333C35.5333 39.0801 35.3893 39.4447 35.133 39.7135C34.8767 39.9823 34.5291 40.1333 34.1667 40.1333V43ZM5.46666 4.3C5.46666 3.91986 5.61065 3.55528 5.86695 3.28648C6.12325 3.01768 6.47087 2.86667 6.83333 2.86667V0C5.74594 0 4.70309 0.453034 3.93419 1.25944C3.16529 2.06585 2.73333 3.15957 2.73333 4.3H5.46666ZM14.9623 33.4196C15.2657 32.465 16.1294 31.5792 17.2309 31.2696C18.2614 30.9801 19.5871 31.1693 20.8991 32.5481L22.8343 30.5185C20.8663 28.4545 18.5457 27.9299 16.523 28.5004C14.5741 29.0508 12.9779 30.6017 12.3683 32.5137L14.9623 33.4196ZM20.8991 32.5481C20.976 32.6264 21.0481 32.7097 21.115 32.7975L23.2743 31.0374C23.138 30.856 22.991 30.6837 22.8343 30.5214L20.8991 32.5481ZM21.115 32.7975C21.3282 33.0842 21.279 33.1759 21.2872 33.1129C21.2927 33.0727 21.3036 33.1387 21.1396 33.2935C20.9033 33.5006 20.6353 33.6644 20.3469 33.7779C20.0005 33.9241 19.6391 34.028 19.27 34.0875C19.0448 34.1325 18.8145 34.1421 18.5867 34.1162C18.5402 34.1047 18.6359 34.1162 18.778 34.2223C18.9523 34.3633 19.0804 34.5578 19.1446 34.7787C19.2087 34.9996 19.2058 35.2359 19.1361 35.4549C19.1206 35.5024 19.0995 35.5477 19.0732 35.5897C19.0677 35.5954 19.1142 35.5323 19.27 35.3976C19.5816 35.1339 20.1556 34.7497 21.1123 34.2509L19.8877 31.6853C18.8573 32.2242 18.0837 32.7173 17.5535 33.1673C17.2846 33.3875 17.0455 33.645 16.8428 33.9327C16.585 34.2946 16.4503 34.7367 16.4601 35.1883C16.4719 35.4527 16.5408 35.7108 16.6615 35.9432C16.7823 36.1756 16.9517 36.3762 17.1571 36.5299C17.466 36.7707 17.8077 36.8739 18.0591 36.9284C18.5703 37.0345 19.1525 37.0058 19.68 36.9227C20.7187 36.7564 22.0635 36.2863 22.9791 35.4148C23.4547 34.959 23.9057 34.3054 24.0014 33.4483C24.0998 32.5711 23.7991 31.7483 23.2716 31.0403L21.115 32.7975ZM21.32 34.1133C21.7573 33.7626 22.2325 33.4672 22.7359 33.2333L21.6507 30.6017C20.9947 30.8998 20.3387 31.304 19.68 31.82L21.32 34.1133ZM22.7359 33.2333C24.5125 32.4277 26.1006 32.852 27.7269 33.6633C28.1369 33.8697 28.536 34.0933 28.9405 34.3226C29.3341 34.5462 29.7496 34.7841 30.1432 34.9963C30.8976 35.3947 31.8324 35.8333 32.8 35.8333V32.9667C32.5431 32.9667 32.1221 32.8319 31.3787 32.4392C31.0288 32.25 30.6625 32.0379 30.2416 31.7999C29.8316 31.5677 29.3779 31.3126 28.9023 31.0775C26.9944 30.1229 24.4989 29.3117 21.6507 30.6017L22.7359 33.2333Z" fill="#E56353"/>
</g>
</svg>
