<svg width="16" height="16" viewBox="0 0 16 16" fill="none" xmlns="http://www.w3.org/2000/svg">
<path d="M10.8346 7.33454H5.16797C4.89464 7.33454 4.66797 7.56121 4.66797 7.83454C4.66797 8.10788 4.89464 8.33454 5.16797 8.33454H10.8346C11.108 8.33454 11.3346 8.10788 11.3346 7.83454C11.3346 7.56121 11.108 7.33454 10.8346 7.33454ZM10.8346 10.3345H5.16797C4.89464 10.3345 4.66797 10.5612 4.66797 10.8345C4.66797 11.1079 4.89464 11.3345 5.16797 11.3345H10.8346C11.108 11.3345 11.3346 11.1079 11.3346 10.8345C11.3346 10.5612 11.108 10.3345 10.8346 10.3345ZM4.66797 4.83454C4.66797 5.10788 4.89464 5.33454 5.16797 5.33454H10.1346L10.0746 5.14788C10.0413 5.05454 9.99463 4.96788 9.93463 4.88788C9.90797 4.85454 9.88797 4.82788 9.8613 4.80121C9.7613 4.70121 9.6413 4.62788 9.51464 4.58788L8.73464 4.33454H5.16797C4.89464 4.33454 4.66797 4.56121 4.66797 4.83454ZM13.2013 8.86121L13.028 8.33454L12.4946 8.14121C12.4346 8.12121 12.388 8.08788 12.3346 8.06121V13.1679C12.3346 13.4412 12.108 13.6679 11.8346 13.6679H4.16797C3.89464 13.6679 3.66797 13.4412 3.66797 13.1679V2.83454C3.66797 2.56121 3.89464 2.33454 4.16797 2.33454H7.85463C7.87463 2.29454 7.88797 2.24788 7.91464 2.20788C8.07464 1.98121 8.3013 1.80788 8.57463 1.71454L9.51464 1.40788C9.5613 1.38788 9.61463 1.36121 9.6613 1.33454H4.16797C3.3413 1.33454 2.66797 2.00788 2.66797 2.83454V13.1679C2.66797 13.9945 3.3413 14.6679 4.16797 14.6679H11.8346C12.6613 14.6679 13.3346 13.9945 13.3346 13.1679V9.11454C13.2798 9.036 13.235 8.95089 13.2013 8.86121ZM10.568 4.10121C10.6213 4.15454 10.6746 4.21454 10.7213 4.28121C10.8546 4.44788 10.9546 4.64121 11.0213 4.84788L11.3213 5.76788C11.348 5.84121 11.3946 5.90121 11.4546 5.94121C11.5146 5.98788 11.588 6.00788 11.6613 6.00788C11.7357 6.00935 11.8085 5.98588 11.868 5.94121C11.9213 5.90121 11.968 5.84788 11.9946 5.78788V5.76788L12.3013 4.84788C12.3946 4.56788 12.548 4.31454 12.7613 4.10788C12.968 3.90121 13.2213 3.74121 13.5013 3.64788L14.4213 3.34788C14.4946 3.32121 14.5546 3.27454 14.5946 3.21454C14.6393 3.15503 14.6628 3.08228 14.6613 3.00788C14.6628 2.93348 14.6393 2.86073 14.5946 2.80121C14.5496 2.74224 14.4898 2.69624 14.4213 2.66788H14.4013L13.4813 2.36788C13.2013 2.27454 12.948 2.12121 12.7413 1.90788C12.5327 1.70017 12.3752 1.44685 12.2813 1.16788L11.9813 0.247878C11.9566 0.177319 11.9098 0.116563 11.848 0.0745442C11.788 0.0345442 11.7146 0.00787749 11.6413 0.00787749C11.5669 0.00640855 11.4942 0.0298767 11.4346 0.0745442C11.3746 0.114544 11.328 0.181211 11.3013 0.247878L11.0013 1.16788V1.18788C10.9013 1.45454 10.748 1.70121 10.5546 1.90121C10.348 2.10788 10.1013 2.26788 9.8213 2.36121L8.9013 2.66121C8.82797 2.68788 8.76797 2.73454 8.72797 2.79454C8.6833 2.85406 8.65983 2.92681 8.6613 3.00121C8.6613 3.07454 8.6813 3.14788 8.72797 3.20788C8.76797 3.26788 8.83464 3.31454 8.9013 3.34121L9.8213 3.64121C10.1013 3.73454 10.3546 3.89454 10.5613 4.10121H10.568ZM15.8546 6.81454C15.8973 6.81454 15.9413 6.85454 15.968 6.88788C15.9946 6.92121 16.0013 6.96121 16.0013 7.00121C16.0013 7.04121 15.9946 7.08121 15.968 7.11454C15.9413 7.14788 15.908 7.17454 15.868 7.18788L15.3546 7.35454C15.2013 7.40788 15.0613 7.49454 14.9413 7.60788C14.828 7.72121 14.7413 7.86121 14.688 8.02121L14.5213 8.52788C14.508 8.56788 14.4813 8.60121 14.448 8.62788C14.4158 8.65363 14.3758 8.66766 14.3346 8.66766C14.2934 8.66766 14.2535 8.65363 14.2213 8.62788C14.1877 8.60235 14.1622 8.56761 14.148 8.52788L13.9813 8.02121C13.928 7.86788 13.8413 7.72121 13.728 7.60788C13.6146 7.49454 13.468 7.40121 13.3146 7.35454L12.8013 7.18788C12.7616 7.17363 12.7268 7.14815 12.7013 7.11454C12.6756 7.08238 12.6615 7.04241 12.6615 7.00121C12.6615 6.96001 12.6756 6.92004 12.7013 6.88788C12.728 6.85454 12.7613 6.82788 12.8013 6.81454L13.3146 6.64788C13.468 6.59454 13.608 6.50788 13.7213 6.39454C13.8346 6.28121 13.9213 6.14121 13.968 5.98788L14.1346 5.48121C14.148 5.44121 14.1746 5.40788 14.208 5.38121C14.2401 5.35546 14.2801 5.34143 14.3213 5.34143C14.3625 5.34143 14.4025 5.35546 14.4346 5.38121C14.468 5.40788 14.4946 5.44121 14.508 5.48121L14.6746 5.98788C14.728 6.14121 14.8146 6.28121 14.928 6.40121C15.0413 6.51454 15.1813 6.60121 15.3413 6.65454L15.8546 6.81454Z" fill="white"/>
</svg>
